<svg xmlns="http://www.w3.org/2000/svg" version="1.1"><polyline points="95.0,5.5,81.0,13.5" stroke="black" stroke-width="2" fill="none" />
<polyline points="90.0,15.0,98.0,15.0,106.5,14.5,115.0,14.0,123.5,13.5,132.0,13.0,140.5,12.0,148.5,11.0,156.5,10.5,164.0,9.5,171.5,9.5,179.5,8.5,187.0,7.5,195.0,7.0,203.5,7.0,212.0,6.5,219.5,6.0,227.0,5.5,234.5,5.5" stroke="black" stroke-width="2" fill="none" />
<polyline points="236.5,13.5,228.5,13.5,221.5,13.5,213.5,13.5,205.5,14.0,197.5,13.5,189.0,14.0,180.5,13.5,172.5,13.5,164.5,14.0,156.5,14.5,148.5,15.5,139.5,16.0,131.0,17.0,122.5,18.0,114.5,19.0,106.5,20.0,99.0,21.0,91.0,22.0,83.0,23.0,75.0,24.0" stroke="black" stroke-width="2" fill="none" />
<polyline points="61.5,18.5,53.0,26.0" stroke="black" stroke-width="2" fill="none" />
<polyline points="45.5,29.0,37.5,36.0,29.5,43.5,20.5,51.0,12.0,58.0" stroke="black" stroke-width="2" fill="none" />
<polyline points="10.5,58.5,18.5,58.0,26.0,57.5,34.0,57.0" stroke="black" stroke-width="2" fill="none" />
<polyline points="36.0,66.5,28.0,74.0,20.0,81.5,12.0,89.0" stroke="black" stroke-width="2" fill="none" />
<polyline points="13.0,89.0,21.0,88.5" stroke="black" stroke-width="2" fill="none" />
<polyline points="21.0,92.0,13.0,99.5" stroke="black" stroke-width="2" fill="none" />
<polyline points="20.0,100.5,12.0,107.5" stroke="black" stroke-width="2" fill="none" />
<polyline points="6.5,111.5,14.0,110.5,21.5,109.5,29.0,108.5,36.5,107.5,44.0,106.5,51.0,105.5,59.0,105.0,67.5,104.0,76.0,103.5,84.5,103.0,92.5,102.5,100.0,102.0,107.5,101.5,115.0,101.5,123.5,101.5,131.5,101.5,139.5,102.0,148.0,102.5,156.0,102.5,164.0,102.5,172.0,101.5,180.0,100.5,188.0,99.5,196.5,99.0,205.0,98.0,213.0,97.5" stroke="black" stroke-width="2" fill="none" />
<polyline points="194.5,97.0,186.5,104.5,178.0,112.5" stroke="black" stroke-width="2" fill="none" />
<polyline points="172.5,113.0,181.0,105.5,189.0,98.0" stroke="black" stroke-width="2" fill="none" />
<polyline points="179.0,100.5,171.0,108.0" stroke="black" stroke-width="2" fill="none" />
<polyline points="162.0,117.0,154.5,125.0,146.5,133.0,138.5,141.0,131.0,148.0,123.0,155.5,115.5,163.0,108.0,170.0,100.0,177.0" stroke="black" stroke-width="2" fill="none" />
<polyline points="97.5,178.0,105.5,178.0,113.0,178.0,121.0,177.5,130.0,177.0,138.5,176.5,146.5,176.0,154.5,175.5,163.5,174.5,172.0,173.0,181.0,172.5" stroke="black" stroke-width="2" fill="none" />
<polyline points="188.0,170.5,180.0,178.0,171.5,185.5,163.0,193.5,154.5,201.5,146.0,209.5,138.0,217.0,130.0,224.5,122.5,231.5" stroke="black" stroke-width="2" fill="none" />
<polyline points="122.5,233.0,130.5,233.0,138.5,232.5" stroke="black" stroke-width="2" fill="none" />
<polyline points="130.5,233.0,138.5,224.5,147.0,217.0,154.5,209.0,163.0,201.5,171.0,193.5,179.0,186.0,186.5,178.0" stroke="black" stroke-width="2" fill="none" />
<polyline points="180.0,180.5,171.5,181.5,163.0,182.0,154.5,182.5,146.5,183.0,138.5,184.0,130.5,185.0,121.5,185.5,113.0,186.0,105.0,187.0,97.0,187.0" stroke="black" stroke-width="2" fill="none" />
<polyline points="98.5,190.5,107.0,183.5,115.5,175.5,123.0,168.0,130.5,160.0,139.0,152.5,147.5,145.5,156.0,138.0,164.0,130.0,172.5,122.5" stroke="black" stroke-width="2" fill="none" />
<polyline points="179.0,122.5,171.0,130.5,163.5,138.0,156.0,145.5,148.5,152.5,140.5,160.5,133.0,168.0,125.0,175.5,117.0,183.0,108.5,191.5" stroke="black" stroke-width="2" fill="none" />
<polyline points="107.5,193.0,115.5,193.0,123.0,192.5,130.5,192.0,138.5,191.0,146.5,190.5,154.5,189.5,162.5,189.0,170.5,188.5,178.5,187.5" stroke="black" stroke-width="2" fill="none" />
<polyline points="178.5,192.5,170.5,193.0,163.0,193.5,155.0,193.5,147.0,193.5,139.0,194.0,131.0,194.5,122.5,195.0,114.0,195.0,106.0,195.5,98.0,196.5,90.0,197.0" stroke="black" stroke-width="2" fill="none" />
<polyline points="89.0,190.0,97.0,189.5,105.5,188.5,113.5,188.0,122.0,187.5,130.5,186.5,138.5,186.5,146.5,186.0,154.5,185.5,162.0,185.0,170.0,184.5,178.0,183.5,186.0,183.0" stroke="black" stroke-width="2" fill="none" />
<polyline points="188.0,184.5,180.0,193.5,185.0,189.5,189.5,181.0,191.5,173.0" stroke="black" stroke-width="2" fill="none" />
<polyline points="187.5,163.0,179.5,171.0,171.0,178.5,162.5,186.0,154.5,194.0,146.0,201.5,138.0,209.0,130.0,217.5,122.5,225.0" stroke="black" stroke-width="2" fill="none" />
<polyline points="123.5,226.5,131.5,225.5,139.0,224.5,147.0,224.0" stroke="black" stroke-width="2" fill="none" />
<polyline points="148.0,227.0,140.0,234.5" stroke="black" stroke-width="2" fill="none" />
<polyline points="138.0,244.0,130.0,244.5,122.0,245.5" stroke="black" stroke-width="2" fill="none" />
<polyline points="116.5,236.5,124.0,236.5,132.0,236.0,140.5,235.5,149.0,235.0" stroke="black" stroke-width="2" fill="none" />
<polyline points="155.5,216.0,148.5,216.0,140.5,216.5,132.5,217.0,124.5,218.0" stroke="black" stroke-width="2" fill="none" />
<polyline points="123.0,216.5,131.0,209.0,140.0,201.0,148.5,193.0,156.0,186.0,163.5,179.0,171.0,171.5,178.5,164.0,186.5,157.0" stroke="black" stroke-width="2" fill="none" />
<polyline points="189.0,147.0,180.5,154.5,172.5,162.0,164.5,169.5,156.0,176.5,147.5,184.0,139.0,192.0,130.5,199.5,121.5,207.0,113.0,215.0" stroke="black" stroke-width="2" fill="none" />
<polyline points="116.5,216.0,124.0,215.5,132.0,214.5,140.0,214.0,148.5,213.5,156.5,213.0,164.5,212.5" stroke="black" stroke-width="2" fill="none" />
<polyline points="155.0,219.0,147.5,219.5,140.0,220.5,133.0,221.5,125.5,222.5,117.5,223.0" stroke="black" stroke-width="2" fill="none" />
<polyline points="116.5,229.5,124.5,229.0,132.5,228.5,140.0,228.0,147.5,227.0" stroke="black" stroke-width="2" fill="none" />
<polyline points="155.0,206.5,147.5,207.5,139.5,208.5,131.5,209.5,124.0,210.0,116.0,210.5" stroke="black" stroke-width="2" fill="none" />
<polyline points="113.5,208.0,121.5,200.5,130.0,193.5,138.5,186.0,147.0,179.0,155.0,171.0,163.5,163.0,172.0,155.5,180.5,148.0" stroke="black" stroke-width="2" fill="none" />
<polyline points="180.5,140.5,173.0,148.0,165.0,155.0,156.5,162.0,148.0,169.0,139.5,176.0,131.5,183.5,123.0,191.5,114.5,199.0" stroke="black" stroke-width="2" fill="none" />
<polyline points="115.5,201.5,124.0,201.0,132.0,200.0,140.5,199.5,148.5,198.5,156.5,197.5,164.5,197.0" stroke="black" stroke-width="2" fill="none" />
<polyline points="167.0,197.5,160.0,206.0,155.0,213.5,148.5,221.5,147.5,226.0,132.0,233.5,133.0,233.0,141.5,229.0,149.0,221.0,157.0,212.5,165.0,199.5,173.5,196.5" stroke="black" stroke-width="2" fill="none" />
<polyline points="195.0,175.0,186.5,175.5,178.5,176.0,170.5,176.0,162.5,177.0,155.0,177.5,147.0,178.0,139.5,178.5,131.5,179.0,123.0,179.5,115.0,180.0,106.5,181.0,98.5,182.0,90.5,182.5" stroke="black" stroke-width="2" fill="none" />
<polyline points="90.5,174.0,98.5,167.0,106.5,159.0,115.0,151.5,123.0,144.0,131.0,137.0,139.5,130.0,148.0,123.0,156.5,115.5" stroke="black" stroke-width="2" fill="none" />
<polyline points="156.5,106.0,148.0,114.0,139.5,122.0,131.5,129.5,123.5,137.0,115.0,144.0,107.0,151.5,99.0,159.0,91.0,166.5" stroke="black" stroke-width="2" fill="none" />
<polyline points="83.0,167.5,91.5,159.5,99.5,151.5,107.5,144.0,116.0,136.5,125.0,129.0,133.5,122.0,142.0,114.5,150.0,107.5" stroke="black" stroke-width="2" fill="none" />
<polyline points="138.5,105.0,131.0,113.0,123.5,121.0,115.5,129.0,107.5,136.5,99.0,143.5,91.0,152.0,83.0,160.0,75.0,168.0" stroke="black" stroke-width="2" fill="none" />
<polyline points="71.0,170.5,60.0,178.5,56.5,186.5,55.0,194.5,55.0,202.0,56.0,209.5,58.0,217.5,61.0,225.0,63.5,233.0,69.0,240.5,73.0,248.0,81.0,256.5" stroke="black" stroke-width="2" fill="none" />
<polyline points="68.0,249.0,60.0,256.5" stroke="black" stroke-width="2" fill="none" />
<polyline points="59.5,241.5,51.5,249.5,44.0,257.5,36.0,265.5,28.5,272.5,20.5,279.5,13.0,287.0" stroke="black" stroke-width="2" fill="none" />
<polyline points="20.0,288.5,27.5,280.5,35.5,272.5,44.0,264.5,51.5,256.5,59.5,248.5,67.0,241.0" stroke="black" stroke-width="2" fill="none" />
<polyline points="57.5,233.5,49.5,240.5,41.0,248.0,33.5,255.5,26.5,263.0,19.0,270.5,12.0,278.5" stroke="black" stroke-width="2" fill="none" />
<polyline points="11.0,272.0,18.5,264.0,26.5,256.0,34.0,248.5,42.0,241.0,50.0,233.5,58.0,226.0" stroke="black" stroke-width="2" fill="none" />
<polyline points="59.5,223.5,67.5,240.5,74.0,250.0,82.5,258.0,90.5,262.0,98.5,260.0" stroke="black" stroke-width="2" fill="none" />
<polyline points="98.0,261.5,106.0,260.5" stroke="black" stroke-width="2" fill="none" />
<polyline points="97.5,260.5,102.5,252.5" stroke="black" stroke-width="2" fill="none" />
<polyline points="99.0,236.0,91.5,236.5" stroke="black" stroke-width="2" fill="none" />
<polyline points="91.0,228.0,98.5,227.5" stroke="black" stroke-width="2" fill="none" />
<polyline points="98.5,219.5,90.5,220.0" stroke="black" stroke-width="2" fill="none" />
<polyline points="82.0,215.0,90.5,214.0,99.0,213.5,107.0,212.5" stroke="black" stroke-width="2" fill="none" />
<polyline points="109.5,208.0,102.5,216.0,101.5,224.0,101.5,231.5" stroke="black" stroke-width="2" fill="none" />
<polyline points="102.0,215.0,109.5,212.0,116.5,220.5,119.0,228.0" stroke="black" stroke-width="2" fill="none" />
<polyline points="107.5,199.0,115.5,191.0,123.0,183.5,131.0,176.5,139.0,169.0,146.5,161.5,154.5,154.5,163.0,147.5,171.0,140.0,179.5,132.5" stroke="black" stroke-width="2" fill="none" />
<polyline points="162.5,124.0,154.5,131.5,146.5,139.5,138.0,147.0,130.5,155.0,123.0,162.5,115.5,170.0,108.0,177.0,101.0,185.0" stroke="black" stroke-width="2" fill="none" />
<polyline points="95.0,202.0,87.5,202.5,79.5,203.0" stroke="black" stroke-width="2" fill="none" />
<polyline points="83.5,208.0,92.0,207.5,100.0,206.5,108.0,205.0,115.5,203.5,123.5,202.5,132.0,201.5,140.0,201.5,148.0,201.0,155.5,200.5,163.5,200.0" stroke="black" stroke-width="2" fill="none" />
<polyline points="146.0,145.5,138.0,146.5,129.5,146.5" stroke="black" stroke-width="2" fill="none" />
<polyline points="129.0,139.0,137.0,138.5,145.5,138.0" stroke="black" stroke-width="2" fill="none" />
<polyline points="131.5,80.5,123.5,81.0" stroke="black" stroke-width="2" fill="none" />
<polyline points="130.0,53.5,121.5,60.5,114.0,67.5,106.5,74.5,98.5,82.5,91.0,90.0,83.5,97.0,76.0,104.5,68.0,112.5,59.5,120.0,51.5,127.5,43.0,135.0,35.0,142.5,26.5,149.5,18.5,156.5" stroke="black" stroke-width="2" fill="none" />
<polyline points="20.5,161.0,28.5,160.5,36.0,160.5,43.5,160.0,51.0,159.0,59.0,158.5,66.5,158.0,74.5,158.0,83.0,157.5,91.0,157.0,99.0,157.0,107.0,156.5,115.0,156.0,123.5,155.5,132.0,156.0,140.0,155.5,148.0,155.0,156.0,154.0,164.0,153.0,171.5,152.0,179.5,151.5" stroke="black" stroke-width="2" fill="none" />
<polyline points="179.0,161.0,171.5,162.0,164.0,162.5,156.5,163.5,148.5,164.0,140.5,164.5,132.0,165.0,124.0,165.5,116.0,166.5,108.5,167.0,100.5,167.0,92.5,167.5,85.0,167.5,77.0,167.5,69.0,168.0,61.5,168.5,53.5,169.0,46.0,169.5,38.5,170.0,30.5,170.5" stroke="black" stroke-width="2" fill="none" />
<polyline points="20.0,175.5,28.0,175.5,36.5,175.5,44.5,175.5,52.5,175.0,60.0,175.5" stroke="black" stroke-width="2" fill="none" />
<polyline points="60.0,187.0,52.0,194.0,43.5,202.0,35.5,209.5,27.5,216.5,19.5,224.0,11.5,231.5" stroke="black" stroke-width="2" fill="none" />
<polyline points="12.0,230.0,19.5,229.5,27.5,228.5,35.5,228.0,43.5,227.5,51.5,226.5,60.0,226.5,68.0,226.0" stroke="black" stroke-width="2" fill="none" />
<polyline points="58.5,218.0,51.0,225.5,43.0,233.0,35.0,241.0,27.0,248.5,19.5,256.0" stroke="black" stroke-width="2" fill="none" />
<polyline points="21.0,257.5,29.0,257.0,37.5,256.5,45.0,256.0" stroke="black" stroke-width="2" fill="none" />
<polyline points="36.5,263.0,29.0,263.0,21.0,263.5" stroke="black" stroke-width="2" fill="none" />
<polyline points="11.0,259.5,19.5,259.0,28.0,258.5,36.5,258.5,45.0,258.5,53.0,258.5,61.0,258.0,69.0,257.5,76.5,257.5,85.0,257.0" stroke="black" stroke-width="2" fill="none" />
<polyline points="89.5,271.5,97.5,270.5,105.5,269.5,114.0,269.0" stroke="black" stroke-width="2" fill="none" />
<polyline points="115.5,292.5,107.0,293.0,99.0,293.5,91.0,294.0" stroke="black" stroke-width="2" fill="none" />
<polyline points="88.5,302.5,97.0,302.5,105.0,302.5,113.5,302.0" stroke="black" stroke-width="2" fill="none" />
<polyline points="122.0,308.0,114.0,308.0,106.0,308.0,98.0,308.5" stroke="black" stroke-width="2" fill="none" />
<polyline points="99.5,319.0,108.0,318.0,115.5,317.5,123.5,316.5,131.0,316.0" stroke="black" stroke-width="2" fill="none" />
<polyline points="140.5,331.5,133.0,331.5,125.0,331.5,116.5,332.0,108.0,332.5" stroke="black" stroke-width="2" fill="none" />
<polyline points="108.0,340.0,116.0,339.5,124.0,339.0,132.0,338.5,140.0,338.0,147.5,338.0" stroke="black" stroke-width="2" fill="none" />
<polyline points="139.5,347.5,131.5,355.0" stroke="black" stroke-width="2" fill="none" />
<polyline points="134.0,361.5,141.5,354.0" stroke="black" stroke-width="2" fill="none" />
<polyline points="148.5,353.5,140.5,361.5" stroke="black" stroke-width="2" fill="none" />
<polyline points="141.0,369.0,149.5,361.5" stroke="black" stroke-width="2" fill="none" />
<polyline points="150.5,369.5,142.0,376.5" stroke="black" stroke-width="2" fill="none" />
<polyline points="140.0,375.5,148.0,374.5,156.0,374.0,163.5,373.0,171.0,372.0" stroke="black" stroke-width="2" fill="none" />
<polyline points="163.5,380.0,155.5,387.0,148.0,395.0" stroke="black" stroke-width="2" fill="none" />
<polyline points="155.0,394.0,163.0,393.0" stroke="black" stroke-width="2" fill="none" />
<polyline points="165.0,385.5,157.0,393.0,149.5,401.0,141.0,409.0" stroke="black" stroke-width="2" fill="none" />
<polyline points="149.0,409.5,157.0,409.0,165.0,409.0,172.5,409.0,180.0,409.0,187.5,409.0,195.5,408.5,203.5,407.5,211.0,406.5,219.0,405.5,227.5,405.0,234.5,405.0,242.5,404.5,250.5,404.5,258.5,403.5" stroke="black" stroke-width="2" fill="none" />
<polyline points="266.0,404.0,258.0,411.5,250.5,418.5,242.5,426.0,234.5,433.5,227.0,440.5,219.5,448.0,211.5,455.0,203.5,462.0" stroke="black" stroke-width="2" fill="none" />
<polyline points="260.0,464.0,268.0,456.5,275.5,449.0,282.5,441.5,289.5,434.0,297.0,427.0,304.5,420.0" stroke="black" stroke-width="2" fill="none" />
<polyline points="299.5,412.0,291.0,419.0,282.5,426.0,274.5,433.0,266.0,440.5,258.0,448.5,250.0,455.5,242.5,463.0" stroke="black" stroke-width="2" fill="none" />
<polyline points="274.5,464.5,281.5,457.0,289.5,449.0,297.5,441.0,305.0,434.0,313.0,427.0" stroke="black" stroke-width="2" fill="none" />
<polyline points="314.0,419.5,306.0,426.5,298.5,434.0,291.0,441.0,283.0,448.5,275.5,456.0,267.5,463.5" stroke="black" stroke-width="2" fill="none" />
<polyline points="306.5,466.0,314.5,459.0,322.5,451.5,330.5,444.0,338.5,436.5" stroke="black" stroke-width="2" fill="none" />
<polyline points="330.5,436.0,322.5,443.5,315.0,452.0,307.5,460.0,299.5,467.5" stroke="black" stroke-width="2" fill="none" />
<polyline points="331.0,466.0,339.0,458.5,347.0,451.5,355.5,444.0,363.5,436.5" stroke="black" stroke-width="2" fill="none" />
<polyline points="369.5,434.0,361.5,442.0,354.5,449.5,347.0,457.0,339.5,465.0" stroke="black" stroke-width="2" fill="none" />
<polyline points="365.0,467.0,373.5,459.5,381.5,452.0,390.0,444.0,398.0,436.5" stroke="black" stroke-width="2" fill="none" />
<polyline points="402.5,437.0,395.0,444.0,387.5,451.0,380.5,458.0,373.0,465.5" stroke="black" stroke-width="2" fill="none" />
<polyline points="388.5,466.0,397.0,459.0,404.5,451.5" stroke="black" stroke-width="2" fill="none" />
<polyline points="404.0,457.5,396.0,465.0" stroke="black" stroke-width="2" fill="none" />
<polyline points="380.5,467.0,388.5,459.5,397.0,452.0,405.0,445.0" stroke="black" stroke-width="2" fill="none" />
<polyline points="378.5,444.5,370.5,451.5,363.0,459.0,355.0,466.0" stroke="black" stroke-width="2" fill="none" />
<polyline points="346.0,465.5,353.5,457.0,361.5,449.0,369.5,441.0,377.0,433.5" stroke="black" stroke-width="2" fill="none" />
<polyline points="354.5,436.5,347.0,444.0,339.5,451.5,332.0,459.0,324.5,466.0" stroke="black" stroke-width="2" fill="none" />
<polyline points="314.5,465.5,323.0,458.0,331.0,450.5,338.5,443.0,346.5,435.5" stroke="black" stroke-width="2" fill="none" />
<polyline points="321.5,435.5,313.5,443.5,306.0,451.0,299.0,458.5,291.5,466.0" stroke="black" stroke-width="2" fill="none" />
<polyline points="281.5,466.0,289.5,458.5,297.0,450.5,305.0,442.0,313.0,433.5,321.0,426.0" stroke="black" stroke-width="2" fill="none" />
<polyline points="306.5,410.5,298.5,418.0,290.5,425.5,283.0,433.0,275.0,440.5,267.5,448.0,259.5,455.0,251.0,463.0" stroke="black" stroke-width="2" fill="none" />
<polyline points="236.5,464.5,245.5,456.5,253.5,448.5,261.5,440.5,269.0,433.0,276.5,426.0,284.5,419.0,292.0,412.0" stroke="black" stroke-width="2" fill="none" />
<polyline points="284.5,411.0,276.0,419.0,268.0,426.5,259.5,434.5,251.5,442.0,243.5,449.5,235.5,456.5,227.5,464.0" stroke="black" stroke-width="2" fill="none" />
<polyline points="219.5,462.0,227.5,454.5,235.5,447.0,243.5,439.5,252.0,432.0,260.0,424.5,267.5,418.0,275.5,411.0,283.0,404.5" stroke="black" stroke-width="2" fill="none" />
<polyline points="274.5,403.0,266.5,411.0,258.5,418.5,250.5,425.5,242.5,432.5,234.5,439.5,227.0,447.0,219.5,454.5,212.0,461.5" stroke="black" stroke-width="2" fill="none" />
<polyline points="197.5,463.0,205.0,455.5,212.5,448.0,220.0,440.5,227.5,433.0,235.5,425.5,243.0,418.5,250.5,410.5,258.5,402.5,266.5,395.5" stroke="black" stroke-width="2" fill="none" />
<polyline points="259.0,395.0,251.0,402.5,243.5,409.5,235.5,417.0,228.0,425.0,220.0,432.5,212.5,440.5,204.5,448.5,196.5,456.5,188.0,464.0" stroke="black" stroke-width="2" fill="none" />
<polyline points="180.0,462.0,188.0,454.5,196.0,447.5,204.0,440.0,212.5,432.0,220.5,424.5,228.5,417.5,236.5,410.0,244.0,402.5,252.0,394.5,260.0,387.0" stroke="black" stroke-width="2" fill="none" />
<polyline points="253.5,387.0,245.5,395.0,237.0,402.5,228.0,410.0,219.5,417.5,211.5,424.5,203.5,432.0,196.0,439.5,188.5,446.5,181.0,454.0,173.0,461.5" stroke="black" stroke-width="2" fill="none" />
<polyline points="164.0,460.5,172.5,453.0,180.5,446.0,188.5,438.5,196.5,431.5,204.5,424.5,212.5,417.5,220.5,410.0,228.5,402.0,236.5,394.0,244.0,386.5" stroke="black" stroke-width="2" fill="none" />
<polyline points="244.5,381.0,236.0,388.0,227.5,395.5,219.5,403.0,211.0,410.0,202.5,418.0,195.0,425.0,187.5,432.0,180.0,439.5,172.5,447.0,164.5,454.5,157.0,462.0" stroke="black" stroke-width="2" fill="none" />
<polyline points="148.5,464.5,156.5,456.5,164.5,449.0,172.5,441.0,180.0,434.0,188.0,426.5,196.0,418.5,204.5,410.0,212.5,402.5" stroke="black" stroke-width="2" fill="none" />
<polyline points="202.0,403.0,194.0,410.5,186.5,418.0,179.0,426.0,171.0,434.0,163.5,442.5,155.5,449.5,147.5,457.0,139.0,464.5" stroke="black" stroke-width="2" fill="none" />
<polyline points="133.5,463.5,140.5,456.0,148.0,449.0,155.5,441.5,162.5,434.0,170.5,426.0,179.0,417.5,187.0,409.0,194.5,401.5,202.5,394.0" stroke="black" stroke-width="2" fill="none" />
<polyline points="195.5,395.0,187.0,402.0,178.5,409.0,170.5,417.0,163.0,424.5,154.5,432.0,146.5,440.5,138.5,448.5,130.5,456.0,122.0,464.0" stroke="black" stroke-width="2" fill="none" />
<polyline points="115.0,464.0,123.5,456.0,131.5,448.5,139.0,441.0,147.0,433.5,155.0,425.0,162.5,417.0,170.0,409.0,178.5,401.5,186.5,394.0" stroke="black" stroke-width="2" fill="none" />
<polyline points="179.0,396.0,171.0,403.5,163.0,410.5,155.0,418.0,147.0,425.0,138.5,432.5,130.0,440.0,121.5,447.0,113.0,454.5,105.0,462.5" stroke="black" stroke-width="2" fill="none" />
<polyline points="98.0,462.5,106.0,455.0,113.5,447.5,121.5,439.5,129.5,431.0,137.5,423.5,146.0,416.5,155.0,409.5,163.0,402.5,171.0,395.0,178.5,387.0" stroke="black" stroke-width="2" fill="none" />
<polyline points="178.5,387.0,186.5,392.0,194.5,396.0,202.0,397.0,210.0,397.5,218.0,399.0" stroke="black" stroke-width="2" fill="none" />
<polyline points="220.5,389.5,228.0,388.5,236.0,388.5,244.0,388.0,252.5,387.5,261.5,387.0,269.5,387.0" stroke="black" stroke-width="2" fill="none" />
<polyline points="266.5,407.5,275.0,407.0" stroke="black" stroke-width="2" fill="none" />
<polyline points="299.5,390.0,307.5,389.5,315.5,388.5,323.0,388.0,330.5,387.5,338.5,387.0,346.0,387.0,354.0,386.5,362.0,386.5,370.5,386.0,379.0,385.5,386.5,385.0,394.0,383.5,402.5,382.5,410.5,382.0,419.0,381.0,427.5,380.0,436.0,379.0,444.5,378.5,452.0,378.0,460.0,378.0,468.5,377.0,476.5,377.0,484.5,377.0,492.5,377.0,500.5,376.5,509.0,376.0,517.5,375.5" stroke="black" stroke-width="2" fill="none" />
<polyline points="508.5,331.0,500.5,332.0,492.0,332.5,484.0,332.5,476.5,333.0" stroke="black" stroke-width="2" fill="none" />
<polyline points="465.5,324.5,473.5,324.5,482.0,324.0,490.5,323.5,499.0,323.0,507.0,322.0" stroke="black" stroke-width="2" fill="none" />
<polyline points="509.0,316.5,500.5,317.5,492.5,318.5,484.5,319.0" stroke="black" stroke-width="2" fill="none" />
<polyline points="484.0,311.5,492.0,311.5,500.0,310.5,508.0,310.0" stroke="black" stroke-width="2" fill="none" />
<polyline points="450.0,310.0,442.5,310.5" stroke="black" stroke-width="2" fill="none" />
<polyline points="433.0,317.5,441.5,317.0,450.0,316.0,458.5,315.5" stroke="black" stroke-width="2" fill="none" />
<polyline points="459.0,322.5,451.0,323.0,443.5,323.5,435.0,324.0" stroke="black" stroke-width="2" fill="none" />
<polyline points="429.5,309.5,421.5,309.5,413.5,309.5" stroke="black" stroke-width="2" fill="none" />
<polyline points="435.0,270.5,442.5,270.0" stroke="black" stroke-width="2" fill="none" />
<polyline points="449.5,262.0,441.0,263.0,433.0,263.5" stroke="black" stroke-width="2" fill="none" />
<polyline points="435.5,252.0,443.5,251.5,451.5,251.5,459.5,251.0" stroke="black" stroke-width="2" fill="none" />
<polyline points="459.5,243.0,451.5,250.5" stroke="black" stroke-width="2" fill="none" />
<polyline points="447.0,246.0,448.0,253.5,450.0,261.5,456.0,265.0,463.5,268.0" stroke="black" stroke-width="2" fill="none" />
<polyline points="444.5,249.0,452.5,241.0,460.5,233.5" stroke="black" stroke-width="2" fill="none" />
<polyline points="459.5,225.5,451.5,233.5,443.5,241.5" stroke="black" stroke-width="2" fill="none" />
<polyline points="443.5,238.0,451.5,237.5,460.0,237.5" stroke="black" stroke-width="2" fill="none" />
<polyline points="458.0,240.5,450.0,241.0" stroke="black" stroke-width="2" fill="none" />
<polyline points="443.5,245.5,443.5,248.5,444.5,256.5,445.0,264.5,441.0,269.5" stroke="black" stroke-width="2" fill="none" />
<polyline points="442.5,246.0,450.5,245.5,459.0,245.0" stroke="black" stroke-width="2" fill="none" />
<polyline points="458.5,231.0,450.5,231.5" stroke="black" stroke-width="2" fill="none" />
<polyline points="445.0,230.0,452.5,229.5,460.5,229.5" stroke="black" stroke-width="2" fill="none" />
<polyline points="459.5,223.0,451.5,223.0" stroke="black" stroke-width="2" fill="none" />
<polyline points="444.5,232.5,452.5,225.5,460.0,218.5,468.0,211.5" stroke="black" stroke-width="2" fill="none" />
<polyline points="467.0,202.5,458.5,210.0,451.0,217.0,443.0,225.0" stroke="black" stroke-width="2" fill="none" />
<polyline points="444.0,217.5,452.5,209.5,460.5,202.0,468.5,195.0" stroke="black" stroke-width="2" fill="none" />
<polyline points="460.5,196.0,468.0,188.5,475.5,181.5" stroke="black" stroke-width="2" fill="none" />
<polyline points="468.0,181.5,476.0,173.5" stroke="black" stroke-width="2" fill="none" />
<polyline points="467.5,170.5,475.5,163.5" stroke="black" stroke-width="2" fill="none" />
<polyline points="470.0,163.5,478.0,156.0,486.0,148.5" stroke="black" stroke-width="2" fill="none" />
<polyline points="485.0,141.0,477.0,149.0,469.0,156.0" stroke="black" stroke-width="2" fill="none" />
<polyline points="460.0,155.5,468.5,147.5,476.5,140.0,484.5,132.5" stroke="black" stroke-width="2" fill="none" />
<polyline points="476.5,131.5,484.5,124.0" stroke="black" stroke-width="2" fill="none" />
<polyline points="477.0,124.5,485.0,117.5,493.0,110.0" stroke="black" stroke-width="2" fill="none" />
<polyline points="499.0,102.5,491.0,102.5,483.0,103.0" stroke="black" stroke-width="2" fill="none" />
<polyline points="483.0,94.5,491.0,88.5,484.5,92.5,479.0,101.5,475.0,110.0,466.0,118.0,458.5,127.0,455.0,135.0,448.5,144.0,440.5,152.5,434.5,160.5,427.5,168.5,426.5,176.0,429.0,184.0,425.0,192.0,421.5,199.5,420.5,208.0,421.5,216.0" stroke="black" stroke-width="2" fill="none" />
<polyline points="420.5,211.5,428.5,211.0,437.0,210.5,445.5,210.5,453.5,210.0,462.0,210.0,469.5,209.5" stroke="black" stroke-width="2" fill="none" />
<polyline points="444.0,203.0,436.0,210.5" stroke="black" stroke-width="2" fill="none" />
<polyline points="429.0,211.0,433.0,213.5,432.5,221.5,433.5,227.0" stroke="black" stroke-width="2" fill="none" />
<polyline points="430.0,221.0,438.0,220.5,445.5,220.0,453.0,219.5,460.5,219.0,468.5,219.0" stroke="black" stroke-width="2" fill="none" />
<polyline points="468.5,202.0,460.5,202.5,452.0,202.5,444.0,203.0,436.5,203.5,429.5,204.5,422.0,205.0" stroke="black" stroke-width="2" fill="none" />
<polyline points="424.5,204.0,427.5,207.0,428.0,215.5,429.0,223.5,438.0,233.0,437.0,241.0,437.0,249.5" stroke="black" stroke-width="2" fill="none" />
<polyline points="436.5,202.5,444.5,195.0" stroke="black" stroke-width="2" fill="none" />
<polyline points="442.0,201.0,440.0,209.0,437.0,213.0,436.5,220.5,441.0,221.0,442.0,229.0,442.0,237.0,440.5,245.5,440.5,253.5,439.5,261.5,439.5,270.0,441.5,277.5,444.0,285.5" stroke="black" stroke-width="2" fill="none" />
<polyline points="428.0,201.0,436.5,194.0,445.0,186.5" stroke="black" stroke-width="2" fill="none" />
<polyline points="442.5,179.5,434.0,187.0" stroke="black" stroke-width="2" fill="none" />
<polyline points="429.0,190.0,436.5,189.5,444.0,189.0,452.0,188.5,460.5,188.5,469.0,188.0,476.5,187.5" stroke="black" stroke-width="2" fill="none" />
<polyline points="476.0,178.5,468.0,179.0,460.0,179.5,452.0,180.0,444.0,180.5,436.5,181.0,428.5,182.0" stroke="black" stroke-width="2" fill="none" />
<polyline points="428.0,178.0,436.0,170.0,444.5,162.5,452.5,154.5,460.5,146.5,468.0,139.0" stroke="black" stroke-width="2" fill="none" />
<polyline points="460.0,133.0,468.0,132.0,476.5,131.5,484.5,131.5,492.5,131.5,500.5,131.0,508.5,130.5" stroke="black" stroke-width="2" fill="none" />
<polyline points="508.0,141.0,500.0,141.5" stroke="black" stroke-width="2" fill="none" />
<polyline points="499.5,106.0,491.5,106.5,483.0,107.5,475.0,108.5" stroke="black" stroke-width="2" fill="none" />
<polyline points="469.5,115.5,477.0,114.5,484.5,114.0,492.0,114.0" stroke="black" stroke-width="2" fill="none" />
<polyline points="500.0,122.0,491.5,122.5,483.5,123.0,475.5,123.5,467.0,124.0" stroke="black" stroke-width="2" fill="none" />
<polyline points="453.0,137.0,461.0,126.0,469.0,116.0,477.0,110.0,484.0,103.0,490.5,106.5" stroke="black" stroke-width="2" fill="none" />
<polyline points="493.0,92.0,494.0,100.0,490.0,107.5,486.0,117.5,486.0,125.5,485.0,133.5,482.5,141.5,482.0,149.0,478.0,156.5,477.0,164.5,475.0,172.5,473.0,180.5,471.0,184.5,470.0,192.5,469.0,200.5,465.5,208.0,463.5,216.5,461.0,224.0,459.0,232.0,455.5,239.5,454.5,247.5,456.5,253.5,455.0,266.0" stroke="black" stroke-width="2" fill="none" />
<polyline points="476.5,195.5,468.5,196.0,460.0,196.0,452.0,196.5,443.5,197.0,436.0,197.5,428.5,198.0,421.0,198.5" stroke="black" stroke-width="2" fill="none" />
<polyline points="421.5,199.0,429.5,187.0" stroke="black" stroke-width="2" fill="none" />
<polyline points="434.5,177.5,443.0,170.0" stroke="black" stroke-width="2" fill="none" />
<polyline points="436.0,156.5,444.0,156.0,452.5,155.0,460.5,154.0,468.5,153.5,476.0,153.0,483.5,152.5" stroke="black" stroke-width="2" fill="none" />
<polyline points="492.0,139.0,483.5,139.5,474.5,140.0,466.5,141.0,458.0,141.0,450.0,141.0" stroke="black" stroke-width="2" fill="none" />
<polyline points="444.0,148.5,452.5,148.0,460.5,147.5,468.5,146.5,476.5,146.0,484.0,145.5" stroke="black" stroke-width="2" fill="none" />
<polyline points="484.0,170.5,475.5,170.5,467.0,171.0,459.0,171.5,450.5,172.0,442.5,172.5,434.5,173.0,426.5,173.5" stroke="black" stroke-width="2" fill="none" />
<polyline points="426.5,173.5,434.5,165.5,442.5,153.5,450.0,146.0,458.0,144.0" stroke="black" stroke-width="2" fill="none" />
<polyline points="484.0,162.5,475.5,163.0,467.5,163.0,459.5,163.5,452.0,164.0,444.0,164.0,435.5,164.5,427.5,165.0" stroke="black" stroke-width="2" fill="none" />
<polyline points="405.5,140.0,397.5,140.0" stroke="black" stroke-width="2" fill="none" />
<polyline points="388.5,134.0,396.5,133.0,404.5,132.5,412.0,131.5" stroke="black" stroke-width="2" fill="none" />
<polyline points="409.5,123.0,401.0,123.0,393.0,123.0,385.5,123.0" stroke="black" stroke-width="2" fill="none" />
<polyline points="386.0,117.5,394.0,117.5,402.0,117.0" stroke="black" stroke-width="2" fill="none" />
<polyline points="364.5,138.0,356.5,139.0,349.5,140.0,342.0,141.0,334.0,141.5,326.0,141.5,317.5,141.5" stroke="black" stroke-width="2" fill="none" />
<polyline points="325.5,150.0,333.0,149.5,341.0,149.0,348.5,148.0,355.5,147.5,363.0,147.0" stroke="black" stroke-width="2" fill="none" />
<polyline points="370.0,186.5,362.0,187.0,354.0,188.0,345.5,188.5,337.5,189.5,329.5,191.0,322.0,191.5" stroke="black" stroke-width="2" fill="none" />
<polyline points="323.5,197.0,332.0,196.5,340.0,196.5,348.0,196.0,356.0,196.0,364.5,195.5" stroke="black" stroke-width="2" fill="none" />
<polyline points="363.5,203.5,355.5,204.5,347.5,204.5,339.0,205.0,331.0,206.0,322.5,206.5" stroke="black" stroke-width="2" fill="none" />
<polyline points="313.5,213.5,322.0,213.0,330.5,212.5,339.5,212.0,348.0,212.0,356.0,211.0,364.0,211.0,371.0,210.0" stroke="black" stroke-width="2" fill="none" />
<polyline points="371.5,178.0,364.0,179.0,356.0,180.0,348.0,181.0,340.0,182.5,332.0,183.0,324.0,183.0" stroke="black" stroke-width="2" fill="none" />
<polyline points="314.0,176.0,322.0,175.5,330.0,175.0,338.5,174.0,347.5,173.0,356.0,172.0,364.0,171.5,371.5,171.0" stroke="black" stroke-width="2" fill="none" />
<polyline points="364.0,154.5,356.0,155.5,348.5,156.0,340.5,157.0,332.5,158.5,324.5,159.5" stroke="black" stroke-width="2" fill="none" />
<polyline points="315.5,166.0,323.5,165.5,331.5,165.0,340.0,164.5,348.5,164.0,356.5,163.5,364.5,163.5,373.0,163.0" stroke="black" stroke-width="2" fill="none" />
<polyline points="361.5,129.0,354.0,129.0,346.5,129.0,338.5,129.5,330.5,130.5,323.0,130.5,315.0,130.5,307.5,131.0" stroke="black" stroke-width="2" fill="none" />
<polyline points="282.5,124.5,291.0,123.5,299.5,122.5,308.5,122.0,316.5,122.0,324.5,122.0,333.0,121.5,341.5,120.5,349.0,119.5,356.5,118.5,364.5,118.5" stroke="black" stroke-width="2" fill="none" />
<polyline points="357.5,112.5,349.5,112.5,341.5,113.0,332.5,113.0,324.5,113.0,316.0,113.5,308.0,114.0,300.0,114.5,292.0,115.0,284.0,116.0,275.5,117.0,267.5,117.5" stroke="black" stroke-width="2" fill="none" />
<polyline points="252.5,111.5,260.5,111.0,268.5,111.0,276.0,110.5,284.0,109.5,292.0,109.0,299.0,108.5,307.0,108.0,315.0,107.5,323.5,106.5,332.0,106.0,339.5,105.0,347.0,105.0,354.5,105.0" stroke="black" stroke-width="2" fill="none" />
<polyline points="356.0,93.5,348.0,94.5,340.5,95.0,332.5,96.0,324.5,97.5,316.5,98.5,308.5,98.5,301.0,99.0,293.0,99.0,285.0,99.5,276.5,99.5,268.5,99.5,261.0,99.5,253.0,99.5,245.5,100.0,237.5,100.0" stroke="black" stroke-width="2" fill="none" />
<polyline points="219.0,89.0,211.0,89.5,203.0,90.0,195.0,90.5,187.0,91.5,179.0,91.5,171.0,92.0,163.0,92.0,154.5,92.5,146.5,92.5,139.0,92.5,131.5,93.0,123.5,93.0,115.5,93.5,108.0,93.5,99.5,93.5,91.5,93.0,83.0,93.5,75.5,94.5,68.0,95.5,61.0,96.5,53.0,97.5,45.0,98.5,37.5,99.5,28.5,100.5,20.0,101.0,11.5,101.5,3.5,102.5" stroke="black" stroke-width="2" fill="none" />
<polyline points="3.0,94.5,11.0,94.0,19.0,93.5,27.5,92.5,36.0,92.0,44.5,91.5,52.5,90.5,60.5,90.0,69.0,89.0,77.5,88.0,85.5,87.0,93.0,87.0,101.0,87.0,108.0,86.5,115.5,85.5,123.0,85.0,131.0,84.5,138.5,84.0,146.5,83.5,154.5,83.5,162.5,83.5,170.5,82.5,177.5,82.0,185.0,81.5,192.5,81.0,200.5,80.5,209.0,80.5,216.5,81.5,225.0,81.5,233.5,81.0,241.5,80.5,249.5,79.5,257.5,78.5,266.0,78.0,274.5,77.5,282.5,77.0,291.0,76.5,299.5,75.5,307.5,75.0,316.0,74.0,324.5,73.0,332.0,73.0" stroke="black" stroke-width="2" fill="none" />
<polyline points="330.0,66.5,321.5,66.5,314.0,67.0,305.5,67.5,297.5,68.5,290.0,68.5,282.0,69.5,274.0,69.0,266.0,69.0,258.5,69.0,251.0,69.0,243.5,69.5,235.5,70.5,227.0,71.0,219.0,72.0,211.5,72.0,203.5,72.5,195.5,72.5,187.5,73.0,179.0,73.0,171.0,72.5,163.0,72.5,155.0,73.5,147.5,74.5,139.5,75.5,132.0,76.5,124.5,76.5,116.5,77.5,109.0,78.0,101.5,78.5,93.0,79.5,85.0,80.0,77.5,80.5,69.0,81.0,60.5,81.5,52.0,83.0,43.5,84.0,35.5,84.5,27.5,84.5,19.5,85.5,11.5,86.5,3.5,87.0" stroke="black" stroke-width="2" fill="none" />
<polyline points="5.5,79.0,13.5,78.0,20.5,77.5,28.0,76.5,36.0,75.5,44.0,75.0,52.0,74.5,59.5,74.0,67.0,73.5,75.5,73.0,83.0,72.5,91.5,72.0,100.0,71.5,108.5,71.0,116.5,71.0,124.5,70.5,132.5,69.5,140.5,68.0,148.5,67.0,156.0,66.0,163.5,65.5,172.0,64.5,180.5,63.5,188.5,63.0,196.0,62.5,204.0,62.0,212.0,61.5,219.5,62.0,227.0,62.0,234.5,61.5,243.0,61.0,250.5,60.5,258.0,60.5,266.0,60.5,273.5,60.5,281.5,60.0,289.5,60.5,297.5,60.0,305.5,59.5,313.0,59.0,321.0,59.0" stroke="black" stroke-width="2" fill="none" />
<polyline points="315.0,52.0,307.5,51.5,299.5,51.5,291.0,51.5,282.5,52.0,274.5,52.0,267.0,52.0,259.0,52.0,250.5,52.5,242.5,53.0,234.5,53.5,227.0,54.0,219.5,54.0,211.0,54.5,203.0,55.0,195.0,55.5,187.0,56.0,179.5,56.5,172.0,57.0,164.0,57.5,156.0,58.0,148.0,58.5,139.5,59.0,131.0,59.5,122.5,60.5,115.0,61.5,107.5,63.0,100.0,64.0,92.5,65.0,84.5,66.0,76.5,66.0,67.5,66.5,59.0,67.0,51.0,67.0,43.0,68.0,35.0,68.0,27.5,68.5,20.0,69.0,12.5,69.5,5.0,70.5" stroke="black" stroke-width="2" fill="none" />
<polyline points="10.5,67.0,18.5,66.5,26.5,66.0,35.0,65.5" stroke="black" stroke-width="2" fill="none" />
<polyline points="42.5,50.0,35.0,57.5,27.5,65.0,20.0,72.5,12.5,80.0" stroke="black" stroke-width="2" fill="none" />
<polyline points="11.0,81.5,19.5,81.0" stroke="black" stroke-width="2" fill="none" />
<polyline points="12.5,75.0,20.5,74.0,28.0,73.0" stroke="black" stroke-width="2" fill="none" />
<polyline points="51.5,83.5,43.0,91.0,34.0,98.5" stroke="black" stroke-width="2" fill="none" />
<polyline points="20.0,107.5,12.0,115.0" stroke="black" stroke-width="2" fill="none" />
<polyline points="4.5,117.0,12.0,116.5,19.5,117.0,27.0,116.5,35.5,116.5,43.5,115.5,51.0,114.5,59.0,113.0,67.0,112.0,74.5,111.5,82.5,111.0,91.0,110.5,99.5,109.5,107.5,109.0,115.5,108.5,123.5,108.5,131.5,108.0,139.5,108.5,148.0,108.5,156.5,107.5,164.5,107.0,172.5,106.5,180.0,106.5,187.5,106.0,195.0,105.0,203.0,104.5" stroke="black" stroke-width="2" fill="none" />
<polyline points="196.5,113.0,188.5,113.5,180.5,113.5,172.0,113.5,164.0,113.5,156.0,114.5,148.0,115.0,140.0,115.5,132.5,116.0,124.5,116.0,116.5,116.5,109.0,118.0,101.5,118.5,93.5,119.5,85.0,120.0,77.0,120.0,69.0,120.0,60.5,120.5,51.5,121.0,43.0,122.0,35.0,123.0,26.5,124.5,18.0,125.5,10.0,126.0,2.0,126.5" stroke="black" stroke-width="2" fill="none" />
<polyline points="3.0,133.5,11.0,133.0,19.5,132.5,28.0,131.0,35.5,129.5,43.5,129.0,51.5,128.5,60.0,129.0,68.0,129.0,76.0,128.5,84.0,128.0,92.0,127.0,99.5,126.5,108.0,125.5,116.5,124.5,125.0,124.5,133.0,124.0,141.5,124.5,149.5,124.0,157.0,124.0,165.0,124.0,173.0,123.5,181.0,123.0,188.5,123.0,196.0,122.5" stroke="black" stroke-width="2" fill="none" />
<polyline points="196.0,131.5,188.0,131.5,180.0,132.0,172.5,132.5,165.0,133.0,156.5,133.5,148.0,134.5,139.5,135.0,131.5,135.0,123.0,134.5,115.0,134.5,106.5,134.5,98.5,134.5,91.0,134.5,83.0,134.5,75.0,135.0,67.0,135.5,59.5,136.0,52.0,136.5,44.0,136.5,37.0,137.0,29.5,138.0,21.5,138.5,13.5,139.0,5.5,140.0" stroke="black" stroke-width="2" fill="none" />
<polyline points="10.0,132.0,17.5,124.0,26.0,116.0,34.0,109.0,42.0,101.0,50.0,94.0,58.0,86.5,66.5,79.0,75.5,71.5,84.0,64.5,92.5,56.5,100.5,48.5,108.5,41.0,116.5,33.5,124.5,26.0" stroke="black" stroke-width="2" fill="none" />
<polyline points="114.5,26.0,107.0,33.5,99.0,41.0,91.5,48.5,83.5,56.0" stroke="black" stroke-width="2" fill="none" />
<polyline points="67.0,68.0,58.5,75.5" stroke="black" stroke-width="2" fill="none" />
<polyline points="67.5,76.5,60.0,84.0,51.5,91.0,43.0,98.5,35.0,106.0,27.5,114.0" stroke="black" stroke-width="2" fill="none" />
<polyline points="21.0,116.0,13.0,123.5" stroke="black" stroke-width="2" fill="none" />
<polyline points="17.5,121.0,10.0,129.0" stroke="black" stroke-width="2" fill="none" />
<polyline points="18.0,134.5,26.0,127.0,34.5,120.0,42.0,112.5,50.5,104.5,58.5,96.5,67.0,89.0,76.0,82.0,84.5,74.5,93.0,66.5,100.5,58.5,108.5,50.5,117.0,43.0,125.5,36.0" stroke="black" stroke-width="2" fill="none" />
<polyline points="131.0,38.5,123.0,46.0,115.5,52.5,107.5,59.5,99.5,67.0,91.5,73.5,83.0,81.5,75.0,89.5,67.0,97.0,59.0,104.0,51.0,111.5,43.0,119.0,35.5,126.5,28.0,134.0,20.0,141.5,12.5,149.0" stroke="black" stroke-width="2" fill="none" />
<polyline points="13.5,148.0,21.0,148.0,29.0,148.0,36.0,147.5,43.5,146.5,51.0,146.0,59.0,145.5,66.5,145.0,74.5,144.5,82.5,144.5,90.5,144.5,98.5,143.5,105.5,143.0,113.0,142.5,120.5,142.0,128.5,141.5,137.0,141.5,144.5,142.5,153.0,142.5,161.5,142.0,169.5,141.5,177.5,140.5,185.5,139.5,194.0,139.0" stroke="black" stroke-width="2" fill="none" />
<polyline points="195.5,162.0,188.0,162.5,180.0,162.5,171.5,162.5,164.0,163.5,156.0,164.5,148.0,165.5,141.0,166.5,133.0,167.0,124.5,168.0,116.0,168.5,108.0,169.5,100.0,170.5,92.0,171.5,84.0,171.5,76.0,171.5,67.5,171.0,59.5,170.5,51.5,170.5,43.0,170.5,35.5,170.5,28.0,171.0,20.5,171.5,12.5,172.0" stroke="black" stroke-width="2" fill="none" />
<polyline points="17.5,170.5,26.0,163.5,35.0,156.5,43.0,149.5,51.0,142.0,58.5,134.0,66.5,126.5,74.5,119.0,82.5,112.0,90.0,104.5,98.0,96.5,106.0,89.0,114.5,81.0,123.0,73.0,131.0,65.0,139.0,57.0" stroke="black" stroke-width="2" fill="none" />
<polyline points="139.0,52.0,131.5,59.0,124.0,66.5,116.0,74.5,107.5,82.0,99.0,90.0,91.5,97.5,84.0,104.5,76.0,111.5,68.0,119.0,60.5,127.0,52.0,134.5,43.5,142.0,35.0,150.0,27.0,158.0,18.5,165.0" stroke="black" stroke-width="2" fill="none" />
<polyline points="11.0,162.5,19.5,162.0,27.5,162.5,36.0,162.5,43.5,162.5,51.5,162.0,59.5,162.0,67.0,161.5,74.5,161.5,82.5,161.5,91.0,161.0,99.0,161.0,107.0,160.5,115.0,160.5,123.0,159.5,131.0,159.0,139.0,158.5,147.0,158.0,154.5,157.5,162.0,157.5,170.0,157.0,178.0,156.5,186.0,156.0,194.0,155.0" stroke="black" stroke-width="2" fill="none" />
<polyline points="156.0,145.5,147.0,145.5,139.5,146.5,131.5,147.5,123.5,148.5,116.0,149.0,108.0,149.5,100.0,150.0,91.5,151.0,83.5,152.0,76.0,152.5,68.0,153.0,60.0,153.5,52.5,154.0,45.0,154.5,37.0,155.0,29.0,155.5" stroke="black" stroke-width="2" fill="none" />
<polyline points="27.0,146.5,35.5,146.5,43.0,147.0,51.5,146.5,60.0,145.5,68.0,144.5,76.0,143.5,84.0,142.5,92.0,141.5,100.0,141.0,107.5,140.5,116.0,140.0,124.0,139.0" stroke="black" stroke-width="2" fill="none" />
<polyline points="107.5,116.5,99.5,117.0,91.5,117.5,83.5,118.0,75.5,119.0,67.0,121.0,59.5,122.0,51.5,123.0,44.0,123.5" stroke="black" stroke-width="2" fill="none" />
<polyline points="36.0,131.5,43.5,131.0,51.5,130.0,59.0,129.0,67.0,128.0,75.0,127.0,83.5,126.5,92.0,126.0,100.0,125.5,108.5,125.0" stroke="black" stroke-width="2" fill="none" />
<polyline points="115.5,131.5,108.0,132.5,100.0,132.5,92.0,133.0,84.5,133.0,77.0,133.5,69.5,134.5,61.5,135.5,53.0,136.5,45.0,137.0,37.5,137.5,29.5,138.5" stroke="black" stroke-width="2" fill="none" />
<polyline points="12.5,155.5,20.5,147.5,28.0,140.5,35.5,133.0,43.0,125.5,51.0,117.5,58.5,110.5,66.5,103.5,74.0,96.5,82.0,89.5,90.5,82.5,98.5,75.5,106.0,68.0,113.5,60.5,121.0,53.0,129.0,45.5" stroke="black" stroke-width="2" fill="none" />
<polyline points="148.0,51.5,155.5,45.0,163.0,37.5" stroke="black" stroke-width="2" fill="none" />
<polyline points="164.0,45.5,156.5,53.0,148.5,60.0,141.0,67.0,133.0,74.0,124.5,81.0,117.0,89.0,109.0,96.0,101.0,103.5,92.5,110.5,84.0,117.5,76.5,125.0,68.5,133.0,60.5,141.0,52.5,148.5,44.5,155.5,36.5,162.5,28.5,169.5,20.5,177.0" stroke="black" stroke-width="2" fill="none" />
<polyline points="20.0,185.5,28.0,178.5,36.0,171.0,44.5,163.0,52.5,155.5,60.5,148.5,68.5,141.0,76.0,133.5,84.0,125.5,92.0,118.0,100.0,110.5,108.0,103.0,116.5,95.5,125.0,88.0,133.0,80.5,141.5,72.5,150.0,65.0,158.0,57.5,166.0,50.5,174.5,42.5" stroke="black" stroke-width="2" fill="none" />
<polyline points="178.0,45.5,170.5,53.0,162.0,60.0,154.0,67.5,146.5,75.0,138.5,82.0,130.5,89.5,122.5,96.5,114.5,104.0,106.5,110.5,98.5,118.0,90.5,126.0,82.5,133.5,74.5,140.5,66.5,147.5,58.5,154.5,51.0,162.0,43.5,169.5,36.0,176.5,28.0,184.0,20.5,191.5" stroke="black" stroke-width="2" fill="none" />
<polyline points="21.0,194.0,29.0,193.5,37.0,193.0,44.5,193.0,52.0,192.5" stroke="black" stroke-width="2" fill="none" />
<polyline points="56.0,187.0,64.0,175.0,72.0,170.0,80.0,170.0,88.0,173.0,96.5,179.5,104.5,191.0" stroke="black" stroke-width="2" fill="none" />
<polyline points="92.5,184.5,86.0,181.0,78.0,180.0" stroke="black" stroke-width="2" fill="none" />
<polyline points="86.0,173.5,95.5,181.0,101.5,188.5,106.0,196.5" stroke="black" stroke-width="2" fill="none" />
<polyline points="84.5,230.0,92.5,240.0" stroke="black" stroke-width="2" fill="none" />
<polyline points="90.0,279.0,98.0,278.5,106.0,278.0,114.0,277.0" stroke="black" stroke-width="2" fill="none" />
<polyline points="115.5,284.0,108.0,284.5,100.0,284.5,91.5,284.5" stroke="black" stroke-width="2" fill="none" />
<polyline points="107.5,325.0,115.5,324.5,123.0,324.0,131.0,323.5" stroke="black" stroke-width="2" fill="none" />
<polyline points="116.5,347.5,124.5,347.0,132.5,346.5,140.5,346.5,149.0,347.0" stroke="black" stroke-width="2" fill="none" />
<polyline points="164.5,363.5,156.0,364.0,148.0,364.5,140.0,365.0,132.5,365.0" stroke="black" stroke-width="2" fill="none" />
<polyline points="126.5,362.5,134.0,363.5,141.0,374.5" stroke="black" stroke-width="2" fill="none" />
<polyline points="139.5,381.5,147.5,381.0,155.5,380.5,163.0,381.0,171.0,381.5,179.0,381.0,186.5,381.0" stroke="black" stroke-width="2" fill="none" />
<polyline points="194.0,387.5,186.0,388.0,178.5,388.5,171.0,389.0,163.5,389.0,155.5,389.0,147.5,389.0,139.5,389.5" stroke="black" stroke-width="2" fill="none" />
<polyline points="145.5,387.5,153.5,380.0" stroke="black" stroke-width="2" fill="none" />
<polyline points="147.0,379.0,155.5,372.0" stroke="black" stroke-width="2" fill="none" />
<polyline points="170.0,386.0,162.0,394.0,154.0,401.0,145.5,409.0,138.0,417.0,130.0,424.5,122.0,432.0,113.5,439.5,106.0,447.0,98.0,455.0,90.0,463.0" stroke="black" stroke-width="2" fill="none" />
<polyline points="84.0,465.0,91.5,457.5,99.0,450.5,106.5,443.0,114.0,435.5,121.5,428.0,129.5,420.5" stroke="black" stroke-width="2" fill="none" />
<polyline points="124.5,422.0,116.0,429.5,107.5,437.0,99.5,444.5,91.5,452.0,83.0,460.0,75.0,466.5" stroke="black" stroke-width="2" fill="none" />
<polyline points="67.5,463.5,76.0,456.0,83.5,448.5,91.5,441.5,99.5,434.0,108.0,426.5,116.0,419.0" stroke="black" stroke-width="2" fill="none" />
<polyline points="107.0,419.5,99.0,427.0,91.0,435.0,83.5,442.5,76.5,449.5,69.0,457.0,61.5,464.0" stroke="black" stroke-width="2" fill="none" />
<polyline points="52.0,464.0,60.0,456.5,67.5,449.5,75.5,442.0,83.0,434.5,91.0,427.0,99.0,419.5" stroke="black" stroke-width="2" fill="none" />
<polyline points="100.5,414.0,108.0,413.0,116.0,413.0,124.0,412.5,131.5,411.5,139.5,410.5,147.5,410.0,155.5,409.5,164.0,409.0,172.5,408.5,180.5,408.5,188.0,407.5,196.0,407.5,204.0,407.0,212.5,406.5,221.5,406.0,229.5,406.0,237.5,405.5,245.5,405.0,253.5,404.0,261.5,403.5,270.0,403.5,278.0,403.5,286.0,403.0,293.5,402.0,300.5,401.0,308.5,400.0,316.5,399.5,324.0,399.0,332.0,398.0,340.0,397.5,348.5,397.0,356.5,396.5,364.5,395.5,372.5,395.0,380.0,394.5,388.0,394.5,396.0,394.0,404.0,393.5,411.5,393.0,419.5,392.5,427.5,392.0,435.0,391.5,443.0,390.5,450.5,390.0,458.5,389.0,466.0,388.5,474.0,388.0,481.5,387.5,489.0,387.0,497.0,386.5,505.0,386.5,513.5,387.0" stroke="black" stroke-width="2" fill="none" />
<polyline points="458.5,401.5,450.5,409.5" stroke="black" stroke-width="2" fill="none" />
<polyline points="445.5,411.0,453.5,403.0" stroke="black" stroke-width="2" fill="none" />
<polyline points="451.5,396.5,444.0,404.5" stroke="black" stroke-width="2" fill="none" />
<polyline points="452.0,421.0,460.0,413.5" stroke="black" stroke-width="2" fill="none" />
<polyline points="461.0,427.0,469.0,426.5" stroke="black" stroke-width="2" fill="none" />
<polyline points="486.0,453.5,478.0,460.5,470.0,467.5" stroke="black" stroke-width="2" fill="none" />
<polyline points="493.5,465.5,501.0,457.5,508.5,450.0" stroke="black" stroke-width="2" fill="none" />
<polyline points="508.5,444.0,500.0,451.5,491.5,458.5,483.5,465.5" stroke="black" stroke-width="2" fill="none" />
<polyline points="476.5,468.5,485.0,461.5,493.0,454.5" stroke="black" stroke-width="2" fill="none" />
<polyline points="501.5,466.5,510.0,459.0" stroke="black" stroke-width="2" fill="none" />
<polyline points="401.5,304.5,394.0,305.5,386.0,306.5,378.0,307.5,370.0,308.5,362.5,309.5,354.5,310.0,347.0,310.0,339.5,310.0,332.0,311.0" stroke="black" stroke-width="2" fill="none" />
<polyline points="322.5,319.5,331.0,319.0,339.5,318.0,347.5,316.5,355.5,315.5,363.5,314.0,371.5,313.0,380.0,312.5,388.0,312.0,395.5,311.5,403.0,311.0,411.5,310.5,419.5,310.0,427.5,309.5" stroke="black" stroke-width="2" fill="none" />
<polyline points="426.0,320.0,417.5,319.5,410.0,320.0,402.0,321.0,394.5,321.5,386.0,322.0,378.0,322.5,370.0,322.5,362.0,323.0,354.0,322.5,346.5,322.0,339.5,322.5,332.5,323.0,324.5,324.0,316.5,324.0" stroke="black" stroke-width="2" fill="none" />
<polyline points="298.5,333.0,307.0,332.5,315.0,332.0,322.5,331.5,330.0,331.0,338.0,331.0,346.0,330.5,354.5,329.5,362.5,329.0,370.5,329.0,378.5,328.5,386.5,328.0,394.5,327.5,402.5,327.0,411.0,326.5,419.0,326.0,427.5,325.5,436.0,325.5,444.5,325.0,453.0,324.5,461.0,324.0" stroke="black" stroke-width="2" fill="none" />
<polyline points="515.5,384.0,507.5,384.5,499.5,385.0,491.5,386.0,483.5,386.5,476.0,386.5,468.0,387.0,460.5,387.5,452.0,387.5,443.5,388.0,435.0,388.5,427.0,389.0,418.5,389.0,411.0,389.5,403.0,390.0,395.5,390.5,387.0,391.0,379.5,392.0,371.5,393.0,364.0,394.5,356.5,395.0,348.5,396.0,341.0,396.0,333.0,396.0,324.5,395.5,316.0,396.0,307.5,396.5" stroke="black" stroke-width="2" fill="none" />
<polyline points="300.5,383.0,308.0,383.0,316.0,382.5,324.0,381.5,332.0,381.0,340.0,380.0,347.0,379.0,354.5,379.5,362.0,379.0,369.5,379.0,377.0,378.5,385.0,378.0,393.5,377.0,401.5,376.0,409.5,374.5,418.0,373.5,426.5,373.0,435.0,372.5,444.0,372.0,452.5,371.0,460.5,370.0,468.5,369.5,476.0,368.5,483.5,367.5,491.5,366.5,500.0,366.5,508.5,366.0,517.0,365.5" stroke="black" stroke-width="2" fill="none" />
<polyline points="516.5,357.5,508.5,358.5,500.5,359.5,492.5,360.0,484.0,360.5,476.0,361.0,467.5,361.5,459.5,361.5,451.5,362.5,443.5,362.5,435.0,363.5,427.0,364.5,418.5,365.0,411.0,365.5,403.5,366.0,395.5,366.5,387.5,366.5,379.5,367.0,371.5,368.0,363.5,369.0,355.5,370.5,347.0,371.5,339.0,372.0,330.5,372.5,322.5,373.5,314.5,373.5,306.5,374.0,299.5,374.0" stroke="black" stroke-width="2" fill="none" />
<polyline points="298.0,366.0,306.0,365.5,314.0,365.5,322.0,364.5,330.0,364.0,338.5,363.0,347.0,362.0,356.0,361.0,364.0,360.5,372.0,360.0,380.0,359.5,388.0,359.0,396.5,358.0,404.5,357.0,412.5,356.5,420.0,356.0,427.5,355.5,434.5,355.0,442.0,354.5,449.5,354.0,457.5,353.0,466.0,353.0,474.5,353.0,482.5,352.5,490.5,352.0,499.0,351.5,506.5,351.0,514.0,350.0" stroke="black" stroke-width="2" fill="none" />
<polyline points="515.5,344.0,507.0,344.0,498.5,344.0,491.0,344.5,483.5,345.0,476.0,346.0,469.0,347.5,461.0,348.0,453.0,348.5,445.0,348.5,437.0,349.0,428.5,349.5,420.5,350.0,412.5,350.0,405.0,350.5,397.5,351.0,390.0,351.5,382.0,352.0,374.0,352.5,365.5,352.5,357.5,352.5,349.0,353.0,340.0,354.0,331.5,355.0,323.0,356.5,314.0,357.5,306.0,358.5,298.0,359.5" stroke="black" stroke-width="2" fill="none" />
<polyline points="298.5,350.0,306.5,349.5,314.5,349.0,322.5,348.5,331.0,348.5,339.5,348.5,347.5,348.0,355.5,346.5,364.0,345.5,372.5,345.5,381.0,345.0,388.5,344.5,396.0,344.0,404.0,343.5,412.5,343.5,421.0,343.0,428.5,342.5,436.0,341.5,444.0,341.0,452.0,340.0,460.0,339.5,468.0,339.0,476.0,339.0,483.5,339.0,491.5,339.0,499.0,338.5,507.0,338.0" stroke="black" stroke-width="2" fill="none" />
<polyline points="507.0,328.0,499.0,329.0,491.0,329.5,483.5,330.0,475.5,330.5,468.0,331.5,460.0,332.5,452.0,333.0,444.0,333.5,436.0,333.5,428.0,333.5,420.0,334.0,412.0,334.5,404.0,335.0,396.0,335.5,388.5,336.0,380.5,337.0,372.5,337.5,364.5,338.0,356.0,339.0,347.5,339.5,339.5,339.5,331.5,340.0,323.0,340.5,315.0,341.0,307.5,341.5,300.0,342.0" stroke="black" stroke-width="2" fill="none" />
<polyline points="307.5,323.5,299.5,323.5,291.0,323.5,282.5,324.0" stroke="black" stroke-width="2" fill="none" />
<polyline points="292.0,315.0,283.5,315.0,275.0,315.0,267.0,315.0" stroke="black" stroke-width="2" fill="none" />
<polyline points="268.0,309.5,260.5,310.0" stroke="black" stroke-width="2" fill="none" />
<polyline points="264.5,309.0,282.5,315.0,291.5,323.5" stroke="black" stroke-width="2" fill="none" />
<polyline points="293.5,314.5,301.5,320.5" stroke="black" stroke-width="2" fill="none" />
<polyline points="296.0,317.0,290.5,317.5,282.5,313.5,274.5,313.5,266.5,309.0" stroke="black" stroke-width="2" fill="none" />
<polyline points="260.5,302.5,252.5,303.0" stroke="black" stroke-width="2" fill="none" />
<polyline points="252.5,303.5,258.5,311.5,268.5,315.5,275.0,322.0,282.5,322.5" stroke="black" stroke-width="2" fill="none" />
<polyline points="257.0,339.5,249.0,340.0,241.5,340.5,233.5,341.0,225.5,341.5" stroke="black" stroke-width="2" fill="none" />
<polyline points="223.5,339.0,231.5,339.5,239.0,341.5,247.5,342.0,254.0,345.0,250.0,353.0,237.0,361.0,233.0,369.5,234.5,378.0,229.0,386.0,223.0,395.5,226.0,390.5,232.0,376.5,236.5,375.5,244.5,381.0,252.5,385.0,260.0,389.0,267.5,393.0,275.0,397.0,288.0,406.5,305.0,414.5,311.0,422.5,317.5,431.0,324.5,439.0" stroke="black" stroke-width="2" fill="none" />
<polyline points="298.0,421.5,290.5,422.0,283.0,423.0,275.0,423.5,267.0,424.5,260.0,425.5,251.5,426.0" stroke="black" stroke-width="2" fill="none" />
<polyline points="251.5,394.5,243.5,395.5" stroke="black" stroke-width="2" fill="none" />
<polyline points="228.5,402.0,237.0,401.0,244.5,400.5,252.5,399.5,260.5,399.0" stroke="black" stroke-width="2" fill="none" />
<polyline points="251.5,380.5,243.5,381.0,236.0,381.5,228.5,382.0" stroke="black" stroke-width="2" fill="none" />
<polyline points="235.0,375.0,249.0,382.5,261.5,383.5" stroke="black" stroke-width="2" fill="none" />
<polyline points="266.0,371.5,264.0,378.0,269.5,373.0,272.0,364.5,268.0,362.0" stroke="black" stroke-width="2" fill="none" />
<polyline points="262.0,357.5,262.0,365.0,262.0,373.0,262.5,387.0,275.0,396.5" stroke="black" stroke-width="2" fill="none" />
<polyline points="245.5,349.0,254.0,341.5" stroke="black" stroke-width="2" fill="none" />
<polyline points="253.0,343.0,261.0,341.0,269.5,336.0,271.0,343.0,260.0,348.0,259.0,356.5,260.0,364.5,260.0,372.0,264.5,380.5,272.5,384.5,275.0,393.0,279.0,401.5,287.0,404.5,295.0,409.5,302.5,412.0,310.5,420.0,318.5,429.5,326.5,438.5" stroke="black" stroke-width="2" fill="none" />
<polyline points="249.5,348.5,241.5,349.5,233.5,350.0" stroke="black" stroke-width="2" fill="none" />
<polyline points="227.5,357.5,235.0,357.0,242.5,357.0" stroke="black" stroke-width="2" fill="none" />
<polyline points="234.5,364.5,227.0,365.5,219.5,366.0" stroke="black" stroke-width="2" fill="none" />
<polyline points="225.5,358.5,233.0,358.5,241.0,354.5,233.5,357.5,233.5,365.0,241.5,358.0,250.0,353.0" stroke="black" stroke-width="2" fill="none" />
<polyline points="266.0,345.5,260.0,336.0,252.0,337.0,244.0,337.0,236.0,336.0,228.0,334.0,219.5,335.5" stroke="black" stroke-width="2" fill="none" />
<polyline points="253.0,306.5,260.5,314.5,269.5,318.5" stroke="black" stroke-width="2" fill="none" />
<polyline points="258.5,245.5,250.5,246.5,242.5,247.0,234.5,247.5" stroke="black" stroke-width="2" fill="none" />
<polyline points="235.0,238.5,243.0,238.0,251.5,237.5,259.5,237.0,267.0,236.5" stroke="black" stroke-width="2" fill="none" />
<polyline points="263.0,234.5,254.0,242.5" stroke="black" stroke-width="2" fill="none" />
<polyline points="252.5,237.0,244.5,244.0" stroke="black" stroke-width="2" fill="none" />
<polyline points="245.0,248.0,252.5,249.0,259.5,239.0,267.5,235.0" stroke="black" stroke-width="2" fill="none" />
<polyline points="270.5,231.5,266.5,240.0,259.5,240.5,256.0,245.5,258.0,251.5" stroke="black" stroke-width="2" fill="none" />
<polyline points="254.0,236.5,246.5,236.5" stroke="black" stroke-width="2" fill="none" />
<polyline points="236.5,222.0,244.5,221.5,253.0,221.0,261.0,220.5,269.0,220.5,277.0,220.0,284.5,220.0,292.0,219.5,299.5,219.0,307.5,218.5" stroke="black" stroke-width="2" fill="none" />
<polyline points="299.0,210.0,291.5,211.0,283.5,212.0,275.5,213.5,267.0,214.0,259.0,215.0" stroke="black" stroke-width="2" fill="none" />
<polyline points="274.0,211.5,282.0,212.5,290.0,212.0,298.0,213.0" stroke="black" stroke-width="2" fill="none" />
<polyline points="283.5,227.0,275.0,228.0,267.0,228.5,259.0,228.5,251.0,228.5,243.0,228.5,235.0,228.0,226.5,228.0" stroke="black" stroke-width="2" fill="none" />
<polyline points="223.5,216.0,231.5,213.0,239.5,216.5" stroke="black" stroke-width="2" fill="none" />
<polyline points="281.0,224.0,289.0,226.0,297.0,223.0" stroke="black" stroke-width="2" fill="none" />
<polyline points="196.5,147.0,189.0,147.0,181.0,147.0,173.5,147.5,165.0,148.0,157.0,148.0,148.5,148.5,139.5,148.5,131.0,149.5,122.5,149.5,114.5,150.0,107.0,150.0,99.0,150.5,91.5,151.0,84.0,151.5,76.0,152.0,68.0,153.0,60.0,153.5,52.5,154.0,45.0,154.0,37.0,154.5,28.5,155.0,20.5,155.0,12.0,155.0,4.0,154.5" stroke="black" stroke-width="2" fill="none" />
<polyline points="8.0,163.5,15.5,163.5,15.5,167.0,15.5,175.0,15.5,183.5,12.5,191.5,17.0,199.5,14.0,203.0,13.0,211.0,13.0,219.0,13.5,225.0,13.5,233.0,12.0,241.5,14.0,249.5,16.5,257.5,18.5,261.5" stroke="black" stroke-width="2" fill="none" />
<polyline points="20.5,252.5,28.5,251.5,36.5,251.0,44.5,250.5,52.0,249.5" stroke="black" stroke-width="2" fill="none" />
<polyline points="20.0,248.5,28.0,241.0,35.0,233.5,43.0,225.5,51.0,218.0,59.5,210.5" stroke="black" stroke-width="2" fill="none" />
<polyline points="58.5,201.5,50.0,209.5,42.5,217.0,34.5,224.0,26.5,231.5,18.5,239.0,11.5,246.5" stroke="black" stroke-width="2" fill="none" />
<polyline points="11.5,245.5,19.5,245.0,28.0,244.5,36.5,244.0,45.0,243.5,53.0,243.5,61.0,243.0,68.5,242.0,76.0,242.0" stroke="black" stroke-width="2" fill="none" />
<polyline points="51.5,202.5,43.5,210.0,35.0,217.0,27.0,224.5,18.5,232.5,10.0,240.5" stroke="black" stroke-width="2" fill="none" />
<polyline points="11.0,239.5,19.0,239.0,27.0,238.5,35.0,237.5,43.5,236.5,51.5,236.0,59.5,235.0,67.5,234.0" stroke="black" stroke-width="2" fill="none" />
<polyline points="51.0,240.5,43.5,240.5,35.5,241.0,27.5,242.0,19.5,242.5" stroke="black" stroke-width="2" fill="none" />
<polyline points="18.5,232.0,27.0,231.5,35.5,231.5,44.5,231.0,52.5,231.0,60.0,231.0" stroke="black" stroke-width="2" fill="none" />
<polyline points="51.5,224.0,43.5,224.5,35.5,225.0,28.0,225.5,20.0,226.0" stroke="black" stroke-width="2" fill="none" />
<polyline points="20.5,219.0,28.0,218.0,35.5,217.0,43.0,216.0,51.0,216.0" stroke="black" stroke-width="2" fill="none" />
<polyline points="52.5,209.0,45.0,209.0,37.0,209.0,29.5,209.5,21.0,210.0" stroke="black" stroke-width="2" fill="none" />
<polyline points="20.0,211.0,28.5,203.5,36.5,195.5,44.5,187.5,52.0,179.5,60.0,172.0,67.5,164.0,75.5,156.5,83.0,149.5,91.0,142.0,99.5,134.5,108.0,126.5,116.5,119.0,125.0,111.5,133.0,104.5,141.5,97.0,149.0,89.5,157.0,81.5,164.5,74.5,172.5,67.0" stroke="black" stroke-width="2" fill="none" />
<polyline points="180.0,52.0,172.0,59.5,164.0,67.0,155.5,74.5,147.0,81.5,139.0,88.5,131.0,96.0,123.0,104.0,115.0,111.5,107.0,119.5,99.0,127.5,91.5,134.0,83.5,141.0,76.0,147.5,68.0,155.0,59.5,162.5,51.5,170.0,43.5,177.5,35.5,185.0,27.0,193.0,19.5,201.0" stroke="black" stroke-width="2" fill="none" />
<polyline points="21.0,203.0,28.5,202.5,36.0,202.0,44.0,201.5,52.0,201.5" stroke="black" stroke-width="2" fill="none" />
<polyline points="52.5,184.5,44.0,185.0,35.5,185.5,27.5,185.5" stroke="black" stroke-width="2" fill="none" />
<polyline points="13.0,189.0,21.5,188.5,29.5,187.5,37.0,187.0,44.5,185.5,52.5,185.0,60.5,185.0" stroke="black" stroke-width="2" fill="none" />
<polyline points="60.0,218.5,52.0,219.0,44.0,219.5,36.0,220.0,28.0,220.0,20.5,221.0,12.5,221.5" stroke="black" stroke-width="2" fill="none" />
<polyline points="12.0,212.5,19.5,212.0,27.0,211.5,35.0,211.0,42.5,211.0,50.5,210.5,59.0,210.5" stroke="black" stroke-width="2" fill="none" />
<polyline points="76.5,251.0,69.0,251.0,61.0,251.0,53.0,251.0,45.0,251.0,37.5,251.0,29.5,251.5,21.5,252.0,14.0,253.0" stroke="black" stroke-width="2" fill="none" />
<polyline points="11.0,269.0,19.5,268.0,27.5,267.0,35.5,266.0,43.5,266.0,51.5,265.0,60.0,264.5,69.0,263.5,77.5,263.0,85.0,262.5" stroke="black" stroke-width="2" fill="none" />
<polyline points="60.5,331.5,52.0,331.5,44.0,332.0,35.5,333.0,27.0,333.0,19.0,333.0,11.0,333.5" stroke="black" stroke-width="2" fill="none" />
<polyline points="11.0,325.5,19.0,325.0,27.0,325.0,35.5,325.0,44.0,325.0,52.0,324.5,60.5,324.0" stroke="black" stroke-width="2" fill="none" />
<polyline points="60.0,348.5,52.0,349.0,44.5,349.0,37.0,349.5,29.5,349.5,21.5,349.5,13.5,350.0" stroke="black" stroke-width="2" fill="none" />
<polyline points="8.0,351.0,16.0,358.0,24.0,369.0,31.5,374.0,33.0,380.5,40.5,386.5,48.5,393.0,57.0,399.0,65.0,405.5,73.0,410.5,81.0,413.5,89.0,416.0,97.0,413.0" stroke="black" stroke-width="2" fill="none" />
<polyline points="100.5,411.5,97.5,418.5,106.0,416.0,114.0,417.5,122.0,416.5,130.0,415.5,137.5,414.5,145.5,411.0" stroke="black" stroke-width="2" fill="none" />
<polyline points="148.0,417.5,156.0,417.5,164.0,416.5,171.5,416.5,179.5,416.0,187.0,416.0,195.5,416.0,204.0,415.5,212.0,415.5,220.5,415.0,228.5,414.0,236.0,414.0,244.0,413.5,252.0,412.5,260.0,412.0,268.0,411.0,275.0,410.0,282.5,410.5,290.0,410.0" stroke="black" stroke-width="2" fill="none" />
<polyline points="186.5,399.0,178.5,400.5,170.0,401.5,161.5,402.5,153.0,403.0" stroke="black" stroke-width="2" fill="none" />
<polyline points="131.0,397.5,139.5,397.5,148.5,397.5,156.5,397.5,164.5,396.5,171.5,396.0,179.5,395.5,188.0,394.5,195.5,394.0,203.5,393.5,212.0,393.0,219.5,392.5,227.0,392.0,235.0,391.5,243.5,391.0,251.5,390.5,259.5,390.5,268.0,390.0,276.5,389.0,284.5,388.5" stroke="black" stroke-width="2" fill="none" />
<polyline points="243.0,417.5,234.5,417.5,227.0,417.5,219.0,418.0,211.0,418.0,202.5,418.5,194.5,419.0,186.5,420.5,178.0,421.0,170.5,422.0,163.0,422.5,155.0,423.5,147.0,424.5,139.0,425.5,131.0,426.5,123.0,427.5" stroke="black" stroke-width="2" fill="none" />
<polyline points="115.0,418.0,107.0,418.0,98.5,418.5,90.5,419.0,82.5,419.5,75.0,420.0,67.5,420.0,59.0,420.5,51.0,421.0,43.0,421.5,35.0,422.0,27.5,422.5,20.0,423.0,12.0,423.5" stroke="black" stroke-width="2" fill="none" />
<polyline points="12.0,426.5,19.5,418.0,27.0,410.0,34.5,402.0,42.0,394.0" stroke="black" stroke-width="2" fill="none" />
<polyline points="41.5,386.5,33.5,394.0,26.0,401.0,18.5,408.5,11.0,416.5" stroke="black" stroke-width="2" fill="none" />
<polyline points="10.5,415.0,18.5,414.5,26.5,414.0,34.5,414.0,42.0,414.5,50.0,414.5,58.0,414.0,66.0,413.5" stroke="black" stroke-width="2" fill="none" />
<polyline points="68.0,409.0,60.0,417.0,52.0,424.5,43.5,432.0,35.0,440.5,26.5,448.0,17.5,456.0,9.5,464.0" stroke="black" stroke-width="2" fill="none" />
<polyline points="12.0,468.5,20.0,467.5,28.0,466.5,36.0,465.5,44.5,465.0,53.0,464.0,61.0,463.5,68.0,462.5,76.0,461.5,84.0,460.5,91.5,459.5,100.0,459.5,108.0,459.5,115.5,459.0,123.5,459.0,131.5,459.5,139.5,459.0,147.5,458.5,155.5,458.0,164.0,458.0,172.0,457.5,180.0,456.5,188.0,456.0,195.5,455.0,203.0,454.0,210.5,453.5,218.5,452.5,227.0,452.5,235.0,452.0,243.0,451.5,250.5,451.0,258.5,450.5,266.5,450.0,274.5,449.5,283.0,449.5,291.5,449.5,299.5,449.0,307.5,447.5,316.0,446.5,324.5,446.5,333.0,446.0,340.5,445.5" stroke="black" stroke-width="2" fill="none" />
<polyline points="332.5,438.0,324.5,438.5,316.5,439.0,308.0,440.0,299.5,440.5,291.5,440.5,283.5,441.0,275.0,441.5,267.0,442.0,259.5,442.5,252.0,443.0,243.5,443.5,235.5,444.0,228.0,444.5,219.5,445.5,211.5,446.0,204.5,446.5,196.5,447.5,188.5,447.5,179.5,447.5,171.0,447.5,163.0,448.5,155.0,449.5,147.0,450.0,139.0,450.5,131.0,451.0,122.5,451.5,114.0,452.0,106.0,453.0,98.0,453.5,90.0,454.0,82.0,454.5,74.5,454.5,67.0,455.0,59.0,455.5,51.0,456.0,43.0,456.5,35.0,457.5,27.0,457.5,19.0,458.0,11.0,458.0" stroke="black" stroke-width="2" fill="none" />
<polyline points="12.5,455.0,20.5,448.0,28.0,440.5,36.0,433.0,44.0,425.5,51.5,418.5,60.0,411.0" stroke="black" stroke-width="2" fill="none" />
<polyline points="59.5,401.5,52.0,409.0,44.0,416.5,36.5,423.5,28.5,431.0,20.5,438.5,13.0,446.0" stroke="black" stroke-width="2" fill="none" />
<polyline points="10.5,449.5,18.5,448.5,25.5,448.0,33.0,447.5,40.5,447.0,48.5,446.5,57.0,446.5,64.5,447.5,73.0,447.5,81.5,447.0,89.5,446.5,97.5,445.5,105.5,444.5,114.0,444.0,122.5,443.5,130.5,443.0,139.0,442.5,147.5,441.5,155.5,441.0,164.0,440.0,172.5,439.0,180.0,439.0,188.0,438.5,196.0,438.0,204.5,437.5,212.5,437.0,220.0,436.5,227.5,435.5,235.0,435.0,243.0,434.5,250.5,434.0,259.0,433.5,267.0,433.0,274.5,432.5,282.0,432.0,290.0,432.0,298.0,431.5,306.5,430.5,314.5,430.0,322.5,430.0,330.5,429.5" stroke="black" stroke-width="2" fill="none" />
<polyline points="323.5,421.5,316.5,422.0,308.5,423.0,300.5,423.5,292.0,424.0,284.0,424.0,275.5,424.5,267.5,424.5,259.0,424.5,250.5,425.0,243.0,425.5,235.0,426.5,227.5,427.5,219.5,428.5,211.0,430.0,203.0,430.5,194.5,431.0,186.0,431.5,178.0,432.5,169.5,432.5,162.0,433.0,153.5,433.5,145.5,434.5,138.0,434.5,130.0,435.5,122.0,435.0,114.0,435.0,106.5,435.0,99.0,435.0,91.5,435.5,83.5,436.5,75.0,437.0,67.0,438.0,59.5,438.0,51.5,438.5,43.5,438.5,35.5,439.0,27.0,439.0,19.0,438.5,11.0,438.5" stroke="black" stroke-width="2" fill="none" />
<polyline points="12.5,441.0,20.0,433.0,28.5,424.5,36.5,417.0,44.0,410.0,51.5,402.5" stroke="black" stroke-width="2" fill="none" />
<polyline points="50.0,392.5,42.0,400.0,34.0,408.5,26.0,416.5,18.0,424.0,9.5,432.0" stroke="black" stroke-width="2" fill="none" />
<polyline points="11.5,431.5,20.0,430.5,28.5,429.5,36.5,429.0,44.0,428.5,52.0,428.0,60.0,427.5,67.5,428.0,75.0,428.0,82.5,427.5,91.0,427.0,98.5,426.5,106.0,426.5,114.0,426.5,121.5,426.5,129.5,426.0,137.5,426.5,145.5,426.0,153.5,425.5,161.0,425.0,169.0,425.0,177.0,424.5,185.5,424.0,194.0,423.0,202.5,422.5,211.0,421.0,218.5,420.0,226.5,419.5,234.5,418.5,242.5,418.0,250.5,417.5,259.0,416.5,267.5,415.5,276.5,415.0,284.5,415.0,292.5,415.0,301.0,414.5,309.5,413.5,317.0,412.5" stroke="black" stroke-width="2" fill="none" />
<polyline points="187.0,392.5,177.0,384.5,171.0,385.0" stroke="black" stroke-width="2" fill="none" />
<polyline points="154.0,355.0,146.0,356.0,138.0,356.5,130.5,357.5,122.5,358.0" stroke="black" stroke-width="2" fill="none" />
<polyline points="113.0,353.5,121.0,357.5,125.0,359.5,133.0,362.5,136.0,370.5,141.5,378.0,142.5,386.5,135.0,396.0" stroke="black" stroke-width="2" fill="none" />
<polyline points="135.5,397.0,127.5,401.0,119.0,401.0,111.0,405.0" stroke="black" stroke-width="2" fill="none" />
<polyline points="108.0,405.5,115.5,404.5,123.0,404.0,131.5,403.0,139.5,402.5,147.5,402.5,155.5,402.0,164.0,402.0,172.0,401.5,180.5,401.0,188.5,401.0,197.0,400.0,204.5,399.5,212.5,398.5,220.5,398.0,228.0,397.5,236.5,397.0,244.5,397.0,253.0,397.0,261.0,396.5,269.5,396.0,277.0,395.5,285.0,395.0,292.5,394.0,299.5,393.5,307.0,393.0,315.0,392.5,323.0,392.0,330.5,391.5,338.0,391.0,346.0,390.0,354.0,390.0,362.5,390.0,370.5,389.0,379.5,388.5,388.0,388.0,396.0,387.5,404.5,387.5,413.0,386.5,421.5,385.5,429.5,385.0,437.0,384.5,444.5,384.5,452.5,384.0,461.0,383.5,469.0,383.0,476.5,382.5,484.5,382.5,492.5,382.0,500.5,381.0,508.0,380.0,516.0,379.5" stroke="black" stroke-width="2" fill="none" />
<polyline points="516.5,429.0,508.5,430.0,500.0,430.5,492.0,430.5,484.5,431.0,476.0,431.5,468.0,432.0,459.0,432.0,450.5,433.0,442.0,433.5,433.5,433.5,425.5,434.0,417.0,434.0,409.0,434.0,401.5,434.0,393.0,435.0,385.5,436.5,377.5,437.0,370.0,437.5,362.5,438.0,355.0,439.0,347.0,439.5,339.0,440.5,332.0,441.5,323.5,442.0,316.0,442.5,308.0,443.5,300.0,444.0,291.5,444.5,283.0,444.5,275.5,445.0,268.5,445.0,260.5,445.5,252.5,446.0,244.5,447.0,236.5,447.5,228.5,448.0,220.5,448.5,212.5,448.5,204.0,449.5,195.5,450.0,187.0,450.5,179.0,451.5,170.5,452.0,162.0,453.0,154.5,453.0,146.5,453.0,139.0,453.5,132.0,454.0,124.5,454.5,117.0,454.5,109.0,455.0,101.0,455.0,93.0,454.5,85.0,455.0,77.0,455.5,69.0,456.5,61.0,457.0,53.0,458.0,44.5,459.0,36.0,459.0,27.5,459.0,19.0,459.5,10.5,460.5,2.0,461.0" stroke="black" stroke-width="2" fill="none" />
<polyline points="5.0,453.0,13.0,453.0,21.0,452.5,29.0,451.5,37.0,451.0,45.5,450.0,53.5,450.0,61.0,449.5,68.5,449.0,76.0,448.5,84.0,448.0,92.0,447.5,100.5,446.5,108.5,446.0,117.0,446.0,125.0,445.5,132.5,445.5,140.5,445.5,148.0,446.0,156.0,446.0,163.5,446.0,172.0,445.5,180.0,444.5,188.0,443.0,195.5,441.5,203.5,440.5,212.0,439.5,220.0,439.5,228.0,439.0,235.5,438.5,243.5,438.0,251.5,437.5,260.0,437.0,268.5,436.5,277.0,436.5,285.0,436.0,293.0,435.5,301.0,435.5,309.0,435.5,317.0,435.0,324.5,435.0,332.5,434.5,340.0,434.0,347.5,433.5,355.5,433.0,363.0,432.5,370.5,431.5,378.0,430.5,386.0,429.5,393.5,429.0,402.0,428.5,410.0,428.5,418.0,428.0,426.5,428.0,435.0,427.5,444.0,426.5,451.5,426.0,459.0,424.5,467.0,423.5,475.0,423.0,483.0,422.5,491.0,421.5,499.5,420.5,507.5,420.0,515.5,420.0" stroke="black" stroke-width="2" fill="none" />
<polyline points="515.0,413.0,506.5,413.5,498.0,414.0,489.5,414.5,481.5,414.5,473.5,415.5,466.0,416.5,458.0,417.5,450.0,418.5,442.0,419.5,434.5,420.5,426.5,421.0,419.0,421.0,411.5,421.0,404.0,422.0,395.5,422.5,387.0,423.5,379.0,424.0,371.0,424.5,364.0,425.0,356.0,425.5,348.0,426.5,340.5,427.0,332.5,427.0,324.5,427.5,316.5,427.5,309.5,427.5,301.5,427.5,293.5,428.0,285.5,427.5,277.0,428.0,268.5,427.5,260.5,427.5,252.5,428.0,244.5,428.5,236.5,429.5,227.5,430.0,219.0,431.0,210.5,432.0,202.5,433.0,194.5,434.0,187.0,435.0,179.0,436.0,171.0,437.0,163.0,438.0,155.0,438.0,146.5,438.0,139.0,438.5,131.5,438.5,124.0,439.0,116.0,440.0,108.0,441.0,100.0,441.5,92.5,442.0,84.5,442.0,76.5,442.5,69.0,442.5,61.0,442.5,54.0,442.5,46.0,442.0,38.0,442.0,30.0,442.5,22.0,442.5,14.5,442.5,6.0,443.0" stroke="black" stroke-width="2" fill="none" />
<polyline points="4.5,436.5,13.0,436.0,21.0,436.5,29.0,436.5,37.0,436.5,45.0,436.0,53.0,435.5,61.0,435.0,69.0,434.0,77.5,433.5,85.5,433.0,93.5,432.5,101.5,432.5,109.0,432.5,116.5,432.0,124.0,432.0,132.0,431.5,140.0,431.0,147.5,430.5,155.5,430.0,164.0,429.5,171.5,429.0,179.5,428.0,187.0,427.0,195.5,425.0,203.5,424.0,211.5,423.5,219.5,423.0,227.5,422.5,236.0,422.0,244.5,421.5,252.0,421.5,260.0,421.0,268.5,420.5,277.0,420.0,285.0,419.5,293.0,419.5,301.0,419.5,308.5,419.5,316.0,420.0,323.5,419.5,331.5,418.5,339.5,417.5,347.0,416.5,355.5,415.5,363.5,415.0,371.0,415.0,378.5,415.0,386.5,415.0,394.5,414.5,402.5,414.5,411.0,414.0,419.5,413.0,427.5,411.5,435.5,410.5,443.5,409.0,451.5,408.0,460.0,407.5,468.0,407.0,475.5,406.5,483.0,406.0,491.5,405.5,499.5,405.0,507.5,404.5,516.0,404.0" stroke="black" stroke-width="2" fill="none" />
<polyline points="515.5,395.5,508.0,396.0,500.5,396.0,493.0,396.5,485.5,397.5,477.5,398.0,469.0,398.5,460.5,400.0,452.0,401.5,443.5,402.5,435.5,403.5,427.5,403.5,419.0,404.0,411.0,405.0,402.5,405.5,394.5,406.0,387.0,406.0,379.0,406.0,371.0,406.0,363.0,406.5,354.5,407.0,346.0,407.5,337.5,408.5,329.5,409.5,321.5,410.0,313.5,410.5,306.0,411.0,298.0,411.0,290.0,411.0,282.5,411.5,275.5,412.0,268.0,413.0,260.5,413.5,252.5,414.0,244.5,414.5,236.5,415.0,228.0,415.5,220.0,416.0,211.5,416.5,203.0,417.0,195.0,418.0,187.0,419.0,179.5,420.0,171.5,421.0,164.0,421.5,156.0,422.0,148.0,422.5,139.5,423.0,131.0,423.5,123.0,423.5,115.5,424.5,107.5,425.0,99.5,425.5,92.0,425.5,84.5,425.5,76.0,426.0,68.5,427.0,61.0,427.5,53.0,428.5,44.5,428.5,36.5,429.0,28.5,428.5,20.0,429.0,11.0,429.0,3.0,430.0" stroke="black" stroke-width="2" fill="none" />
<polyline points="3.5,422.5,11.0,421.5,18.5,420.5,26.5,420.0,34.5,420.0,42.5,419.5,51.0,419.0,59.0,418.0,67.0,417.5,75.0,417.0,83.0,416.5,91.0,416.0,99.0,416.0,107.5,416.0,116.0,415.0,124.0,414.5,132.5,414.5,140.0,414.0,147.5,413.5,155.5,412.5,163.5,411.5,171.5,411.5,180.0,411.0,188.5,410.5,197.0,410.0,205.0,409.5,213.0,409.0,221.0,408.5,229.5,408.0,237.5,408.5,245.5,408.0,253.5,407.5,261.0,406.5,268.0,405.5,275.5,404.5,283.0,404.0,291.0,403.5,298.5,403.0,306.5,403.0,314.5,404.0,322.5,403.5,330.5,403.0,338.5,402.5,346.5,401.5,354.5,401.0,362.5,400.5,370.5,399.5,378.5,399.0,387.0,398.0,395.0,397.0,403.5,396.0,412.0,395.5,420.0,395.5,428.0,395.0,436.0,395.0,444.5,394.5,452.5,393.0,460.5,392.0,468.0,391.5,475.5,391.0,484.0,391.0,492.0,390.0,500.5,389.5,508.5,389.5,516.5,389.5" stroke="black" stroke-width="2" fill="none" />
<polyline points="512.5,466.0,512.0,460.0,512.0,452.0,512.0,444.0,512.5,436.0,511.5,427.5,512.5,420.0,511.0,412.0,512.5,404.0,512.0,395.5,512.0,387.5,512.0,380.0,511.5,372.0,512.5,364.0,511.5,356.0,511.5,347.5,511.5,339.0,512.5,330.5,512.0,322.0,512.0,314.0,511.0,305.5,510.5,297.5,510.5,290.0,510.5,282.0,510.5,274.5,510.5,267.0,510.0,259.0,511.0,251.0,510.5,243.0,511.5,235.5,511.5,227.5,510.5,219.5,511.5,211.0,510.5,203.0,510.5,195.0,510.5,187.0,510.5,178.5,510.5,170.5,511.0,162.5,511.0,154.5,510.0,147.0,511.0,139.0,511.0,131.0,511.0,123.0,510.0,114.5,510.0,107.0,510.0,98.5,510.5,90.0,510.5,81.5,510.5,73.5,510.5,66.5" stroke="black" stroke-width="2" fill="none" />
<polyline points="502.0,85.0,494.0,85.5" stroke="black" stroke-width="2" fill="none" />
<polyline points="499.0,93.0,490.5,93.0,483.0,93.5" stroke="black" stroke-width="2" fill="none" />
<polyline points="405.0,72.5,397.5,76.0,401.5,73.0" stroke="black" stroke-width="2" fill="none" />
<polyline points="362.0,66.0,354.0,65.5,345.5,65.0,337.5,65.0" stroke="black" stroke-width="2" fill="none" />
<polyline points="330.0,61.5,338.0,62.0,346.0,62.0,354.0,62.0,362.0,62.5" stroke="black" stroke-width="2" fill="none" />
<polyline points="299.0,42.5,291.0,43.0,283.0,43.5,274.5,44.0,266.0,44.0,258.0,44.5,250.0,45.5,242.0,46.0,233.5,46.5,226.0,47.0,218.0,47.5,210.0,48.0,202.0,48.5,194.0,48.5,186.5,48.0,178.5,48.0,170.5,48.5,162.5,49.0,154.5,49.5,147.0,50.0,139.0,51.0,131.0,52.5,123.5,54.0,115.5,55.5,107.0,56.5,98.5,57.0,90.5,57.5,82.5,58.0,74.5,58.0,66.5,58.5,58.5,59.0,50.5,59.5,42.5,59.5,35.0,60.0,27.5,60.0,19.5,60.5,12.0,61.0,4.0,62.0" stroke="black" stroke-width="2" fill="none" />
<polyline points="4.0,52.5,11.5,52.0,19.5,51.5,27.5,51.0,35.5,51.0,43.5,51.5,51.5,51.0,60.0,51.0,67.5,51.0,75.0,50.0,82.5,49.5,90.5,49.0,98.0,48.5,106.0,48.0,114.5,47.0,122.0,46.0,130.0,45.0,138.5,44.5,147.0,43.5,155.0,43.0,163.0,43.0,171.0,42.0,178.5,41.5,186.0,41.0,193.5,41.0,201.5,41.0,209.0,40.5,217.5,40.0,225.0,39.5,233.0,39.5,241.0,39.0,249.0,38.5,257.5,37.5,265.5,37.0,274.0,36.5,282.5,35.5,290.5,35.5" stroke="black" stroke-width="2" fill="none" />
<polyline points="283.5,28.0,275.0,28.5,267.0,29.0,258.5,30.0,250.5,31.0,242.5,31.5,234.5,32.0,226.5,32.5,218.0,32.5,209.0,33.0,201.0,33.0,193.0,33.5,185.5,34.5,178.0,35.0,170.0,35.5,162.5,36.5,154.0,36.5,146.0,37.5,138.0,38.0,130.5,38.5,123.0,39.0,115.5,40.0,108.0,41.0,100.0,41.5,91.5,41.5,83.5,42.0,75.5,42.0,68.0,42.0,60.5,42.0,53.0,42.0,44.5,42.0,36.0,42.0,28.0,42.5,19.5,43.0,11.0,43.0,3.0,43.0" stroke="black" stroke-width="2" fill="none" />
<polyline points="2.5,36.5,11.0,36.0,19.0,36.0,27.5,36.0,36.0,36.0,44.5,36.0,52.5,36.0,60.5,35.0,68.5,34.5,76.0,34.0,84.0,33.5,92.0,32.5,99.5,31.5,108.0,31.0,116.0,30.5,124.0,30.0,132.0,29.5,139.5,28.0,147.5,27.5,155.5,27.0,163.5,26.0,171.5,26.0,179.5,26.0,187.5,26.0,195.5,26.0,203.0,26.0,211.0,25.5,218.5,25.5,226.0,25.0,234.0,24.5,242.0,24.0,250.0,24.0,258.5,23.5,267.0,23.0" stroke="black" stroke-width="2" fill="none" />
<polyline points="275.5,31.5,285.5,39.0,297.0,48.0,303.0,56.0,314.0,64.5" stroke="black" stroke-width="2" fill="none" />
<polyline points="317.5,62.0,309.5,55.0,302.5,51.5,294.5,44.5,282.5,34.0,275.0,29.0,267.0,27.0,259.0,22.5,242.5,14.5,232.5,10.5,224.0,9.5" stroke="black" stroke-width="2" fill="none" />
<polyline points="242.0,16.0,234.5,16.0,226.5,16.0,219.0,16.5,212.0,17.0,204.5,17.5,197.0,17.5,189.0,18.0,181.0,18.0,173.0,17.5,165.0,18.0,157.0,18.5,149.0,19.5,141.0,20.0,133.0,21.0,124.5,22.0,116.0,22.0,107.5,22.0,99.0,22.5,90.5,23.5,82.0,24.0,74.5,24.5,66.5,25.0,59.0,25.5,51.0,26.0,43.5,27.0,35.5,28.0,28.0,29.0,20.5,29.5,13.0,29.5,5.0,30.0" stroke="black" stroke-width="2" fill="none" />
<polyline points="8.0,26.0,8.0,27.0,8.0,35.5" stroke="black" stroke-width="2" fill="none" />
<polyline points="12.5,41.0,20.5,33.0,28.0,26.0" stroke="black" stroke-width="2" fill="none" />
<polyline points="29.5,24.5,25.0,32.5,30.0,28.5,38.0,27.5,46.0,26.5" stroke="black" stroke-width="2" fill="none" />
<polyline points="45.5,35.0,37.0,42.5,28.5,50.5,20.5,58.0,13.0,65.5" stroke="black" stroke-width="2" fill="none" />
<polyline points="12.0,72.5,20.5,65.5,29.5,58.0,38.0,50.5,46.5,42.5" stroke="black" stroke-width="2" fill="none" />
<polyline points="42.0,42.5,34.0,45.5,32.0,39.0,31.0,30.5,26.0,32.5" stroke="black" stroke-width="2" fill="none" />
<polyline points="29.0,34.5,21.0,42.5,13.0,50.0" stroke="black" stroke-width="2" fill="none" />
<polyline points="11.5,51.0,19.5,50.5" stroke="black" stroke-width="2" fill="none" />
<polyline points="17.0,45.5,25.0,45.0,35.5,45.5,43.5,45.5" stroke="black" stroke-width="2" fill="none" />
<polyline points="43.0,48.5,38.0,56.5,32.5,64.5,30.0,72.5,22.0,80.5,19.0,89.0,10.5,92.5,19.0,87.5,27.0,74.5,35.5,61.0,44.0,49.0" stroke="black" stroke-width="2" fill="none" />
<polyline points="20.5,27.5,12.5,35.0" stroke="black" stroke-width="2" fill="none" />
<polyline points="12.0,22.5,20.0,21.5,27.5,20.5,36.0,20.0,44.0,19.5,52.0,19.0,60.0,18.5,67.5,17.0" stroke="black" stroke-width="2" fill="none" />
<polyline points="66.5,18.5,58.0,18.5" stroke="black" stroke-width="2" fill="none" />
<polyline points="45.0,34.0,47.0,25.5,35.5,17.5" stroke="black" stroke-width="2" fill="none" />
<polyline points="6.0,15.5,14.0,14.5,18.5,18.5,27.0,15.5,35.0,15.5,42.5,15.5,50.5,14.5,58.0,16.0,66.0,16.0,73.5,16.5,81.5,12.5,89.5,7.5,98.0,4.5,106.0,5.0,114.5,5.5,122.5,6.0,130.5,6.0,138.5,6.0,146.0,6.0,154.0,6.0,162.0,6.0,170.0,6.0,178.0,6.5,186.0,6.5,194.5,6.5,202.5,6.0,210.5,5.5,218.5,5.5,226.5,5.0,238.5,12.0,246.0,16.0" stroke="black" stroke-width="2" fill="none" />
<polyline points="255.0,17.5,264.0,24.5" stroke="black" stroke-width="2" fill="none" />
<polyline points="194.5,75.0,186.5,82.5" stroke="black" stroke-width="2" fill="none" />
<polyline points="207.5,115.5,201.5,123.5,193.0,131.5,195.0,126.5,203.5,121.5" stroke="black" stroke-width="2" fill="none" />
<polyline points="147.0,42.5,155.0,35.5" stroke="black" stroke-width="2" fill="none" />
<polyline points="149.5,34.5,157.5,27.0" stroke="black" stroke-width="2" fill="none" />
<polyline points="114.0,19.5,106.5,27.5,98.0,35.0" stroke="black" stroke-width="2" fill="none" />
<polyline points="5.5,14.5,4.5,22.5,5.0,31.0,5.0,39.0,5.5,47.5,5.5,55.5,6.0,64.0,5.5,71.5,5.5,79.5,5.5,88.0,5.5,95.5,5.5,103.5,5.0,111.0,5.5,119.0,5.5,127.0,5.5,135.0,5.5,143.0,5.0,150.5,5.0,158.5,5.0,166.5,5.0,174.0,5.0,182.5,5.0,190.5,5.0,199.0,5.0,207.5,5.0,215.5,4.5,223.5,4.5,232.0,4.0,240.0,4.5,248.0,4.0,256.0,4.0,264.5,4.5,272.5,5.0,280.0,5.0,288.5,5.5,296.5,5.5,304.0,5.5,312.0,5.5,319.5,5.5,327.5,5.0,335.5,5.0,343.5,5.0,351.0,5.0,359.0,5.0,367.5,5.5,375.5,5.0,383.5,4.5,391.5,4.5,399.5,4.5,408.0,5.0,416.0,5.0,424.0,5.0,431.5,5.0,439.0,5.0,447.0,4.5,454.5,5.0,462.0" stroke="black" stroke-width="2" fill="none" />
<polyline points="40.5,466.5,48.0,458.5,56.5,450.5,65.0,442.0,73.5,434.0,81.0,425.5,89.0,417.5" stroke="black" stroke-width="2" fill="none" />
<polyline points="82.5,419.5,74.5,427.0,67.0,434.5,58.5,442.0,50.0,449.0,42.0,456.5,34.5,464.5" stroke="black" stroke-width="2" fill="none" />
<polyline points="28.5,465.0,36.5,457.0,44.0,449.5,51.5,442.5,59.5,435.0,68.0,428.0,76.0,420.5" stroke="black" stroke-width="2" fill="none" />
<polyline points="77.5,411.5,69.5,419.0,61.5,426.0,53.0,433.5,44.5,441.5,36.0,449.5,28.5,457.0,20.5,465.0" stroke="black" stroke-width="2" fill="none" />
<polyline points="11.5,411.0,20.0,403.5,28.5,395.5,37.0,388.0" stroke="black" stroke-width="2" fill="none" />
<polyline points="37.0,379.5,29.0,386.0,21.0,393.5,12.5,401.0" stroke="black" stroke-width="2" fill="none" />
<polyline points="10.5,402.5,18.0,401.5,26.0,401.0,33.5,400.5,41.0,399.5,49.0,399.0" stroke="black" stroke-width="2" fill="none" />
<polyline points="27.5,378.5,19.5,386.0,11.0,393.5" stroke="black" stroke-width="2" fill="none" />
<polyline points="11.5,392.0,19.5,392.0,27.5,392.0,35.5,392.0,43.5,392.0" stroke="black" stroke-width="2" fill="none" />
<polyline points="28.0,371.0,20.0,378.5,11.5,386.5" stroke="black" stroke-width="2" fill="none" />
<polyline points="13.0,384.0,21.0,383.5,29.0,384.0" stroke="black" stroke-width="2" fill="none" />
<polyline points="20.5,370.0,12.5,377.5" stroke="black" stroke-width="2" fill="none" />
<polyline points="12.0,377.0,20.0,376.5,28.5,375.5" stroke="black" stroke-width="2" fill="none" />
<polyline points="20.5,371.0,12.5,371.0" stroke="black" stroke-width="2" fill="none" />
<polyline points="11.5,369.5,19.5,361.5" stroke="black" stroke-width="2" fill="none" />
<polyline points="7.5,352.5,13.5,360.5,20.5,368.0,28.5,376.0,33.0,383.5,46.5,391.5,54.5,399.0,65.5,407.5" stroke="black" stroke-width="2" fill="none" />
<polyline points="57.0,406.5,49.5,407.0,41.5,407.0,34.0,407.0,26.5,407.5,19.0,408.0,11.0,409.0" stroke="black" stroke-width="2" fill="none" />
<polyline points="3.5,412.0,11.0,411.5,19.5,411.5,27.5,411.0,36.0,411.0,45.0,411.0,52.5,410.5,60.0,410.0,67.5,409.5,75.0,409.0,83.0,408.5,91.0,408.0" stroke="black" stroke-width="2" fill="none" />
<polyline points="59.0,340.5,51.0,340.5,43.5,341.5,35.5,342.0,27.5,342.5,20.0,342.5,12.5,342.5" stroke="black" stroke-width="2" fill="none" />
<polyline points="2.0,357.5,10.5,357.0,19.0,357.0,26.5,356.5,34.0,355.5,42.0,355.0,50.0,354.5,58.5,354.0" stroke="black" stroke-width="2" fill="none" />
<polyline points="60.0,315.5,52.0,316.0,43.5,316.0,35.0,316.0,27.0,316.0,19.0,316.5,11.0,317.0" stroke="black" stroke-width="2" fill="none" />
<polyline points="10.5,308.5,19.0,308.0,27.5,308.0,35.5,308.0,44.0,308.0,52.5,308.5,60.5,308.0" stroke="black" stroke-width="2" fill="none" />
<polyline points="60.0,297.5,51.5,297.0,43.5,298.0,35.5,298.5,27.5,299.0,19.5,299.5,11.5,299.5" stroke="black" stroke-width="2" fill="none" />
<polyline points="2.5,291.0,10.5,290.5,18.5,290.5,25.5,290.5,33.0,290.5,41.5,290.5,49.5,291.0,58.5,291.0" stroke="black" stroke-width="2" fill="none" />
<polyline points="59.5,281.5,52.0,282.0,44.0,282.5,36.0,283.0,28.0,283.0,20.5,283.5,12.5,284.5,4.0,284.5" stroke="black" stroke-width="2" fill="none" />
<polyline points="5.0,275.5,13.0,274.5,21.0,274.0,28.5,274.0,36.5,273.5,44.0,273.5,52.0,273.0,60.0,272.5,68.0,272.5" stroke="black" stroke-width="2" fill="none" />
<polyline points="59.5,204.0,51.0,203.5,43.0,203.5,34.5,203.5,26.5,203.5,19.0,203.5,11.0,203.5" stroke="black" stroke-width="2" fill="none" />
<polyline points="12.0,197.0,20.0,196.0,27.5,195.5,36.0,194.5,44.5,193.5,53.0,193.5,61.0,193.0" stroke="black" stroke-width="2" fill="none" />
<polyline points="59.5,177.0,51.5,177.5,43.5,177.5,35.5,178.0,27.5,178.5,19.0,179.5,10.5,180.0" stroke="black" stroke-width="2" fill="none" />
<polyline points="2.5,367.5,10.5,367.0,18.5,366.0,27.0,365.0,35.0,364.0,44.0,363.5,52.0,362.5,60.5,362.5" stroke="black" stroke-width="2" fill="none" />
<polyline points="67.0,400.5,59.0,400.5,51.0,400.5,43.0,400.5,35.5,401.5,28.0,402.0,21.0,402.5,13.0,403.5,5.0,403.5" stroke="black" stroke-width="2" fill="none" />
<polyline points="4.5,396.5,12.5,396.0,20.5,395.5,28.5,395.0,37.0,394.5,44.5,393.5,52.0,393.5,59.5,393.5" stroke="black" stroke-width="2" fill="none" />
<polyline points="52.5,385.0,44.5,386.0,37.0,386.5,29.0,387.5,21.0,388.0,12.5,389.5,4.0,390.0" stroke="black" stroke-width="2" fill="none" />
<polyline points="5.0,382.5,12.5,382.0,20.0,381.0,28.0,380.5,35.5,379.0,43.0,378.0,51.0,377.0,59.0,376.5" stroke="black" stroke-width="2" fill="none" />
<polyline points="60.5,369.0,53.0,370.5,45.5,372.0,37.0,372.5,28.0,373.0,19.5,374.0,11.0,374.5,3.5,375.5" stroke="black" stroke-width="2" fill="none" />
<polyline points="464.5,181.5,472.5,177.5" stroke="black" stroke-width="2" fill="none" />
</svg>