<svg xmlns="http://www.w3.org/2000/svg" version="1.1"><polyline points="299.0,24.0,316.5,32.0,329.5,40.5,338.0,48.5,346.0,57.0,353.0,65.5,356.0,73.5,359.5,79.5,369.0,78.5,376.0,88.0,383.5,98.0,391.5,108.0,397.5,113.5,406.5,121.5,415.0,124.0,423.0,124.0,431.0,124.0,439.0,123.5,447.0,122.0,455.0,122.5,463.0,121.5,471.0,121.5,479.0,121.5,487.0,121.5,495.5,120.5,503.0,120.0,512.0,119.5" stroke="black" stroke-width="2" fill="none" />
<polyline points="412.0,138.5,403.5,146.0,395.5,153.0,387.5,161.0,379.0,168.5,371.0,176.5,363.5,183.5" stroke="black" stroke-width="2" fill="none" />
<polyline points="372.0,184.5,380.0,177.5,388.0,170.5,396.0,163.5,404.5,155.5,412.5,148.0" stroke="black" stroke-width="2" fill="none" />
<polyline points="412.0,157.5,404.0,165.0,396.0,172.5,387.5,179.5,379.5,187.0,371.5,194.0,364.0,201.5,356.5,208.5" stroke="black" stroke-width="2" fill="none" />
<polyline points="363.0,217.5,371.0,210.0,379.0,202.0,387.0,194.0,395.0,186.0,403.0,178.5,411.0,171.0" stroke="black" stroke-width="2" fill="none" />
<polyline points="411.5,163.0,404.0,170.5,395.5,179.0,388.0,186.5,380.0,194.5,372.0,201.5,364.0,209.0,355.5,216.5" stroke="black" stroke-width="2" fill="none" />
<polyline points="345.5,217.5,338.0,225.0,331.0,232.5,322.5,240.0" stroke="black" stroke-width="2" fill="none" />
<polyline points="331.0,242.5,339.0,236.0,347.0,228.5" stroke="black" stroke-width="2" fill="none" />
<polyline points="338.5,219.5,330.5,227.0,323.0,234.5,315.5,242.0,307.5,249.5" stroke="black" stroke-width="2" fill="none" />
<polyline points="306.0,233.0,314.0,232.5,322.5,232.5" stroke="black" stroke-width="2" fill="none" />
<polyline points="322.5,224.0,315.0,224.5,307.0,225.0" stroke="black" stroke-width="2" fill="none" />
<polyline points="316.0,209.0,308.0,216.5,300.0,224.5,292.0,232.5,284.5,240.0,276.5,247.5,268.5,256.0,260.0,264.5,251.5,272.0,244.0,280.0,236.0,287.5,228.5,295.0,220.5,302.5,212.5,310.0,205.0,317.0,196.5,324.5,189.0,331.0,180.5,338.5,172.5,345.5,164.5,353.5,156.5,361.0,148.5,368.0,140.5,375.5" stroke="black" stroke-width="2" fill="none" />
<polyline points="148.0,371.5,156.0,371.0,163.5,370.5" stroke="black" stroke-width="2" fill="none" />
<polyline points="166.0,370.5,166.0,370.5,168.5,378.5" stroke="black" stroke-width="2" fill="none" />
<polyline points="165.0,363.5,157.0,364.0" stroke="black" stroke-width="2" fill="none" />
<polyline points="163.5,354.0,155.5,354.5,148.0,355.0" stroke="black" stroke-width="2" fill="none" />
<polyline points="141.0,352.0,149.0,344.5,157.0,337.0,164.5,330.0,173.0,322.5,181.0,315.0,189.0,307.0,197.0,300.0,204.5,292.5,212.0,285.0,220.5,277.5,228.5,270.0,236.0,262.0,243.5,254.0,251.5,247.0,259.5,239.5,267.5,232.0,274.5,225.0,282.0,217.5,290.5,210.0,298.5,203.0,306.5,196.0,314.0,189.0,322.0,181.5" stroke="black" stroke-width="2" fill="none" />
<polyline points="316.0,177.5,308.0,185.5,300.0,192.5,292.5,200.5,285.0,208.5" stroke="black" stroke-width="2" fill="none" />
<polyline points="276.0,209.5,284.0,202.0,292.0,194.5,299.5,186.5,307.0,179.0" stroke="black" stroke-width="2" fill="none" />
<polyline points="298.5,171.5,307.0,164.0" stroke="black" stroke-width="2" fill="none" />
<polyline points="299.5,165.5,291.5,172.5" stroke="black" stroke-width="2" fill="none" />
<polyline points="292.5,185.5,284.5,193.0,277.0,201.0" stroke="black" stroke-width="2" fill="none" />
<polyline points="274.0,217.5,266.0,225.0,258.5,233.0,250.5,240.5,242.5,248.0,235.0,255.5,227.5,263.0,220.0,271.0,212.0,279.0,204.0,287.0,195.5,294.5,188.0,302.0,180.0,309.0,172.0,316.5,164.0,323.5,156.5,330.5,148.5,338.0" stroke="black" stroke-width="2" fill="none" />
<polyline points="146.0,338.5,154.0,338.0,162.0,337.0" stroke="black" stroke-width="2" fill="none" />
<polyline points="147.0,332.5,154.5,325.5,162.5,318.0,170.5,310.5,178.5,303.0,186.5,295.5,194.0,288.0,201.5,281.0,210.0,274.0,218.0,266.5,226.5,259.0,235.0,251.5,244.0,243.5,252.0,236.0,260.0,228.5,268.0,221.5" stroke="black" stroke-width="2" fill="none" />
<polyline points="257.5,218.5,249.5,226.5,242.5,234.0,235.0,242.0,227.5,250.0,220.0,257.0,212.5,264.5,205.0,271.5,197.0,278.5,188.5,285.5,180.0,293.5,172.0,300.5,163.5,308.5,155.5,316.5,147.5,324.5" stroke="black" stroke-width="2" fill="none" />
<polyline points="146.0,328.5,154.0,328.0,161.5,327.5" stroke="black" stroke-width="2" fill="none" />
<polyline points="165.0,322.0,156.5,322.0" stroke="black" stroke-width="2" fill="none" />
<polyline points="158.0,315.0,165.5,314.5" stroke="black" stroke-width="2" fill="none" />
<polyline points="164.5,306.0,156.5,306.5" stroke="black" stroke-width="2" fill="none" />
<polyline points="148.0,315.0,156.5,307.5,164.5,300.0,173.5,293.5,181.0,286.0,189.0,278.0,197.5,271.0,205.0,264.0,212.5,256.5,220.5,249.5,228.0,242.0,235.5,235.0,243.0,227.5,251.0,220.0,258.5,212.5" stroke="black" stroke-width="2" fill="none" />
<polyline points="257.5,205.5,250.5,213.0,243.0,220.0,235.0,227.0,227.5,234.5,219.5,241.5,212.0,248.5,203.5,256.0,195.0,263.0,187.0,270.5,179.5,278.0,171.5,285.0,163.5,292.0,155.5,299.5,147.5,307.0" stroke="black" stroke-width="2" fill="none" />
<polyline points="149.0,299.0,157.0,291.5,165.0,284.5,173.0,277.0,181.0,269.5,189.0,262.5,197.0,255.5,204.5,248.0,212.0,240.5,219.5,233.0,227.5,226.5,235.5,219.0,243.0,212.0,250.0,204.5,258.0,197.5" stroke="black" stroke-width="2" fill="none" />
<polyline points="250.0,195.0,242.0,202.5,234.0,210.0,226.0,217.0,218.5,224.5,210.5,231.5,202.5,239.5,195.0,247.5,187.5,255.0,179.5,262.5,171.5,270.5,163.5,277.5,156.0,285.5,147.5,293.5" stroke="black" stroke-width="2" fill="none" />
<polyline points="144.5,291.0,152.5,290.5" stroke="black" stroke-width="2" fill="none" />
<polyline points="149.0,283.5,157.0,276.0,165.0,269.0,173.0,261.0,180.5,253.5,188.0,246.5,196.0,239.0,203.5,232.0,211.5,224.0,219.0,216.5,226.5,209.5,234.5,203.0,242.5,196.0" stroke="black" stroke-width="2" fill="none" />
<polyline points="243.0,186.5,234.5,194.0,227.0,201.5,219.0,209.5,211.5,217.5,204.0,225.0,196.0,232.5,188.0,239.5,180.0,246.5,171.5,253.5,163.0,260.5,155.5,268.5,147.5,276.0,139.5,284.0" stroke="black" stroke-width="2" fill="none" />
<polyline points="138.0,281.5,146.5,281.0,155.0,280.5" stroke="black" stroke-width="2" fill="none" />
<polyline points="139.5,277.0,147.5,269.5,156.0,262.0,163.5,254.5,171.5,247.0,179.5,239.5,187.5,231.5,195.5,224.0,203.0,217.0,210.5,209.5,218.5,202.5,226.5,195.0,234.5,187.0,242.5,179.0,251.0,171.5,259.5,164.0,268.0,156.5" stroke="black" stroke-width="2" fill="none" />
<polyline points="265.5,147.5,257.5,155.5,249.5,163.0,242.5,170.5,235.5,178.5,228.0,186.0,220.5,193.5,212.0,202.0,204.0,209.5,196.0,217.0,187.5,225.0,180.0,232.0,172.0,239.0,163.5,246.0,154.5,253.5,146.5,260.5,138.0,268.5" stroke="black" stroke-width="2" fill="none" />
<polyline points="138.5,265.0,146.5,265.0,155.0,264.5" stroke="black" stroke-width="2" fill="none" />
<polyline points="155.5,273.0,147.5,273.5,139.5,273.5" stroke="black" stroke-width="2" fill="none" />
<polyline points="136.0,276.5,143.5,290.5" stroke="black" stroke-width="2" fill="none" />
<polyline points="145.0,298.0,153.0,297.5,161.0,297.0" stroke="black" stroke-width="2" fill="none" />
<polyline points="131.0,267.5,139.0,260.0,147.5,253.0,155.5,245.5,163.0,238.0,171.0,230.5,179.5,223.0,187.0,215.0,195.5,208.0,203.0,201.0,211.0,193.5,218.5,186.0,227.0,178.5,234.5,170.5,242.5,163.0,250.5,155.0,258.0,147.5,266.0,140.0" stroke="black" stroke-width="2" fill="none" />
<polyline points="284.0,129.0,291.0,121.0,299.0,113.0,306.5,104.5,314.5,97.0,322.0,89.0,330.0,81.5,338.0,74.0,346.5,66.5" stroke="black" stroke-width="2" fill="none" />
<polyline points="346.5,58.5,339.0,66.5,330.5,74.5,322.5,82.5,315.0,90.5,307.5,98.0,299.5,105.5,292.0,113.5,284.0,120.5,276.5,128.0" stroke="black" stroke-width="2" fill="none" />
<polyline points="298.5,119.5,306.5,112.0,314.0,104.5,322.5,97.5,330.5,90.0,338.5,82.0,346.5,74.5" stroke="black" stroke-width="2" fill="none" />
<polyline points="355.5,76.5,347.0,84.0,339.0,92.0,331.0,99.0,323.5,106.0,316.5,113.5,308.5,121.0" stroke="black" stroke-width="2" fill="none" />
<polyline points="323.5,136.0,331.5,128.5,340.0,120.5,348.0,113.0,356.5,105.5,364.5,98.0,372.5,90.5" stroke="black" stroke-width="2" fill="none" />
<polyline points="372.0,83.5,363.5,90.5,355.5,97.5,347.5,104.5,340.0,112.0,332.0,119.5,323.5,127.0" stroke="black" stroke-width="2" fill="none" />
<polyline points="341.5,137.5,349.5,129.5,357.5,122.5,365.0,115.0,373.0,107.0,381.5,99.5" stroke="black" stroke-width="2" fill="none" />
<polyline points="388.5,99.0,380.0,106.5,372.5,114.0,364.5,121.5,356.5,129.0,349.0,136.5,341.0,144.0" stroke="black" stroke-width="2" fill="none" />
<polyline points="356.5,153.5,364.0,146.0,372.5,138.5,380.5,131.0,388.0,123.0,395.5,115.0" stroke="black" stroke-width="2" fill="none" />
<polyline points="396.0,108.0,388.5,115.5,380.5,123.0,372.5,130.5,364.5,138.0,356.5,145.5" stroke="black" stroke-width="2" fill="none" />
<polyline points="364.0,144.0,372.0,144.0,379.5,143.5,387.5,143.0" stroke="black" stroke-width="2" fill="none" />
<polyline points="388.0,153.5,396.0,153.0,404.0,152.5" stroke="black" stroke-width="2" fill="none" />
<polyline points="402.0,141.5,394.0,148.5,385.5,156.0,377.5,163.0,369.5,170.5,361.5,177.5" stroke="black" stroke-width="2" fill="none" />
<polyline points="361.5,171.0,369.5,163.0,377.5,155.5,385.5,148.0,394.0,140.5,402.0,133.5" stroke="black" stroke-width="2" fill="none" />
<polyline points="402.0,127.5,410.5,149.5" stroke="black" stroke-width="2" fill="none" />
<polyline points="403.0,124.0,395.0,132.0,386.5,139.5,378.5,147.0,370.5,154.5,362.5,162.0" stroke="black" stroke-width="2" fill="none" />
<polyline points="356.0,162.0,363.5,154.5,371.0,147.0,378.5,139.5,386.5,131.5,394.5,124.0" stroke="black" stroke-width="2" fill="none" />
<polyline points="388.0,108.5,380.5,116.0,372.5,123.5,364.5,131.0,357.0,138.0,348.5,145.5" stroke="black" stroke-width="2" fill="none" />
<polyline points="355.0,130.5,363.5,130.0,371.5,129.5,379.5,129.0,387.5,129.0" stroke="black" stroke-width="2" fill="none" />
<polyline points="380.0,151.5,372.0,152.0" stroke="black" stroke-width="2" fill="none" />
<polyline points="386.5,162.0,394.0,161.0,402.0,160.5" stroke="black" stroke-width="2" fill="none" />
<polyline points="410.0,176.5,402.0,177.0,393.5,178.0,385.5,179.0" stroke="black" stroke-width="2" fill="none" />
<polyline points="384.5,186.5,393.0,185.5,401.0,185.0" stroke="black" stroke-width="2" fill="none" />
<polyline points="410.0,188.0,402.5,195.5,394.5,203.0,386.5,211.0,379.0,219.0,371.0,226.5" stroke="black" stroke-width="2" fill="none" />
<polyline points="380.0,226.5,388.0,219.5,396.0,212.0,403.5,204.0,412.0,196.0" stroke="black" stroke-width="2" fill="none" />
<polyline points="410.5,179.5,402.0,187.0,394.5,194.0,386.5,201.5,379.0,209.5,371.0,217.0" stroke="black" stroke-width="2" fill="none" />
<polyline points="380.5,209.0,388.0,208.5,396.0,208.0,403.5,208.0" stroke="black" stroke-width="2" fill="none" />
<polyline points="402.5,213.0,394.5,221.0,386.5,228.0,378.5,234.5" stroke="black" stroke-width="2" fill="none" />
<polyline points="378.0,242.5,386.0,235.0,394.5,227.5,403.0,220.5" stroke="black" stroke-width="2" fill="none" />
<polyline points="402.5,226.5,394.0,234.0,386.0,242.0,378.0,249.5" stroke="black" stroke-width="2" fill="none" />
<polyline points="378.5,257.0,386.0,249.0,394.5,241.0,403.0,233.0" stroke="black" stroke-width="2" fill="none" />
<polyline points="402.5,227.5,410.0,233.5,424.0,236.0,432.0,236.0,440.0,236.0,448.0,236.0,456.0,236.0,464.0,236.0,472.0,236.0,480.0,236.5,488.0,236.5,496.5,236.5,504.5,236.5,513.0,239.0" stroke="black" stroke-width="2" fill="none" />
<polyline points="511.5,237.5,512.5,245.5,513.0,253.5,513.0,261.5,512.5,270.0,512.5,278.0,512.5,286.0,512.0,294.5,512.0,303.0,511.5,311.0,511.5,319.0,511.5,327.0,512.0,335.0,512.0,343.0" stroke="black" stroke-width="2" fill="none" />
<polyline points="515.0,347.0,507.0,347.5" stroke="black" stroke-width="2" fill="none" />
<polyline points="514.5,356.5,506.5,357.0,498.0,358.0" stroke="black" stroke-width="2" fill="none" />
<polyline points="492.0,366.5,500.0,366.0,508.0,365.5,516.0,365.0" stroke="black" stroke-width="2" fill="none" />
<polyline points="515.5,380.5,507.5,381.5,499.0,382.5,490.0,383.0" stroke="black" stroke-width="2" fill="none" />
<polyline points="484.0,389.0,492.5,388.0,500.5,387.0,508.5,386.5,516.5,386.5" stroke="black" stroke-width="2" fill="none" />
<polyline points="515.5,373.5,507.0,374.0,499.0,374.0,491.0,374.5" stroke="black" stroke-width="2" fill="none" />
<polyline points="484.5,397.0,492.5,396.5,500.0,396.5,508.0,396.5,516.5,395.5" stroke="black" stroke-width="2" fill="none" />
<polyline points="516.0,427.5,508.0,428.5,500.5,429.5,493.0,429.5,485.5,430.0" stroke="black" stroke-width="2" fill="none" />
<polyline points="484.5,422.5,492.5,421.5,500.0,421.0,508.0,420.5,515.5,420.0" stroke="black" stroke-width="2" fill="none" />
<polyline points="515.5,437.0,508.0,437.0,500.0,437.0,492.0,437.5" stroke="black" stroke-width="2" fill="none" />
<polyline points="485.0,446.0,493.0,446.0,501.5,445.5,509.5,445.0,517.0,444.0" stroke="black" stroke-width="2" fill="none" />
<polyline points="508.0,453.0,500.0,460.5,492.5,468.0,484.5,475.0,476.5,482.5,468.0,490.0" stroke="black" stroke-width="2" fill="none" />
<polyline points="493.0,490.0,501.0,482.5,509.0,475.0,516.5,468.0" stroke="black" stroke-width="2" fill="none" />
<polyline points="516.5,458.0,508.5,466.0,501.0,473.5,492.5,481.0,484.5,488.5" stroke="black" stroke-width="2" fill="none" />
<polyline points="500.5,490.0,508.5,483.0" stroke="black" stroke-width="2" fill="none" />
<polyline points="509.0,459.5,501.0,467.0,492.5,474.5,483.5,482.0,475.5,490.0" stroke="black" stroke-width="2" fill="none" />
<polyline points="460.0,490.0,468.5,483.0,476.0,475.5,484.0,467.5,492.5,460.0,501.0,453.0" stroke="black" stroke-width="2" fill="none" />
<polyline points="503.5,449.0,511.0,457.0,511.5,465.0,511.5,473.0,512.0,481.0,512.0,489.5,512.5,497.5,512.5,505.5" stroke="black" stroke-width="2" fill="none" />
<polyline points="492.5,453.5,484.5,461.0,476.5,468.0,468.5,475.0,460.5,482.5,452.5,490.0,444.0,497.0" stroke="black" stroke-width="2" fill="none" />
<polyline points="442.5,489.0,450.5,481.0,459.0,473.5,467.5,466.0,475.5,459.0,484.0,452.0" stroke="black" stroke-width="2" fill="none" />
<polyline points="476.0,450.5,468.0,458.5,459.5,466.0,451.5,473.5,443.0,481.5,435.0,489.0" stroke="black" stroke-width="2" fill="none" />
<polyline points="428.0,488.0,435.5,481.0,443.0,473.0,451.0,465.5,459.0,458.5,466.5,451.0" stroke="black" stroke-width="2" fill="none" />
<polyline points="457.0,452.0,449.5,459.5,442.0,467.5,435.0,474.5,427.5,481.5" stroke="black" stroke-width="2" fill="none" />
<polyline points="419.5,481.5,427.5,474.5,435.5,467.0,443.5,460.0,451.0,452.5" stroke="black" stroke-width="2" fill="none" />
<polyline points="443.0,452.0,435.5,459.5,428.0,467.0,420.5,474.0" stroke="black" stroke-width="2" fill="none" />
<polyline points="420.0,468.0,427.5,460.5,435.5,453.5" stroke="black" stroke-width="2" fill="none" />
<polyline points="436.5,437.5,429.0,438.0" stroke="black" stroke-width="2" fill="none" />
<polyline points="430.5,438.0,430.0,430.0" stroke="black" stroke-width="2" fill="none" />
<polyline points="428.0,430.5,427.0,438.5,437.5,441.5,445.5,441.0,453.5,441.5,461.5,445.0,469.5,448.0,478.0,449.0,486.0,449.0,493.5,448.0,501.5,449.0,509.5,451.0" stroke="black" stroke-width="2" fill="none" />
<polyline points="516.5,411.0,508.5,412.0,499.5,412.5,491.5,413.0,483.5,413.5,475.5,414.0" stroke="black" stroke-width="2" fill="none" />
<polyline points="477.5,405.0,485.5,405.0,493.0,405.0,500.5,404.5,508.0,404.0,516.0,403.5" stroke="black" stroke-width="2" fill="none" />
<polyline points="516.5,477.5,509.0,477.5,501.5,477.5,493.5,478.0,485.5,479.0,477.5,479.5,469.5,480.5,460.5,481.5,452.0,482.0,444.0,483.0,436.0,483.5,428.0,484.0,420.0,484.5,412.0,485.0,404.0,485.5,396.0,486.0,388.5,486.0,380.5,487.0,372.0,488.0,363.5,488.5,355.5,488.5,347.5,488.5,339.5,488.5,331.0,489.0,323.0,489.5,315.0,490.0,307.0,490.0,299.0,490.5,291.0,491.0,283.0,491.5,275.0,492.0,267.5,492.5,259.5,493.0,251.5,493.5,243.5,494.0,235.5,494.5,227.5,495.5,219.5,496.0,211.0,496.0,203.0,496.5,194.5,497.0,186.5,498.0,178.0,499.0,170.0,500.5,162.5,501.0,154.5,501.5,147.0,502.0,139.5,502.5,132.0,503.0,123.5,503.0,116.0,503.5,107.5,504.0,99.5,504.5,92.0,504.5,84.0,505.0,76.0,505.5,67.5,506.0,59.5,506.5,51.5,507.0,43.5,507.5,35.5,507.5,27.5,508.0,19.5,508.0,11.5,508.0,3.5,509.0" stroke="black" stroke-width="2" fill="none" />
<polyline points="2.0,502.0,10.0,501.5,17.5,501.0,25.5,500.5,33.5,499.0,41.5,498.5,50.0,498.0,58.0,498.0,66.5,497.5,75.0,496.5,83.0,496.0,91.0,495.5,98.5,495.5,107.0,495.5,115.5,495.0,123.5,494.5,131.5,494.0,139.5,493.5,147.5,493.0,155.5,492.5,163.5,492.0,171.5,491.0,179.0,490.5,187.0,490.0,194.5,489.5,202.5,488.5,210.5,488.5,218.0,488.0,225.5,487.5,234.0,487.0,242.0,487.0,250.5,486.0,258.5,485.0,266.5,484.5,275.0,484.5,283.5,484.0,291.5,483.5,299.0,483.0,307.0,483.0,315.0,482.5,322.5,482.0,331.0,481.5,339.5,481.0,347.5,480.5,356.0,480.0,364.0,479.5,372.5,479.0,380.5,478.5,389.0,478.5,396.5,478.0,405.0,477.0,413.0,477.0,421.5,476.5,429.5,476.0,437.0,475.0,444.5,474.0,453.0,473.0,461.5,472.0,470.0,471.5,478.0,471.0,486.5,470.5,494.0,469.5,501.5,469.0,509.0,468.0,516.5,468.0" stroke="black" stroke-width="2" fill="none" />
<polyline points="516.5,462.0,508.5,461.5,501.0,462.0,493.0,462.0,484.5,462.5,476.5,463.0,468.5,464.0,460.0,464.5,451.5,465.5,444.0,465.5,436.0,466.5,428.0,467.5,420.5,468.5,413.0,468.5,405.5,469.0,397.0,469.5,388.0,470.0,379.5,470.0,371.5,470.5,363.5,471.0,355.0,471.0,347.0,471.5,339.0,472.0,331.0,472.5,322.5,473.0,314.5,474.0,306.0,474.5,297.5,474.5,289.5,475.0,281.5,475.0,273.5,475.0,266.0,476.0,258.0,477.0,250.0,477.5,242.0,478.0,234.0,478.5,226.0,479.0,218.0,480.0,210.5,480.5,203.0,481.5,195.0,482.0,187.0,483.0,179.5,483.5,172.0,484.0,164.0,485.5,155.5,485.0,147.0,485.0,138.5,485.0,130.5,485.0,123.0,485.0,115.0,486.5,107.5,488.0,100.0,489.0,92.5,489.5,84.5,490.5,76.5,490.5,68.0,490.5,60.5,490.5,52.5,490.5,44.5,490.5,36.5,491.5,28.0,491.5,19.5,492.5,11.5,493.0,3.0,493.5" stroke="black" stroke-width="2" fill="none" />
<polyline points="9.5,494.5,17.5,486.5,25.0,479.0,33.5,471.0,41.5,463.0,50.0,455.0,58.0,448.0,66.0,440.5,74.0,433.0,82.0,425.5,90.0,418.0,98.0,410.5" stroke="black" stroke-width="2" fill="none" />
<polyline points="92.0,411.5,83.5,419.0,74.5,426.5,66.0,434.0,58.0,441.5,49.5,449.0,41.5,456.5,33.5,464.0,26.0,472.0,18.0,479.0,10.0,487.0" stroke="black" stroke-width="2" fill="none" />
<polyline points="6.5,486.0,14.0,486.0,21.5,485.5,29.0,485.5,37.0,485.0,45.0,484.0,53.0,483.5,61.0,483.0,68.5,482.5,76.0,482.0,83.5,481.5,91.5,481.0,100.0,480.5,108.0,480.0,116.0,479.5,123.5,478.0,131.5,478.0,139.5,478.0,147.0,477.5,155.0,477.0,162.5,476.5,170.5,475.5,178.5,475.0,186.5,474.5,195.5,473.0,203.5,472.5,211.0,472.0,219.0,471.0,226.5,470.5,235.0,469.5,242.5,469.0,251.0,468.5,258.5,468.5,266.5,468.0,274.5,467.5,282.5,467.0,290.0,467.0,298.0,466.0,305.5,466.0,313.0,465.5,321.0,465.5,329.5,465.0,338.0,464.0,347.0,463.5,355.5,463.0,364.0,462.5,372.5,462.0,380.5,462.0,389.0,462.0,397.0,461.5,404.5,461.5,412.5,460.5,420.0,460.0,428.0,459.5,435.5,459.0,443.5,458.0,451.0,457.5,459.0,457.0,467.0,456.5,475.0,456.5,483.0,456.0,491.5,455.0,499.5,454.5,507.5,453.5,515.0,453.0" stroke="black" stroke-width="2" fill="none" />
<polyline points="515.5,446.0,507.0,447.0,499.0,448.0,491.5,449.0,484.0,449.5,475.5,450.0,467.5,450.0,459.5,450.0,452.0,450.5,444.0,450.5,436.5,450.5,428.0,451.5,420.0,451.5,412.5,451.5,404.5,452.0,397.0,452.5,388.5,453.0,380.5,453.5,372.0,454.0,364.0,454.5,355.0,455.0,346.5,455.5,337.5,456.5,329.0,457.5,321.0,458.0,313.0,458.5,305.0,459.5,297.5,460.0,290.0,460.5,282.5,461.0,275.0,461.5,267.0,461.5,259.5,462.0,252.0,462.5,244.5,463.5,236.0,463.5,228.0,464.0,220.0,464.0,212.0,464.5,204.0,464.5,195.5,465.5,187.0,466.5,178.5,467.0,170.0,467.0,162.0,467.5,154.5,468.0,147.5,468.5,140.0,469.0,132.0,469.5,124.5,470.0,116.5,471.0,109.0,472.0,100.5,473.0,92.0,474.0,83.5,474.5,76.0,475.5,68.0,476.0,60.5,476.5,53.0,477.0,45.0,477.0,36.5,477.0,28.5,477.0,20.5,477.0,12.5,477.0,4.5,477.5" stroke="black" stroke-width="2" fill="none" />
<polyline points="9.5,478.0,17.5,471.0,25.5,463.5,33.5,456.0,42.0,448.5,50.0,440.5,58.5,432.5,67.0,424.5,76.0,417.0,84.0,410.0" stroke="black" stroke-width="2" fill="none" />
<polyline points="81.5,414.0,89.5,412.0,97.5,411.0,105.5,408.5,113.5,405.5,121.5,403.0,132.0,400.0,140.0,399.5" stroke="black" stroke-width="2" fill="none" />
<polyline points="147.0,400.5,155.0,400.5,163.5,400.5,171.5,400.0,179.5,399.0,188.5,398.0" stroke="black" stroke-width="2" fill="none" />
<polyline points="196.0,389.5,188.0,390.0,180.0,391.0,172.0,391.5,164.0,392.5,155.5,392.5,147.5,393.0" stroke="black" stroke-width="2" fill="none" />
<polyline points="149.0,385.5,156.5,385.5,164.0,385.5,172.0,385.0,179.5,384.5,187.5,384.0" stroke="black" stroke-width="2" fill="none" />
<polyline points="163.5,378.0,156.0,378.5,148.5,379.5" stroke="black" stroke-width="2" fill="none" />
<polyline points="138.5,366.0,146.5,359.0,154.0,352.0,162.0,345.0,170.0,337.5,178.0,329.5,186.5,322.0,194.5,314.5,203.0,307.0,211.0,299.5,219.0,292.0,227.0,284.0,234.5,276.0,242.0,268.0,250.5,260.0,259.0,252.0,267.0,245.0,274.5,237.0,282.5,230.0,291.0,223.0,299.5,215.5,307.0,208.0,314.5,200.5,322.0,192.5,330.0,184.5,338.0,177.0" stroke="black" stroke-width="2" fill="none" />
<polyline points="330.5,178.5,322.0,186.5,314.0,194.5,305.5,202.0,297.5,210.0,290.0,217.5,282.0,225.5,274.0,233.5,266.0,241.0,258.0,249.0,250.0,256.5,242.0,263.5,233.5,271.0,225.5,278.0,217.5,285.5,209.5,292.5,202.0,299.5,194.5,306.5,187.0,313.0,180.0,320.0,172.5,327.0,164.5,334.5,156.0,342.5,148.0,350.0,139.5,357.5" stroke="black" stroke-width="2" fill="none" />
<polyline points="147.0,347.0,155.5,346.5,163.5,346.0" stroke="black" stroke-width="2" fill="none" />
<polyline points="139.5,384.0,147.5,376.5,155.5,369.0,164.0,361.5,172.0,354.0,180.5,347.5,188.0,340.0,196.0,332.5,204.0,325.0,211.5,317.5,219.0,310.0,226.5,302.5,234.5,294.5,242.5,287.0,250.5,280.0,259.0,272.5,267.0,265.5,275.0,258.5,282.5,251.0,290.5,243.5,298.5,236.0,306.5,228.0,314.5,220.5,322.5,213.0" stroke="black" stroke-width="2" fill="none" />
<polyline points="332.0,211.5,324.0,219.0,316.0,226.5,307.5,233.5,299.0,241.0,291.0,249.0,282.5,256.5,274.5,264.5,266.5,272.5,258.0,280.5,250.5,288.0,242.5,296.0,234.5,303.0,226.5,309.5,219.0,317.0,210.5,324.5,203.0,332.0,195.0,338.5,187.0,346.0,179.0,353.0,170.5,360.0,163.0,368.0,155.5,376.0,148.0,383.0,140.0,390.0,132.0,397.0,124.5,404.5,116.0,412.0,107.5,419.5,99.0,427.0,91.0,434.0,83.5,442.0,76.0,450.0,68.0,458.0,60.0,466.5" stroke="black" stroke-width="2" fill="none" />
<polyline points="68.0,467.0,75.0,460.0,82.5,452.0,90.5,444.5,98.5,437.0,106.5,429.5,114.5,422.0,122.5,414.5,131.0,407.0,139.5,399.5,147.5,392.0,155.5,384.0,163.0,376.0,170.5,368.0,178.0,360.5,186.0,352.5,194.5,345.0,202.5,337.5,211.0,330.5,219.0,323.5,226.5,315.5,234.5,307.5,242.0,300.0,250.0,292.5,258.0,285.0,266.5,277.5,275.0,270.0,283.5,263.0,291.5,255.5,300.0,248.0,308.0,241.0,316.0,233.5,324.0,226.5,332.0,219.0,340.0,211.5" stroke="black" stroke-width="2" fill="none" />
<polyline points="347.0,211.0,355.5,204.0,363.0,196.5" stroke="black" stroke-width="2" fill="none" />
<polyline points="354.5,197.0,347.0,204.5" stroke="black" stroke-width="2" fill="none" />
<polyline points="339.5,204.5,347.5,197.5,355.5,190.0" stroke="black" stroke-width="2" fill="none" />
<polyline points="345.5,187.5,338.0,194.5,330.0,202.0" stroke="black" stroke-width="2" fill="none" />
<polyline points="321.5,201.5,329.5,194.0,338.0,186.0,346.0,178.5" stroke="black" stroke-width="2" fill="none" />
<polyline points="379.0,202.0,387.0,201.5,395.5,200.5,403.5,200.5" stroke="black" stroke-width="2" fill="none" />
<polyline points="401.5,219.0,394.0,220.0,386.0,220.5" stroke="black" stroke-width="2" fill="none" />
<polyline points="386.0,226.0,394.5,225.5,402.5,225.5" stroke="black" stroke-width="2" fill="none" />
<polyline points="397.0,233.0,388.5,233.5" stroke="black" stroke-width="2" fill="none" />
<polyline points="387.5,242.0,395.5,241.5" stroke="black" stroke-width="2" fill="none" />
<polyline points="402.0,242.0,394.0,249.5,386.0,257.0" stroke="black" stroke-width="2" fill="none" />
<polyline points="387.0,252.0,394.5,251.5" stroke="black" stroke-width="2" fill="none" />
<polyline points="404.5,251.5,412.5,244.0" stroke="black" stroke-width="2" fill="none" />
<polyline points="402.0,252.0,393.5,252.0,386.5,252.5,378.5,253.0,370.5,253.5,363.0,253.5,355.5,254.5,347.5,255.0,340.0,256.0,332.5,256.5,325.0,257.0,317.0,258.0,309.0,258.0,301.0,258.5,293.0,258.5,285.0,259.5,276.5,260.0,267.5,261.0,259.0,261.5,250.5,262.0,242.0,262.5,234.5,263.0,226.0,263.0,218.0,263.0,210.0,263.0,202.0,263.5,194.0,263.5,186.5,264.5,179.0,265.0,171.5,265.5,163.5,266.0,155.5,266.5,148.0,267.0,140.0,268.0,132.5,269.0,124.5,270.0,116.5,271.0,108.5,271.5,101.0,272.0,93.0,272.5,85.0,273.0,77.0,273.5,69.0,274.0,60.5,274.5,51.5,274.5,43.5,274.5,35.5,274.5,27.0,274.5,19.0,274.5,11.0,275.0,3.5,276.0" stroke="black" stroke-width="2" fill="none" />
<polyline points="3.0,272.0,11.0,264.5,19.0,257.0,26.5,250.0,34.5,242.5,43.0,235.5,51.0,227.5" stroke="black" stroke-width="2" fill="none" />
<polyline points="50.0,218.0,41.5,225.5,33.5,233.5,25.5,241.0,17.5,248.0,9.5,256.0,1.5,263.5" stroke="black" stroke-width="2" fill="none" />
<polyline points="4.0,262.5,12.5,262.0,20.5,261.5,28.5,261.0,37.0,261.0,45.5,260.5,53.5,259.5,61.0,258.5,69.5,257.0,77.0,256.0,85.0,255.0,93.0,255.0,101.0,254.5,109.0,254.0,117.5,253.5,125.5,252.5,133.0,253.0,140.5,253.0,148.0,253.0,156.0,252.5,164.5,252.0,172.0,251.5,180.5,251.0,188.5,250.0,196.0,249.5,204.0,249.0,211.5,248.5,219.5,248.0,227.0,247.5,234.5,247.0,242.5,246.0,250.5,246.0,259.0,245.5,267.5,245.0,276.0,244.0,284.0,243.5,292.5,244.0,301.0,244.0,309.0,243.5,317.0,243.0,325.5,242.5,333.0,242.0,340.5,241.5,348.0,241.0,355.5,240.0,363.0,239.5,371.0,238.0,379.0,237.0,387.0,237.0,395.0,237.0,403.0,236.5,411.0,236.0" stroke="black" stroke-width="2" fill="none" />
<polyline points="411.0,243.5,403.0,244.0,395.0,245.0,387.5,245.5,380.0,246.5,372.0,246.5,364.5,247.5,356.0,247.5,348.0,247.5,340.5,248.5,333.0,249.0,325.0,249.5,317.0,250.0,309.0,250.5,300.5,250.5,292.5,251.0,284.0,251.0,276.0,252.0,267.5,253.0,259.5,254.0,251.5,254.5,243.5,254.5,235.5,255.5,227.5,256.0,219.5,256.5,211.0,257.0,203.0,257.0,195.5,257.0,188.0,257.5,180.0,258.0,171.5,258.5,163.5,259.0,155.5,259.5,147.5,260.0,139.5,261.0,132.0,261.5,124.0,262.5,116.5,263.0,108.5,264.0,100.5,264.0,92.5,264.5,85.0,265.0,76.5,265.5,68.0,266.0,60.0,266.5,52.0,267.0,43.5,268.0,35.5,268.0,28.0,268.0,20.5,268.5,12.5,268.5,4.5,269.0" stroke="black" stroke-width="2" fill="none" />
<polyline points="13.0,272.5,21.0,272.0,29.0,271.5,37.0,271.5,45.0,271.5" stroke="black" stroke-width="2" fill="none" />
<polyline points="43.5,274.5,35.5,282.0,27.5,290.5,19.5,298.0,12.0,305.5,4.5,313.5" stroke="black" stroke-width="2" fill="none" />
<polyline points="4.0,310.0,11.5,309.5,19.5,308.5,27.5,308.0,35.0,308.0,43.0,307.5,51.5,307.5,60.0,307.5,68.5,307.0,76.5,307.0,84.5,307.0,92.5,306.0,100.0,305.0,107.5,304.0,115.0,304.0,122.5,303.5,130.5,302.0,139.0,301.0,147.5,300.0,155.5,299.5,163.0,299.0,171.0,298.5,179.5,298.0,187.0,297.5,194.5,298.0,202.5,297.5,210.0,297.5,218.0,297.5,225.5,297.0,232.5,296.5,240.5,296.0,248.5,295.5,257.0,294.5,265.5,293.5,274.0,293.5,282.0,293.0,290.5,293.0,298.5,292.5,307.0,292.5,315.5,291.5,323.5,291.0,331.5,290.5,339.5,290.0,347.0,289.5,354.5,288.5,362.5,287.5,370.0,286.5,378.0,286.0" stroke="black" stroke-width="2" fill="none" />
<polyline points="364.5,312.0,356.0,312.5,347.5,313.5,339.0,314.0,330.5,314.5,322.0,314.5,314.5,315.5,306.5,316.0,299.0,316.0,290.5,316.0,282.0,316.5,274.0,317.0,266.0,317.0,258.0,318.0,250.0,319.0,242.0,319.5,234.5,320.0,226.5,320.0,219.0,320.5,211.0,321.5,203.0,322.0,195.0,322.5,187.0,323.0,179.0,323.0,172.0,323.0,164.0,323.5,156.0,324.5,147.5,325.5,139.5,326.0,131.5,326.5,123.5,326.5,116.0,326.5,108.5,327.0,101.0,327.0,93.5,327.5,85.0,328.0,77.0,328.5,69.0,329.5,61.0,330.5,52.5,331.5,44.5,332.5,36.5,333.0,28.5,333.5,20.5,333.5,12.5,333.5,4.5,334.0" stroke="black" stroke-width="2" fill="none" />
<polyline points="4.5,337.5,12.5,330.5,20.5,323.5,28.5,316.0,37.5,308.5,45.5,301.0" stroke="black" stroke-width="2" fill="none" />
<polyline points="44.0,309.5,35.5,317.0,27.0,324.0,19.0,331.0,11.5,338.0,3.5,345.5" stroke="black" stroke-width="2" fill="none" />
<polyline points="5.0,342.0,13.0,342.0,21.0,341.5,29.0,340.5,36.5,340.0,45.0,339.5,52.5,338.5,60.5,337.5,68.5,336.5,76.5,336.0,85.0,335.5,93.0,335.0,101.0,334.5,109.0,334.5,117.0,334.5,124.5,334.0,132.5,334.0,140.0,333.5,148.0,333.0,156.0,332.5,163.5,332.0,171.5,331.5,179.5,331.0,187.5,331.0,195.5,330.5,204.0,330.5,211.5,330.0,219.0,329.5,227.0,329.0,235.0,328.5,243.0,328.0,251.5,327.5,259.5,327.0,267.5,327.0,275.5,326.5,283.5,326.5,292.0,326.0,300.5,325.0,308.5,324.5,316.0,324.0,324.0,323.0,332.0,322.5,340.0,322.0,347.5,321.5,356.0,321.0,363.5,320.5" stroke="black" stroke-width="2" fill="none" />
<polyline points="363.0,327.5,355.0,327.5,346.5,328.5,339.0,329.5,331.0,330.0,323.0,330.5,315.0,330.5,307.0,331.0,299.0,331.5,291.5,332.5,283.5,333.5,275.5,334.0,267.0,334.5,259.5,335.0,251.5,335.5,244.0,336.0,236.0,336.5,227.5,337.5,219.0,338.0,210.5,338.0,202.5,338.5,195.0,338.5,187.5,338.5,180.0,339.0,172.0,339.0,164.0,339.5,156.0,339.5,148.0,340.5,140.0,341.0,131.5,342.0,123.5,342.5,116.0,343.0,108.5,344.0,101.5,344.5,94.0,345.0,86.0,345.5,77.5,345.5,70.0,346.0,62.0,346.0,54.0,346.5,45.5,347.0,37.5,348.0,29.5,349.0,21.0,350.5,13.0,351.5,5.5,352.5" stroke="black" stroke-width="2" fill="none" />
<polyline points="6.0,360.0,14.0,359.5,22.0,358.5,30.0,357.5,38.0,356.5,46.5,356.0,54.0,355.5,61.5,355.0,69.5,354.5,77.5,353.5,86.0,353.0,94.0,352.0,102.0,351.5,109.5,350.5,116.0,350.0,123.0,349.5,131.0,349.0,139.0,348.0,147.0,347.5,155.0,347.0,162.0,346.0,170.5,346.0,179.0,346.5,187.0,346.5,194.5,346.5,202.5,346.5,211.0,346.0,219.0,346.0,227.5,345.5,236.0,345.0,244.0,344.5,252.0,344.0,259.5,343.5,267.0,342.5,275.5,341.0,283.0,340.0,291.0,339.0,298.5,338.5,307.0,337.5,315.0,336.5,323.0,336.0,331.0,335.5,339.0,335.0,347.0,335.0,354.5,335.0,362.5,335.0" stroke="black" stroke-width="2" fill="none" />
<polyline points="354.0,351.0,346.5,351.5,339.0,352.0,331.0,352.5,323.5,353.5,315.0,354.0,307.0,354.5,299.0,355.0,291.5,356.5,283.5,357.0,275.5,357.5,268.0,358.0,260.0,358.5,252.5,358.5,245.0,358.5,236.5,359.5,228.5,360.0,220.5,360.0,212.0,360.5,204.0,361.5,195.5,362.0,187.0,362.5,179.0,363.5,171.0,364.0,163.0,364.5,155.0,365.0,146.5,365.5,138.5,365.5,131.5,365.5,124.0,365.5,116.0,365.5,108.0,366.5,100.5,367.0,92.5,366.5,84.5,367.0,76.5,367.5,69.0,369.0,61.0,370.0,53.5,370.0,45.5,371.0,37.5,371.5,29.5,371.5,21.5,372.0,13.5,372.0,5.5,372.0" stroke="black" stroke-width="2" fill="none" />
<polyline points="4.0,377.5,12.5,369.5,21.0,361.5,29.5,353.5,37.5,346.0,45.5,339.0" stroke="black" stroke-width="2" fill="none" />
<polyline points="45.0,347.0,36.5,355.0,28.0,362.5,19.5,370.0,12.0,378.5,4.0,386.5" stroke="black" stroke-width="2" fill="none" />
<polyline points="4.0,382.0,12.5,381.0,21.0,380.5,29.0,379.5,36.5,379.0,44.5,378.5,52.5,378.0,60.0,378.0,68.0,378.0,76.0,377.5,84.0,377.5,92.0,377.0,100.0,376.0,108.0,375.5,116.0,375.0,124.0,374.5,132.0,374.5,139.5,374.0,147.5,374.0,155.5,373.5,163.5,373.0,171.5,372.5,179.5,372.0,187.0,371.5,195.0,371.0,203.0,370.5,210.5,369.5,219.0,368.5,227.0,367.5,235.5,366.5,243.5,366.0,251.5,365.5,260.0,365.5,268.0,364.5,276.0,364.0,284.0,363.0,292.0,362.5,300.0,361.5,308.0,361.0,316.0,360.5,324.0,360.0,332.0,359.5,340.0,359.5,348.0,359.0,355.5,359.0" stroke="black" stroke-width="2" fill="none" />
<polyline points="349.0,367.0,341.0,367.0,333.0,367.5,324.5,368.0,316.5,368.5,308.5,369.0,300.5,370.0,292.5,370.5,284.5,371.0,275.5,372.0,267.5,373.0,259.5,373.5,251.0,373.5,243.0,373.5,235.0,374.5,227.5,375.0,219.0,375.5,211.0,376.0,203.0,376.5,195.0,377.0,188.0,377.5,180.0,378.0,172.0,379.0,164.5,379.5,156.0,380.0,148.0,380.5,140.0,381.5,131.5,382.5,123.5,383.0,115.0,384.0,107.0,384.5,99.5,385.0,91.5,385.0,83.5,385.0,75.5,385.5,67.5,386.5,59.0,387.0,51.5,387.0,43.5,387.0,36.0,387.5,28.0,388.5,20.0,389.5,12.5,390.5,4.5,391.0" stroke="black" stroke-width="2" fill="none" />
<polyline points="3.0,392.5,11.0,385.5,19.0,378.5,27.0,371.5,35.0,364.0" stroke="black" stroke-width="2" fill="none" />
<polyline points="34.5,372.0,26.5,380.0,18.5,387.0,10.5,394.0,3.0,401.0" stroke="black" stroke-width="2" fill="none" />
<polyline points="2.0,399.5,10.0,399.0,18.0,398.0,26.5,397.5,34.5,397.0,43.0,396.5,51.0,396.5,59.0,396.0,67.0,396.0,75.0,395.5,83.0,395.0,91.0,394.5,98.5,393.5,107.0,392.5,115.0,392.0,123.0,391.5,131.5,391.0,140.0,390.0,148.0,389.0,156.0,388.5,164.0,388.5,172.0,388.0,180.5,387.5,189.0,387.0,197.0,386.5,205.0,385.5,212.5,385.5,220.5,385.0,228.5,384.0,236.5,383.0,244.0,382.0,252.0,382.0,260.0,381.5,268.0,381.5,276.5,381.0,284.0,380.0,292.0,379.5,300.0,378.0,308.0,377.5,316.5,377.5,325.0,377.5,332.5,377.0,341.0,376.5,348.5,376.5,356.0,376.0" stroke="black" stroke-width="2" fill="none" />
<polyline points="359.0,369.5,367.5,357.0" stroke="black" stroke-width="2" fill="none" />
<polyline points="355.0,391.0,347.5,392.0,340.0,392.5,332.0,393.5,324.0,394.0,316.0,394.5,308.0,395.0,300.0,395.5,291.5,396.0,283.0,396.5,275.0,397.0,267.5,398.0,259.5,398.5,251.0,399.0,243.0,399.5,235.0,400.0,227.0,400.5,219.0,400.5,211.0,401.0,202.5,401.5,195.0,401.5,187.0,401.5,179.5,402.0,172.5,402.5,165.0,403.0,156.5,403.5,148.5,404.0,140.0,404.5,131.5,405.0,124.0,405.5,115.5,406.5,107.0,407.5,99.5,408.5,91.5,409.5,83.5,410.5,76.0,411.0,67.5,411.0,59.5,411.0,51.5,411.0,43.5,411.5,36.0,412.5,27.5,413.5,19.0,414.5,11.0,415.0,3.0,415.5" stroke="black" stroke-width="2" fill="none" />
<polyline points="3.0,419.0,10.5,411.0,18.5,403.5,27.0,396.5,35.0,388.5" stroke="black" stroke-width="2" fill="none" />
<polyline points="35.0,395.5,27.0,403.0,19.5,410.5,12.0,418.0" stroke="black" stroke-width="2" fill="none" />
<polyline points="7.0,414.5,15.0,414.5,23.0,414.5" stroke="black" stroke-width="2" fill="none" />
<polyline points="29.0,409.5,21.0,410.5,13.0,411.0" stroke="black" stroke-width="2" fill="none" />
<polyline points="12.0,403.0,20.0,402.5,28.5,402.0" stroke="black" stroke-width="2" fill="none" />
<polyline points="34.5,403.0,26.5,410.5,19.0,418.0,11.5,425.5,3.5,433.0" stroke="black" stroke-width="2" fill="none" />
<polyline points="4.5,430.0,12.5,429.5,21.0,428.5,29.0,428.0,37.0,427.0,44.5,426.0,52.5,425.5,60.5,425.0,68.5,424.5,76.5,424.5,84.0,424.0,92.0,424.0,100.0,423.5,108.0,423.0,115.5,422.0,123.0,422.0,131.0,421.0,139.0,419.5,147.5,419.0,155.0,419.0,163.0,418.5,171.0,417.5,179.0,418.0,186.5,417.5,194.5,416.5,202.5,416.5,211.0,416.0,219.0,415.5,227.5,415.0,235.0,414.5,243.0,414.5,251.0,413.5,259.0,413.5,267.0,413.0,275.5,412.5,283.5,412.0,291.5,411.0,299.0,410.5,307.0,410.0,315.0,409.5,322.5,409.0,331.0,408.5,339.0,408.0,346.5,407.5,355.0,407.0,363.0,406.5,371.0,406.5" stroke="black" stroke-width="2" fill="none" />
<polyline points="357.0,400.0,348.5,400.0,340.0,400.5,332.0,401.0,324.0,401.5,315.5,402.5,307.5,403.0,299.0,403.5,290.5,403.5,282.0,404.0,274.0,404.0,266.5,404.0,258.5,404.5,250.5,405.0,242.5,405.5,234.5,406.0,226.5,406.0,218.5,406.5,210.0,407.0,201.5,407.5,194.0,408.0,186.0,408.5,178.0,409.0,170.5,410.0,163.0,410.5,154.5,411.0,146.0,411.0,138.0,412.0,130.0,413.0,122.0,413.5,114.0,414.0,106.0,415.0,98.5,415.0,91.5,415.5,84.0,416.0,76.0,416.5,67.5,417.5,59.0,418.5,51.0,419.5,43.0,420.5,35.5,421.5,28.5,422.0,21.0,422.5,13.5,422.5,5.5,423.0" stroke="black" stroke-width="2" fill="none" />
<polyline points="3.5,409.5,11.0,402.5,18.5,395.0,26.0,387.5,34.0,380.0" stroke="black" stroke-width="2" fill="none" />
<polyline points="27.5,394.0,19.0,395.0,11.0,395.5" stroke="black" stroke-width="2" fill="none" />
<polyline points="11.5,386.0,19.5,385.5,28.0,385.0" stroke="black" stroke-width="2" fill="none" />
<polyline points="36.0,376.0,28.0,376.5,19.5,377.0,11.5,378.0" stroke="black" stroke-width="2" fill="none" />
<polyline points="12.0,369.0,20.0,369.0,28.0,368.5" stroke="black" stroke-width="2" fill="none" />
<polyline points="20.0,354.0,28.0,353.5,35.5,353.5" stroke="black" stroke-width="2" fill="none" />
<polyline points="34.0,360.0,26.5,360.0,19.5,360.5,12.0,361.0" stroke="black" stroke-width="2" fill="none" />
<polyline points="4.5,361.5,12.5,354.0,20.5,345.5,29.0,338.0,37.0,330.0,44.5,322.5" stroke="black" stroke-width="2" fill="none" />
<polyline points="43.0,316.0,35.5,323.0,27.5,330.5,19.5,337.5,11.0,345.0" stroke="black" stroke-width="2" fill="none" />
<polyline points="11.5,347.5,19.5,346.5,27.5,345.5,35.0,344.5" stroke="black" stroke-width="2" fill="none" />
<polyline points="46.5,330.5,38.0,337.5,29.5,345.0,21.0,352.0,12.5,360.0,4.0,367.5" stroke="black" stroke-width="2" fill="none" />
<polyline points="6.0,366.0,13.5,366.0,21.0,365.0,28.5,364.5,36.5,363.5,44.5,363.0,53.0,362.0,61.5,361.5,69.5,360.5,78.0,360.0,86.5,359.0,94.0,359.0,102.0,359.0,109.5,359.0,117.0,359.5,125.0,359.0,132.5,358.5,139.5,358.0,147.0,357.0,154.0,355.5,162.0,354.0,170.0,354.0,178.0,354.5,187.0,354.5,195.5,354.5,204.0,355.0,212.5,354.0,220.5,353.5,228.5,353.0,236.5,353.0,244.5,352.5,252.0,351.5,259.5,351.0,267.5,350.5,275.0,349.5,283.0,349.0,290.5,348.0,298.5,347.0,306.0,345.5,313.5,344.5,321.5,344.0,330.0,344.0,338.0,343.5,346.5,343.5,355.0,343.0" stroke="black" stroke-width="2" fill="none" />
<polyline points="374.5,317.5,382.5,312.5,390.5,305.5,398.5,291.0,406.0,276.0" stroke="black" stroke-width="2" fill="none" />
<polyline points="371.5,301.5,363.5,302.0,355.0,303.5,346.5,305.5,338.0,307.0,330.5,307.5,322.0,308.5,314.5,309.0,306.5,309.0,298.5,308.5,290.0,308.5,282.5,309.0,274.0,309.0,266.0,308.5,257.5,308.5,250.0,309.0,242.0,309.5,233.5,310.0,226.0,311.0,218.0,312.0,210.5,313.0,202.5,313.5,194.5,314.5,186.5,315.0,178.0,315.5,170.0,316.5,162.0,317.0,153.5,317.5,146.0,318.0,138.0,319.0,129.5,319.5,122.0,320.0,114.5,320.5,107.0,320.0,99.5,320.0,92.0,320.5,83.5,321.0,75.5,321.5,67.5,322.0,59.5,322.5,51.5,323.0,43.0,323.5,35.0,324.5,27.0,325.0,19.0,325.5,11.0,325.5,2.5,325.5" stroke="black" stroke-width="2" fill="none" />
<polyline points="3.0,329.5,11.5,321.5,20.0,314.0,28.5,306.5,36.5,298.5,44.5,291.0" stroke="black" stroke-width="2" fill="none" />
<polyline points="44.0,282.5,36.0,290.0,28.5,297.5,20.5,305.0,12.5,312.5,4.0,319.5" stroke="black" stroke-width="2" fill="none" />
<polyline points="2.0,319.0,10.5,318.5,18.5,317.5,27.0,317.0,36.0,316.0,44.0,315.5,52.0,315.0,60.0,315.5,68.0,315.0,76.0,314.5,84.0,314.5,92.0,314.0,100.0,313.5,108.0,313.0,115.0,312.0,123.0,311.5,130.5,310.5,138.5,309.5,146.5,308.5,154.5,308.0,162.5,307.0,170.5,306.5,178.0,306.0,186.0,305.5,194.0,305.5,201.5,304.5,209.5,304.5,217.5,304.0,225.5,304.0,233.0,303.5,241.0,303.0,249.0,302.5,257.0,302.0,265.0,301.0,273.5,301.0,282.0,300.5,290.5,300.5,298.5,299.5,307.0,299.5,315.5,299.0,323.5,298.5,331.5,298.0,339.0,297.5,347.0,297.5,355.0,297.0,363.5,296.0,371.5,295.0" stroke="black" stroke-width="2" fill="none" />
<polyline points="387.5,277.5,380.0,278.5,372.0,279.5,363.5,280.0,356.0,280.5,348.0,281.0,340.0,281.5,332.5,282.0,324.5,283.0,316.5,283.5,308.0,284.0,299.5,284.0,291.5,284.0,283.0,285.0,274.5,285.0,266.5,286.0,258.5,286.5,250.0,287.0,242.0,287.5,234.0,287.5,226.0,288.5,218.5,288.5,210.5,288.0,203.0,288.5,195.0,288.5,187.5,288.0,179.5,288.5,171.0,290.0,163.5,290.5,155.5,291.0,148.0,292.0,140.0,292.5,132.0,293.5,124.5,293.5,116.5,294.0,109.0,294.5,101.0,295.0,93.0,295.5,84.5,296.0,77.0,296.5,68.5,297.5,60.5,298.5,52.0,299.5,44.0,300.0,35.5,301.0,27.5,301.5,19.0,302.0,11.0,302.5,2.5,302.5" stroke="black" stroke-width="2" fill="none" />
<polyline points="2.0,304.5,10.0,296.5,18.5,289.0,27.0,281.0,35.5,273.5,44.0,266.0" stroke="black" stroke-width="2" fill="none" />
<polyline points="41.0,260.0,33.0,268.0,25.5,275.5,18.0,283.0,10.5,291.0,2.5,298.0" stroke="black" stroke-width="2" fill="none" />
<polyline points="3.0,295.5,11.5,294.5,20.0,294.5,28.0,293.5,36.0,292.5,44.5,291.5,52.5,290.5,60.5,290.0,68.5,289.5,76.0,289.0,83.5,288.5,91.5,288.0,100.5,287.0,108.5,286.0,117.0,285.5,125.5,285.0,132.5,284.0,139.5,284.0,147.0,283.5,155.0,283.0,162.5,282.5,171.0,282.0,178.5,281.5,186.5,281.0,195.0,281.5,203.0,281.5,210.5,281.5,218.0,281.0,226.0,280.5,234.0,280.0,241.5,280.0,250.5,279.0,259.0,278.5,267.5,278.0,275.5,277.5,284.0,277.5,292.5,276.5,300.5,275.5,308.5,275.0,316.0,275.0,324.0,275.0,331.5,274.5,340.0,274.0,348.0,274.0,356.5,273.0,365.0,272.0,372.5,271.5,381.0,271.0,389.5,270.5,398.0,270.0" stroke="black" stroke-width="2" fill="none" />
<polyline points="395.5,260.5,388.0,261.5,380.5,262.0,372.5,263.0,364.5,264.0,356.5,264.0,349.0,264.5,341.0,265.0,332.5,265.5,324.0,266.0,316.5,266.5,308.5,267.5,300.5,268.0,292.0,268.5,283.0,269.0,275.0,270.0,266.5,270.5,258.0,270.5,250.0,271.5,241.5,272.0,234.0,272.0,226.5,272.0,219.0,272.0,212.0,272.0,204.5,272.0,196.0,272.5,188.0,272.5,180.0,272.5,171.5,273.0,164.0,273.5,155.5,274.0,147.5,275.0,140.0,276.0,132.5,277.5,124.5,278.5,117.0,279.0,109.0,279.5,101.0,279.5,93.0,279.5,85.0,280.0,77.0,280.5,69.0,281.5,60.0,282.0,51.5,283.0,43.5,283.5,35.5,284.0,28.0,284.5,20.0,285.0,12.0,285.5,4.5,285.5" stroke="black" stroke-width="2" fill="none" />
<polyline points="3.5,289.0,11.0,281.5,18.0,275.0,25.5,268.0,33.5,260.5,41.5,252.5" stroke="black" stroke-width="2" fill="none" />
<polyline points="42.0,245.0,34.5,253.0,27.0,260.5,19.0,268.0,10.5,275.0,2.0,282.0" stroke="black" stroke-width="2" fill="none" />
<polyline points="14.0,282.5,22.0,282.0,29.5,281.5,36.5,281.0" stroke="black" stroke-width="2" fill="none" />
<polyline points="36.0,303.5,28.5,304.0,20.5,303.5,12.5,304.0" stroke="black" stroke-width="2" fill="none" />
<polyline points="14.5,296.0,22.0,296.0,30.0,296.0,37.5,296.0" stroke="black" stroke-width="2" fill="none" />
<polyline points="36.0,312.5,28.0,313.0,20.0,314.0,12.0,314.5" stroke="black" stroke-width="2" fill="none" />
<polyline points="11.5,322.0,19.5,322.0,27.5,322.0,35.0,321.5" stroke="black" stroke-width="2" fill="none" />
<polyline points="36.0,337.5,28.0,338.0,20.0,339.0,12.0,339.5" stroke="black" stroke-width="2" fill="none" />
<polyline points="13.5,345.0,5.5,341.5" stroke="black" stroke-width="2" fill="none" />
<polyline points="11.0,332.0,19.0,331.5,26.5,330.5,35.0,329.5" stroke="black" stroke-width="2" fill="none" />
<polyline points="37.5,287.5,30.0,288.5,22.0,289.0,14.0,290.0" stroke="black" stroke-width="2" fill="none" />
<polyline points="13.0,265.0,21.5,264.5,29.0,264.0,36.5,264.0,44.0,263.5" stroke="black" stroke-width="2" fill="none" />
<polyline points="42.5,257.5,35.0,257.0,27.5,257.0,20.0,257.5,11.5,258.0" stroke="black" stroke-width="2" fill="none" />
<polyline points="12.0,251.5,20.0,251.0,28.0,250.5,36.0,250.0,43.0,249.0" stroke="black" stroke-width="2" fill="none" />
<polyline points="43.0,241.0,35.5,241.0,28.0,242.0,20.5,243.0,12.5,244.0" stroke="black" stroke-width="2" fill="none" />
<polyline points="4.0,242.0,12.0,234.5,20.5,227.0,28.0,219.5,36.0,212.0,43.5,204.0,51.0,196.5" stroke="black" stroke-width="2" fill="none" />
<polyline points="51.5,202.5,43.5,210.0,35.0,218.5,27.0,226.5,18.5,234.0,10.0,241.5,2.0,250.0" stroke="black" stroke-width="2" fill="none" />
<polyline points="2.5,246.0,10.5,245.5,18.5,245.5,26.5,244.5,34.5,243.5,42.5,243.0,50.5,242.5,58.0,242.5,66.0,242.0,74.5,241.5,82.0,241.0,90.0,240.5,97.5,240.0,105.5,239.5,113.5,238.0,121.5,237.5,130.0,237.0,138.0,237.0,146.5,236.5,155.0,235.5,163.0,235.0,171.0,234.5,178.5,234.5,187.0,234.5,195.5,234.0,203.5,233.5,211.5,233.0,219.5,232.5,227.5,232.0,235.5,231.5,243.5,231.0,251.5,230.0,259.0,229.5,267.0,229.0,274.5,228.5,282.5,227.5,290.5,227.5,298.0,227.0,305.5,226.5,314.0,226.0,322.0,226.0,330.5,225.0,338.5,224.0,346.5,223.5,355.0,223.5,363.5,223.0,371.5,222.5,379.0,222.0,387.0,222.0,395.0,221.5,402.5,221.0,411.0,220.5" stroke="black" stroke-width="2" fill="none" />
<polyline points="411.0,228.0,403.0,228.5,395.0,229.0,387.0,229.0,379.0,229.5,371.0,230.0,363.0,230.5,355.0,231.0,347.5,231.5,339.5,232.0,331.5,232.5,323.5,233.0,315.5,233.5,307.5,234.5,299.5,235.0,291.0,235.0,283.0,235.5,274.5,236.0,266.5,237.0,258.0,238.0,250.0,239.5,242.5,240.0,234.5,240.5,227.0,241.0,219.5,241.5,212.0,242.0,203.5,242.0,196.0,242.5,187.5,243.0,179.5,243.5,172.0,243.5,164.0,244.0,156.0,244.5,147.5,245.0,139.5,245.5,131.5,246.0,123.5,246.5,115.5,246.5,107.5,247.0,99.5,247.0,91.5,247.0,83.5,248.0,75.5,248.5,68.0,249.0,59.5,250.0,51.5,251.0,43.0,252.5,35.5,253.0,27.0,253.5,19.0,254.0,11.5,254.5,3.5,255.0" stroke="black" stroke-width="2" fill="none" />
<polyline points="2.5,256.5,11.0,248.5,19.0,241.0,27.5,234.0,35.5,226.5,43.5,219.5,51.0,211.5" stroke="black" stroke-width="2" fill="none" />
<polyline points="51.5,189.5,44.0,197.0,36.0,204.0,27.5,211.0,19.5,218.5,11.0,226.0,3.0,234.0" stroke="black" stroke-width="2" fill="none" />
<polyline points="5.0,232.5,13.0,231.5,21.0,230.5,29.0,230.0,37.5,229.5,46.0,229.0,54.0,228.5,62.0,227.5,70.0,226.5,78.5,226.0,86.5,225.0,94.0,225.0,101.5,224.5,109.0,224.5,117.0,224.0,125.0,223.0,133.0,222.5,141.0,222.0,148.5,221.5,156.0,221.0,163.5,220.5,171.5,220.0,180.0,219.5,188.0,219.0,196.0,218.5,203.5,217.0,211.5,217.0,219.5,217.0,227.0,216.5,235.0,216.0,242.5,215.5,250.5,214.5,258.5,214.0,266.5,213.5,275.5,212.0,283.5,211.5,291.0,211.0,299.0,210.0,306.5,209.5,315.0,208.5,322.5,208.0,331.0,207.5,338.5,207.5,346.5,207.0,354.5,206.5,362.5,206.0,370.0,206.0,378.0,205.0,385.5,205.0,393.0,204.5,401.0,204.5" stroke="black" stroke-width="2" fill="none" />
<polyline points="401.5,194.0,393.5,194.0,386.0,194.0" stroke="black" stroke-width="2" fill="none" />
<polyline points="386.0,169.5,394.0,169.0,402.0,168.5,410.0,168.0" stroke="black" stroke-width="2" fill="none" />
<polyline points="387.0,135.5,379.0,136.0,371.5,135.5,363.5,136.0" stroke="black" stroke-width="2" fill="none" />
<polyline points="356.0,121.0,364.0,121.0,372.5,121.0,380.5,120.5,388.0,119.5" stroke="black" stroke-width="2" fill="none" />
<polyline points="380.5,90.5,373.0,97.5,365.5,105.0,358.0,112.5,350.0,121.0,341.5,128.5,333.0,136.5" stroke="black" stroke-width="2" fill="none" />
<polyline points="314.5,129.5,323.0,122.5,331.5,115.0,339.5,108.0,347.5,101.0,355.5,94.0,363.5,86.5" stroke="black" stroke-width="2" fill="none" />
<polyline points="366.0,78.0,372.0,86.0,379.0,94.0,386.5,101.5,392.0,109.5,397.0,114.5,402.5,123.0,405.0,131.0,407.0,139.5,410.0,147.0,412.0,155.0,413.0,163.0,413.0,171.0,413.0,179.0,411.0,187.5,409.0,196.0,408.0,204.0,407.5,212.5,405.0,220.5,403.0,228.5,412.0,236.5,415.0,244.5,415.0,252.5,414.0,260.5,411.5,268.5,406.5,276.0,402.5,284.0,398.5,291.5,394.5,299.0,389.0,307.0,376.0,315.0,374.0,323.0,372.0,331.0,370.5,339.0,368.5,347.0,366.0,355.0,361.0,363.5,357.0,371.5,357.5,380.0,355.5,388.0,353.0,396.0,356.5,404.0,357.0,412.0,357.0,420.0,363.5,426.0,375.0,429.5,383.0,432.5,391.0,433.5,399.0,436.0,407.0,437.0,415.0,438.0,422.5,440.0,428.5,430.0" stroke="black" stroke-width="2" fill="none" />
<polyline points="475.5,415.0,467.5,416.0,459.5,417.0,451.5,418.0,443.5,418.5,435.5,419.5,428.0,420.0,420.5,420.5,412.5,420.5,405.0,421.0,396.5,421.5,388.0,422.5,379.5,422.5,372.0,422.5,364.0,422.5,356.0,423.0,347.5,423.5,340.0,424.0,332.0,424.5,324.0,425.5,316.0,426.0,308.0,426.0,300.0,426.5,292.5,427.0,285.0,427.5,277.0,428.5,269.0,429.5,261.0,430.0,252.5,431.0,244.5,431.5,236.0,432.0,228.0,432.5,220.0,433.0,211.5,433.5,204.0,434.5,195.5,435.0,188.0,435.0,180.0,435.5,171.5,435.5,163.5,436.0,155.5,437.0,147.5,437.0,140.0,437.5,132.0,438.0,124.0,438.0,116.0,438.5,108.0,439.0,100.0,440.0,91.5,440.5,83.5,441.0,76.0,442.0,68.0,442.5,60.5,443.0,52.5,443.0,44.0,444.0,36.0,444.5,27.5,445.0,20.0,445.0,12.0,445.0,4.0,445.0" stroke="black" stroke-width="2" fill="none" />
<polyline points="4.0,449.0,12.0,442.0,20.0,435.0,28.5,427.5,36.5,419.5,45.0,412.5" stroke="black" stroke-width="2" fill="none" />
<polyline points="50.0,410.5,42.0,418.5,34.5,426.5,26.5,434.5,18.5,442.5,11.0,450.5,3.5,458.0" stroke="black" stroke-width="2" fill="none" />
<polyline points="3.5,454.5,11.0,454.0,19.0,453.0,27.0,452.5,35.0,452.5,43.0,452.0,51.5,451.0,59.5,450.5,67.0,450.5,75.0,451.0,83.0,450.5,91.0,450.0,99.5,449.0,108.0,448.5,116.5,448.5,125.0,448.0,133.0,447.5,141.5,447.0,150.0,446.5,158.5,446.5,166.5,445.5,174.0,445.5,181.5,444.5,189.5,443.5,197.5,442.5,205.5,441.5,213.5,441.0,221.5,440.5,229.5,440.0,237.5,440.5,246.0,440.0,253.5,439.5,262.0,439.0,270.0,438.5,278.0,438.5,285.5,437.5,293.5,436.5,301.5,436.0,309.5,434.5,318.0,433.0,325.5,432.0,333.5,432.0,341.5,432.5,349.5,432.0,357.5,431.5,365.5,431.0,373.5,431.0,381.0,431.0,389.0,430.0,397.5,429.0,405.5,428.0,413.5,428.0,421.0,428.0,428.5,427.5,436.0,427.0,444.0,426.5,452.0,426.0,460.0,425.0,468.0,424.0,476.0,423.0,484.0,422.5,492.0,422.0,500.5,421.5,508.5,421.0,516.5,420.5" stroke="black" stroke-width="2" fill="none" />
<polyline points="516.5,438.5,508.5,439.5,500.5,440.0,493.5,440.5,485.5,441.0,477.5,441.0,469.5,441.5,461.0,441.5,452.5,441.5,444.5,441.5,436.5,441.5,428.5,441.5,420.5,442.0,412.5,443.0,404.0,444.0,396.5,444.0,388.5,444.5,379.5,445.5,371.0,447.0,362.5,448.0,354.0,448.5,345.5,449.5,337.0,450.5,329.5,451.0,321.5,451.5,314.0,452.0,306.0,452.5,298.5,452.5,291.0,453.5,283.5,454.0,276.0,454.5,269.0,455.0,261.0,456.0,253.0,456.5,245.0,457.0,237.0,457.0,229.0,457.5,221.0,457.5,212.5,457.5,203.5,457.5,195.5,458.0,187.0,458.0,178.5,458.0,171.0,458.5,163.0,459.0,155.0,459.0,147.0,459.5,139.0,460.0,131.5,460.5,123.5,461.5,116.0,463.0,108.5,463.5,101.0,464.5,93.0,465.5,85.0,466.0,77.0,466.5,68.5,467.0,60.0,467.0,51.5,467.5,43.5,467.5,35.0,468.0,26.5,468.0,18.0,468.5,10.0,469.0,2.5,469.5" stroke="black" stroke-width="2" fill="none" />
<polyline points="4.0,472.0,12.0,465.5,20.0,458.0,28.0,450.5,36.0,442.5,44.5,434.5,52.5,426.5,60.5,419.0" stroke="black" stroke-width="2" fill="none" />
<polyline points="50.0,419.5,42.0,427.0,34.5,434.0,26.5,441.5,19.0,449.0,11.0,456.5,3.0,464.5" stroke="black" stroke-width="2" fill="none" />
<polyline points="3.5,463.0,11.5,462.5,20.0,461.5,28.0,460.5,36.0,460.0,44.0,459.5,52.5,459.0,61.0,458.5,68.5,458.5,76.0,458.0,84.0,458.0,92.0,457.5,100.5,457.0,109.0,456.0,117.5,455.0,125.5,454.0,133.0,453.0,140.5,453.0,148.0,453.0,156.0,452.5,164.5,452.0,172.5,451.5,180.5,451.0,188.5,450.5,196.0,451.0,204.0,450.5,212.5,450.0,220.5,449.0,228.5,448.5,236.5,448.0,244.5,447.0,253.0,447.0,261.0,446.5,268.5,446.0,276.0,445.5,283.5,444.5,291.5,444.5,300.0,444.0,308.0,443.5,316.5,443.0,325.0,442.5,332.5,441.5,340.5,440.5,348.5,440.0,356.5,439.0,364.5,438.5,372.5,438.0,380.5,437.0,388.5,437.0,396.0,437.0,403.5,437.0,411.5,436.5,419.5,436.0,427.5,435.5,436.5,435.0,444.5,434.0,452.0,434.0,460.0,433.5,468.0,433.0,476.5,431.5,484.5,431.0,492.5,430.5,500.5,430.5,508.0,430.0,515.5,429.5" stroke="black" stroke-width="2" fill="none" />
<polyline points="442.5,428.0,442.5,420.5,442.0,412.5,442.5,405.0,440.5,397.0,441.0,389.0,441.0,380.5,439.5,372.5,438.5,364.5" stroke="black" stroke-width="2" fill="none" />
<polyline points="395.0,415.5,387.0,415.5,379.0,416.0,370.5,416.0,362.5,416.0,354.0,416.0,345.5,415.5,337.0,415.5,329.0,415.5,321.0,416.0,313.5,417.0,306.0,418.0,298.5,419.0,290.5,419.5,283.0,420.0,275.5,421.0,267.5,422.0,259.5,423.0,251.5,423.0,243.5,423.5,235.5,424.0,227.5,424.5,219.0,425.0,210.5,426.0,202.5,426.0,194.5,426.5,186.5,427.5,179.0,428.0,171.0,428.5,162.5,428.5,155.0,429.0,147.0,429.0,139.5,429.5,131.5,430.0,123.5,430.5,116.0,430.5,108.0,431.0,100.0,431.5,91.5,432.0,83.5,433.0,75.5,433.0,68.0,433.0,60.5,433.5,53.0,434.5,45.0,435.5,37.0,435.5,28.5,435.5,20.5,436.0,12.0,436.0,3.0,436.5" stroke="black" stroke-width="2" fill="none" />
<polyline points="3.0,441.0,11.5,433.5,19.0,425.5,27.0,418.0,34.5,410.5" stroke="black" stroke-width="2" fill="none" />
<polyline points="36.0,441.0,28.0,441.5,19.5,442.0,11.5,442.5" stroke="black" stroke-width="2" fill="none" />
<polyline points="11.5,435.5,20.0,435.0,28.5,434.0,37.0,433.0,44.5,432.0" stroke="black" stroke-width="2" fill="none" />
<polyline points="76.5,434.0,84.0,433.5" stroke="black" stroke-width="2" fill="none" />
<polyline points="91.5,432.0,99.5,431.5,107.0,431.0,114.5,430.5,122.0,429.5,130.0,429.5,138.0,429.0,146.0,429.0,154.0,429.0,162.5,429.0,170.0,428.5,178.5,428.0,187.0,427.5,195.5,427.0,204.5,426.0,213.0,425.5,221.0,424.5,229.0,424.5" stroke="black" stroke-width="2" fill="none" />
<polyline points="251.5,420.0,243.5,427.5,236.0,435.5,228.0,443.0,220.5,451.0,213.0,458.5,205.0,465.5,197.0,472.5,189.0,480.5,180.5,488.0,172.0,495.5,164.0,503.0,155.5,510.5" stroke="black" stroke-width="2" fill="none" />
<polyline points="132.0,506.0,139.5,499.0,147.0,491.0,154.5,483.0,162.5,475.0,170.5,468.0,178.5,460.5,187.0,453.0,195.0,445.5,203.0,439.0,211.0,431.5,219.0,424.0,227.0,416.5,235.0,408.5,243.0,401.0,251.5,394.0,259.5,386.5,267.0,379.0,275.0,371.5,283.5,364.0,291.0,356.0" stroke="black" stroke-width="2" fill="none" />
<polyline points="284.0,356.5,276.0,364.0,267.5,371.5,259.5,378.5,251.5,385.5,243.5,393.0,235.0,400.0,226.5,407.5,218.5,415.0,210.5,422.0,202.5,429.5,194.0,437.5,186.0,445.5,177.5,453.0,169.5,461.0,162.0,468.5,154.0,476.5,146.0,484.5,138.0,492.0,130.0,500.0" stroke="black" stroke-width="2" fill="none" />
<polyline points="124.0,499.0,131.5,491.0,140.0,483.5,148.5,475.0,156.5,466.5,164.5,459.0,172.0,451.5,180.0,443.5,188.0,435.5,196.0,428.0,204.5,420.5,212.5,413.0,221.0,406.0,229.5,399.0,237.5,391.5,245.5,384.5,253.0,376.5,261.0,368.5,269.0,361.0,277.0,354.0" stroke="black" stroke-width="2" fill="none" />
<polyline points="275.0,345.5,267.5,353.5,259.5,361.0,251.5,369.0,243.5,377.5,236.0,385.0,228.0,392.5,220.0,400.0,212.0,407.0,204.0,413.5,196.0,420.5,188.0,428.5,180.0,435.5,172.5,443.5,165.0,451.5,157.0,459.0,149.0,466.5,141.0,475.0,132.5,482.5,124.5,489.5,116.5,497.0" stroke="black" stroke-width="2" fill="none" />
<polyline points="100.5,480.0,108.0,472.0,116.0,464.0,124.5,456.5,132.5,449.0,140.5,441.5,149.0,434.5,157.0,427.5,165.0,420.0,173.5,412.5,181.5,405.0,189.0,397.5,197.0,390.0,205.5,382.5,213.0,375.0,221.0,367.5,228.0,359.5,235.5,352.0,243.5,344.5,251.5,336.5,259.5,329.5,268.0,322.0,276.0,314.5" stroke="black" stroke-width="2" fill="none" />
<polyline points="269.5,315.0,261.5,322.5,253.0,330.5,244.5,338.0,236.0,345.5,227.5,353.0,220.0,360.5,212.5,367.5,205.0,374.5,197.0,382.0,189.5,389.0,181.5,397.0,172.5,404.5,163.5,412.5,155.5,421.0,146.5,429.5,138.5,437.0,131.0,444.5,123.0,452.5,115.5,460.5,107.5,468.5,99.5,476.0" stroke="black" stroke-width="2" fill="none" />
<polyline points="76.5,470.5,84.0,463.5,91.5,456.0,99.5,449.0,107.5,441.5,116.0,434.5,124.0,427.0,132.0,419.5,140.0,411.5,148.0,404.0,155.0,396.0,163.0,388.0,170.5,379.5,178.5,372.0,186.0,364.0,194.0,356.5,202.0,349.0,210.5,341.5,218.5,334.0,227.0,326.0,235.5,318.5,243.5,311.0,252.5,303.5,261.0,295.5,269.0,288.0,277.0,280.5,285.0,273.0,292.5,265.5" stroke="black" stroke-width="2" fill="none" />
<polyline points="292.0,276.5,283.5,283.5,275.5,291.0" stroke="black" stroke-width="2" fill="none" />
<polyline points="284.0,292.0,292.0,284.5" stroke="black" stroke-width="2" fill="none" />
<polyline points="291.5,308.0,283.5,315.5,275.0,323.0,266.5,330.5" stroke="black" stroke-width="2" fill="none" />
<polyline points="267.0,347.0,259.5,355.0,252.0,362.5,244.0,370.0,236.0,377.5,228.0,384.5,220.0,392.5,212.0,400.0,204.5,407.0,196.0,414.5,188.0,422.0,179.5,429.5,171.5,437.0,163.5,444.5,155.0,452.0,146.5,459.5,138.5,467.5,131.0,475.5,123.0,483.0,115.5,491.0" stroke="black" stroke-width="2" fill="none" />
<polyline points="91.0,473.5,98.5,466.0,107.0,458.5,114.5,450.5,123.0,443.0,131.5,436.0,139.5,428.5,147.5,421.0,155.5,413.5,164.0,406.0,172.0,398.5,179.5,391.5,187.5,384.5,195.5,377.0,204.0,369.0,212.0,361.0,219.5,353.0,228.0,345.5,236.5,338.0,244.0,330.5,251.5,323.0,259.5,316.0,268.0,308.5" stroke="black" stroke-width="2" fill="none" />
<polyline points="259.0,307.5,251.5,314.5,243.5,322.0,235.5,329.5,227.5,336.5,220.0,344.0,212.0,351.0,204.5,358.5,196.5,365.5,188.5,373.0,180.5,380.5,172.5,388.0,165.0,396.0,156.5,403.5,148.0,412.0,139.5,420.0,131.5,427.0,123.5,434.5,115.0,442.0,106.5,449.5,98.5,456.5,91.0,464.5,82.5,472.5" stroke="black" stroke-width="2" fill="none" />
<polyline points="115.0,481.0,123.5,473.5,131.5,466.0,140.5,458.5,149.0,450.5,157.0,443.0,165.0,435.5,173.0,428.0,180.5,420.5,188.5,413.5,197.0,406.0,205.5,399.5,214.0,392.5,222.0,385.0,229.5,378.5,237.5,371.5,245.5,364.0,253.5,356.0,261.0,348.0" stroke="black" stroke-width="2" fill="none" />
<polyline points="249.5,348.0,241.5,355.5,234.0,363.0,226.5,370.5,218.5,378.0,210.5,385.5,203.0,393.0,195.5,400.5,187.5,408.5,179.5,416.0,171.5,423.5,163.5,431.0,155.0,438.5,147.0,446.0,139.0,453.0,130.5,460.0,122.5,468.0,114.0,476.0,106.0,483.5" stroke="black" stroke-width="2" fill="none" />
<polyline points="91.5,512.0,100.0,511.5,107.5,511.5,115.5,511.5,124.0,512.0,132.5,512.0,140.5,512.0,148.5,512.0,156.5,512.5,165.0,512.5,172.5,512.5,181.0,512.0,189.0,512.0,197.0,512.0,204.5,512.0,212.5,512.0,220.5,512.0,228.5,512.0,236.5,512.5,244.5,512.5,252.5,512.5,260.5,512.5,268.5,512.5,276.5,512.5,284.5,512.5,292.5,512.5,300.5,512.5" stroke="black" stroke-width="2" fill="none" />
<polyline points="283.5,483.0,275.5,490.0,267.5,497.0" stroke="black" stroke-width="2" fill="none" />
<polyline points="261.0,496.5,269.0,489.5,277.0,482.0,285.0,474.5" stroke="black" stroke-width="2" fill="none" />
<polyline points="284.5,467.5,277.0,475.5,269.5,482.5,262.0,489.5,254.5,497.0,246.5,504.0" stroke="black" stroke-width="2" fill="none" />
<polyline points="211.5,511.5,219.0,504.0,226.5,496.5,234.5,489.0,242.0,481.5,250.5,473.5,258.5,466.5,267.5,459.0,276.0,452.0,284.0,445.0,291.5,438.0" stroke="black" stroke-width="2" fill="none" />
<polyline points="285.0,435.5,277.0,443.5,269.5,451.5,261.0,459.0,253.0,467.0,245.0,474.5,236.5,481.5,228.5,488.5,220.5,496.0,212.0,503.5,204.0,510.5" stroke="black" stroke-width="2" fill="none" />
<polyline points="225.5,513.0,233.5,506.0,242.0,498.0,250.5,491.0,259.0,483.0,268.0,475.5,276.5,468.0" stroke="black" stroke-width="2" fill="none" />
<polyline points="275.5,460.5,267.5,468.0,259.0,475.5,251.0,483.0,243.0,490.0,234.5,497.0,226.5,505.0,218.0,513.0" stroke="black" stroke-width="2" fill="none" />
<polyline points="194.0,512.5,202.0,504.5,210.0,496.5,218.5,489.0,227.0,481.0,235.5,473.5,243.5,465.5,251.5,458.5,260.0,450.5,267.5,442.5,275.5,435.5" stroke="black" stroke-width="2" fill="none" />
<polyline points="266.0,436.0,258.0,443.5,249.5,451.5,241.5,459.0,233.5,466.5,226.0,474.5,218.0,481.5,210.5,488.5,203.0,496.0,195.0,503.5,187.0,511.0" stroke="black" stroke-width="2" fill="none" />
<polyline points="179.5,511.0,187.5,503.5,195.0,495.5,202.5,488.5,210.5,482.0,218.5,474.5,226.5,467.0,234.5,458.5,242.5,451.0,251.0,443.0,259.5,435.0" stroke="black" stroke-width="2" fill="none" />
<polyline points="260.0,428.0,252.0,435.0,243.5,442.5,235.5,450.0,227.5,457.5,219.5,465.5,211.0,473.0,203.0,480.0,195.0,488.0,188.0,496.0,180.0,503.5,172.0,511.0" stroke="black" stroke-width="2" fill="none" />
<polyline points="163.5,510.0,171.5,502.5,180.0,495.5,187.5,487.5,195.5,479.5,203.5,472.0,211.5,464.0,219.5,457.0,227.5,449.5,236.0,442.5,244.5,435.5,252.5,429.0,260.5,421.5" stroke="black" stroke-width="2" fill="none" />
<polyline points="250.5,412.5,243.0,420.0,235.0,427.5,227.5,435.0,220.0,442.5,212.5,450.5,204.0,457.5,196.0,465.0,188.0,472.5,179.5,480.0,171.5,487.5,163.5,495.0,155.0,502.0,147.0,509.0" stroke="black" stroke-width="2" fill="none" />
<polyline points="138.0,509.0,146.5,502.0,155.0,494.0,164.0,486.5,172.5,479.0,180.0,471.5,187.5,464.0,194.5,456.5,202.0,449.0,210.0,441.5,217.5,434.0,225.5,426.0,233.5,418.0,241.5,410.0,250.0,403.0" stroke="black" stroke-width="2" fill="none" />
<polyline points="260.0,394.0,268.0,387.0,276.0,380.0" stroke="black" stroke-width="2" fill="none" />
<polyline points="298.5,362.0,307.0,354.5" stroke="black" stroke-width="2" fill="none" />
<polyline points="301.5,354.0,293.5,362.0,284.5,369.5" stroke="black" stroke-width="2" fill="none" />
<polyline points="282.0,323.5,290.0,315.5" stroke="black" stroke-width="2" fill="none" />
<polyline points="259.0,359.5,251.0,360.0,243.0,360.5,234.5,361.0" stroke="black" stroke-width="2" fill="none" />
<polyline points="233.0,329.5,241.5,329.0" stroke="black" stroke-width="2" fill="none" />
<polyline points="233.0,322.0,241.0,321.5,249.5,320.5" stroke="black" stroke-width="2" fill="none" />
<polyline points="241.0,314.5,233.5,315.0,225.5,315.5" stroke="black" stroke-width="2" fill="none" />
<polyline points="229.0,306.5,236.5,305.5" stroke="black" stroke-width="2" fill="none" />
<polyline points="229.5,296.0,237.5,296.0,245.5,296.5" stroke="black" stroke-width="2" fill="none" />
<polyline points="244.0,264.0,236.0,264.5,228.0,265.5" stroke="black" stroke-width="2" fill="none" />
<polyline points="220.0,258.0,228.0,257.5,236.0,256.5,243.5,256.0" stroke="black" stroke-width="2" fill="none" />
<polyline points="249.5,231.5,241.0,231.5,233.0,231.5,225.0,232.0" stroke="black" stroke-width="2" fill="none" />
<polyline points="226.5,225.0,235.0,224.5,243.0,224.0,250.5,223.5" stroke="black" stroke-width="2" fill="none" />
<polyline points="244.0,216.5,236.0,217.0,228.0,217.5" stroke="black" stroke-width="2" fill="none" />
<polyline points="227.0,208.5,218.5,209.0" stroke="black" stroke-width="2" fill="none" />
<polyline points="250.5,179.5,258.5,172.0" stroke="black" stroke-width="2" fill="none" />
<polyline points="266.5,179.5,274.5,171.5" stroke="black" stroke-width="2" fill="none" />
<polyline points="284.0,161.5,292.0,154.5" stroke="black" stroke-width="2" fill="none" />
<polyline points="307.5,129.0,315.0,122.0,323.0,114.5,330.5,107.0,339.0,99.0,347.0,91.5,354.5,84.0,363.0,76.5" stroke="black" stroke-width="2" fill="none" />
<polyline points="357.0,70.0,349.5,71.0,341.5,71.5,333.0,72.0,325.0,72.0,316.5,73.0,309.0,73.5,300.5,73.5,292.5,74.0,284.0,74.5,276.0,75.0,267.5,75.5,259.5,76.0,251.0,76.5,242.5,77.0,235.0,77.5,227.0,78.0,219.0,78.0,211.5,78.5,203.5,79.0,195.0,79.5,186.5,79.5,178.5,80.0,170.5,81.0,162.0,82.0" stroke="black" stroke-width="2" fill="none" />
<polyline points="162.0,73.0,170.0,72.5,178.0,72.0,186.0,71.0,193.5,70.0,201.5,70.0,209.5,70.0,217.5,69.5,226.0,69.5,234.5,69.0,242.5,68.0,251.0,67.5,259.0,67.0,267.0,66.5,275.0,66.0,283.5,66.0,291.5,65.5,299.5,65.0,308.0,65.0,317.0,64.5,325.5,64.0,333.0,63.5,340.5,63.5,348.0,62.5" stroke="black" stroke-width="2" fill="none" />
<polyline points="339.0,58.0,331.5,66.0,323.5,74.0,315.5,81.5,307.5,89.0,299.0,97.0,291.5,104.0,283.0,111.5,274.5,118.5,266.5,126.0,258.5,133.5,250.0,141.0,242.0,149.0,234.0,156.5,226.0,164.0,218.5,171.5,211.0,179.0,203.0,186.0,195.0,193.5,187.0,201.5,179.5,209.0,171.0,216.0,163.0,223.5,155.5,231.5,148.0,239.0,140.0,247.0,131.5,254.5" stroke="black" stroke-width="2" fill="none" />
<polyline points="138.5,259.0,146.0,258.5,154.0,257.0" stroke="black" stroke-width="2" fill="none" />
<polyline points="155.0,248.5,147.5,249.0,139.5,250.0" stroke="black" stroke-width="2" fill="none" />
<polyline points="140.0,243.5,148.0,242.0,155.5,241.5" stroke="black" stroke-width="2" fill="none" />
<polyline points="170.0,242.5,178.5,242.5,187.0,242.0,195.5,241.5,204.0,240.5,212.5,240.0,220.5,238.5,228.0,237.5,236.0,236.5,244.0,235.5,252.0,235.0" stroke="black" stroke-width="2" fill="none" />
<polyline points="252.0,245.0,244.0,246.0,235.5,246.5,227.0,247.0,218.5,247.0,210.5,247.0,203.0,247.0,195.0,247.0,187.0,247.5,179.0,248.0" stroke="black" stroke-width="2" fill="none" />
<polyline points="170.0,236.5,178.5,235.5,186.0,235.0,194.5,233.5,203.0,231.5,211.5,230.0,219.5,229.5" stroke="black" stroke-width="2" fill="none" />
<polyline points="211.5,224.0,203.0,225.0,195.0,225.5,187.0,225.5,179.5,226.0,171.5,226.5" stroke="black" stroke-width="2" fill="none" />
<polyline points="163.5,217.0,171.5,216.5,179.5,216.0" stroke="black" stroke-width="2" fill="none" />
<polyline points="171.5,211.0,179.5,210.5,187.5,210.0,195.0,209.5" stroke="black" stroke-width="2" fill="none" />
<polyline points="172.5,203.0,180.5,202.0,188.0,201.5,196.0,201.0,204.0,200.5,211.5,200.0,220.0,199.5,228.0,198.5" stroke="black" stroke-width="2" fill="none" />
<polyline points="204.5,193.0,196.0,194.0,188.0,194.0,179.5,194.5,172.0,195.0" stroke="black" stroke-width="2" fill="none" />
<polyline points="162.5,232.5,154.5,233.0,146.5,233.5,138.5,234.5" stroke="black" stroke-width="2" fill="none" />
<polyline points="131.0,237.5,138.5,230.5,146.5,223.5,154.5,216.0,162.0,208.0,169.5,201.0,178.0,193.5,186.5,186.5,194.0,180.0,201.5,173.0,209.5,166.0,217.5,158.0,225.5,150.5,233.5,143.0,242.0,135.5,250.0,128.5,258.0,121.0,267.0,113.0,275.0,106.0,282.5,98.5,291.0,91.0,299.0,83.0,307.0,75.0,314.5,67.0,322.5,59.5,330.5,52.0" stroke="black" stroke-width="2" fill="none" />
<polyline points="328.5,43.5,320.5,51.5,313.0,59.0,305.5,66.5,298.0,74.5,290.5,82.0,282.5,89.5,274.0,97.5,266.0,105.0,258.5,112.0,251.0,119.0,243.0,127.0,234.5,134.5,226.5,142.0,218.5,149.5,210.5,157.0,202.5,164.5,194.0,171.5,185.5,178.5,177.0,185.5,169.0,192.5,161.0,200.5,153.5,208.5,146.0,216.0,138.5,223.5,131.0,231.5" stroke="black" stroke-width="2" fill="none" />
<polyline points="132.5,222.5,140.5,215.0,149.0,207.5,156.5,200.0,164.5,192.0,173.0,185.0,180.5,177.5,188.5,170.5,196.0,163.5,204.5,156.5,212.5,149.0,220.5,141.5,228.5,134.0,236.5,126.5,244.0,119.0,252.5,111.5,259.5,104.5,267.5,97.0,275.0,89.5,283.0,82.0,290.5,74.5,298.5,66.5,306.5,58.5,314.5,51.0,322.5,43.5" stroke="black" stroke-width="2" fill="none" />
<polyline points="317.0,43.0,309.0,50.5,301.5,58.0,293.5,65.5,285.0,73.0,277.0,80.5,269.0,87.5,260.5,94.5,252.5,102.0,244.5,109.5,236.0,117.0,228.0,125.0,220.5,133.0,212.5,141.0,205.0,149.0,196.5,156.5,189.0,164.5,180.5,172.5,172.5,180.0,164.0,187.5,156.0,195.0,148.0,202.5,140.5,210.0,132.5,217.0" stroke="black" stroke-width="2" fill="none" />
<polyline points="132.0,218.5,140.0,218.0,148.5,217.5,157.0,217.0" stroke="black" stroke-width="2" fill="none" />
<polyline points="154.5,225.0,146.0,225.0,138.0,225.5" stroke="black" stroke-width="2" fill="none" />
<polyline points="132.5,209.5,140.0,209.0,148.0,208.0,156.0,207.5" stroke="black" stroke-width="2" fill="none" />
<polyline points="132.0,209.5,140.0,201.5,148.5,194.0,157.0,187.0,164.5,179.0,173.0,172.0,181.5,164.5,189.5,156.5,197.5,148.5,205.5,140.5,213.5,133.5,221.0,126.0,229.0,118.0,237.5,110.5,244.5,103.0,252.5,95.0,260.5,87.0,268.5,79.0,276.5,71.5,284.0,64.5,292.0,57.5,300.0,50.0,308.0,43.0,315.5,35.5" stroke="black" stroke-width="2" fill="none" />
<polyline points="308.0,35.0,299.5,42.5,291.5,50.0,283.5,57.5,275.0,65.0,266.5,72.5,258.5,80.5,251.0,88.5,243.0,96.0,235.5,104.0,227.0,111.5,219.5,119.0,211.0,126.0,203.0,133.0,195.0,140.0,187.0,147.5,179.0,155.0,170.5,162.5,162.5,170.0,154.5,178.0,146.5,185.0,139.0,192.5,131.0,199.5" stroke="black" stroke-width="2" fill="none" />
<polyline points="131.5,203.0,139.5,202.5,147.5,202.0,155.0,201.5" stroke="black" stroke-width="2" fill="none" />
<polyline points="155.0,192.5,147.0,193.5,139.0,194.0,131.0,194.5" stroke="black" stroke-width="2" fill="none" />
<polyline points="124.0,201.0,131.5,193.5,139.0,186.0,147.0,178.5,155.0,171.0,163.0,163.5,171.5,156.0,179.0,149.0,187.0,141.5,195.0,134.0,203.0,127.0,211.0,119.5,218.5,112.0,226.0,104.5,234.5,97.0,242.5,89.0,251.0,81.5,259.0,73.5,266.5,66.5,274.5,59.0,282.5,51.5,290.5,44.0,298.5,36.5" stroke="black" stroke-width="2" fill="none" />
<polyline points="299.5,28.5,291.5,36.5,283.5,44.0,275.5,51.5,268.0,59.0,259.5,66.5,251.5,74.0,243.5,81.5,235.5,89.0,227.5,97.0,219.5,105.0,211.5,112.5,203.5,119.5,195.5,126.5,187.5,134.0,179.5,141.0,171.5,148.5,163.5,155.5,155.5,163.5,147.5,171.5,139.5,179.5,131.5,186.5,124.0,194.0" stroke="black" stroke-width="2" fill="none" />
<polyline points="122.0,183.5,130.0,176.0,138.5,168.5,147.0,161.0,155.5,154.0,163.5,146.5,172.0,139.0,180.0,132.0,188.0,124.5,196.0,117.5,204.0,110.0,212.0,102.5,220.0,94.5,228.0,87.0,236.0,79.0,243.5,71.0,251.5,63.5,260.0,56.0,268.5,48.5,276.5,41.0,285.5,34.5,293.0,27.0" stroke="black" stroke-width="2" fill="none" />
<polyline points="283.5,28.5,275.5,36.0,267.0,43.0,259.0,50.0,251.0,57.0,243.0,64.5,234.5,72.5,226.0,80.5,218.0,88.0,210.5,95.5,202.5,103.0,194.5,110.5,186.5,118.0,179.0,126.0,171.0,134.0,163.0,142.0,154.5,149.5,147.0,157.0,139.0,164.0,130.0,172.0,122.0,179.5" stroke="black" stroke-width="2" fill="none" />
<polyline points="130.0,176.0,138.5,176.0,147.0,176.5,155.0,176.5" stroke="black" stroke-width="2" fill="none" />
<polyline points="155.0,184.5,146.0,184.5,138.0,184.0,130.0,184.0" stroke="black" stroke-width="2" fill="none" />
<polyline points="132.0,169.5,140.0,169.0,148.0,169.0,155.5,168.5,163.0,168.5" stroke="black" stroke-width="2" fill="none" />
<polyline points="163.5,160.5,155.5,161.0,147.5,161.0,139.5,161.5,131.5,162.0" stroke="black" stroke-width="2" fill="none" />
<polyline points="132.0,153.5,140.0,153.0,147.0,153.0,155.0,153.0,163.0,152.5,171.0,152.0,179.0,151.5,187.0,150.5" stroke="black" stroke-width="2" fill="none" />
<polyline points="212.0,119.0,203.5,119.0,195.5,119.0,187.0,120.0,178.5,120.0,170.5,121.0,162.5,121.5,154.0,122.0,146.0,122.5" stroke="black" stroke-width="2" fill="none" />
<polyline points="142.5,119.5,150.0,119.5,157.5,118.5,165.5,117.5,173.5,116.5,181.5,115.5,189.5,115.0,197.5,114.5,205.5,114.0,213.5,114.5,222.0,114.0,229.5,113.5,238.0,113.0,246.0,112.5,254.0,112.5,261.5,111.5,269.5,110.5,277.5,110.0,285.5,108.5,294.0,107.0,301.5,106.0,309.5,106.0,317.5,106.5,325.5,106.0,333.5,105.5,341.5,105.0,349.5,105.0,357.0,105.0,365.0,104.0,373.5,103.0,381.5,102.0,389.5,102.0,397.0,102.0,404.5,101.5" stroke="black" stroke-width="2" fill="none" />
<polyline points="388.0,110.5,380.5,111.5,373.0,112.5,366.0,113.0,358.5,114.0,350.5,114.5" stroke="black" stroke-width="2" fill="none" />
<polyline points="332.0,104.5,339.5,104.0,347.5,103.5,355.5,103.5,363.0,103.0,370.5,102.0,378.5,101.5" stroke="black" stroke-width="2" fill="none" />
<polyline points="373.0,93.0,364.5,94.0,357.0,94.5,348.5,94.5,340.5,95.0,332.0,95.5,324.0,96.0,315.5,96.5,307.5,97.0,299.0,97.5,290.5,98.0" stroke="black" stroke-width="2" fill="none" />
<polyline points="299.0,65.5,307.0,65.0,315.5,64.5,323.5,64.5,331.5,64.5" stroke="black" stroke-width="2" fill="none" />
<polyline points="340.5,53.0,332.5,60.0,324.5,67.5,317.0,75.0,308.5,83.0,300.0,91.0,292.0,98.5,284.0,105.5,275.5,112.5,267.0,120.0,259.0,127.5,250.5,134.5,242.0,142.0,234.0,149.5,226.0,156.5,218.0,163.5,210.0,171.5,203.0,179.0,195.0,186.5,187.5,194.0,180.0,202.0,171.5,209.5,163.5,216.0,155.5,223.0,148.0,230.0,140.0,237.5,132.5,244.5" stroke="black" stroke-width="2" fill="none" />
<polyline points="125.0,169.5,132.5,162.5,140.5,155.0,148.5,147.5,156.5,140.0,164.0,132.5,172.0,125.0,180.0,117.5,187.5,109.5,195.0,102.0,203.5,94.5,211.5,87.0,219.5,79.5,228.0,72.5,235.5,65.5,243.0,57.5,251.0,50.0,259.0,43.0,266.5,35.5,275.0,28.0" stroke="black" stroke-width="2" fill="none" />
<polyline points="266.0,26.5,257.5,34.0,250.0,42.0,242.0,49.5,234.5,57.0,226.0,65.0,218.0,72.5,210.5,80.5,202.0,88.0,194.0,95.0,186.0,102.5,178.0,110.5,169.5,117.5,161.5,125.0,153.5,132.5,146.0,140.5,138.0,147.5,130.5,154.5,122.5,161.5" stroke="black" stroke-width="2" fill="none" />
<polyline points="124.5,155.5,132.5,148.5,141.0,141.5,149.0,134.0,157.0,126.0,165.5,118.5,173.0,110.5,181.0,102.5,189.5,95.0,196.5,88.0,204.0,81.0,211.5,73.5,219.5,66.5,227.5,59.5,235.5,52.5,244.0,45.0,251.5,37.0,259.5,29.5" stroke="black" stroke-width="2" fill="none" />
<polyline points="250.5,26.0,242.5,34.0,234.5,41.5,226.5,49.0,219.0,56.0,212.0,63.5,204.0,71.5,195.5,79.5,187.5,87.5,179.5,95.5,172.0,103.0,164.0,110.0,156.0,117.0,148.5,124.0,141.0,132.0,133.0,139.0" stroke="black" stroke-width="2" fill="none" />
<polyline points="139.0,137.0,147.0,136.5,154.5,136.0,163.0,136.0,171.5,136.0,179.5,135.5,188.5,135.5,197.0,135.5" stroke="black" stroke-width="2" fill="none" />
<polyline points="225.5,100.0,218.0,101.0,210.5,102.0,202.5,102.5,195.0,103.0,187.5,104.0,179.5,105.0,171.5,106.0,163.5,106.0,155.5,106.5" stroke="black" stroke-width="2" fill="none" />
<polyline points="155.0,97.5,163.0,96.5,171.0,96.5,179.0,96.0,187.5,95.5,195.5,95.0,203.5,94.0,211.0,93.5,219.0,93.0,227.0,92.5,234.5,92.0,243.0,91.5,251.0,91.0" stroke="black" stroke-width="2" fill="none" />
<polyline points="244.0,28.0,236.5,35.5,228.0,42.0,220.0,49.0,212.0,56.5,204.0,63.5,196.0,71.0,188.0,79.0,179.5,87.0,171.5,94.0,164.0,101.5,156.0,109.0,147.5,116.5,139.5,123.5,131.5,131.5" stroke="black" stroke-width="2" fill="none" />
<polyline points="130.5,125.0,138.5,124.5,146.0,124.0,154.0,123.5,162.0,123.5,169.5,122.5,177.5,122.5,185.5,122.0,193.5,122.0,201.0,121.5,209.0,121.0,217.0,120.5,225.0,120.0,233.0,119.0,241.5,119.0,250.0,118.5,258.5,118.5,266.5,117.5,275.0,117.5,283.5,117.0,291.5,116.5,299.5,116.0,307.0,115.5,315.0,115.5,323.0,115.0,331.5,114.0,339.5,113.0,347.5,112.0,355.5,111.0,363.5,110.0,371.5,109.0,379.5,108.5,387.0,109.0,395.0,108.5,403.5,108.0" stroke="black" stroke-width="2" fill="none" />
<polyline points="396.5,94.5,388.5,94.5,381.0,95.0,372.5,95.5,364.0,96.5,355.5,96.5,348.0,96.5,340.0,96.5,332.0,97.0,323.5,97.5,316.0,98.0,308.0,98.5,300.0,99.5,292.0,100.0,284.0,100.0,276.0,100.5,268.5,101.0,261.0,101.5,253.0,102.5,245.0,103.5,237.0,104.0,228.5,105.0,220.5,105.5,212.0,106.0,204.0,106.5,196.0,107.0,187.5,107.5,180.0,108.5,171.5,109.0,164.0,109.0,156.0,109.5,147.5,109.5,139.5,110.0" stroke="black" stroke-width="2" fill="none" />
<polyline points="138.5,116.0,146.0,108.0,154.0,100.5,162.0,93.0,170.5,86.0,178.5,78.5,187.0,71.5,195.0,64.5,203.5,57.0,211.5,50.0,219.5,42.5,228.0,35.0,236.0,27.5" stroke="black" stroke-width="2" fill="none" />
<polyline points="226.0,28.5,218.5,36.0,210.5,43.0,202.5,50.5,194.5,57.0,186.0,64.5,178.0,72.0,170.5,80.0,162.5,87.5,154.5,95.5,146.5,102.5" stroke="black" stroke-width="2" fill="none" />
<polyline points="142.0,100.0,146.0,96.0,141.0,104.0,139.0,112.5,136.5,120.5,134.0,129.0,131.0,137.0,128.0,145.5,123.5,154.0,122.5,162.0,121.0,170.5,123.5,178.0,123.0,186.0,124.5,194.0,124.5,202.0,127.0,210.0,128.0,218.0,130.5,226.5,132.5,234.5,134.0,242.5,132.0,250.5,131.5,258.5,132.5,266.5,133.5,274.0,138.0,282.0,142.0,290.0,146.0,298.0,148.5,305.5,148.5,313.5,147.5,321.5,146.5,329.5,146.5,338.0,146.0,346.0,146.0,353.5,146.0,364.5,146.0,372.5,145.0,380.5,143.5,388.5,142.5,396.5" stroke="black" stroke-width="2" fill="none" />
<polyline points="130.5,403.0,122.5,410.5,114.5,418.5,107.0,426.5,99.0,434.5,91.5,442.0,84.0,449.5,76.0,457.5,68.0,465.0,60.0,472.0" stroke="black" stroke-width="2" fill="none" />
<polyline points="44.0,480.5,52.0,472.5,60.0,464.5,67.5,456.5,75.0,448.5,83.0,441.0,91.5,433.5,99.0,426.5,107.0,419.0,114.5,412.0,123.0,404.5" stroke="black" stroke-width="2" fill="none" />
<polyline points="114.5,404.0,106.5,411.5,98.5,419.0,90.5,426.0,82.5,434.0,74.5,441.5,67.0,449.0,59.0,456.5,51.5,464.5,43.5,472.0,36.0,479.5,27.5,487.0,19.0,494.5,10.5,502.0" stroke="black" stroke-width="2" fill="none" />
<polyline points="29.0,509.0,36.5,501.5" stroke="black" stroke-width="2" fill="none" />
<polyline points="35.5,492.5,27.5,500.0,19.5,507.5" stroke="black" stroke-width="2" fill="none" />
<polyline points="11.0,471.0,19.0,463.5,27.0,456.0,35.0,448.0,43.5,440.0,52.0,432.5,60.0,425.0,68.0,418.0,76.0,411.0" stroke="black" stroke-width="2" fill="none" />
<polyline points="83.5,425.0,91.5,424.5,100.0,424.0,108.0,423.5,115.5,423.0,123.0,423.0,131.0,423.0,139.5,422.5,147.5,422.0,155.5,421.5,163.5,420.5,171.5,420.5,179.5,420.0,187.5,419.0,196.0,418.0,204.0,417.0,212.5,417.0,220.5,416.5" stroke="black" stroke-width="2" fill="none" />
<polyline points="219.5,487.0,212.0,487.0,204.0,487.5,196.0,487.5,188.0,488.0" stroke="black" stroke-width="2" fill="none" />
<polyline points="165.5,482.5,173.0,482.0,180.5,481.5,188.0,481.0,195.5,480.0,203.0,479.5,211.0,478.0,219.0,477.0" stroke="black" stroke-width="2" fill="none" />
<polyline points="225.0,469.5,217.0,470.5,209.5,471.0,202.0,471.5,194.5,472.0,187.0,472.5,179.0,472.5,171.5,473.0,164.0,473.5,156.5,474.5" stroke="black" stroke-width="2" fill="none" />
<polyline points="148.0,465.0,156.0,465.0,164.0,464.5,172.0,464.5,180.5,464.0,188.0,463.0,196.0,462.5,204.0,461.0,212.0,460.5,220.5,460.5,229.0,460.5" stroke="black" stroke-width="2" fill="none" />
<polyline points="251.0,450.5,243.0,451.0,235.5,452.0,227.5,452.5,219.0,453.0,211.0,453.5,203.0,454.0,195.0,454.5,187.0,454.5,179.0,455.0,170.5,455.5,163.0,455.5,155.0,455.5,147.5,456.0,140.5,456.5,133.0,457.0" stroke="black" stroke-width="2" fill="none" />
<polyline points="115.0,449.0,123.0,448.5,131.5,448.0,139.0,447.5,146.5,448.0,154.5,447.5,162.0,447.5,170.0,447.5,177.5,447.0,184.5,446.5,192.5,446.0,200.5,445.5,209.0,444.5,217.5,443.5,226.0,443.5,234.0,443.0,242.5,443.0,250.5,442.5" stroke="black" stroke-width="2" fill="none" />
<polyline points="197.5,406.5,189.0,407.0,180.5,407.5,172.0,408.0,164.0,409.0,156.0,409.0,147.5,409.5,139.0,409.5,131.0,410.0" stroke="black" stroke-width="2" fill="none" />
<polyline points="108.0,415.5,115.5,415.0,124.0,414.5,132.0,414.5,140.0,414.5,148.5,414.0,156.0,414.0,163.0,414.0,170.5,414.0,178.0,414.0,185.5,414.0,194.0,413.5" stroke="black" stroke-width="2" fill="none" />
<polyline points="244.5,433.5,236.5,434.5,228.0,435.5,219.5,435.5,211.5,436.0,203.0,436.5,194.5,437.0,185.5,438.0,178.0,438.0,170.0,438.5,162.0,439.0,154.5,439.5,147.0,439.5,139.0,439.5,130.5,439.0,122.5,439.5,115.0,440.0,106.5,440.5" stroke="black" stroke-width="2" fill="none" />
<polyline points="19.0,456.5,11.0,457.0" stroke="black" stroke-width="2" fill="none" />
<polyline points="12.5,451.5,20.5,450.5" stroke="black" stroke-width="2" fill="none" />
<polyline points="1.0,407.5,9.0,407.0,17.5,406.5,26.5,406.0,34.5,405.5,43.0,404.5,51.0,404.0,59.5,403.5,67.5,403.5,75.5,403.0,84.0,402.5,92.0,402.0,100.0,401.0,108.0,400.5,116.0,400.0,124.0,399.5,132.0,399.0,140.0,398.0,147.5,397.5,155.5,396.5,163.0,396.0,171.0,395.5,179.5,395.5,188.0,395.0,196.0,395.0,204.0,394.0,212.5,393.5,221.0,393.0,229.5,392.5,238.0,392.0,246.0,391.5,253.5,391.0,261.0,391.0,268.5,390.5,276.5,390.0,284.0,389.5,291.5,388.5,299.0,387.5,307.0,386.5,314.5,385.5,322.5,385.0,331.0,384.5,339.0,384.5,346.5,384.0,354.0,384.0" stroke="black" stroke-width="2" fill="none" />
<polyline points="357.5,418.0,365.0,423.0,373.0,423.0,374.0,430.0" stroke="black" stroke-width="2" fill="none" />
<polyline points="380.0,498.0,372.0,506.0" stroke="black" stroke-width="2" fill="none" />
<polyline points="420.5,232.0,428.0,231.5,436.0,231.5,444.0,230.5,452.0,231.5,460.0,231.0,468.5,230.5,476.5,230.5,484.5,231.0,492.0,231.0,500.0,231.0,508.0,229.5" stroke="black" stroke-width="2" fill="none" />
<polyline points="386.5,88.5,379.0,89.0,371.0,89.5,363.0,89.5,355.0,90.0,346.5,90.0,338.5,90.0,330.0,90.0,321.5,89.5,313.0,89.5,305.0,89.5,297.0,90.0,289.5,91.0,282.0,92.0,274.5,93.0,266.5,93.5,259.0,94.0,251.5,95.0,243.5,96.0,235.5,97.0,227.5,97.0,219.5,97.5,211.5,98.0,203.5,98.5,195.0,99.0,186.5,100.0,178.5,100.0,170.5,100.5,162.5,101.5,155.0,102.0,147.0,102.5,138.5,102.5" stroke="black" stroke-width="2" fill="none" />
<polyline points="139.0,92.5,147.0,91.5,155.0,92.0,162.5,91.5,170.5,90.5,178.5,90.5,187.0,90.0,195.0,89.5,203.5,89.0,211.0,88.5,219.0,88.5,227.0,87.5,235.0,87.5,243.0,87.0,251.5,86.5,259.5,86.0,267.5,85.0,275.0,84.5,283.0,84.0,291.0,83.5,298.5,83.0,307.0,82.5,315.0,82.0,322.5,81.5,331.0,81.0,339.0,80.5,347.0,80.5,355.5,80.5,364.0,80.0,371.5,79.5,379.5,79.0,387.5,78.5" stroke="black" stroke-width="2" fill="none" />
<polyline points="379.5,85.0,386.0,93.0" stroke="black" stroke-width="2" fill="none" />
<polyline points="315.0,57.0,307.0,57.5" stroke="black" stroke-width="2" fill="none" />
<polyline points="274.5,31.0,267.0,31.0,259.5,31.5,252.0,32.0,244.5,32.5,237.0,32.5,228.5,33.0,221.0,33.5" stroke="black" stroke-width="2" fill="none" />
<polyline points="220.0,27.5,212.0,35.5,203.5,43.0,195.5,51.0,187.5,58.0,179.0,65.5,171.0,73.0,162.5,80.5,154.5,88.0,147.0,95.5" stroke="black" stroke-width="2" fill="none" />
<polyline points="146.0,88.5,154.0,81.0,162.0,74.0,170.5,66.5,179.5,59.0,187.5,51.5,196.0,43.5,204.0,35.5" stroke="black" stroke-width="2" fill="none" />
<polyline points="204.0,28.5,196.0,35.5,187.0,43.0,178.5,50.5,170.5,58.0,162.5,65.5,154.5,72.5" stroke="black" stroke-width="2" fill="none" />
<polyline points="155.0,70.5,163.0,70.0,171.5,69.5,179.5,69.0,187.0,68.0,195.0,67.5,203.5,67.0,212.0,66.5,220.0,66.0,228.0,65.5,236.0,65.0,244.0,64.5,252.0,63.5,259.5,63.0,267.0,62.0,275.0,61.5,283.0,61.0,291.0,61.0,298.5,61.0,306.5,60.5,314.0,60.0,322.5,59.5,330.5,59.5,338.5,59.5,346.5,59.5,354.5,59.0" stroke="black" stroke-width="2" fill="none" />
<polyline points="289.5,18.0,282.0,17.5,275.0,18.0,267.5,18.5,260.5,19.0,252.5,19.5,245.0,19.0,237.0,19.0,229.0,19.5,220.5,20.0" stroke="black" stroke-width="2" fill="none" />
<polyline points="192.0,27.5,179.0,35.5,171.5,44.0,167.5,52.0,161.5,59.5,153.5,67.5,148.0,75.5,143.0,83.5,140.5,91.5,134.5,100.0,140.5,89.0,148.5,76.0,156.5,64.0,164.5,60.0,172.0,44.5,180.0,35.5,188.5,30.5,196.5,27.5,204.5,28.5,213.0,27.5,221.0,23.5,229.0,23.5,236.5,21.5,244.5,20.5,252.5,20.5,260.5,20.5,268.5,21.0,276.0,20.0,284.0,21.0,292.0,23.0,300.0,26.0,308.0,30.0,316.5,31.5,324.5,37.5,332.0,43.0,340.0,50.0,348.0,60.5,356.0,73.5,364.0,73.5" stroke="black" stroke-width="2" fill="none" />
<polyline points="282.0,35.5,274.0,36.0,266.0,36.5,258.0,37.0,250.0,38.0,242.5,38.5,234.5,38.5,226.0,39.0,218.0,39.0,210.5,39.5,203.0,40.0,195.0,40.5,187.5,41.5" stroke="black" stroke-width="2" fill="none" />
<polyline points="185.5,35.0,177.0,43.0,169.5,50.5" stroke="black" stroke-width="2" fill="none" />
<polyline points="173.0,45.5,181.0,45.0,188.5,44.5,196.0,43.5,204.0,43.5,212.5,43.5,220.0,42.5,228.0,42.5,235.5,41.5,243.0,41.0,251.0,40.0,259.0,39.5,266.5,39.0,274.5,38.5,283.0,38.0,291.5,37.5,299.0,37.5,307.0,37.5,314.5,37.5,322.5,37.5,330.0,37.0,339.0,36.5" stroke="black" stroke-width="2" fill="none" />
<polyline points="307.5,22.0,299.0,22.5,290.0,23.0,282.0,23.5,274.0,24.0,266.5,25.0,258.5,25.0,250.5,25.0,243.0,25.5,235.0,26.0,227.0,26.5,219.0,27.0,210.5,27.5,202.0,27.5,194.0,28.0,185.5,28.0" stroke="black" stroke-width="2" fill="none" />
<polyline points="180.0,39.0,188.0,38.5,196.0,38.0,203.5,37.5,212.0,37.0,219.5,36.5,227.0,35.5,235.0,34.5,242.5,34.0,251.0,33.0,259.0,33.0,267.0,32.5,275.5,31.5,283.5,31.5,291.5,31.5,298.5,31.5,307.0,30.5,315.0,30.0,323.0,29.5" stroke="black" stroke-width="2" fill="none" />
<polyline points="283.5,43.0,276.0,43.0,268.0,43.5,260.5,44.0,252.0,44.5,243.5,45.0,235.0,46.0,226.5,46.5,219.0,47.5,211.0,47.5,202.5,48.5,195.0,49.5,187.0,50.0,179.0,50.5" stroke="black" stroke-width="2" fill="none" />
<polyline points="173.0,57.0,180.5,56.5,188.0,56.0,195.5,55.0,203.5,54.5,211.0,53.5,218.5,53.5,226.5,53.0,234.5,52.5,241.5,52.0,250.0,52.0,258.0,51.5,266.5,51.5,275.0,51.5,283.0,51.5" stroke="black" stroke-width="2" fill="none" />
<polyline points="290.5,57.0,283.0,58.0,275.5,58.5,267.5,58.5,259.5,59.0,252.0,59.5,243.5,60.5,236.0,61.5,228.5,62.0,220.5,63.0,212.5,64.0,204.5,64.0,197.0,64.5,189.0,65.0,180.5,65.5,172.0,66.0" stroke="black" stroke-width="2" fill="none" />
<polyline points="158.0,62.5,165.5,62.0,173.0,62.0,180.5,61.5,188.5,61.0,196.0,60.5,203.5,59.5,211.0,58.5,219.0,57.5,226.5,56.5,234.5,56.0,243.0,55.5,251.0,55.5,258.5,55.0,266.0,55.0,273.5,55.0,281.5,54.5,290.0,55.0,298.0,55.5,306.0,55.0,314.0,54.5,322.0,54.0,329.5,53.0,338.0,52.0,347.0,50.5" stroke="black" stroke-width="2" fill="none" />
<polyline points="348.0,42.5,340.0,43.0,332.5,43.5,324.5,44.5,317.0,44.5,309.0,45.0,300.5,45.0,292.5,45.0,284.0,45.5,275.5,46.0,267.0,46.5,258.0,47.0,249.5,48.0,241.0,48.5,233.0,48.5,225.5,49.0,218.0,49.0,210.0,50.0,202.5,50.0,194.5,50.5,186.5,51.0,178.5,51.5,171.0,51.5,162.5,52.0" stroke="black" stroke-width="2" fill="none" />
<polyline points="145.5,79.0,154.0,78.5,162.0,77.5,170.5,77.5,179.0,77.0,187.0,76.0,196.0,75.5,204.5,75.0,212.5,74.5,220.5,73.5,228.0,73.0,236.5,72.5,245.0,72.0,253.0,71.5,260.5,71.0,268.5,71.0,276.5,70.0,284.5,69.0,292.0,68.5,299.5,67.5,308.0,66.5,315.5,66.0,323.5,65.5,331.5,65.5,339.0,65.0,346.5,64.0,354.5,63.5,362.5,63.5,370.5,63.5" stroke="black" stroke-width="2" fill="none" />
<polyline points="363.5,77.5,356.0,77.0,348.5,77.5,340.5,78.0,333.0,78.5,325.0,79.0,316.5,79.5,308.5,80.0,301.0,81.0,293.0,81.5,285.5,82.0,277.5,82.5,269.0,83.0,260.5,83.0,252.0,83.5,244.0,84.0,236.0,84.5,227.5,85.5,219.5,86.0,211.0,86.5,202.5,86.5,194.0,87.0,186.0,87.0,178.5,87.0,170.5,87.5,162.5,88.0,154.5,88.5" stroke="black" stroke-width="2" fill="none" />
<polyline points="139.0,84.5,146.5,84.0,154.0,83.0,162.0,82.5,170.0,82.0,177.5,81.5,186.0,81.0,194.5,80.5,202.5,80.0,210.5,80.0,218.5,79.5,226.5,79.0,234.5,78.5,242.5,78.0,250.0,78.0,258.0,78.0,266.5,77.5,275.0,77.5,283.5,77.0,291.5,76.5,300.0,75.5,308.0,75.0,316.0,74.5,324.5,74.0,333.0,74.0,341.5,73.5,349.5,73.0,357.0,72.5,365.0,72.0,372.5,71.0,380.5,70.5" stroke="black" stroke-width="2" fill="none" />
<polyline points="220.0,110.0,212.5,110.0,204.5,110.5,196.5,111.5,188.0,112.5,179.5,112.5,171.5,113.0,163.0,113.5,154.5,114.0,145.5,115.0" stroke="black" stroke-width="2" fill="none" />
<polyline points="140.5,130.0,148.5,129.5,156.5,129.0,164.5,128.5,172.0,129.0,180.0,128.5,188.5,128.0,196.5,127.0,204.5,126.5" stroke="black" stroke-width="2" fill="none" />
<polyline points="194.0,141.0,186.0,142.0,178.5,143.0,170.5,143.5,162.5,144.5,154.5,145.0,146.0,145.5,138.0,146.5,130.0,147.0" stroke="black" stroke-width="2" fill="none" />
<polyline points="115.5,148.5,123.0,148.0,131.5,146.5,139.5,146.0,147.0,146.5,155.0,146.5,162.5,146.0,170.5,146.5,178.0,146.5,186.0,145.5,194.0,145.5,202.0,145.0,210.5,144.5,218.5,144.0,226.5,143.0,235.0,143.0,243.5,142.0,251.5,142.0,260.0,142.0,268.5,141.5,276.5,141.0,284.5,140.0,292.0,139.5,300.0,139.0,308.0,138.5,315.5,138.0,324.0,137.5,332.0,136.5,339.5,135.5,348.0,135.0,356.0,134.0,364.0,134.0,372.5,134.0,380.5,133.5,388.0,132.5,395.5,132.0,403.0,131.5,411.0,131.0" stroke="black" stroke-width="2" fill="none" />
<polyline points="43.5,180.5,35.5,187.5,27.5,195.0,19.5,202.5,11.5,210.0,4.0,217.5" stroke="black" stroke-width="2" fill="none" />
<polyline points="4.5,213.5,12.5,212.0,20.5,211.5,28.0,210.5,35.5,210.0,43.0,209.5,51.0,209.5,59.0,209.5,66.5,209.0,74.5,208.5,82.5,208.5,90.0,208.0,98.0,207.5,106.5,207.0,115.0,207.0,123.5,206.5,131.5,206.5,140.0,206.0,148.5,206.0,157.0,205.5,165.0,205.0,173.0,204.5,181.0,203.5,188.5,202.5,196.0,202.0,203.5,200.5,211.5,199.5,219.0,199.0,227.0,198.5,235.0,198.0,243.0,198.0,251.0,197.5,258.5,197.0,267.0,197.0,275.5,197.0,283.5,196.5,292.5,196.5,301.0,196.5,309.0,196.5,317.0,196.0,325.0,196.0,333.0,195.5,341.0,195.0,349.0,194.0,356.0,193.5,363.5,193.0,371.0,192.5,378.5,191.5,386.0,191.5,394.0,191.0,401.5,190.5,409.5,190.0" stroke="black" stroke-width="2" fill="none" />
<polyline points="43.0,188.5,35.0,196.0,27.0,203.5,18.5,211.0,10.5,218.5,2.0,226.0" stroke="black" stroke-width="2" fill="none" />
<polyline points="3.5,222.5,12.0,222.0,20.0,221.5,28.0,221.0,36.0,221.0,44.5,220.5,52.0,220.0,60.0,219.0,68.5,218.0,76.5,217.0,84.5,216.5,92.5,216.0,100.5,216.0,108.5,216.0,116.5,216.0,125.0,216.0,133.0,216.0,140.5,215.5,148.0,215.0,156.0,214.5,163.5,213.5,172.0,213.0,180.5,212.0,189.0,211.0,196.5,210.0,204.5,209.0,212.0,208.5,220.0,208.0,227.5,207.5,234.5,207.0,242.0,206.5,250.0,206.0,258.5,206.0,267.0,205.5,275.5,204.5,284.0,203.5,292.0,203.5,300.0,203.0,308.0,203.0,316.0,202.5,324.5,202.5,332.0,201.5,339.5,201.0,347.0,200.5,355.0,200.5,362.5,200.0,370.0,199.5,377.5,199.0,385.0,198.5,393.0,197.5,401.0,197.0" stroke="black" stroke-width="2" fill="none" />
<polyline points="34.5,180.5,26.5,188.0,19.0,195.5,11.0,202.5,2.5,209.5" stroke="black" stroke-width="2" fill="none" />
<polyline points="4.5,205.5,12.5,205.0,20.0,204.5,28.0,203.5,36.5,202.5,44.5,202.5,52.0,202.0,60.0,202.5,68.0,202.5,75.5,202.5,83.5,202.0,91.5,201.5,100.0,200.5,108.0,199.5,116.0,199.0,124.0,198.5,132.5,198.0,141.0,197.5,148.5,197.5,156.0,197.0,164.0,197.0,172.0,196.5,180.5,196.0,189.0,195.0,197.5,194.0,205.5,193.0,213.0,192.0,220.5,192.0,228.0,192.0,236.0,191.5,244.5,191.0,252.5,190.5,260.5,190.0,268.5,189.5,276.0,190.0,284.0,189.5,292.5,189.0,300.5,188.0,308.5,187.5,316.5,187.0,324.5,186.0,333.0,186.0,341.0,185.5,348.5,185.0,356.0,184.5,363.5,183.5,371.5,183.5,380.0,183.0,388.0,182.5,396.5,182.0,405.0,181.5,412.5,180.5" stroke="black" stroke-width="2" fill="none" />
<polyline points="26.5,182.5,18.0,190.0,10.0,196.5,2.5,203.5" stroke="black" stroke-width="2" fill="none" />
<polyline points="4.0,197.5,11.5,197.5,19.0,197.0,27.5,196.5,35.5,196.0,43.5,195.0,52.0,195.0,60.0,195.0,68.0,195.0,75.5,194.5,83.5,193.5,91.0,193.0,99.0,192.0,107.0,191.5,115.0,191.5,123.0,191.0,131.5,190.0,139.5,189.5,147.0,189.5,155.0,190.0,163.0,189.5,171.0,189.0,179.5,188.0,188.0,187.5,196.5,187.5,205.0,187.0,213.0,186.5,221.5,186.0,230.0,185.5,238.5,185.5,246.5,184.5,254.0,184.5,261.5,183.5,269.5,182.5,277.5,181.5,285.5,180.5,293.5,180.0,301.5,179.5,309.5,179.0,317.5,179.5,326.0,179.0,333.5,178.5,342.0,178.0,350.0,177.5,358.0,177.5,365.5,176.5,373.5,175.5,381.5,175.0,389.5,173.5,398.0,172.0,405.5,171.0,413.5,171.0" stroke="black" stroke-width="2" fill="none" />
<polyline points="44.5,231.0,37.0,231.5,29.0,232.0,21.0,232.5,12.5,233.0" stroke="black" stroke-width="2" fill="none" />
<polyline points="11.5,225.5,19.5,225.0,28.5,224.0,36.5,223.0,45.0,222.5" stroke="black" stroke-width="2" fill="none" />
<polyline points="45.0,216.0,37.0,216.5,29.0,216.5,21.0,216.5,13.0,217.0" stroke="black" stroke-width="2" fill="none" />
<polyline points="13.0,210.0,21.0,209.5,29.0,209.0,36.5,208.5,44.5,208.0" stroke="black" stroke-width="2" fill="none" />
<polyline points="44.5,200.0,36.5,201.0,28.5,201.0,20.5,201.5,13.0,202.0" stroke="black" stroke-width="2" fill="none" />
<polyline points="13.0,192.0,21.0,192.0,29.0,191.5,37.0,191.0,45.5,190.5" stroke="black" stroke-width="2" fill="none" />
<polyline points="18.0,179.5,10.0,186.5,1.5,194.0" stroke="black" stroke-width="2" fill="none" />
<polyline points="2.0,190.0,10.5,190.0,19.0,189.5,27.0,188.5,35.0,188.0,42.5,187.5,51.0,187.0,59.0,186.5,67.5,185.5,76.0,184.5,84.0,184.0,92.0,184.0,100.0,184.0,107.5,184.0,116.0,183.5,124.0,183.0,132.5,182.0,140.5,182.0,148.0,181.5,156.0,181.0,163.5,180.0,171.5,179.5,180.0,179.0,188.0,178.0,196.0,177.5,204.0,177.0,212.0,177.0,220.0,176.5,227.5,176.0,235.5,176.0,243.5,175.0,251.5,174.5,260.0,174.5,268.0,174.0,275.5,174.0,284.0,173.5,291.5,172.5,300.0,172.0,308.0,171.5,316.0,171.0,324.5,170.5,332.5,170.0,341.0,169.0,349.0,168.5,357.0,167.5,365.0,166.5,372.5,166.0,380.0,165.5,388.0,165.0,396.0,165.0,404.0,164.5,412.0,163.5" stroke="black" stroke-width="2" fill="none" />
<polyline points="411.0,211.5,402.5,212.0,394.5,213.0,386.0,213.5,377.5,213.5,369.5,214.0,361.5,214.0,353.5,214.0,346.0,215.0,338.0,216.0,330.0,216.5,322.0,217.0,314.0,217.5,306.0,218.0,298.0,219.0,290.5,219.5,283.0,220.5,275.0,221.0,267.0,222.0,259.5,222.5,252.0,223.0,244.0,224.5,235.5,224.0,227.0,224.0,218.5,224.0,210.5,224.0,203.0,224.0,195.0,225.5,187.5,227.0,180.0,228.0,172.5,228.5,164.5,229.5,156.5,229.5,148.0,229.5,140.5,229.5,132.5,229.5,124.5,229.5,116.5,230.5,108.0,230.5,99.5,231.5,91.5,232.0,83.0,232.5,75.0,233.5,67.0,234.0,59.5,234.5,52.0,235.5,44.0,236.5,36.0,237.0,27.5,237.0,19.5,237.5,11.0,238.5,3.0,239.0" stroke="black" stroke-width="2" fill="none" />
<polyline points="4.0,183.5,12.5,182.5,20.5,183.0,29.0,183.0,37.5,183.0,45.5,182.5,49.0,186.0,49.0,194.0,48.0,201.5,48.0,209.5,47.0,217.5,46.0,225.5,45.0,233.5,44.0,241.5,43.0,249.5,43.0,257.5,43.0,265.0,42.0,273.0,41.0,280.5,40.0,288.5,40.0,296.5,39.0,304.5,39.0,312.5,38.0,320.5,37.0,329.0,37.0,337.0,35.5,345.5,34.5,353.5,33.5,367.5,32.5,375.5,32.0,383.5,31.0,391.5,30.0,399.5,28.0,407.5" stroke="black" stroke-width="2" fill="none" />
<polyline points="59.5,512.5,52.0,512.5,43.5,512.5,35.5,513.0,27.0,513.0,19.0,512.5,11.0,512.5,4.5,510.5,4.0,503.0,4.0,494.5,4.0,487.0,4.5,478.5,4.5,470.5,4.5,462.5,5.0,454.0,4.5,445.5,4.5,437.5,4.5,429.5,4.5,421.5,4.5,413.5,5.0,405.5,5.0,397.5,6.0,389.5,6.0,381.5,6.0,373.5,6.0,365.5,5.5,358.0,5.0,350.0,5.0,342.0,5.5,334.0,5.5,326.0,5.5,318.0,5.5,310.0,5.5,302.5,5.5,295.0,5.5,287.0,5.5,279.0,5.0,271.0,5.0,263.0,4.5,255.0,5.0,247.0,5.0,239.0,5.0,230.0,5.0,221.5,5.0,213.5,5.0,206.0,4.5,198.0,4.5,190.0,5.5,181.5" stroke="black" stroke-width="2" fill="none" />
<polyline points="4.0,180.5,11.5,179.5,19.0,178.5,27.0,178.0,35.5,178.0,43.5,177.5,51.5,177.0,59.5,176.5,67.5,176.0,75.5,176.0,83.0,175.5,92.0,175.0,100.5,175.0,108.5,174.5,117.0,174.5,125.0,174.5,133.0,173.5,140.5,172.5,148.0,172.0,155.5,172.0,163.5,172.0,171.5,171.0,180.0,170.5,188.0,170.0,196.0,169.5,203.5,169.5,211.5,169.0,219.5,168.5,227.0,168.0,235.0,168.0,242.5,167.5,251.0,167.5,259.0,167.0,266.5,166.5,274.5,165.5,282.5,165.0,290.5,165.0,299.0,164.0,307.5,163.5,315.5,163.0,323.5,162.5,331.5,162.0,339.5,162.0,347.5,161.0,355.5,160.0,363.0,159.0,370.5,158.5,378.5,158.0,386.0,157.0,393.5,156.0,401.0,155.0,409.0,154.5,417.0,154.5" stroke="black" stroke-width="2" fill="none" />
<polyline points="419.0,147.0,411.0,147.5,402.5,148.0,395.0,148.5,387.0,149.0,379.0,149.5,371.5,150.0,363.5,151.0,355.5,151.5,347.0,152.0,339.0,152.5,331.0,152.5,323.0,153.5,315.0,153.5,307.5,154.0,299.0,154.5,291.0,155.0,282.5,155.5,274.5,155.5,266.5,156.5,259.0,157.0,251.0,156.5,243.0,157.5,235.0,158.0,227.5,158.0,219.0,158.5,211.0,160.0,203.0,161.0,195.5,161.0,188.0,162.0,180.0,162.5,172.0,163.0,164.0,163.0,156.5,163.5,148.5,163.5,140.5,164.0,132.5,164.5,124.5,165.0,117.0,166.0,109.0,167.0,101.0,167.5,92.5,168.5,84.5,169.0,76.5,170.0,68.5,170.0,60.0,170.5,51.5,171.0,43.5,171.0,35.5,171.5,28.0,172.0,20.0,172.0,12.5,172.0,4.0,172.0" stroke="black" stroke-width="2" fill="none" />
<polyline points="5.5,165.0,13.5,164.5,21.5,165.0,29.5,165.0,37.0,164.5,45.0,164.0,53.5,163.5,62.0,163.5,70.0,163.0,77.5,162.5,85.5,162.0,93.5,161.5,101.0,161.5,108.5,161.0,115.5,160.5,123.0,159.5,131.0,158.5,139.0,157.5,147.5,156.5,156.0,155.5,164.0,155.0,171.5,154.5,178.5,154.0,186.0,154.0,194.0,153.0,202.0,152.5,210.0,152.0,218.0,151.0,226.0,150.0,234.5,150.0,243.0,149.5,250.5,149.0,258.0,148.0,266.0,147.5,274.0,147.0,281.5,146.5,290.0,146.0,298.5,145.5,306.5,145.0,314.5,145.0,322.5,144.5,330.5,144.0,338.5,143.5,346.5,143.0,354.0,143.0,362.0,143.0,370.5,142.5,379.0,142.5,387.5,142.0,395.5,141.5,404.0,140.5,412.0,140.0,420.0,139.5" stroke="black" stroke-width="2" fill="none" />
<polyline points="420.0,131.5,412.0,132.5,404.0,133.0,396.0,133.5,388.0,134.0,380.0,134.5,371.5,135.0,363.0,135.5,355.0,136.0,347.5,137.0,339.5,137.5,331.0,138.0,323.0,138.5,315.0,139.0,307.0,139.5,299.0,139.5,291.0,140.0,282.5,140.5,275.0,140.5,267.0,140.5,259.5,141.0,252.5,141.5,245.0,142.0,236.5,142.5,228.5,143.0,220.0,143.5,211.5,144.0,204.0,144.5,195.5,145.5,187.0,146.5,179.5,147.5,171.5,148.5,163.5,149.5,156.0,150.0,147.5,150.0,139.5,150.0,131.5,150.0,123.5,150.5,116.0,151.5,107.5,152.5,99.0,153.5,91.0,154.0,83.0,154.5,75.0,155.5,67.5,155.5,60.5,156.0,52.5,156.0,45.5,156.0,37.5,156.0,29.5,156.0,21.5,156.5,13.0,156.5,5.5,157.0" stroke="black" stroke-width="2" fill="none" />
<polyline points="6.0,148.5,14.0,148.0,21.5,148.0,28.5,148.0,36.0,147.5,43.5,147.5,50.5,147.5,58.0,147.0,65.5,147.0,73.0,147.0,81.0,146.5,89.0,146.0,97.5,145.5,106.5,145.0" stroke="black" stroke-width="2" fill="none" />
<polyline points="3.0,140.0,11.0,139.0,19.0,139.0,27.5,139.0,36.0,139.0,43.5,139.0,51.5,138.5,59.0,139.0,66.5,139.0,74.0,138.5,82.0,138.5,90.0,138.0,98.0,137.0,106.5,136.5,114.5,136.0,123.0,135.5,131.0,135.5,139.0,135.0,147.0,135.0,155.0,134.5,163.0,134.0,171.0,133.5,178.5,132.5,187.0,131.5,195.0,131.0,203.0,130.5,211.5,130.0,220.0,129.0,228.0,128.0,236.0,127.5,244.0,127.5,252.0,127.0,260.5,126.5,269.0,126.0,277.0,125.5,285.0,124.5,292.5,124.5,300.5,124.0,308.5,123.0,316.5,122.0,324.0,121.0,332.0,121.0,340.0,120.5,348.0,120.5,356.5,120.0,364.0,119.0,372.0,118.5,380.0,117.0,388.0,116.5,396.5,116.5,405.0,116.5,412.5,116.0" stroke="black" stroke-width="2" fill="none" />
<polyline points="413.0,106.5,404.5,107.0,396.5,107.5,388.5,108.0,380.5,109.0,372.5,109.5,364.5,110.0,355.5,111.0,347.5,112.0,339.5,112.5,331.0,112.5,323.0,112.5,315.0,113.5,307.5,114.0,299.0,114.5,291.0,115.0,283.0,115.5,275.0,116.0,268.0,116.5,260.0,117.0,252.0,118.0,244.5,118.5,236.0,119.0,228.0,119.5,220.0,120.5,211.5,121.5,203.5,122.0,195.0,123.0,187.0,123.5,179.5,124.0,171.5,124.0,163.5,124.0,155.5,124.5,147.5,125.5,139.0,126.0,131.5,126.0,123.5,126.0,116.0,126.5,108.0,127.5,100.0,128.5,92.5,129.5,84.5,130.0,76.5,130.0,67.5,129.5,59.0,129.5,51.0,130.0,42.5,130.5,35.0,131.0,27.0,131.0,19.5,131.5,11.0,132.0,3.0,133.0" stroke="black" stroke-width="2" fill="none" />
<polyline points="3.0,125.5,11.0,124.5,19.0,123.5,27.0,123.0,35.5,123.0,44.0,122.5" stroke="black" stroke-width="2" fill="none" />
<polyline points="28.0,115.5,20.0,116.5,12.0,117.0,4.0,117.5" stroke="black" stroke-width="2" fill="none" />
<polyline points="4.0,108.5,11.5,108.0,19.0,107.5,27.5,107.0" stroke="black" stroke-width="2" fill="none" />
<polyline points="29.0,99.5,21.0,99.5,13.5,100.0,5.0,100.5" stroke="black" stroke-width="2" fill="none" />
<polyline points="3.0,93.0,10.5,93.0,19.0,92.5,27.0,92.5" stroke="black" stroke-width="2" fill="none" />
<polyline points="27.0,85.5,18.5,86.0,10.0,86.0,1.5,86.0" stroke="black" stroke-width="2" fill="none" />
<polyline points="1.0,77.5,9.5,77.0,18.0,76.0,27.0,76.0" stroke="black" stroke-width="2" fill="none" />
<polyline points="26.0,67.0,17.5,67.5,9.5,67.5,1.5,68.0" stroke="black" stroke-width="2" fill="none" />
<polyline points="3.5,62.0,11.0,61.5,18.5,61.5,26.5,61.0" stroke="black" stroke-width="2" fill="none" />
<polyline points="29.5,53.0,21.0,53.5,12.0,53.5,4.5,54.5" stroke="black" stroke-width="2" fill="none" />
<polyline points="4.0,44.5,12.5,44.0,20.5,44.0,28.5,43.5" stroke="black" stroke-width="2" fill="none" />
<polyline points="27.0,36.0,18.5,36.5,10.5,36.5,2.0,37.0" stroke="black" stroke-width="2" fill="none" />
<polyline points="3.0,29.5,11.0,29.0,19.0,28.5,27.0,28.0,35.0,27.5" stroke="black" stroke-width="2" fill="none" />
<polyline points="35.0,18.5,26.0,19.5,17.5,20.0,9.5,21.0,1.5,21.5" stroke="black" stroke-width="2" fill="none" />
<polyline points="3.0,12.5,11.0,12.0,18.5,12.0,26.5,11.5,35.0,10.5" stroke="black" stroke-width="2" fill="none" />
<polyline points="59.5,4.5,67.0,4.5,75.0,4.5,83.0,4.5,91.5,4.5,99.5,5.0,107.5,5.0,116.0,5.0,124.0,5.0,132.5,5.5,140.5,5.5,148.5,5.5,156.0,5.5,164.0,5.5,171.5,5.0,180.0,5.0,188.0,5.0,196.0,4.5,204.5,4.5,213.0,4.5,221.0,4.5,229.0,4.5,236.5,5.0,244.5,5.0,252.0,5.5,260.0,6.0,267.5,5.5,275.0,5.5,282.5,5.5,290.0,4.5,298.0,4.0,306.0,4.5,314.0,5.0,322.5,5.5,331.0,6.0,339.5,6.5,347.5,6.0,356.0,6.0,363.5,6.0,371.5,6.0,380.0,6.5,387.5,6.0,395.0,6.0,403.0,6.0,411.0,5.5,418.5,5.5,426.5,5.5,434.5,5.0,442.5,4.5,450.0,4.0,458.0,4.0,466.0,4.5,474.0,4.5,482.5,4.5,491.0,5.0,499.0,4.5,507.0,5.0,512.0,8.0,511.5,16.0,511.5,24.0,511.5,32.5,511.5,40.0,511.0,48.0,511.0,56.0,511.5,64.0,512.0,72.0,512.0,80.0,511.5,88.0,511.5,96.0,511.5,103.5,511.5,111.5,510.5,120.0,512.0,128.0,512.0,136.0,511.0,143.5,512.0,151.5,512.5,159.5,512.0,167.5,511.0,176.0,512.5,184.0,512.5,192.0,512.0,200.0,511.5,208.0,511.5,216.0,511.0,224.0" stroke="black" stroke-width="2" fill="none" />
<polyline points="100.5,0.5,92.5,1.0,84.0,1.5,76.5,2.5,69.5,2.5,61.5,2.5,53.0,3.5,45.5,3.5,37.0,3.5,29.0,3.5,20.5,3.5,12.0,3.5,3.5,4.0" stroke="black" stroke-width="2" fill="none" />
</svg>