<svg xmlns="http://www.w3.org/2000/svg" version="1.1"><polyline points="483.5,12.5,483.5,20.0,485.0,28.5,485.5,36.5,488.0,45.0,494.0,46.0,502.0,45.5,510.0,46.0" stroke="black" stroke-width="2" fill="none" />
<polyline points="511.0,45.0,512.0,53.0,512.0,61.0,512.0,69.0,512.0,77.5,512.0,85.5,512.0,93.0,512.5,101.0,513.0,109.0,513.0,117.0,513.0,125.0,513.0,133.0,512.0,141.0" stroke="black" stroke-width="2" fill="none" />
<polyline points="515.0,233.0,507.0,233.5,499.0,234.0,491.0,234.0,483.0,234.5,474.0,235.0,466.0,235.5,458.5,235.5,451.0,235.5,443.0,235.5,435.0,236.0,427.0,236.0" stroke="black" stroke-width="2" fill="none" />
<polyline points="429.0,231.5,437.0,231.5,444.0,230.5,451.5,229.5,459.5,228.0,467.5,227.0,475.0,226.5,482.5,226.5,490.0,226.5,497.5,226.5,505.0,225.5,513.5,225.5" stroke="black" stroke-width="2" fill="none" />
<polyline points="515.0,261.5,507.0,261.5,499.0,262.0" stroke="black" stroke-width="2" fill="none" />
<polyline points="508.0,269.5,516.0,269.0" stroke="black" stroke-width="2" fill="none" />
<polyline points="515.0,276.5,506.5,277.5" stroke="black" stroke-width="2" fill="none" />
<polyline points="507.0,284.0,515.5,283.5" stroke="black" stroke-width="2" fill="none" />
<polyline points="514.5,293.0,507.0,293.5" stroke="black" stroke-width="2" fill="none" />
<polyline points="509.0,301.0,517.0,300.5" stroke="black" stroke-width="2" fill="none" />
<polyline points="515.5,355.5,507.5,356.0,500.0,356.5,492.0,357.5" stroke="black" stroke-width="2" fill="none" />
<polyline points="490.5,357.5,498.5,354.5,503.0,357.5,503.0,365.5,499.0,373.5,495.5,381.5,501.0,392.5,504.0,385.5,503.5,393.5" stroke="black" stroke-width="2" fill="none" />
<polyline points="506.0,390.0,514.5,389.5" stroke="black" stroke-width="2" fill="none" />
<polyline points="515.5,404.0,508.0,404.5,500.5,405.5" stroke="black" stroke-width="2" fill="none" />
<polyline points="500.0,414.5,507.5,414.0,516.0,413.5" stroke="black" stroke-width="2" fill="none" />
<polyline points="516.0,420.5,507.5,421.0,499.5,421.0" stroke="black" stroke-width="2" fill="none" />
<polyline points="496.5,426.0,504.5,427.5" stroke="black" stroke-width="2" fill="none" />
<polyline points="499.5,433.5,491.0,441.0,483.0,449.0,475.0,457.0,467.0,465.0,458.5,473.5,450.5,481.0,442.5,489.0,434.0,496.5,425.5,503.5,417.0,511.0" stroke="black" stroke-width="2" fill="none" />
<polyline points="491.5,513.0,499.0,505.0,507.5,497.5,515.5,490.0" stroke="black" stroke-width="2" fill="none" />
<polyline points="517.5,480.5,509.0,488.5,500.5,496.5,491.5,505.0,483.0,513.0" stroke="black" stroke-width="2" fill="none" />
<polyline points="505.5,516.0,513.5,508.5" stroke="black" stroke-width="2" fill="none" />
<polyline points="514.0,500.5,506.0,508.0,498.5,515.0" stroke="black" stroke-width="2" fill="none" />
<polyline points="475.5,512.5,484.5,505.5,493.0,498.0,501.5,490.5,509.5,482.0,517.5,474.0" stroke="black" stroke-width="2" fill="none" />
<polyline points="518.0,469.0,509.5,477.0,501.5,484.5,493.0,491.5,485.0,499.0,476.0,506.5,467.5,513.5" stroke="black" stroke-width="2" fill="none" />
<polyline points="459.0,511.5,468.0,504.5,476.5,496.5,484.0,489.0,492.0,481.0,499.5,473.5,507.0,466.5,515.0,459.0" stroke="black" stroke-width="2" fill="none" />
<polyline points="517.0,450.0,508.5,457.0,500.5,464.5,493.0,472.5,485.0,480.5,476.5,488.5,468.0,496.5,459.5,504.5,451.5,512.0" stroke="black" stroke-width="2" fill="none" />
<polyline points="443.5,510.5,452.0,503.5,460.5,496.0,468.5,488.5,476.5,480.5,484.5,473.0,492.0,465.0,500.0,457.5,509.0,449.5,517.5,442.0" stroke="black" stroke-width="2" fill="none" />
<polyline points="508.5,443.0,500.5,450.5,492.5,458.5,484.0,466.0,476.0,473.0,468.5,480.0,460.5,488.0,453.0,496.0,445.5,503.5,438.0,511.0" stroke="black" stroke-width="2" fill="none" />
<polyline points="428.0,510.5,435.5,502.5,443.5,494.5,451.5,487.0,459.5,479.5,467.0,472.0,476.0,464.5,484.0,457.5,492.5,450.0,500.5,442.5,508.5,435.5" stroke="black" stroke-width="2" fill="none" />
<polyline points="499.0,433.5,491.0,434.5,483.5,434.5,476.0,434.5,468.5,435.0,461.0,435.5,453.0,436.0,444.5,436.5,435.5,437.0,427.5,437.5,419.5,438.0,412.0,439.0,403.5,439.0,395.0,439.5,387.5,440.0,379.5,440.5,372.0,441.5" stroke="black" stroke-width="2" fill="none" />
<polyline points="371.5,435.0,379.5,434.0,387.5,433.0,395.5,432.0,403.5,431.0,412.0,430.5,420.0,430.0,427.5,429.0,435.5,428.5,443.0,428.5,451.0,428.5,458.5,428.0,467.0,427.0,475.5,426.5,483.5,425.5" stroke="black" stroke-width="2" fill="none" />
<polyline points="481.0,426.5,473.0,434.0,465.0,442.0,457.5,450.0,450.5,457.0,443.0,464.5,435.5,472.5,428.0,480.0,420.5,487.5,413.0,495.0,405.0,502.0,397.5,509.5" stroke="black" stroke-width="2" fill="none" />
<polyline points="411.0,510.5,419.0,502.5,426.5,494.5,434.5,487.0,443.0,479.5,451.0,472.0,458.5,464.5,466.5,456.5,474.5,449.0,483.0,442.0,491.0,435.0" stroke="black" stroke-width="2" fill="none" />
<polyline points="497.5,434.5,505.5,439.5" stroke="black" stroke-width="2" fill="none" />
<polyline points="489.5,427.0,481.5,434.5,474.0,442.0,466.5,449.5,459.0,456.5,451.5,464.0,444.5,471.0,436.5,478.5,428.5,486.0,421.0,493.0,413.5,500.0,405.5,508.0" stroke="black" stroke-width="2" fill="none" />
<polyline points="388.0,511.5,396.0,504.0,404.0,496.5,412.5,488.5,420.5,480.5,428.5,473.0,436.0,465.0,443.5,457.0,451.5,449.5,459.0,442.0,467.0,434.0,474.5,426.5" stroke="black" stroke-width="2" fill="none" />
<polyline points="465.5,427.5,458.5,435.0,451.0,442.5,443.0,450.5,435.0,458.0,427.0,466.0,419.5,474.0,412.5,481.5,404.5,489.0,396.5,496.5,389.0,503.5,380.5,511.0" stroke="black" stroke-width="2" fill="none" />
<polyline points="373.0,510.5,381.0,503.5,389.0,496.5,397.0,489.0,405.0,480.5,412.5,472.5,419.5,465.0,427.0,458.0,435.5,449.5,443.0,441.5,451.0,433.5,459.5,426.5,467.5,419.0" stroke="black" stroke-width="2" fill="none" />
<polyline points="459.5,420.0,451.5,428.0,443.5,435.5,435.5,442.5,427.5,449.5,420.0,456.5,412.5,464.0,404.5,471.0,397.0,479.0,389.5,486.5,381.5,494.0,373.5,501.5,365.5,509.5" stroke="black" stroke-width="2" fill="none" />
<polyline points="356.0,509.5,364.5,501.5,372.5,494.0,380.5,486.5,388.5,479.0,397.0,471.0,406.0,463.5,414.0,456.0,422.0,449.0,430.5,442.0,438.0,435.0,445.5,427.5,453.0,420.0" stroke="black" stroke-width="2" fill="none" />
<polyline points="445.5,420.0,437.0,427.0,429.0,434.5,421.0,441.5,413.0,448.5,404.5,455.5,396.5,463.5,389.0,471.0,381.0,478.5,373.0,486.0,364.5,493.0,356.5,500.5,348.5,509.0" stroke="black" stroke-width="2" fill="none" />
<polyline points="340.5,508.0,348.0,500.5,355.5,493.5,363.5,486.0,372.0,478.5,380.0,471.0,388.0,463.5,396.0,456.0,404.0,448.5,412.0,441.0,420.5,433.5,428.0,425.5,436.0,418.0,444.5,410.5" stroke="black" stroke-width="2" fill="none" />
<polyline points="435.5,411.5,427.5,419.0,419.0,426.0,410.5,433.5,402.0,441.0,393.5,449.0,385.5,456.0,378.5,463.0,371.0,470.5,363.5,478.5,355.5,486.0,347.5,493.5,339.5,501.0,331.0,508.5" stroke="black" stroke-width="2" fill="none" />
<polyline points="323.0,510.0,331.5,503.0,339.5,495.5,348.0,488.0,356.0,480.5,363.5,472.5,371.5,464.5,379.0,457.0,387.5,450.0,395.5,442.0,403.0,434.5,410.5,427.5,418.5,420.0,427.0,412.5" stroke="black" stroke-width="2" fill="none" />
<polyline points="419.5,412.0,411.0,420.0,403.0,427.0,395.0,434.0,387.5,441.5,380.0,449.0,371.5,456.5,363.0,464.0,355.0,472.0,347.5,480.0,340.0,487.5,331.5,495.0,323.5,502.5,315.5,509.5" stroke="black" stroke-width="2" fill="none" />
<polyline points="308.0,509.5,315.5,502.0,323.5,494.0,331.5,486.0,339.0,479.0,347.0,472.0,355.5,464.5,363.5,456.5,371.0,448.5,379.5,441.5,387.5,434.5,395.5,427.5,404.0,420.0,412.0,412.0" stroke="black" stroke-width="2" fill="none" />
<polyline points="411.0,403.5,403.0,411.0,395.5,419.0,388.0,427.0,380.0,435.0,372.0,442.5,364.0,450.0,356.0,457.5,347.5,464.5,339.0,472.0,330.5,479.5,323.0,486.5,315.0,494.0,307.0,501.0,299.0,508.5" stroke="black" stroke-width="2" fill="none" />
<polyline points="290.0,512.0,298.5,505.0,307.0,497.0,315.0,489.0,323.5,481.5,331.0,474.0" stroke="black" stroke-width="2" fill="none" />
<polyline points="333.0,481.5,341.0,481.0,348.5,480.5,356.5,479.5,364.5,478.5,373.0,477.5,381.0,477.0,389.0,477.0,397.0,476.5,405.0,476.0,413.5,475.5,420.5,475.0,428.5,474.0,436.0,473.0,443.5,472.5,451.5,472.0,459.0,471.5,467.0,471.0,475.0,471.0,482.5,471.0,490.0,470.5,498.5,470.0,506.5,469.0" stroke="black" stroke-width="2" fill="none" />
<polyline points="499.0,396.5,507.5,396.5,515.5,396.5" stroke="black" stroke-width="2" fill="none" />
<polyline points="514.0,381.5,505.5,382.0,498.0,382.5,490.0,383.5" stroke="black" stroke-width="2" fill="none" />
<polyline points="490.5,374.5,498.5,374.0,506.5,374.0,514.5,373.0" stroke="black" stroke-width="2" fill="none" />
<polyline points="513.5,365.0,506.0,366.0,498.0,366.5,490.0,367.5" stroke="black" stroke-width="2" fill="none" />
<polyline points="492.5,354.0,490.5,362.0,490.5,370.0,490.5,378.0,491.5,386.5,492.5,394.5,494.0,402.5,494.0,410.0,495.0,418.0,496.0,426.5,503.5,437.5,511.0,445.5,512.5,453.5,512.5,461.0,512.5,469.5,512.5,477.5,512.5,486.0,512.5,493.5,512.0,502.0,511.5,510.0" stroke="black" stroke-width="2" fill="none" />
<polyline points="404.5,405.0,397.0,413.0,388.0,420.5,380.0,427.5,371.5,435.0,364.0,442.5,355.0,450.0" stroke="black" stroke-width="2" fill="none" />
<polyline points="362.0,447.5,370.0,447.0,378.0,447.0,386.5,447.0,394.5,447.0,402.5,446.5,411.0,446.5,419.0,446.0,427.0,445.5,435.5,444.5,443.5,444.0,451.5,444.0,460.0,443.5,468.0,442.5,476.0,442.0,484.5,441.5,492.0,440.5,499.5,440.0,507.0,439.5" stroke="black" stroke-width="2" fill="none" />
<polyline points="459.5,418.5,451.0,419.0,443.5,419.5,436.0,420.0,428.5,421.0,421.0,421.0,413.0,422.0,405.0,423.0,397.0,424.5,388.5,425.5,379.5,426.5,371.0,427.5" stroke="black" stroke-width="2" fill="none" />
<polyline points="362.0,425.0,369.5,417.5,377.5,410.5,385.5,403.0,393.0,395.5,401.5,388.0" stroke="black" stroke-width="2" fill="none" />
<polyline points="394.0,390.0,386.0,397.5,378.5,405.0,370.0,411.5,361.5,418.5" stroke="black" stroke-width="2" fill="none" />
<polyline points="364.0,410.5,373.0,403.5,381.5,396.0,389.0,388.5,397.5,381.0" stroke="black" stroke-width="2" fill="none" />
<polyline points="403.0,397.0,395.5,404.5,387.5,412.5,379.5,419.5,371.0,427.0,363.0,434.5" stroke="black" stroke-width="2" fill="none" />
<polyline points="371.0,417.0,379.5,416.5,387.5,416.0,395.5,415.5,403.0,414.5,411.0,413.5,419.5,413.0,427.5,413.0" stroke="black" stroke-width="2" fill="none" />
<polyline points="387.0,400.0,379.0,400.5" stroke="black" stroke-width="2" fill="none" />
<polyline points="380.0,389.5,371.5,396.5,363.5,404.0,355.5,411.5" stroke="black" stroke-width="2" fill="none" />
<polyline points="361.5,409.5,369.5,409.0,378.0,408.5,387.0,407.5,395.5,407.0" stroke="black" stroke-width="2" fill="none" />
<polyline points="362.5,397.0,354.5,404.0" stroke="black" stroke-width="2" fill="none" />
<polyline points="355.5,403.5,364.0,403.0" stroke="black" stroke-width="2" fill="none" />
<polyline points="362.0,388.5,354.0,396.0,346.5,403.0" stroke="black" stroke-width="2" fill="none" />
<polyline points="345.5,395.0,353.5,387.5" stroke="black" stroke-width="2" fill="none" />
<polyline points="344.5,388.5,347.5,397.0,358.0,405.0,366.0,413.5,368.0,423.0,367.0,431.0,365.0,439.0,361.5,447.0,357.5,454.5,350.5,460.5,340.5,468.5,323.5,476.5" stroke="black" stroke-width="2" fill="none" />
<polyline points="314.0,483.5,306.0,491.0,298.5,499.0,290.5,506.5,282.5,514.0" stroke="black" stroke-width="2" fill="none" />
<polyline points="274.5,515.5,283.0,508.0,291.0,500.5,299.0,493.0,307.0,485.0" stroke="black" stroke-width="2" fill="none" />
<polyline points="308.5,489.0,316.5,488.0,324.0,487.5,332.0,487.0,339.5,486.5,347.0,486.5,355.0,486.0,363.5,486.0,371.0,485.0,379.0,484.0,387.0,483.0,395.0,483.0,403.0,482.5,411.0,482.5,418.5,482.5,426.0,482.5,434.0,482.0,443.0,481.5,451.0,481.0,459.0,481.0,467.0,480.5,475.0,480.0,482.5,479.5,490.5,479.0,498.0,478.5,506.0,478.0" stroke="black" stroke-width="2" fill="none" />
<polyline points="507.0,447.5,498.5,448.5,490.5,449.5,482.5,450.0,475.0,451.5,467.0,452.0,459.5,452.0,452.0,452.0,444.0,452.5,435.5,453.0,427.5,454.0,419.5,455.0,412.0,455.5,404.0,455.0,396.0,455.0,388.0,455.0,380.0,454.5,372.0,454.5,364.0,454.5" stroke="black" stroke-width="2" fill="none" />
<polyline points="355.0,465.5,363.0,465.0,371.0,465.0,379.0,464.5,387.5,464.0,395.5,463.5,403.5,462.5,412.0,462.0,420.0,461.5,428.0,461.0,436.5,460.5,444.0,459.5,451.5,459.0,459.0,458.0,467.0,458.0,475.0,457.5,483.0,457.0,491.0,456.5,499.5,456.0,507.5,455.0" stroke="black" stroke-width="2" fill="none" />
<polyline points="507.5,461.5,499.5,462.5,491.0,463.5,483.0,465.0,475.5,466.0,467.5,467.0,459.0,467.5,451.0,468.0,443.0,468.5,435.0,468.5,427.0,469.0,419.5,470.0,411.0,470.5,403.0,471.0,394.0,470.5,386.5,471.0,378.0,471.5,370.5,472.0,362.5,472.5,354.5,472.5,346.5,473.5" stroke="black" stroke-width="2" fill="none" />
<polyline points="299.0,483.0,291.0,490.5,283.5,498.0,276.0,506.0,268.5,513.5" stroke="black" stroke-width="2" fill="none" />
<polyline points="259.0,513.0,267.0,506.5,275.0,499.0,283.0,492.0,290.5,484.5" stroke="black" stroke-width="2" fill="none" />
<polyline points="281.0,485.5,273.0,493.0,265.0,500.0,257.5,507.0,250.5,515.0" stroke="black" stroke-width="2" fill="none" />
<polyline points="243.0,513.5,250.5,506.0,259.0,499.0,267.0,491.5,275.5,485.0" stroke="black" stroke-width="2" fill="none" />
<polyline points="268.5,484.0,260.5,492.0,253.0,500.0,245.0,507.5,236.5,514.5" stroke="black" stroke-width="2" fill="none" />
<polyline points="227.5,514.0,236.0,507.0,244.0,499.5,252.0,492.0,260.5,484.5" stroke="black" stroke-width="2" fill="none" />
<polyline points="253.0,483.5,244.5,490.5,236.5,498.0,228.0,505.5,219.5,513.0" stroke="black" stroke-width="2" fill="none" />
<polyline points="212.0,513.0,220.0,505.5,228.0,498.5,235.5,491.5,243.0,483.5" stroke="black" stroke-width="2" fill="none" />
<polyline points="241.5,473.5,233.0,481.5,225.0,489.5,217.5,497.5,209.5,506.0,202.0,515.0" stroke="black" stroke-width="2" fill="none" />
<polyline points="193.0,511.5,201.0,504.5,209.0,497.0,217.0,489.0,225.5,481.0,233.0,473.5" stroke="black" stroke-width="2" fill="none" />
<polyline points="228.5,474.5,220.5,482.0,212.0,489.5,204.0,496.5,196.0,504.0,187.5,512.5" stroke="black" stroke-width="2" fill="none" />
<polyline points="180.0,513.0,188.0,505.0,196.0,497.5,204.0,489.5,212.0,482.5,219.5,475.0,227.0,467.5" stroke="black" stroke-width="2" fill="none" />
<polyline points="218.5,467.0,211.0,474.0,203.0,481.5,195.5,489.5,187.5,497.5,179.5,505.0,171.0,513.0" stroke="black" stroke-width="2" fill="none" />
<polyline points="161.5,513.5,169.5,506.5,177.0,499.5,185.5,492.0,194.0,484.5,202.0,477.5,210.0,470.0" stroke="black" stroke-width="2" fill="none" />
<polyline points="209.0,460.0,201.5,467.0,194.0,474.5,186.5,482.5,179.0,490.0,171.0,497.5,163.0,504.5,155.5,511.0" stroke="black" stroke-width="2" fill="none" />
<polyline points="107.5,507.5,115.5,500.0,124.0,492.5,132.5,485.0,140.5,477.5,149.0,470.5,156.5,463.0,164.5,456.0,172.5,448.5,180.5,441.0,188.5,433.5,196.0,426.5,203.5,419.5,211.5,412.5,219.0,405.0,226.5,397.5" stroke="black" stroke-width="2" fill="none" />
<polyline points="220.0,395.0,211.5,403.0,203.5,410.0,195.0,417.5,186.5,425.5,178.0,433.0,170.5,440.5,163.0,447.5,155.0,455.0,147.0,462.5,139.0,470.0,131.0,477.5,123.0,485.0,115.5,492.5,107.5,500.5,99.5,508.5" stroke="black" stroke-width="2" fill="none" />
<polyline points="92.5,507.0,100.5,499.5,108.5,492.0,116.5,484.0,124.0,477.0,131.5,470.0,139.5,462.0,147.5,454.5,155.5,447.0,163.5,439.5,171.5,431.5,179.0,424.0,187.0,417.0,195.0,409.5,203.0,402.0,210.5,394.5,218.0,387.0" stroke="black" stroke-width="2" fill="none" />
<polyline points="210.0,388.0,202.0,395.0,194.5,402.5,186.5,409.0,179.5,416.0,171.0,423.5,163.5,431.0,155.5,438.5,147.0,446.5,138.5,454.5,130.5,462.0,122.5,469.5,114.0,477.0,106.0,485.0,98.0,492.0,89.5,499.5,82.0,507.5" stroke="black" stroke-width="2" fill="none" />
<polyline points="149.0,510.0,156.5,502.5,163.5,495.5,171.5,489.0,179.0,481.5,187.5,474.0,195.5,467.0,203.5,459.5,211.5,452.0" stroke="black" stroke-width="2" fill="none" />
<polyline points="201.5,453.5,194.0,461.0,186.0,468.0,178.5,475.5,171.0,483.0,163.5,490.5,156.0,498.0,148.5,505.0,141.0,512.5" stroke="black" stroke-width="2" fill="none" />
<polyline points="116.5,508.5,124.0,501.0,132.0,494.0,140.5,486.0,149.0,478.5,157.0,471.0,164.5,463.0,172.5,456.0,180.0,448.5,188.0,441.0,196.0,434.0,204.0,427.5,212.0,420.0" stroke="black" stroke-width="2" fill="none" />
<polyline points="227.0,417.0,235.5,409.0" stroke="black" stroke-width="2" fill="none" />
<polyline points="234.5,403.5,227.0,411.0,218.5,418.0" stroke="black" stroke-width="2" fill="none" />
<polyline points="229.5,425.0,237.5,417.0,246.0,409.5" stroke="black" stroke-width="2" fill="none" />
<polyline points="244.5,418.0,236.5,425.5" stroke="black" stroke-width="2" fill="none" />
<polyline points="235.5,434.0,243.5,426.0,251.5,418.5" stroke="black" stroke-width="2" fill="none" />
<polyline points="228.0,405.0,220.0,413.0" stroke="black" stroke-width="2" fill="none" />
<polyline points="205.0,435.5,197.0,442.5,188.0,450.0,179.5,457.0,171.0,464.0,162.5,471.0,154.5,478.0,146.5,485.5,138.5,493.0,131.0,501.0,123.0,508.5" stroke="black" stroke-width="2" fill="none" />
<polyline points="74.5,506.5,83.0,498.5,91.5,490.5,99.5,483.0,107.5,476.0,115.0,468.5,123.0,461.0,131.0,453.5,138.5,446.0,146.0,438.5,154.5,431.0,163.0,423.0,171.5,415.5,179.5,408.5,187.5,401.0,196.0,394.0,204.0,387.0,212.0,379.5" stroke="black" stroke-width="2" fill="none" />
<polyline points="211.0,371.5,203.0,379.0,194.0,387.0,186.0,395.0,178.5,402.5,170.5,409.5,163.0,416.5,154.5,423.5,147.0,430.5,139.0,437.5,130.5,445.0,123.0,452.5,115.0,460.0,107.0,467.5,99.5,475.0,91.5,482.0,83.5,490.0,75.0,497.5,66.5,505.0" stroke="black" stroke-width="2" fill="none" />
<polyline points="58.5,506.5,66.0,498.5,74.0,491.0,81.5,483.0,90.0,475.5,98.0,467.5,106.0,460.0,113.5,452.5,121.0,445.0,129.5,437.5,138.5,429.5,147.0,422.5,155.5,415.5,164.0,408.0,172.0,401.0,180.0,393.5,188.5,386.0,196.5,379.0,204.5,371.5" stroke="black" stroke-width="2" fill="none" />
<polyline points="204.5,366.0,196.5,373.0,188.5,379.5,180.0,386.5,171.0,394.0,162.5,401.0,154.0,408.0,146.0,415.0,138.0,422.0,129.5,429.5,121.0,436.5,113.5,444.0,105.0,452.0,97.0,460.0,89.0,467.5,81.0,474.5,73.0,482.5,65.5,489.5,58.0,497.0,50.0,504.5" stroke="black" stroke-width="2" fill="none" />
<polyline points="42.5,505.0,50.0,497.5,58.5,490.5,67.0,483.0,74.5,476.0,82.0,468.0,90.5,460.5,98.5,452.5,106.5,444.0,115.0,436.0,123.5,428.0,131.5,421.0,139.5,413.0,147.5,405.5,156.0,398.5,164.5,392.0,173.0,384.5,181.0,377.5,189.0,370.5,196.5,363.5,205.0,356.0" stroke="black" stroke-width="2" fill="none" />
<polyline points="196.5,357.0,188.5,364.5" stroke="black" stroke-width="2" fill="none" />
<polyline points="187.0,357.0,194.5,349.5" stroke="black" stroke-width="2" fill="none" />
<polyline points="195.0,339.5,187.0,347.0,179.5,355.0" stroke="black" stroke-width="2" fill="none" />
<polyline points="180.0,360.0,188.0,359.5,196.0,359.5,204.0,359.0,212.5,358.5,220.5,357.5,228.5,357.0,236.5,356.0,244.5,355.0,253.5,354.0,262.0,353.0,269.5,352.5,277.5,352.0,285.5,352.0,293.0,351.5,300.0,351.5,308.0,350.5,315.5,350.5,323.0,350.0,331.0,350.0,338.5,349.5" stroke="black" stroke-width="2" fill="none" />
<polyline points="339.0,348.0,331.5,348.5,323.5,349.0" stroke="black" stroke-width="2" fill="none" />
<polyline points="325.5,340.5,333.0,340.0,341.0,339.5" stroke="black" stroke-width="2" fill="none" />
<polyline points="346.5,345.0,338.5,346.0,330.5,346.0,322.5,346.5,314.5,347.0,306.0,347.0,298.0,347.5,290.0,348.0,282.5,348.5,274.5,348.5,266.0,348.5,257.5,349.0,249.5,349.5,241.5,350.0,233.5,350.5,226.0,351.0,218.5,351.5,211.5,351.5,204.0,352.5,196.0,353.0,188.5,353.5,180.5,354.5,172.5,355.5,164.5,355.5,156.5,356.5,148.5,357.0,140.5,358.0,131.5,358.5,123.5,359.0,115.0,359.5,107.0,360.5,98.5,360.5,90.0,360.5,82.0,361.5,74.0,361.0,66.5,361.5,58.5,362.0,50.5,363.0,42.5,363.5,35.0,363.5,27.5,363.5,20.0,364.0,12.5,364.5,5.0,365.0" stroke="black" stroke-width="2" fill="none" />
<polyline points="5.0,360.0,13.5,359.5,21.5,358.0,29.0,357.0,37.0,356.0,44.5,355.0,52.0,354.0,59.5,354.0,66.5,353.5,74.5,352.5,82.5,352.5,90.5,352.0,98.5,351.5,107.0,351.5,115.5,351.0,123.5,350.0,132.0,349.5,141.0,349.0,149.0,348.5,156.5,348.5" stroke="black" stroke-width="2" fill="none" />
<polyline points="147.5,345.5,139.5,353.5" stroke="black" stroke-width="2" fill="none" />
<polyline points="147.5,356.0,139.0,363.0,130.5,371.0,122.5,378.0,114.5,385.0,106.0,392.0,98.5,400.0,91.0,407.5,83.0,415.0,75.0,422.5,67.0,430.5,59.0,438.0,51.0,446.0,43.0,453.5,35.5,461.0,28.0,468.5,20.0,476.0,11.5,483.5,3.0,490.5" stroke="black" stroke-width="2" fill="none" />
<polyline points="3.5,492.0,12.0,491.0,20.0,490.5,28.0,490.0,35.5,490.0,43.0,490.5,51.0,490.0,59.5,490.0,67.5,490.0,75.0,489.5,83.0,489.5,91.0,488.5,99.5,488.0,107.5,487.5,115.0,486.5,123.0,486.0,131.5,486.0,139.5,485.0,148.0,484.5,156.0,484.0,164.0,483.5,172.0,483.0,179.5,483.0,187.5,482.5,195.5,482.0,203.5,482.0,212.0,481.0,220.0,480.5,229.0,480.0,237.5,480.0,245.5,479.5,253.0,478.5,261.0,477.5,269.0,477.0,277.5,476.5,285.5,476.0,293.0,475.5,300.5,475.0,308.5,474.5,317.0,473.5,325.5,472.5,333.0,472.5,340.5,472.0,348.0,471.5,356.0,470.5,363.5,470.0,371.0,469.5,378.5,468.5,386.5,468.5,394.5,468.5,402.5,467.5,410.0,467.0,417.5,466.5,425.5,466.0,433.5,465.5,442.5,465.0,451.0,465.0,459.5,465.0,468.0,465.0,476.5,464.5,485.0,464.0,492.5,463.5,501.0,462.5,509.0,461.5,517.0,460.5" stroke="black" stroke-width="2" fill="none" />
<polyline points="507.5,475.0,499.5,475.5,491.5,476.0,483.5,476.5,475.5,477.0,468.0,477.5,460.0,477.5,452.5,478.0,445.0,478.0,437.0,478.0,429.0,478.5,421.0,479.0,412.5,480.0,404.0,480.0,396.0,480.5,387.5,481.0,379.0,481.5,370.5,481.5,362.5,482.0,354.5,482.5,346.5,483.0,338.5,484.0,330.0,484.5,322.5,485.0,315.0,485.0,307.0,485.0,299.0,485.5,291.5,486.0,283.5,486.5,276.0,487.0,268.5,488.0,260.5,489.0,253.5,489.5,245.0,490.0,237.0,490.5,229.0,491.0,221.0,491.0,213.0,491.5,204.5,492.5,196.5,493.5,188.5,494.5,181.0,495.0,173.0,495.5,164.5,496.0,156.5,496.5,148.0,497.0,139.5,497.0,131.0,497.0,123.0,498.0,114.5,499.0,106.0,500.0,98.0,500.5,90.0,500.5,82.5,501.0,75.0,502.0,67.5,502.5,59.5,503.0,51.0,503.5,43.5,504.0,35.5,504.0,27.5,504.0,18.5,504.0,10.0,504.0" stroke="black" stroke-width="2" fill="none" />
<polyline points="10.0,508.0,18.0,500.0,26.5,492.0,34.5,484.5,43.0,477.0,51.0,469.5,59.0,462.0,67.5,454.5,75.5,447.5,83.5,440.0,91.0,432.5,99.0,424.5,106.5,416.5,114.5,409.0,122.5,400.5,130.5,392.5,139.0,385.0,147.0,377.5,155.0,370.0" stroke="black" stroke-width="2" fill="none" />
<polyline points="163.5,369.5,155.5,377.0,147.5,384.5,139.5,392.0,131.5,400.0,123.5,408.0,116.0,416.0,108.0,424.0,100.0,431.5,92.0,439.0,84.5,446.0,76.5,454.0,68.0,462.0,59.5,469.5,51.5,477.0,43.5,485.0,35.5,492.5,27.5,500.5,19.5,508.0" stroke="black" stroke-width="2" fill="none" />
<polyline points="26.5,505.0,34.5,498.0,42.0,491.0,50.0,483.0,58.0,476.0,66.5,469.0,74.5,461.5,83.0,453.5,91.0,446.0,98.5,438.5,107.0,431.0,115.0,423.5,123.0,416.0,131.0,409.0,139.0,401.5,146.5,394.0,154.0,387.0,162.0,379.5,170.0,372.5" stroke="black" stroke-width="2" fill="none" />
<polyline points="178.5,373.0,171.0,380.5,163.0,389.0,155.0,396.5,147.0,403.5,139.5,411.0,131.0,418.0,123.0,425.5,115.5,432.5,107.5,439.5,99.5,447.0,91.5,454.0,83.0,461.0,75.0,468.0,67.5,476.0,59.5,483.0,51.0,490.5,43.0,498.5,35.0,506.5" stroke="black" stroke-width="2" fill="none" />
<polyline points="10.5,495.5,18.5,495.5,26.5,495.5,35.0,495.0,43.5,495.5,52.0,495.0,60.0,495.0,67.0,494.5,75.0,494.0,83.0,494.0,91.0,493.5,99.5,493.0,108.0,493.0,116.5,492.5,124.0,492.0,132.0,491.5,140.0,490.5,148.0,489.0,156.0,488.0,164.0,487.0,172.0,486.0,180.0,485.5,187.5,485.0,195.5,484.5,203.0,484.0,211.5,484.0,219.5,483.5,228.0,483.0,236.0,482.5,244.0,482.0,252.5,481.5,260.0,481.0,267.5,481.0,275.0,480.5,282.5,480.0,289.5,479.5,298.0,479.0,306.5,479.0,314.5,478.5,322.5,478.5,331.0,477.5,339.0,477.0,346.5,476.0,355.0,475.0,363.0,474.0,371.5,473.5,380.0,472.5,388.5,472.0,396.5,471.5,404.0,471.0,411.5,470.5,420.0,470.5,427.5,470.0,435.5,470.5,443.0,471.0,451.0,471.0,459.0,470.5,466.5,469.0,475.0,468.5,483.5,468.5,492.0,468.0,500.0,467.5,508.0,466.0" stroke="black" stroke-width="2" fill="none" />
<polyline points="404.5,389.0,396.5,389.5,389.0,389.5,381.5,389.5,373.5,389.5,365.5,390.0,357.5,390.5,349.0,391.5,340.5,392.5,332.5,393.5,324.5,395.0,316.5,395.5,308.5,396.5,300.5,397.0,292.0,398.0,284.0,398.5" stroke="black" stroke-width="2" fill="none" />
<polyline points="300.5,388.0,308.0,387.5,316.0,387.0,324.0,386.5,332.0,386.5,340.5,386.5,348.5,386.5,356.5,387.0,365.0,387.5,373.0,387.0,381.0,386.5,389.0,386.5,396.0,385.5,403.5,384.5" stroke="black" stroke-width="2" fill="none" />
<polyline points="403.5,374.5,396.0,375.0,388.0,376.0,379.5,376.5,372.0,377.0,364.0,377.0,356.0,377.5,348.0,377.5,340.0,378.0,332.0,379.0,324.5,379.5,317.0,380.0,309.0,380.5,300.5,381.0" stroke="black" stroke-width="2" fill="none" />
<polyline points="309.0,341.5,301.5,342.0,293.5,342.5,285.0,343.0,277.0,343.5,269.0,344.5,261.5,345.5,253.5,346.0,245.0,346.0,236.0,346.5,228.0,347.0,219.5,348.0,211.5,348.0,203.5,348.5,195.5,349.0,188.0,349.0,180.0,349.5" stroke="black" stroke-width="2" fill="none" />
<polyline points="180.0,347.0,187.0,339.5,194.5,332.0" stroke="black" stroke-width="2" fill="none" />
<polyline points="187.5,332.5,179.5,339.5,171.0,347.0" stroke="black" stroke-width="2" fill="none" />
<polyline points="172.5,339.5,181.0,331.5,189.5,324.0" stroke="black" stroke-width="2" fill="none" />
<polyline points="186.0,315.5,178.0,324.0,170.5,331.5,163.0,339.5" stroke="black" stroke-width="2" fill="none" />
<polyline points="155.5,340.0,147.5,341.0,139.5,341.5,131.0,341.5,122.5,342.0,114.5,342.5,106.5,343.5,99.0,344.0,91.5,344.0,84.0,345.0,75.5,345.0,67.5,345.5,59.5,346.0,51.5,346.5,44.0,347.0,36.0,348.0,27.5,349.0,19.0,350.0,10.5,351.0,2.0,351.5" stroke="black" stroke-width="2" fill="none" />
<polyline points="1.5,343.0,9.5,342.5,18.0,341.0,26.5,340.0,34.5,339.0,42.5,338.5,50.5,338.0,58.5,337.0,66.5,336.5,74.0,335.5,82.0,335.0,90.5,335.0,99.5,335.0,107.5,335.0,115.5,335.0,123.0,334.5,131.5,334.0,139.5,333.5,147.0,333.0,154.5,332.0,162.0,331.5,170.0,331.5,178.0,331.0,186.5,330.0,195.0,329.0,203.0,328.0,211.5,328.0,220.0,328.0,228.5,327.5,236.5,327.0,245.0,326.5,253.0,326.0,260.5,325.5,268.5,324.5,276.5,323.5,285.0,322.5,293.0,322.0,301.0,322.0" stroke="black" stroke-width="2" fill="none" />
<polyline points="330.5,325.0,338.5,324.0,347.0,323.5" stroke="black" stroke-width="2" fill="none" />
<polyline points="347.5,331.0,340.0,331.5,332.0,332.0" stroke="black" stroke-width="2" fill="none" />
<polyline points="351.0,340.0,343.0,350.0" stroke="black" stroke-width="2" fill="none" />
<polyline points="343.5,357.0,351.5,361.0,360.0,360.5" stroke="black" stroke-width="2" fill="none" />
<polyline points="344.0,367.0,352.0,367.0,360.5,367.0,368.5,367.0,377.0,367.5,385.0,367.5,393.5,368.0" stroke="black" stroke-width="2" fill="none" />
<polyline points="417.5,378.0,409.5,378.0,401.5,378.5,393.5,379.0,385.5,380.0,378.0,380.5,371.5,381.0,364.0,381.5,356.0,382.5,348.0,384.0,340.0,385.5,331.5,386.0,324.0,386.5,316.0,387.0,308.5,387.0,300.5,387.0,292.5,387.5,284.0,387.5,275.5,388.0,267.0,388.5,258.0,389.5,249.5,390.0,241.5,390.5,233.5,391.0,225.5,391.0,217.5,391.5,209.5,392.5,202.0,393.0,194.5,393.5,187.0,393.5,179.5,393.5,172.0,394.5,164.5,394.5,156.5,395.5,148.5,396.0,140.5,397.0,133.0,398.0,125.0,398.5,116.5,399.0,108.5,400.0,100.5,400.5,93.0,401.0,85.5,401.0,77.0,401.5,68.0,401.5,59.5,402.5,51.0,403.5,43.0,404.5,35.0,405.5,27.0,406.0,19.0,406.5,12.0,407.0,4.0,407.5" stroke="black" stroke-width="2" fill="none" />
<polyline points="5.0,413.5,13.0,406.0,21.0,398.5,29.0,391.0,36.5,383.5,44.5,376.0,52.0,369.0,60.0,361.0,67.0,354.0,74.5,347.0,81.5,340.0,89.5,332.5,97.0,324.5" stroke="black" stroke-width="2" fill="none" />
<polyline points="107.0,324.5,99.0,332.0,90.5,339.5,82.5,347.0,74.0,354.5,66.0,362.0,58.5,369.5,51.0,377.0,43.0,384.5,34.5,392.0,26.0,399.5,18.0,406.5,10.0,414.0,2.5,421.0" stroke="black" stroke-width="2" fill="none" />
<polyline points="3.0,422.5,11.0,422.0,18.5,421.0,26.0,420.0,34.0,419.0,42.0,418.5,50.0,417.5,58.5,417.0,66.5,416.5,74.5,416.0,82.5,416.0,90.5,416.0,98.5,415.5,107.0,415.0,115.5,415.0,124.5,414.5,132.5,414.0,140.0,414.0,148.0,413.0,156.5,412.0,165.0,411.0,172.5,410.5,180.0,410.5,188.0,409.5,196.5,408.5,204.5,408.0,212.0,407.0,219.5,406.0,227.5,405.0,235.5,404.0,244.0,403.5,252.0,403.5,260.0,403.5,268.0,404.0,276.0,404.0,284.0,404.0,292.0,404.5,299.5,404.0,307.5,403.0,315.5,402.0,324.0,401.5,332.0,401.0,339.5,401.0,347.0,401.0,355.0,400.5,362.5,399.0,370.5,398.5,378.5,397.5,387.0,396.5,395.5,395.5,403.5,394.5,411.5,394.0,419.5,393.5,427.5,393.0,435.5,393.0,443.5,393.0,452.0,393.0,460.0,393.0,468.0,392.5,476.0,392.0" stroke="black" stroke-width="2" fill="none" />
<polyline points="516.5,430.0,507.5,430.5,499.0,431.5,491.0,433.0,482.5,433.5,474.5,434.0,466.5,433.5,458.5,433.0,450.5,433.0,442.5,433.0,435.0,433.5,427.5,434.0,420.0,434.0,412.0,434.5,403.5,435.0,395.5,435.5,387.5,436.5,380.0,437.5,372.0,438.5,364.5,439.5,356.0,440.5,347.5,440.5,339.5,441.0,330.5,441.5,322.0,442.0,314.0,442.5,306.5,443.0,299.0,443.5,291.0,443.5,283.5,443.5,275.5,444.0,267.0,444.5,259.0,444.5,251.0,445.0,243.0,445.5,235.0,445.5,227.0,446.0,219.5,446.5,212.0,447.5,203.5,448.0,195.5,449.0,187.5,449.5,179.5,451.0,171.0,452.0,163.0,452.5,155.0,453.0,147.5,453.5,139.0,453.5,130.5,453.5,122.5,454.0,115.0,454.5,107.0,455.0,99.5,455.5,92.0,456.5,84.5,456.5,76.0,457.0,68.0,457.5,59.5,457.5,52.0,458.0,44.0,458.0,36.0,458.5,28.0,459.5,20.5,460.5,12.0,461.5,4.0,462.0" stroke="black" stroke-width="2" fill="none" />
<polyline points="3.5,467.5,11.0,460.5,19.0,453.0,27.5,446.0,35.0,438.5,43.0,431.5,51.0,424.0,59.0,415.5,66.5,408.0,74.0,400.5,82.0,393.0,90.5,385.5,99.0,378.0,107.5,370.0,115.0,362.0,122.5,354.0,130.5,345.5,138.5,338.0,147.0,330.5" stroke="black" stroke-width="2" fill="none" />
<polyline points="148.5,330.5,149.5,338.5,150.0,345.0,149.0,353.0,149.0,361.0,150.5,365.0,159.0,363.0,164.5,369.0,173.0,368.0,181.5,367.5" stroke="black" stroke-width="2" fill="none" />
<polyline points="170.5,356.5,162.5,357.5" stroke="black" stroke-width="2" fill="none" />
<polyline points="147.0,362.5,139.0,370.0,131.0,377.5,122.5,385.5,115.0,392.5,107.0,400.5,98.5,408.0,90.0,415.5,82.0,423.5,74.0,431.0,66.0,438.5,58.0,447.0,50.5,454.5,43.0,462.5,35.5,469.5,27.5,476.5,19.5,484.5,11.5,492.0,3.0,499.5" stroke="black" stroke-width="2" fill="none" />
<polyline points="4.5,499.5,12.5,499.0,20.5,499.0,28.5,498.5,37.0,498.0,45.5,497.5,53.0,497.5,60.5,497.0,68.0,496.5,75.5,496.0,83.5,495.5,91.5,495.0,99.5,494.5,107.5,494.0,115.5,494.5,123.0,495.0,131.5,494.5,140.0,494.0,148.0,494.0,155.5,494.0,164.0,494.0,172.0,493.5,180.0,493.5,188.0,493.0,196.5,492.5,204.5,491.5,212.5,491.0,220.5,490.0,228.5,489.0,237.5,488.0,246.0,487.0,253.5,486.5,261.5,486.0,269.5,486.0,277.0,485.5,284.0,485.5,292.0,484.5,299.5,484.5,307.0,484.0,315.0,484.0,322.5,483.5,331.0,482.5,339.0,482.0,346.5,481.0,354.5,480.0,362.5,479.0,370.0,479.0,378.0,478.0,386.0,477.0,394.0,476.0,402.0,475.5,409.5,475.0,417.5,475.0,426.0,475.0,434.0,474.5,443.0,474.5,451.5,474.5,460.0,474.5,468.5,474.5,476.5,474.0,484.5,474.0,492.5,473.0,500.5,471.5,508.0,470.5,515.0,470.0" stroke="black" stroke-width="2" fill="none" />
<polyline points="516.0,477.0,508.0,477.5,500.5,478.0,492.5,479.0,484.5,479.5,476.0,480.0,467.5,480.5,459.0,481.0,451.5,481.5,443.5,481.5,435.5,481.5,427.0,482.0,418.5,482.0,410.0,482.5,401.5,482.5,394.0,483.0,387.0,484.0,379.5,484.5,372.0,485.0,364.5,485.0,356.5,486.0,348.0,487.5,340.5,488.5,332.5,490.0,325.0,490.5,316.5,491.0,308.5,491.5,300.5,492.0,292.5,492.5,284.5,492.5,276.5,494.0,268.5,494.5,260.0,495.0,251.0,495.0,243.5,495.5,235.0,496.0,227.0,496.5,219.0,497.0,211.0,497.0,202.5,497.5,194.5,498.5,187.0,499.0,179.0,500.0,171.5,500.5,164.0,501.0,156.0,502.0,147.5,502.5,139.0,502.5,131.0,502.5,123.0,503.0,115.5,502.5,108.0,502.5,100.5,502.0,93.0,502.0,85.5,502.5,77.0,503.0,69.0,504.0,60.5,505.0,52.5,506.0,44.0,506.0,36.5,507.0,29.0,507.5,21.0,508.0,13.0,508.5,4.5,509.5" stroke="black" stroke-width="2" fill="none" />
<polyline points="2.5,507.0,10.5,499.5,19.0,492.5,27.0,485.0,35.5,478.0,44.0,470.0,52.5,462.5,61.0,454.5,69.5,447.0,77.0,439.5,84.5,432.5,91.5,425.0,98.5,417.5,106.0,409.5,114.0,401.5,121.5,393.5,129.5,385.0,137.5,377.0,145.5,369.5" stroke="black" stroke-width="2" fill="none" />
<polyline points="130.0,362.5,122.5,370.0,114.5,377.0,106.5,384.5,98.5,392.0,90.5,399.5,83.0,407.5,75.5,415.0,68.0,422.5,60.0,430.0,52.5,438.0,45.0,445.0,37.0,452.5,29.0,460.0,21.0,468.0,12.5,476.0,4.0,483.5" stroke="black" stroke-width="2" fill="none" />
<polyline points="4.5,483.5,12.0,483.0,19.5,483.5,27.0,483.5,34.5,483.5,42.5,483.5,50.0,483.5,58.0,483.5,65.5,483.5,73.5,483.0,81.0,482.5,89.0,481.5,98.0,480.5,105.5,480.0,113.0,479.5,121.0,478.5,129.5,477.5,138.0,476.5,146.5,475.5,154.0,475.0,162.0,475.0,170.5,474.0,179.0,474.0,187.0,473.5,195.0,472.5,203.0,472.0,211.5,471.5,220.5,471.5,229.0,472.0,237.5,472.0,245.5,471.5,253.5,471.0,261.5,470.0,269.5,469.5,277.5,469.5,285.0,468.5,293.0,467.0,301.0,466.0,308.5,465.0,316.0,464.5,324.0,464.0,332.0,463.5,340.0,463.0,348.0,462.5,356.0,462.5,363.5,462.0,371.5,461.5,380.0,460.0,388.0,459.5,396.0,459.0,404.5,458.0,412.0,458.0,420.0,458.0,428.0,457.5,436.0,457.5,444.0,457.0,452.0,456.5,460.0,455.5,468.0,455.5,476.0,455.0,483.5,455.0,491.5,454.5,500.0,454.0,508.0,453.5,516.5,453.0" stroke="black" stroke-width="2" fill="none" />
<polyline points="515.5,444.0,508.0,445.0,500.5,445.5,492.5,446.5,484.5,446.5,476.5,447.0,468.5,448.0,461.0,448.5,453.0,449.5,444.5,450.0,436.5,450.0,428.5,450.5,420.0,450.0,412.0,450.0,404.0,450.5,396.0,451.5,388.0,452.5,380.0,453.5,372.0,454.0,363.5,455.0,356.0,455.5,348.0,455.5,340.0,456.0,332.0,456.5,323.5,457.0,316.0,457.5,308.5,458.0,300.5,458.0,292.5,459.0,285.0,460.0,277.0,460.5,268.5,461.0,260.5,461.5,252.5,462.0,244.0,462.5,236.0,463.0,227.5,463.0,219.0,463.0,211.0,464.0,203.0,464.5,195.0,464.5,186.0,465.0,178.0,466.0,170.5,466.5,162.5,467.5,154.5,468.0,147.0,468.0,139.0,468.0,131.0,468.0,123.0,468.5,114.5,470.0,106.5,471.5,98.0,472.0,90.0,472.5,81.5,473.0,74.0,474.0,66.0,475.0,58.5,475.5,51.5,475.5,44.5,476.5,36.5,476.5,28.5,476.5,20.5,477.0,13.0,477.0,5.0,477.0" stroke="black" stroke-width="2" fill="none" />
<polyline points="3.0,474.0,11.0,467.0,19.0,460.5,27.0,453.5,34.5,446.5,42.5,439.0,50.0,431.5,58.0,423.5,65.5,416.0,73.5,408.5,81.5,400.5,89.5,392.5,98.0,384.5,106.5,376.5,114.5,368.5,122.5,361.0,130.5,353.5,138.5,346.0,146.5,338.0" stroke="black" stroke-width="2" fill="none" />
<polyline points="150.5,329.5,158.5,328.5,167.0,326.5" stroke="black" stroke-width="2" fill="none" />
<polyline points="173.0,326.0,181.5,318.5" stroke="black" stroke-width="2" fill="none" />
<polyline points="174.0,316.0,182.0,308.5" stroke="black" stroke-width="2" fill="none" />
<polyline points="180.5,299.0,173.0,306.0,165.0,313.5" stroke="black" stroke-width="2" fill="none" />
<polyline points="157.0,314.5,165.0,307.0,173.0,299.5" stroke="black" stroke-width="2" fill="none" />
<polyline points="171.5,292.0,163.5,299.5,155.0,307.0" stroke="black" stroke-width="2" fill="none" />
<polyline points="148.0,307.0,155.0,299.5,162.5,292.5,170.5,285.0" stroke="black" stroke-width="2" fill="none" />
<polyline points="172.0,274.0,163.5,281.5,155.0,289.5,146.5,297.0" stroke="black" stroke-width="2" fill="none" />
<polyline points="141.0,296.0,149.0,288.5,156.5,280.5,164.0,272.5,172.0,265.0" stroke="black" stroke-width="2" fill="none" />
<polyline points="169.5,257.5,162.0,265.5,154.5,273.0,147.0,281.0,139.5,288.5,131.5,296.5" stroke="black" stroke-width="2" fill="none" />
<polyline points="131.5,298.0,123.5,298.5" stroke="black" stroke-width="2" fill="none" />
<polyline points="123.5,297.5,131.0,289.5,138.0,281.5,146.0,274.0,153.5,266.0,161.5,258.0,170.0,250.5" stroke="black" stroke-width="2" fill="none" />
<polyline points="170.5,242.5,162.0,250.0,153.5,257.5,145.5,265.0,137.5,272.5,130.5,280.0,123.0,288.0,115.5,296.0" stroke="black" stroke-width="2" fill="none" />
<polyline points="108.0,294.5,116.0,286.5,124.0,279.5,132.0,272.0,140.0,264.5,148.0,256.5,156.0,249.0,164.0,241.0,172.5,233.0" stroke="black" stroke-width="2" fill="none" />
<polyline points="179.0,235.0,187.0,227.5" stroke="black" stroke-width="2" fill="none" />
<polyline points="192.5,230.5,197.5,238.5,200.5,240.0,208.0,237.0,216.0,226.5" stroke="black" stroke-width="2" fill="none" />
<polyline points="214.0,225.0,219.0,233.5" stroke="black" stroke-width="2" fill="none" />
<polyline points="211.0,235.0,203.0,242.5" stroke="black" stroke-width="2" fill="none" />
<polyline points="195.5,240.5,203.5,233.0,211.5,225.5" stroke="black" stroke-width="2" fill="none" />
<polyline points="203.5,227.0,195.5,234.5" stroke="black" stroke-width="2" fill="none" />
<polyline points="193.5,226.5,185.5,234.0,178.0,241.5" stroke="black" stroke-width="2" fill="none" />
<polyline points="172.0,225.5,164.0,233.0,156.0,241.0,148.5,249.5,140.5,257.0,132.5,265.0,125.0,272.5,117.0,279.5,108.5,287.0,100.5,294.0" stroke="black" stroke-width="2" fill="none" />
<polyline points="99.5,290.5,107.5,283.0,115.0,275.5,123.0,268.0" stroke="black" stroke-width="2" fill="none" />
<polyline points="124.0,272.5,116.0,272.5,108.5,273.5" stroke="black" stroke-width="2" fill="none" />
<polyline points="100.0,271.0,107.5,263.5,115.0,255.5,122.5,248.0,131.0,241.5,139.0,234.0,147.0,226.0,155.5,217.5,163.5,209.0,172.0,201.5,179.5,193.5" stroke="black" stroke-width="2" fill="none" />
<polyline points="182.0,187.5,174.0,195.0,165.5,202.0,156.5,209.0,148.0,216.5,139.5,223.5,131.5,231.5,123.5,239.0,115.0,247.0,106.5,255.0,98.0,263.0" stroke="black" stroke-width="2" fill="none" />
<polyline points="98.5,257.0,106.5,248.5,114.5,240.0,122.5,232.0,130.5,224.0,139.0,216.5,147.5,209.0,156.0,201.0,164.0,193.5,171.5,186.0" stroke="black" stroke-width="2" fill="none" />
<polyline points="171.0,178.0,163.5,185.5,155.5,193.5,147.5,201.5,140.0,209.5,132.5,217.5,124.5,225.0,116.0,232.0,107.5,239.5" stroke="black" stroke-width="2" fill="none" />
<polyline points="110.5,242.5,103.0,237.5" stroke="black" stroke-width="2" fill="none" />
<polyline points="99.0,239.0,107.5,231.0,115.5,223.0,123.0,215.0,130.5,207.5,138.5,200.5,146.0,193.5,154.0,186.0,162.5,179.0,171.0,172.0" stroke="black" stroke-width="2" fill="none" />
<polyline points="170.5,163.5,163.0,171.0,154.5,178.5,146.5,186.5,138.5,194.0,130.0,201.0,122.0,208.5,114.0,215.5,106.0,222.5,97.5,230.0" stroke="black" stroke-width="2" fill="none" />
<polyline points="106.0,232.5,114.0,232.0" stroke="black" stroke-width="2" fill="none" />
<polyline points="114.5,225.0,106.5,225.0" stroke="black" stroke-width="2" fill="none" />
<polyline points="106.0,218.0,114.5,217.0" stroke="black" stroke-width="2" fill="none" />
<polyline points="119.0,217.5,127.0,221.5" stroke="black" stroke-width="2" fill="none" />
<polyline points="123.0,218.0,130.5,217.5,138.5,217.0,147.0,216.5,155.0,216.0,163.5,215.0" stroke="black" stroke-width="2" fill="none" />
<polyline points="171.5,219.5,163.5,227.5,155.0,235.0,147.0,242.5,139.5,250.5,131.5,258.5" stroke="black" stroke-width="2" fill="none" />
<polyline points="140.5,256.5,148.0,256.5,155.5,255.5" stroke="black" stroke-width="2" fill="none" />
<polyline points="155.5,266.5,147.5,267.0" stroke="black" stroke-width="2" fill="none" />
<polyline points="140.5,249.5,148.0,249.0,156.0,249.0" stroke="black" stroke-width="2" fill="none" />
<polyline points="156.5,239.5,148.5,240.5,140.5,241.5,132.5,241.5" stroke="black" stroke-width="2" fill="none" />
<polyline points="132.5,234.0,140.5,233.5,149.0,232.5,157.0,232.0,164.0,231.5" stroke="black" stroke-width="2" fill="none" />
<polyline points="179.0,210.0,186.5,202.5,194.5,195.0" stroke="black" stroke-width="2" fill="none" />
<polyline points="186.0,196.5,177.5,203.5,169.5,211.5,161.5,218.5,154.5,226.0,147.0,233.0,139.5,240.5,131.5,247.5,123.5,255.0,115.5,263.0,108.0,270.0,99.5,278.0" stroke="black" stroke-width="2" fill="none" />
<polyline points="107.5,264.0,115.5,263.5,123.0,263.5" stroke="black" stroke-width="2" fill="none" />
<polyline points="121.5,260.5,123.5,256.5,121.0,260.5,125.0,269.0,127.0,271.0" stroke="black" stroke-width="2" fill="none" />
<polyline points="139.5,280.5,131.5,281.0,123.0,281.5,115.0,282.5" stroke="black" stroke-width="2" fill="none" />
<polyline points="123.5,289.5,131.5,289.0,139.5,289.0,148.0,288.5" stroke="black" stroke-width="2" fill="none" />
<polyline points="139.5,297.0,149.5,300.0,152.0,307.5,166.0,315.5,169.0,323.5,171.0,330.5,171.5,339.5,176.5,347.5,181.5,355.5,183.0,364.0" stroke="black" stroke-width="2" fill="none" />
<polyline points="186.0,382.0,178.0,382.5,170.0,383.0,162.0,383.5,154.5,384.0,146.5,384.5,138.0,385.5,130.0,386.5" stroke="black" stroke-width="2" fill="none" />
<polyline points="138.0,332.5,130.5,340.0,123.0,347.0,116.0,354.5,108.5,362.0,101.0,369.5,93.5,377.5,85.5,386.0,77.5,394.0,69.5,402.0,61.5,409.5,53.0,417.0,44.5,424.0,36.0,431.5,27.0,439.5,18.0,447.0,10.0,454.5,1.5,462.0" stroke="black" stroke-width="2" fill="none" />
<polyline points="4.5,470.5,13.0,470.0,20.5,469.0,28.0,468.5,35.0,467.5,42.5,467.0,51.0,466.5,59.5,466.5,68.0,466.0,76.0,465.5,83.5,465.0,92.0,464.0,100.0,463.0,107.5,462.5,115.0,461.5,122.5,460.5,130.5,460.5,139.0,460.0,147.5,459.0,155.5,458.5,163.5,457.5,172.0,457.5,180.0,457.5,188.0,457.5,196.0,457.0,204.5,456.5,212.5,456.0,220.0,455.5,227.5,455.0,235.5,454.0,243.5,453.5,252.0,453.0,259.5,453.0,267.5,453.0,275.5,453.0,283.5,452.5,291.0,452.0,299.0,451.0,307.0,450.5,315.0,450.0,323.5,449.5,331.5,449.0,340.0,448.5,348.5,448.5,356.0,448.5,364.0,448.0,372.5,447.0,380.0,446.5,388.0,445.5,395.5,445.0,403.5,444.5,411.5,444.5,419.0,444.0,427.0,443.5,435.5,443.5,443.5,443.5,452.0,443.0,460.0,442.0,468.5,441.5,476.5,441.5,484.5,441.0,492.5,440.5,500.5,439.5,508.5,439.0,517.0,438.0" stroke="black" stroke-width="2" fill="none" />
<polyline points="515.0,422.5,507.5,422.5,499.5,423.0,491.0,423.0,483.0,423.5,475.0,424.0,467.5,424.5,460.0,425.0,452.5,426.0,444.5,426.5,436.0,426.5,427.5,426.5,419.5,426.5,411.5,426.5,403.0,427.0,395.5,427.5,387.5,428.0,379.0,429.5,371.0,430.5,363.0,431.5,355.5,431.5,348.0,431.5,340.5,432.0,333.0,432.5,325.0,433.0,316.5,433.5,307.5,434.0,299.5,434.5,291.5,435.0,284.0,436.0,275.5,436.0,267.0,436.5,259.5,437.0,251.5,437.5,244.0,438.5,236.0,439.0,227.5,439.0,219.0,439.5,210.5,440.5,202.5,441.5,194.5,442.0,186.5,443.0,178.5,443.5,170.0,444.5,161.5,445.0,153.5,446.0,145.5,446.5,138.0,447.0,131.0,447.5,123.0,448.0,116.0,448.5,108.5,449.0,100.5,449.5,92.0,449.5,83.5,450.0,76.0,450.0,68.5,450.5,60.5,451.0,53.0,451.5,45.0,451.5,37.5,451.5,29.0,451.5,20.5,451.5,12.5,452.0,4.5,452.5" stroke="black" stroke-width="2" fill="none" />
<polyline points="3.0,451.5,11.5,444.0,20.0,436.0,28.5,428.5,37.0,421.0,45.5,414.0,54.0,407.0,62.0,399.5,69.5,391.5,77.5,384.0,85.0,375.5,92.5,367.5,100.0,359.5,107.5,352.5,115.0,345.5,122.5,338.0,130.5,331.0,138.0,323.5" stroke="black" stroke-width="2" fill="none" />
<polyline points="131.0,323.5,123.0,331.0,114.5,338.0,107.0,345.0,99.0,352.0,91.5,359.5,84.0,366.5,76.5,374.0,68.5,381.5,60.0,389.0,51.5,396.5,44.0,404.5,35.5,412.0,27.5,420.5,19.0,429.0,11.0,437.0,3.0,444.5" stroke="black" stroke-width="2" fill="none" />
<polyline points="4.5,445.0,12.0,444.5,20.0,444.5,28.0,444.5,36.0,443.5,43.5,443.0,51.5,442.5,59.0,442.0,67.5,441.0,76.0,440.5,84.5,440.5,92.0,439.5,100.0,439.5,107.5,439.0,115.0,439.0,122.5,439.0,130.5,438.5,138.5,438.5,146.5,438.5,155.0,438.5,163.0,438.5,171.5,437.5,179.5,436.0,187.0,435.0,195.0,434.5,203.0,434.0,211.0,433.5,219.0,433.0,227.5,432.5,235.5,432.0,243.5,432.0,251.5,431.0,259.5,430.0,267.5,429.0,275.5,428.0,284.0,427.5,292.0,427.0,299.5,426.0,307.5,425.5,315.0,425.5,323.0,425.5,330.5,425.0,339.0,424.0,347.5,423.5,355.5,422.5,363.0,421.5,371.0,421.0,379.5,420.5,387.0,420.5,394.5,421.0,403.0,421.0,410.5,420.0,418.0,419.0,426.0,418.5,434.5,417.5,442.5,416.5,451.0,416.0,459.5,416.0,467.5,416.0,475.0,416.0,482.5,416.0,491.0,415.5,500.0,415.0,508.5,414.0,516.5,413.0" stroke="black" stroke-width="2" fill="none" />
<polyline points="515.0,403.5,506.5,404.5,498.0,405.5,489.5,406.0,481.5,406.5,473.5,407.0,466.0,407.5,458.0,408.5,450.0,409.5,442.0,410.0,434.5,411.0,426.5,411.5,418.5,411.5,411.0,412.0,402.5,412.5,394.5,413.0,386.5,413.0,378.5,413.0,370.5,414.0,363.0,414.5,355.0,414.5,347.0,415.0,339.0,415.5,331.5,415.5,323.0,416.0,315.5,416.5,308.0,417.0,300.5,418.0,293.0,418.0,285.0,419.0,277.0,420.0,269.0,421.5,260.5,422.5,251.5,423.5,243.0,424.5,235.5,425.0,228.5,425.0,221.0,425.0,213.0,425.5,205.0,426.0,197.0,426.5,188.5,427.0,180.5,427.5,172.5,428.5,164.5,429.0,156.0,429.5,147.5,430.5,139.0,431.0,131.5,430.5,123.5,430.0,115.0,430.5,107.0,430.5,99.0,430.5,91.5,430.5,83.5,431.0,75.5,431.5,67.5,432.0,59.5,432.5,51.0,433.0,43.0,434.0,35.5,434.5,28.0,435.0,20.0,435.5,12.0,435.5,4.0,435.5" stroke="black" stroke-width="2" fill="none" />
<polyline points="3.5,434.5,12.0,427.5,20.5,420.0,29.5,413.0,38.0,406.0,46.0,398.5,53.5,391.0,61.0,383.0,69.0,375.5,76.5,368.0,84.0,360.5,91.5,353.0,99.5,346.0,106.5,339.0,114.0,332.5,122.0,325.0" stroke="black" stroke-width="2" fill="none" />
<polyline points="115.0,325.5,107.0,333.0,99.0,340.0,91.0,347.5,83.0,355.0,75.0,362.5,67.0,370.0,58.5,377.5,50.5,385.0,42.0,392.5,34.0,400.0,26.0,407.5,18.0,415.0,10.0,422.0,1.5,429.5" stroke="black" stroke-width="2" fill="none" />
<polyline points="3.0,428.0,11.0,427.5,18.5,427.5,26.5,427.5,35.0,426.5,42.5,425.5,50.5,425.0,58.0,425.0,66.0,424.5,74.0,424.0,82.0,423.5,90.0,423.0,97.5,422.5,106.0,422.5,114.5,422.5,123.0,422.5,131.0,422.5,139.0,422.0,147.5,422.0,155.5,421.5,163.5,421.0,171.5,420.5,179.5,420.0,188.0,419.0,196.5,418.0,204.5,417.5,212.5,416.5,220.0,416.0,227.5,415.0,235.5,414.5,243.0,414.0,251.5,413.5,259.5,413.0,267.5,412.5,275.0,411.5,283.0,410.5,291.5,410.0,299.5,410.0,307.5,409.5,315.0,409.5,322.5,409.5,331.0,408.5,339.5,407.5,348.0,407.0,356.0,406.5,363.5,406.5,371.5,405.5,379.0,405.0,386.5,404.5,394.0,404.0,402.0,403.5,410.0,403.5,418.5,403.0,426.5,402.5,434.0,402.0,441.5,401.5,449.5,401.0,458.0,400.5,466.0,399.5,474.5,399.5,482.5,399.0,490.5,398.5,499.0,398.0" stroke="black" stroke-width="2" fill="none" />
<polyline points="450.5,385.5,442.5,386.0,434.5,385.5,426.5,385.5,419.0,386.0,411.0,386.5,403.0,387.0,395.0,387.5,387.0,388.5,379.5,389.0,372.0,389.5,364.5,390.5,356.0,391.0,348.0,391.5,340.0,392.5,331.5,393.0,323.5,393.0,315.5,393.5,307.0,394.5,299.0,395.0,291.0,395.5,282.5,395.5,274.5,396.0,266.5,396.0,258.0,396.0,250.0,396.0,242.0,396.5,234.5,397.5,227.0,398.0,219.5,399.0,212.0,399.5,203.5,400.5,196.5,401.5,188.5,402.0,181.0,403.0,173.0,403.5,165.5,403.5,157.5,403.5,149.0,403.5,141.0,404.5,133.0,405.5,125.0,405.5,116.5,406.0,108.0,406.0,99.0,407.0,90.5,408.0,82.0,409.0,74.5,409.0,66.5,410.0,59.0,411.0,50.5,411.5,42.5,412.0,34.5,412.5,26.5,413.0,18.5,413.0,11.0,413.5,2.5,414.0" stroke="black" stroke-width="2" fill="none" />
<polyline points="9.5,427.0,18.0,426.5,26.5,425.5,35.0,424.5,43.5,423.5,52.0,422.5,60.0,421.5,68.0,421.5,76.0,421.0,84.5,421.5,92.5,421.0,100.5,420.0,107.5,419.5,115.0,418.5,122.5,418.5,129.5,418.0,137.5,417.5,145.5,416.5,153.5,416.0,161.5,416.0,169.5,415.0,177.0,415.0,184.5,415.0,192.5,415.0" stroke="black" stroke-width="2" fill="none" />
<polyline points="188.5,403.0,180.5,403.5,172.0,403.5,164.0,404.0,156.0,404.0,148.5,404.5,140.0,405.0,131.5,406.0,123.5,407.0,115.0,407.5,106.5,408.0,98.5,409.0,91.0,409.5,82.5,410.0,74.0,410.5,66.0,410.5" stroke="black" stroke-width="2" fill="none" />
<polyline points="67.0,401.5,74.5,401.0,82.0,401.0,90.0,401.0,98.5,401.0,106.5,401.0,115.0,400.0,122.5,399.5,130.0,399.0,138.0,398.5,145.5,398.0,154.0,397.5,162.5,397.0,171.0,396.5,179.5,396.5,187.5,396.0" stroke="black" stroke-width="2" fill="none" />
<polyline points="188.0,387.5,180.0,388.5,171.5,389.0,163.0,389.5,154.5,390.0,146.5,390.0,139.0,390.5,131.0,390.5,123.0,390.5,115.5,390.5,107.5,391.0,99.0,391.5,91.0,393.0,83.0,394.0,74.5,394.5,66.5,394.5" stroke="black" stroke-width="2" fill="none" />
<polyline points="67.0,387.5,74.5,387.0,82.5,386.5,90.0,386.0,97.5,385.5,106.0,384.5,114.0,384.0,122.5,382.5" stroke="black" stroke-width="2" fill="none" />
<polyline points="156.5,372.5,148.5,372.5,140.5,373.5,132.5,374.0,124.5,375.0,115.5,375.5,107.5,376.0,99.0,376.5,91.0,377.5,82.5,377.5,74.0,377.5,66.0,378.5" stroke="black" stroke-width="2" fill="none" />
<polyline points="74.0,364.5,82.0,366.5,89.5,366.5,97.0,366.0,105.0,366.0,112.5,365.5,121.0,365.0,129.0,365.0,137.0,364.5,145.0,364.0" stroke="black" stroke-width="2" fill="none" />
<polyline points="154.0,331.5,154.0,339.5,158.5,339.0,158.0,347.0,161.0,348.5,167.0,343.5,174.0,343.5,182.0,358.0" stroke="black" stroke-width="2" fill="none" />
<polyline points="236.0,354.0,244.0,347.0" stroke="black" stroke-width="2" fill="none" />
<polyline points="260.0,335.0,267.5,334.5" stroke="black" stroke-width="2" fill="none" />
<polyline points="244.0,314.0,252.0,307.0" stroke="black" stroke-width="2" fill="none" />
<polyline points="242.5,307.0,234.5,314.5" stroke="black" stroke-width="2" fill="none" />
<polyline points="235.0,306.0,243.0,298.5" stroke="black" stroke-width="2" fill="none" />
<polyline points="235.0,297.5,242.5,290.0" stroke="black" stroke-width="2" fill="none" />
<polyline points="242.5,282.0,234.5,290.0" stroke="black" stroke-width="2" fill="none" />
<polyline points="234.5,282.0,242.5,275.0,250.5,268.0" stroke="black" stroke-width="2" fill="none" />
<polyline points="251.0,259.0,243.0,266.5,235.0,274.0,227.5,281.5" stroke="black" stroke-width="2" fill="none" />
<polyline points="226.0,273.5,234.0,266.0,242.0,259.0" stroke="black" stroke-width="2" fill="none" />
<polyline points="244.0,251.0,236.0,259.0,227.5,266.5" stroke="black" stroke-width="2" fill="none" />
<polyline points="229.5,258.5,237.5,251.0,245.5,243.5" stroke="black" stroke-width="2" fill="none" />
<polyline points="243.5,235.0,235.5,242.5,227.0,250.0" stroke="black" stroke-width="2" fill="none" />
<polyline points="227.0,241.5,235.0,233.5,243.0,225.5" stroke="black" stroke-width="2" fill="none" />
<polyline points="236.5,227.0,228.0,234.0" stroke="black" stroke-width="2" fill="none" />
<polyline points="228.5,226.0,236.5,218.5" stroke="black" stroke-width="2" fill="none" />
<polyline points="220.0,233.0,210.0,236.5,212.0,228.5,206.0,224.0,198.5,226.0" stroke="black" stroke-width="2" fill="none" />
<polyline points="163.0,224.5,156.0,224.5,148.0,224.5,140.0,224.5,132.0,224.5" stroke="black" stroke-width="2" fill="none" />
<polyline points="127.0,225.0,122.0,217.0" stroke="black" stroke-width="2" fill="none" />
<polyline points="124.5,210.5,131.5,210.0,139.5,209.0,147.5,208.0" stroke="black" stroke-width="2" fill="none" />
<polyline points="149.0,199.5,141.0,200.5,133.0,201.5,125.5,202.0" stroke="black" stroke-width="2" fill="none" />
<polyline points="126.0,195.5,134.0,194.5,141.5,193.5" stroke="black" stroke-width="2" fill="none" />
<polyline points="132.5,170.0,124.0,170.5" stroke="black" stroke-width="2" fill="none" />
<polyline points="124.5,162.0,132.5,161.0" stroke="black" stroke-width="2" fill="none" />
<polyline points="122.5,148.0,131.0,140.5,140.0,133.0,148.0,126.0,155.5,118.5,163.0,111.0,170.5,104.0,179.0,96.5,187.0,89.5,195.0,82.0,202.5,74.5,210.5,67.0,218.0,59.0,226.5,51.5" stroke="black" stroke-width="2" fill="none" />
<polyline points="219.5,52.0,211.5,59.0,203.0,66.0,195.0,73.0,187.5,81.0,179.5,88.0,171.0,95.5,163.0,103.5,155.0,111.5,147.0,119.5,139.0,126.5,131.5,134.5,124.0,141.5" stroke="black" stroke-width="2" fill="none" />
<polyline points="125.5,139.5,133.0,139.0,140.5,139.0,148.0,139.5,155.5,139.5,163.0,140.0,171.0,139.5,179.0,139.5,187.5,139.5,196.0,139.0,204.0,138.0,211.5,137.5,219.0,137.0,227.0,136.0,234.5,135.5,242.5,134.5,251.0,134.0,259.0,134.0,267.0,133.5,275.0,133.0,283.5,132.5,291.0,132.0,300.0,132.0,308.5,131.5,316.5,131.0,324.5,129.5,332.5,129.5,340.5,129.0,348.5,128.5,356.5,128.0,365.0,127.5,372.5,127.0,380.5,125.5" stroke="black" stroke-width="2" fill="none" />
<polyline points="364.0,124.0,356.0,130.5,348.0,137.5" stroke="black" stroke-width="2" fill="none" />
<polyline points="346.5,129.5,354.5,122.0,363.0,114.5" stroke="black" stroke-width="2" fill="none" />
<polyline points="355.5,114.0,347.5,122.0,339.5,129.5" stroke="black" stroke-width="2" fill="none" />
<polyline points="341.5,123.0,350.0,116.0,358.0,108.5" stroke="black" stroke-width="2" fill="none" />
<polyline points="356.0,100.0,348.5,107.5,340.5,115.0,332.5,122.5" stroke="black" stroke-width="2" fill="none" />
<polyline points="333.0,117.5,341.0,109.5,348.5,102.5" stroke="black" stroke-width="2" fill="none" />
<polyline points="347.5,91.5,339.5,99.0,331.0,106.5,323.0,113.5" stroke="black" stroke-width="2" fill="none" />
<polyline points="322.0,106.0,330.0,97.5,338.0,90.0" stroke="black" stroke-width="2" fill="none" />
<polyline points="331.0,91.5,323.0,99.0,315.0,106.5" stroke="black" stroke-width="2" fill="none" />
<polyline points="314.5,98.0,322.5,91.0,331.0,84.0" stroke="black" stroke-width="2" fill="none" />
<polyline points="322.0,81.5,314.5,89.5,306.5,97.0" stroke="black" stroke-width="2" fill="none" />
<polyline points="299.5,93.0,291.0,100.0" stroke="black" stroke-width="2" fill="none" />
<polyline points="281.5,97.5,289.5,90.0" stroke="black" stroke-width="2" fill="none" />
<polyline points="290.5,83.0,282.0,90.0,273.5,97.5" stroke="black" stroke-width="2" fill="none" />
<polyline points="266.0,99.5,274.0,92.5,282.0,85.0" stroke="black" stroke-width="2" fill="none" />
<polyline points="276.5,83.5,268.5,91.0,260.5,98.5" stroke="black" stroke-width="2" fill="none" />
<polyline points="252.5,99.5,261.0,91.5,269.0,83.5" stroke="black" stroke-width="2" fill="none" />
<polyline points="268.5,75.5,260.5,83.5,252.0,91.5,244.0,99.0" stroke="black" stroke-width="2" fill="none" />
<polyline points="236.0,100.0,244.0,92.0,252.0,84.0,260.0,76.5" stroke="black" stroke-width="2" fill="none" />
<polyline points="251.5,75.0,243.5,83.0,236.0,90.0,228.5,97.0,220.5,105.0" stroke="black" stroke-width="2" fill="none" />
<polyline points="201.5,112.0,210.0,104.5,218.0,96.5,226.0,89.0,233.5,81.5,241.0,74.0" stroke="black" stroke-width="2" fill="none" />
<polyline points="237.5,74.5,230.0,81.5,222.0,89.5,213.5,97.5,205.0,105.5,196.5,113.5,188.5,121.0,181.0,128.5,173.0,136.0,165.0,143.0,156.5,150.5,148.5,158.0,140.5,165.5,132.5,173.0,124.5,180.5,116.5,188.0,108.5,196.0" stroke="black" stroke-width="2" fill="none" />
<polyline points="107.5,187.5,115.5,180.0,124.0,172.5,131.5,165.0,139.5,157.0,147.5,149.5,156.0,142.0,164.5,134.5,172.5,127.0,180.0,120.0,188.0,113.0,195.5,106.0,203.5,99.0,211.0,92.0,219.0,84.5,227.0,76.5" stroke="black" stroke-width="2" fill="none" />
<polyline points="237.0,58.5,229.0,66.0,221.0,74.0,213.0,81.5,204.5,90.0,196.5,97.5,189.0,105.0,181.0,113.0,173.0,120.5,165.0,128.0,156.5,135.0,148.5,143.0,141.0,151.0,133.0,158.5,124.5,165.5,116.0,173.5,107.5,181.0" stroke="black" stroke-width="2" fill="none" />
<polyline points="104.0,177.5,103.5,185.0,102.5,193.0,102.5,201.0,102.5,209.0,102.0,216.5,102.0,225.0,101.0,233.0,101.5,241.0" stroke="black" stroke-width="2" fill="none" />
<polyline points="101.0,252.0,99.0,260.0,100.0,268.0,99.5,276.0,99.5,284.0,99.5,292.5,100.0,294.0,108.5,298.5,117.0,297.5,125.0,299.0,133.0,299.0,141.5,297.5,149.0,301.0,157.0,314.5,165.0,316.5" stroke="black" stroke-width="2" fill="none" />
<polyline points="141.0,328.0,143.0,324.0,135.0,321.0,127.5,319.5,119.0,318.5" stroke="black" stroke-width="2" fill="none" />
<polyline points="116.0,298.5,107.5,299.0" stroke="black" stroke-width="2" fill="none" />
<polyline points="77.0,322.5,68.5,330.0" stroke="black" stroke-width="2" fill="none" />
<polyline points="74.0,329.5,82.0,330.5,89.5,329.5" stroke="black" stroke-width="2" fill="none" />
<polyline points="84.5,331.0,76.0,339.0,68.0,346.5" stroke="black" stroke-width="2" fill="none" />
<polyline points="69.0,337.5,77.5,329.5" stroke="black" stroke-width="2" fill="none" />
<polyline points="53.0,364.0,44.5,371.5,36.5,379.0,29.0,386.0,21.0,392.5,13.0,399.5" stroke="black" stroke-width="2" fill="none" />
<polyline points="12.5,392.0,20.0,385.5,28.5,378.5,36.5,372.0,45.0,364.5" stroke="black" stroke-width="2" fill="none" />
<polyline points="42.5,357.5,35.0,364.5,27.0,372.0,18.5,379.0,10.5,386.0" stroke="black" stroke-width="2" fill="none" />
<polyline points="4.0,382.5,11.5,381.5,20.0,381.0,28.0,380.0,36.0,380.0,44.5,380.0,52.0,379.5,60.0,379.0,67.5,378.5,75.0,378.5,82.5,377.5,90.5,377.5,99.0,377.0,107.0,376.0,115.0,374.5,123.5,374.0,131.5,373.5,139.0,373.5,147.0,373.5,155.0,373.5,162.5,373.0,170.5,373.0,179.0,372.5,187.5,372.0,196.0,371.5,204.0,370.5,211.5,370.0,219.5,369.0,227.0,368.0,234.5,367.0,242.5,366.5,250.5,365.5,258.5,365.5" stroke="black" stroke-width="2" fill="none" />
<polyline points="265.5,301.0,273.0,301.0,280.5,301.0,288.5,301.0" stroke="black" stroke-width="2" fill="none" />
<polyline points="292.0,293.0,284.0,293.5,276.5,294.0" stroke="black" stroke-width="2" fill="none" />
<polyline points="299.0,227.5,307.0,220.0" stroke="black" stroke-width="2" fill="none" />
<polyline points="305.0,219.0,307.0,218.0,306.0,226.5,297.0,233.0,305.0,228.0" stroke="black" stroke-width="2" fill="none" />
<polyline points="299.0,219.0,291.0,227.0" stroke="black" stroke-width="2" fill="none" />
<polyline points="338.5,253.0,346.5,252.5,354.5,251.5,363.0,251.5,371.0,251.5" stroke="black" stroke-width="2" fill="none" />
<polyline points="362.0,260.0,354.0,260.0,345.5,260.5" stroke="black" stroke-width="2" fill="none" />
<polyline points="345.5,269.0,353.5,268.5,361.5,268.0" stroke="black" stroke-width="2" fill="none" />
<polyline points="370.0,276.0,378.0,267.0,386.0,250.5" stroke="black" stroke-width="2" fill="none" />
<polyline points="369.0,237.5,376.5,224.5,372.5,232.5,369.0,240.5,369.0,248.5,362.0,256.5" stroke="black" stroke-width="2" fill="none" />
<polyline points="353.5,277.0,346.0,277.5" stroke="black" stroke-width="2" fill="none" />
<polyline points="364.0,296.5,356.0,302.5" stroke="black" stroke-width="2" fill="none" />
<polyline points="395.0,320.0,395.5,321.5,395.0,329.0,395.0,336.5,395.0,344.5,395.5,352.0,395.5,360.0" stroke="black" stroke-width="2" fill="none" />
<polyline points="402.5,347.0,394.5,348.0,386.5,349.0,378.5,350.0,370.5,351.0,362.0,352.5,354.0,353.5,346.0,353.5,337.5,354.0,330.0,354.5,322.0,355.5,314.0,355.5,306.5,355.5,298.5,355.5,290.5,355.5,283.0,355.5,274.0,356.0,265.5,356.5,257.0,357.5,249.5,358.0,242.0,358.5,233.5,359.0,225.5,360.0,218.0,360.0,210.0,360.5,202.0,361.0,194.0,361.5,186.5,362.0,178.5,362.5,170.0,363.5,162.0,364.5,154.0,364.5,146.5,365.0,138.5,365.5,130.0,367.0,122.0,367.5,113.5,368.5,106.0,369.0,98.5,369.5,90.5,370.0,83.0,370.5,74.5,371.0,66.0,371.5,58.0,371.5,51.0,371.5,43.0,371.5,35.5,371.0,28.5,371.0,21.0,371.5,13.5,372.0,5.5,372.5" stroke="black" stroke-width="2" fill="none" />
<polyline points="12.0,377.5,20.5,370.0,29.0,362.5,37.5,354.5" stroke="black" stroke-width="2" fill="none" />
<polyline points="28.0,354.0,20.0,361.5,12.0,369.0" stroke="black" stroke-width="2" fill="none" />
<polyline points="12.0,362.0,20.0,354.5,27.5,347.0" stroke="black" stroke-width="2" fill="none" />
<polyline points="19.5,347.5,11.5,355.0" stroke="black" stroke-width="2" fill="none" />
<polyline points="2.0,334.5,10.0,333.5,18.0,333.0,26.0,332.5,34.0,332.5,42.0,331.5,50.0,330.5,58.5,329.5,66.5,328.5,74.5,327.5,82.5,326.5,90.5,326.5,98.5,326.5,107.0,326.0,115.5,326.5,124.0,326.0,132.0,326.0,139.0,325.5,147.0,325.0,155.0,325.0,163.0,324.5,171.5,324.0,180.0,324.0,188.5,323.5,196.0,323.0,204.0,322.5,212.0,321.5,220.0,320.0,228.0,319.0,236.0,318.0,244.0,317.0,252.0,316.5" stroke="black" stroke-width="2" fill="none" />
<polyline points="195.0,408.5,187.5,409.0,179.5,409.5,171.5,410.5,164.0,410.5,157.0,411.0,149.0,411.5,140.5,412.5,132.5,413.0,124.5,413.5,117.0,413.5,109.0,414.0,100.0,414.5,91.5,415.0,83.5,416.0,75.0,416.5,66.5,416.5,58.5,417.0,50.5,417.5" stroke="black" stroke-width="2" fill="none" />
<polyline points="10.5,434.5,18.5,433.5,26.5,433.0,34.5,433.0,42.0,433.0,50.5,432.0,59.0,432.0,67.5,431.5,76.0,431.0,84.0,430.5,92.0,429.5,100.5,429.0,108.5,428.5,116.5,427.5,124.5,426.0,132.5,425.5,140.5,425.0,148.0,425.0,156.0,424.5,164.0,424.5,172.5,424.0,180.0,423.5,188.0,423.0,196.0,422.0" stroke="black" stroke-width="2" fill="none" />
<polyline points="196.5,437.5,189.0,438.0,181.0,438.5,172.5,439.0,165.0,440.0,157.0,440.5,149.0,441.0,141.0,441.5,133.5,442.0,125.0,442.5,117.0,442.5,109.0,443.5,101.0,444.5,93.5,445.0,85.0,445.5,76.5,445.5,67.5,446.5,59.0,447.5,50.5,448.5,42.5,448.5,35.0,449.0,27.0,450.0,19.0,450.5,11.0,451.0" stroke="black" stroke-width="2" fill="none" />
<polyline points="12.0,457.5,20.0,456.5,28.0,456.0,36.0,455.5,44.0,455.5,52.0,455.5,59.5,455.5,67.5,455.0,75.5,454.5,83.5,454.0,92.5,453.5,99.5,453.0,107.5,452.0,115.5,451.0,123.5,449.5,132.0,448.5,139.5,448.0,147.5,447.5,155.5,447.0,164.5,446.5,172.5,446.0,180.0,445.5,188.0,445.0,196.0,444.5,204.0,444.5" stroke="black" stroke-width="2" fill="none" />
<polyline points="203.0,444.5,195.5,452.0,187.5,459.5,179.0,467.0,171.0,473.5,162.5,480.5,154.5,488.0,147.0,495.5,139.0,503.0,131.5,510.5" stroke="black" stroke-width="2" fill="none" />
<polyline points="192.0,438.0,196.5,445.5,201.5,453.5,209.5,461.0,221.5,469.0,239.5,477.0" stroke="black" stroke-width="2" fill="none" />
<polyline points="267.0,473.0,259.5,473.5,252.0,474.5,243.5,474.5,235.0,475.0,227.5,475.5,219.5,476.5,211.5,477.0,203.5,477.5,195.0,477.5,187.0,477.5,178.5,478.0,170.5,479.0,163.0,479.5,155.5,480.0,147.5,481.0,139.5,482.0,131.5,483.0,124.0,484.0,116.0,485.0,108.5,485.5,101.0,486.5,93.0,487.0,85.5,487.5,77.5,488.0,68.5,488.5,60.0,488.0,51.0,488.0,42.5,488.0,34.5,488.5,26.5,489.0,18.5,489.5,11.0,489.5" stroke="black" stroke-width="2" fill="none" />
<polyline points="11.5,482.0,19.0,481.5,27.0,481.0,35.5,480.0,44.0,479.5,52.5,479.5,60.5,479.0,68.5,478.5,76.5,478.0,83.5,478.0,91.5,477.5,99.5,477.0,107.5,476.5,116.0,476.0,124.5,475.5,132.5,475.5,140.5,474.5,148.5,473.0,156.0,472.0,163.5,471.5,171.5,471.0,179.5,470.5,187.0,470.0,195.0,470.0,203.0,469.5,211.0,469.0,219.0,468.0,227.0,467.0,235.0,466.0" stroke="black" stroke-width="2" fill="none" />
<polyline points="218.5,459.5,210.5,460.0,203.0,461.0,196.5,461.0,189.0,461.5,181.0,462.0,173.5,462.5,165.5,463.0,157.5,463.5,149.5,464.0,141.0,464.5,133.0,465.5,124.5,466.0,116.0,467.5,107.5,468.0,99.5,468.0,91.5,468.5,83.5,469.0,75.5,469.5,68.0,470.0,60.5,470.5,53.0,471.0,45.0,471.5,37.0,472.0,29.0,472.5,20.5,473.5,12.5,474.0" stroke="black" stroke-width="2" fill="none" />
<polyline points="12.5,465.5,20.5,465.0,28.0,465.0,35.5,464.5,44.0,463.5,51.5,463.5,59.0,462.5,66.5,462.0,74.5,461.5,82.5,461.5,91.0,461.0,98.5,460.5,106.5,460.0,115.0,459.5,123.0,459.0,131.5,458.0,139.5,457.5,148.0,456.5,156.0,456.0,164.5,455.0,172.5,455.0,180.5,454.0,188.0,453.5,196.0,453.0,203.5,452.5,211.0,452.5" stroke="black" stroke-width="2" fill="none" />
<polyline points="193.0,438.5,201.0,451.5,208.0,461.0,216.0,467.0,223.5,472.0,232.0,475.0,239.5,479.0,247.0,479.5,255.0,481.5,263.0,483.5,271.0,483.0,279.0,484.0,287.5,483.0,295.5,482.5,304.0,482.0,312.5,479.5,320.5,476.5,328.5,474.5,336.5,471.0,344.5,465.5,353.0,456.5" stroke="black" stroke-width="2" fill="none" />
<polyline points="361.0,408.5,352.5,401.0,344.5,394.5" stroke="black" stroke-width="2" fill="none" />
<polyline points="343.5,388.0,351.5,389.0,361.0,391.0,369.5,390.0" stroke="black" stroke-width="2" fill="none" />
<polyline points="420.5,402.5,419.5,394.5,420.0,386.0,420.0,378.0,420.0,369.5" stroke="black" stroke-width="2" fill="none" />
<polyline points="420.0,323.5,414.0,325.0,419.5,323.5,427.0,315.5,427.5,309.5,419.5,306.5" stroke="black" stroke-width="2" fill="none" />
<polyline points="396.0,319.5,397.5,327.5,397.5,336.0,399.0,343.5,400.0,351.5,400.0,359.5,401.5,367.5,401.5,375.0,402.5,382.5,403.0,391.0,404.0,398.5,407.5,402.5,415.5,405.5,423.0,408.0,431.0,409.0,438.5,411.5,446.5,413.5,454.5,416.0,462.5,418.0,470.0,421.0,478.0,423.5,486.5,426.5,494.5,431.0,503.0,431.0" stroke="black" stroke-width="2" fill="none" />
<polyline points="498.5,299.5,497.5,292.0,496.5,283.5,496.5,275.5,495.5,267.0,493.5,259.5,487.0,258.5,479.5,258.5" stroke="black" stroke-width="2" fill="none" />
<polyline points="483.5,252.0,491.5,252.0,499.0,251.0,506.5,251.0,514.5,251.5" stroke="black" stroke-width="2" fill="none" />
<polyline points="515.0,243.0,506.5,243.0,499.0,243.5,491.0,243.0,482.5,243.0,475.0,242.5,467.0,243.0,459.5,242.5,451.5,242.5,443.5,242.5" stroke="black" stroke-width="2" fill="none" />
<polyline points="419.5,221.5,428.0,221.0,436.0,220.0,443.5,219.5,451.5,218.0,459.5,217.5,467.5,217.5,475.5,217.0,483.5,217.0,492.0,216.5,500.5,216.0,508.0,216.0,516.0,215.5" stroke="black" stroke-width="2" fill="none" />
<polyline points="516.0,206.5,509.0,206.5,501.5,206.5,493.0,207.5,485.0,208.5,476.5,209.5,468.0,210.0,460.5,210.0,452.5,210.5,445.0,210.5,437.5,210.5,429.5,210.5,421.5,211.0" stroke="black" stroke-width="2" fill="none" />
<polyline points="419.5,205.0,427.5,204.5,436.0,204.0,444.0,203.5,452.0,203.0,460.5,202.5,468.5,201.5,476.5,201.0,484.0,200.0,492.5,200.0,501.0,199.5,508.5,199.0,517.0,199.0" stroke="black" stroke-width="2" fill="none" />
<polyline points="516.5,192.0,508.5,192.5,501.0,193.0,493.0,194.0,484.5,194.0,476.5,194.5,468.0,194.5,459.5,195.0,451.5,195.5,444.0,197.0,436.0,198.0,427.5,198.5,419.5,199.0" stroke="black" stroke-width="2" fill="none" />
<polyline points="411.5,190.5,419.0,190.0,428.0,190.0,436.5,189.5,444.5,189.0,452.5,187.5,460.5,187.5,468.5,187.0,476.5,186.5,484.5,186.0,493.0,185.5,500.5,185.0,508.5,183.5,516.0,182.5" stroke="black" stroke-width="2" fill="none" />
<polyline points="514.5,176.0,507.0,177.0,499.0,177.5,490.5,178.5,483.0,179.0,475.0,179.0,467.5,179.5,460.0,179.5,452.0,180.5,445.0,180.5,437.5,181.0,429.5,181.0,421.5,181.5,414.0,182.0" stroke="black" stroke-width="2" fill="none" />
<polyline points="413.5,174.5,421.0,173.5,429.0,172.5,437.0,172.0,445.5,171.5,453.5,171.0,461.0,170.5,468.5,170.0,476.5,169.5,485.0,168.5,493.5,167.5,501.0,167.5,508.5,167.0,516.0,166.5" stroke="black" stroke-width="2" fill="none" />
<polyline points="516.0,157.5,508.0,158.0,500.0,158.5,492.0,159.0,484.0,159.5,476.5,160.0,469.0,161.0,461.0,162.0,453.0,163.5,445.5,164.5,437.5,164.5,429.5,165.0,421.5,166.0,413.5,166.5" stroke="black" stroke-width="2" fill="none" />
<polyline points="412.0,157.5,420.5,157.0,428.5,156.5,436.5,156.0,445.0,155.5,453.0,155.0,460.5,154.0,468.5,153.0,476.5,153.0,484.0,152.5,491.5,152.0,500.0,151.5,508.0,151.0,516.0,150.5" stroke="black" stroke-width="2" fill="none" />
<polyline points="516.5,143.5,508.0,143.5,499.5,144.0,491.5,144.5,483.0,145.0,475.0,145.5,467.0,146.0,459.0,147.0,451.5,147.5,443.5,148.0,435.5,148.0,427.5,148.0,420.0,148.0,411.5,148.5" stroke="black" stroke-width="2" fill="none" />
<polyline points="405.0,133.5,412.5,139.5,420.5,142.5,428.0,144.0,436.0,145.0,443.5,145.5,451.5,144.5,459.5,144.0,467.5,144.0,475.0,144.0,483.0,143.5,491.5,143.5,499.5,144.0,508.0,144.0" stroke="black" stroke-width="2" fill="none" />
<polyline points="404.0,133.5,403.0,141.0,404.0,149.0,404.0,157.0,405.0,165.5,405.5,173.5,405.0,181.5,405.5,189.5,406.5,197.5,406.5,205.5,407.5,213.0,407.5,221.0,408.0,229.0,407.5,237.0,407.5,245.0,408.5,253.0,408.5,261.5,408.5,270.0,409.5,278.5,410.0,286.0,411.0,294.0,410.5,302.0,411.5,310.5,412.0,323.5,412.5,331.0,413.0,339.5,413.5,347.0,413.5,355.0,413.5,363.0,414.5,371.5,414.5,379.5,414.5,387.5,414.5,395.5" stroke="black" stroke-width="2" fill="none" />
<polyline points="267.0,381.5,259.0,382.0,251.0,382.0,243.0,382.5,235.5,383.5,228.0,384.5,220.0,385.0,212.0,386.0,204.5,386.0,196.5,386.5,188.0,386.5,180.0,387.0,172.0,387.0,164.5,387.5,156.0,388.0,147.5,389.0,139.5,390.0,131.0,390.5,122.5,391.0,114.5,392.0,107.0,392.5,98.5,393.0,90.0,393.5,82.0,393.5,74.0,394.0,66.5,394.0,59.0,394.5,51.5,395.0,44.0,396.0,35.5,396.5,27.5,397.0,19.5,397.0,12.0,397.5,4.5,398.0" stroke="black" stroke-width="2" fill="none" />
<polyline points="4.0,392.0,11.5,391.5,19.5,391.0,27.0,390.5,35.0,389.5,42.5,388.5,50.5,388.0,58.5,387.5,66.5,386.5,75.0,385.5,83.0,384.5,90.5,384.0,98.0,384.0,106.0,384.0,114.5,384.0,122.5,384.0,131.0,383.0,138.5,382.5,146.0,382.0,154.0,381.5,161.5,381.0,170.0,380.5,178.5,380.0,187.0,379.5,195.5,379.5,203.5,379.0,211.5,379.0,219.5,378.5,227.5,378.0,235.5,377.5,243.5,376.5,252.0,376.0,260.5,375.5" stroke="black" stroke-width="2" fill="none" />
<polyline points="196.5,430.5,188.5,431.0,180.0,432.0,172.0,432.5,164.0,433.0,156.0,433.0,148.5,433.0,141.0,433.5,133.0,434.0,125.0,435.0,117.0,435.5,109.5,436.5,102.0,437.5,94.0,438.5,85.5,438.5,77.0,439.5,69.0,440.0,61.5,440.5,53.0,440.5,44.5,441.0,35.0,441.0,26.5,441.5,18.0,442.5,10.0,443.5" stroke="black" stroke-width="2" fill="none" />
<polyline points="2.0,327.5,10.0,327.0,18.5,326.0,26.5,325.0,34.5,324.5,42.5,323.5,50.5,322.5,58.5,321.5,67.0,321.0,75.0,321.0,83.0,320.5,90.5,320.5,98.5,320.0,106.5,319.5,114.5,319.0,123.0,319.0,132.0,319.0,140.5,319.5,149.5,319.0,157.5,318.5,165.0,318.0,173.0,317.5,180.5,316.5,188.0,316.0,196.0,315.0,203.5,314.0,211.5,313.0,219.5,312.0,227.5,311.0,235.0,310.5,242.5,310.0,250.5,309.0,259.0,308.5,267.0,308.5" stroke="black" stroke-width="2" fill="none" />
<polyline points="283.0,300.0,275.0,300.5,267.0,301.0,259.0,301.0,251.5,301.5,243.5,302.0,235.5,302.5,228.0,303.0,220.5,304.0,212.5,305.5,204.5,306.5,196.5,306.5,188.0,307.0,179.5,307.5,171.5,308.0,163.5,308.5,155.5,309.0,148.5,309.0,140.5,309.5,132.5,310.0,124.5,310.5,116.0,310.5,107.5,311.0,99.0,312.0,91.0,312.5,83.5,313.0,75.5,314.0,67.5,314.5,59.0,315.0,51.0,315.0,43.0,316.0,34.5,316.5,27.0,317.0,19.0,317.0,11.0,316.5,3.0,316.5" stroke="black" stroke-width="2" fill="none" />
<polyline points="2.0,308.0,10.0,307.5,18.0,306.5,26.5,306.5,35.0,306.5,43.5,306.5,52.0,306.5,60.5,306.5,68.5,306.0,76.5,306.0,84.5,305.0,92.5,304.5,101.0,303.5,109.0,303.0,117.0,302.5,125.0,302.0,132.5,301.5,140.0,301.0,147.5,300.5,155.5,300.0,163.5,299.5,171.5,299.0,179.5,299.0,188.0,298.5,196.5,297.0,205.0,296.5,213.0,295.5,221.5,295.0,229.5,294.5,237.5,294.0,245.5,293.5,253.0,293.0,261.0,292.5,268.5,292.0,275.0,292.0,282.5,291.0,290.5,290.5" stroke="black" stroke-width="2" fill="none" />
<polyline points="260.0,284.5,252.5,285.0,244.5,286.0,236.5,286.0,228.0,287.0,220.0,287.5,211.5,288.5,203.5,289.0,195.0,290.0,187.0,290.5,178.5,291.0,170.5,291.5,163.0,292.0,154.5,292.5,146.5,292.5,138.5,293.0,131.0,293.5,123.5,294.5,116.0,294.5,107.5,295.5,100.0,296.0,92.5,296.0,84.5,296.5,76.5,297.0,68.0,298.0,60.0,298.0,52.0,297.5,44.0,297.5,36.0,297.5,28.0,298.5,19.5,299.0,11.0,299.5,2.5,300.0" stroke="black" stroke-width="2" fill="none" />
<polyline points="4.5,291.5,12.5,291.5,20.5,291.5,29.0,291.5,37.5,291.0,45.5,291.0,53.5,290.5,61.0,290.5,68.5,289.5,76.0,289.0,84.0,288.5,92.0,287.5,100.0,287.0,108.0,286.5,116.0,286.5,124.0,286.5,131.5,286.5,139.5,286.0,147.5,285.5,155.5,285.0,164.5,284.5,171.5,284.0,179.5,283.0,187.5,282.0,195.5,280.5,204.0,279.5,211.5,279.0,219.5,278.5,227.5,278.0,236.5,277.5,244.5,277.0,252.0,276.5,260.0,276.0" stroke="black" stroke-width="2" fill="none" />
<polyline points="284.0,267.0,276.0,268.0,268.5,268.5,261.0,269.0,253.0,269.5,244.5,270.0,237.0,271.0,229.0,271.5,221.0,272.0,213.0,272.5,205.5,273.0,197.0,273.5,189.0,273.5,181.0,274.5,173.0,275.5,165.5,276.0,157.0,276.5,148.5,276.5,139.5,277.5,131.0,278.5,122.5,279.5,114.5,279.5,107.0,280.0,99.0,281.0,91.0,281.5,83.0,282.0,75.0,282.5,67.5,282.5,59.5,282.0,52.0,282.0,44.0,282.0,36.5,282.5,28.5,282.5,20.5,283.0,13.0,283.0,5.0,283.5" stroke="black" stroke-width="2" fill="none" />
<polyline points="5.5,275.5,13.0,275.5,21.5,275.5,29.0,275.5,37.0,275.5,44.5,275.5,52.0,275.5,59.0,275.5,66.0,275.5,74.0,275.0,82.0,274.5,90.0,273.5,98.5,272.5,107.0,272.0,116.5,272.0,125.0,271.5,133.5,271.5,141.0,271.0,149.0,270.5,157.5,269.5,166.0,269.5,174.0,268.5,181.5,267.5,189.0,266.5,197.0,266.0,205.0,265.0,213.0,264.5,220.5,264.0,228.0,264.0,236.0,264.0,244.0,263.5,252.0,263.0,260.5,262.0,268.5,261.5,276.5,260.5,284.5,260.0,292.5,258.5" stroke="black" stroke-width="2" fill="none" />
<polyline points="291.5,251.0,283.5,251.5,275.5,252.5,268.0,253.0,260.0,254.0,252.0,254.5,244.5,255.0,236.0,255.5,228.0,255.5,220.0,256.0,212.5,256.0,204.5,256.5,196.5,257.0,188.5,258.5,180.5,259.5,172.5,260.0,164.0,260.5,156.0,261.5,148.0,262.0,139.5,262.5,131.0,263.0,122.5,263.0,114.0,264.0,106.5,264.0,98.5,264.0,90.5,264.5,82.5,265.5,74.5,266.0,66.5,266.5,59.0,266.5,51.5,267.0,44.5,267.0,37.0,267.5,29.0,268.5,21.0,269.5,13.5,270.0,5.5,271.0" stroke="black" stroke-width="2" fill="none" />
<polyline points="4.5,263.5,12.5,263.5,19.5,263.0,27.0,262.5,35.0,262.0,43.0,261.5,50.5,261.0,58.0,260.5,66.0,260.0,73.5,259.0,81.5,258.0,90.0,257.5,98.5,256.5,107.0,255.5,115.5,254.5,124.0,253.5,132.0,252.5,140.0,252.5,148.0,252.0,156.5,252.5,164.5,252.0,172.5,251.0,179.5,250.5,187.0,249.5,194.5,249.5,201.5,249.0,209.5,248.5,217.5,247.5,225.5,247.0,233.5,247.0,241.5,246.0,249.0,246.0,256.5,246.0,264.5,246.0,273.0,245.5,281.0,245.0,290.0,245.0" stroke="black" stroke-width="2" fill="none" />
<polyline points="291.0,236.0,282.5,236.5,274.5,237.5,267.0,238.0,259.0,239.0,251.5,239.5,244.0,240.0,236.0,241.0,227.5,241.5,219.0,241.5,211.0,241.5,203.0,242.0,195.5,241.5,188.0,241.5,180.5,241.0,173.0,241.0,165.5,241.5,157.0,242.0,149.0,243.0,140.5,244.0,132.5,245.0,124.0,245.0,116.5,246.0,109.0,246.5,101.0,247.0,93.0,247.5,84.5,248.5,76.0,248.5,68.0,249.0,59.5,250.0,51.0,251.0,43.5,252.0,35.5,252.0,27.5,252.0,20.0,252.5,11.5,253.5,3.5,254.5" stroke="black" stroke-width="2" fill="none" />
<polyline points="4.0,244.5,12.5,244.0,21.0,243.5,29.5,242.5,38.0,241.5,46.0,241.0,53.5,240.5,61.5,240.0,69.0,239.0,76.5,239.0,84.5,238.5,92.5,238.0,100.5,238.0,108.5,237.5,117.0,237.0,125.5,236.5,133.0,236.5,140.5,236.0,148.0,235.5,155.5,235.0,163.5,234.5,171.5,234.0,179.5,233.5,187.5,233.0,195.5,233.5,203.0,234.0,211.5,233.5,220.0,233.0,228.0,233.0,235.5,233.0,244.0,233.0,252.0,232.5,260.0,232.5,268.0,232.0,276.5,231.5,284.5,230.5,292.5,230.0,300.5,229.0,308.5,228.0,317.5,227.0,326.0,226.0,333.5,225.5,341.5,225.0,349.5,225.0,357.0,224.5,364.0,224.5,372.0,223.5,379.5,223.5" stroke="black" stroke-width="2" fill="none" />
<polyline points="377.5,221.5,385.5,223.5" stroke="black" stroke-width="2" fill="none" />
<polyline points="346.5,73.0,339.0,74.5,331.0,75.0,323.5,75.0,316.0,75.0,308.0,75.5,299.5,76.0,291.5,77.0,283.5,78.0,276.0,78.5,268.0,78.0,260.0,78.0,252.0,78.0,244.0,77.5,236.0,77.5,228.0,77.5,219.5,78.0,211.5,79.0,203.5,80.0,196.0,81.0,188.5,82.0,180.5,82.5,172.0,83.5,164.0,84.5,156.5,84.5,149.0,85.0" stroke="black" stroke-width="2" fill="none" />
<polyline points="154.5,83.5,162.5,76.0,170.0,68.5,178.0,60.5,185.5,53.0" stroke="black" stroke-width="2" fill="none" />
<polyline points="178.0,53.0,170.0,60.5,162.0,68.0" stroke="black" stroke-width="2" fill="none" />
<polyline points="156.5,71.0,164.5,70.5,172.5,69.5,180.5,69.0,189.0,68.5,197.0,68.0,205.0,67.5,213.0,67.0,220.5,67.0,227.5,67.0,235.0,66.5,243.5,65.5,252.5,64.5,261.0,63.5,269.0,62.0,277.0,61.0,285.0,60.0,292.5,60.0,300.0,59.0,307.5,58.5,315.0,58.0,323.5,57.5" stroke="black" stroke-width="2" fill="none" />
<polyline points="315.0,52.0,307.0,52.5,299.0,53.0,291.0,54.0,283.5,54.5,275.5,55.0,267.5,55.0,259.5,55.0,252.0,55.0,243.5,55.5,235.5,56.0,227.5,57.0,220.0,57.5,212.5,58.0,204.5,58.5,196.0,59.0,188.0,59.5,180.0,59.5,172.0,59.5,163.5,59.5" stroke="black" stroke-width="2" fill="none" />
<polyline points="163.0,54.5,171.0,54.0,179.5,53.0,187.5,51.5,195.5,51.0,203.5,50.0,212.0,49.5,219.5,48.5,227.0,48.0,235.0,47.5,243.0,47.5,251.0,47.0,259.0,46.5,267.0,46.5,275.5,46.0,283.5,45.5,291.0,45.5,299.0,45.5" stroke="black" stroke-width="2" fill="none" />
<polyline points="288.5,45.0,305.5,53.0,316.5,61.0,322.0,69.5,340.0,73.5,348.0,84.0,356.5,92.0,365.0,98.5,373.0,110.0" stroke="black" stroke-width="2" fill="none" />
<polyline points="363.0,89.0,354.5,89.5,347.0,89.5,339.0,90.0,331.5,90.5,323.5,90.5,315.5,90.5,307.5,90.5,299.0,90.5,291.5,91.0,284.5,92.0,277.0,93.0,269.0,94.0,261.0,94.5,253.0,95.5,244.5,96.5,236.5,97.5,228.0,98.0,219.5,98.5,211.5,99.5,203.5,100.0,195.5,100.5,187.5,101.0,179.5,101.0,171.5,101.5,163.0,101.5,154.5,102.0,146.0,102.5,137.5,103.0" stroke="black" stroke-width="2" fill="none" />
<polyline points="139.0,101.0,147.0,84.0,155.0,69.0,163.5,57.5,171.5,49.5,179.0,45.5,187.0,41.5,195.0,39.0,203.0,38.0,211.0,39.0,218.5,37.0,226.5,36.0,234.0,35.5,242.0,39.0,249.5,37.0,257.5,39.5,265.0,40.5,273.0,42.0,277.0,44.5,284.5,46.5,292.5,48.0,300.5,52.0,309.0,57.0,317.0,62.5,324.5,71.5,332.5,74.5" stroke="black" stroke-width="2" fill="none" />
<polyline points="340.0,74.0,347.0,82.0,354.0,90.0,363.5,98.0,369.0,106.0,374.0,114.0,379.0,122.0,381.5,130.0,383.5,138.0,384.5,146.0,385.5,154.0,385.5,162.0,386.0,170.5,386.0,178.5,385.5,187.0,383.5,195.0,380.5,203.0,378.0,211.5,378.0,219.0,389.5,227.0,390.5,235.0,390.5,243.0,387.5,251.0,383.5,259.0,379.5,267.0,371.5,277.5,368.0,285.5,367.0,293.5,357.0,301.5,356.0,309.5,356.5,317.5,356.0,325.5,354.0,333.5,354.0,341.0,348.0,342.5,342.5,350.5,343.0,358.0,344.0,367.0,351.0,364.0,359.5,364.0" stroke="black" stroke-width="2" fill="none" />
<polyline points="170.0,154.5,162.0,162.5,154.5,170.0,146.5,177.5,138.0,185.0,129.5,192.5,121.5,200.0,114.0,207.5,106.0,214.5" stroke="black" stroke-width="2" fill="none" />
<polyline points="109.5,210.0,117.0,210.0" stroke="black" stroke-width="2" fill="none" />
<polyline points="108.0,207.0,116.0,200.0,124.0,193.0,131.0,185.5,139.0,178.0,147.5,170.0,156.0,162.0,164.0,154.0,171.5,146.0,179.5,138.5" stroke="black" stroke-width="2" fill="none" />
<polyline points="162.0,130.5,153.5,131.0" stroke="black" stroke-width="2" fill="none" />
<polyline points="155.0,124.5,163.5,123.5" stroke="black" stroke-width="2" fill="none" />
<polyline points="132.0,126.0,140.0,119.0,147.5,112.0,155.5,104.5,163.0,97.0,170.5,89.5,178.5,82.0,186.0,74.5,193.5,66.5,202.0,58.5,210.0,51.0" stroke="black" stroke-width="2" fill="none" />
<polyline points="204.5,50.5,196.5,58.5,188.5,65.5,180.0,73.0,171.5,80.0,163.0,87.5,155.0,94.5,147.5,102.0,140.0,110.0" stroke="black" stroke-width="2" fill="none" />
<polyline points="133.0,112.0,141.0,111.5,148.5,110.5,156.0,110.0,164.0,109.0,171.5,108.0,179.5,107.0,187.5,106.0,195.5,105.0,203.0,104.5,210.5,104.0,218.5,103.0,227.0,102.5,235.0,102.5,243.5,102.5,251.5,102.0,259.5,101.5,267.5,100.5,275.0,100.0,283.5,99.5,292.0,99.5,299.5,98.5,307.0,98.0,315.5,97.5,324.0,97.0,332.0,96.5,340.0,96.5,347.5,96.0,355.0,96.0,362.5,96.0,370.0,96.0" stroke="black" stroke-width="2" fill="none" />
<polyline points="493.5,36.5,500.5,36.0,508.5,35.0,516.0,34.0" stroke="black" stroke-width="2" fill="none" />
<polyline points="515.0,27.5,507.5,28.0,500.0,28.0,492.5,28.5" stroke="black" stroke-width="2" fill="none" />
<polyline points="492.0,21.5,499.5,20.5,507.0,20.0,515.5,19.5" stroke="black" stroke-width="2" fill="none" />
<polyline points="508.0,13.5,500.0,13.5,492.0,14.5,484.5,14.5" stroke="black" stroke-width="2" fill="none" />
<polyline points="237.5,49.5,229.0,57.5,220.0,65.5,212.0,73.5,204.0,81.0,196.5,89.0,188.5,97.0,180.5,104.5,173.0,112.0,165.5,119.0,157.0,126.5,149.0,134.5,140.5,142.5,132.5,151.0,124.5,158.5,116.5,166.5,108.0,173.5" stroke="black" stroke-width="2" fill="none" />
<polyline points="113.5,178.0,122.0,177.5,130.0,177.0" stroke="black" stroke-width="2" fill="none" />
<polyline points="130.0,185.5,121.0,186.5,113.0,187.5" stroke="black" stroke-width="2" fill="none" />
<polyline points="115.5,164.0,107.5,164.0" stroke="black" stroke-width="2" fill="none" />
<polyline points="107.0,164.0,108.0,172.0,110.0,180.0,118.0,183.5,119.0,191.5,120.0,199.5" stroke="black" stroke-width="2" fill="none" />
<polyline points="115.5,158.0,124.0,157.0,132.0,156.0,139.5,155.5,147.0,154.5,154.5,153.5,162.5,153.5,171.0,153.0,179.5,152.0,187.5,151.5,195.5,150.5,204.0,150.5,212.0,150.5,220.0,150.5,228.0,150.0,236.5,149.5,244.5,149.0,252.0,148.5,259.5,148.0,267.5,147.0,275.5,146.5,284.0,146.0,291.5,146.0,299.5,146.0,307.5,146.0,315.5,145.5,323.0,145.0,331.0,144.0,339.0,143.5,347.0,143.0,355.5,142.5,363.5,142.0,372.0,141.5,380.5,141.5,388.0,141.5" stroke="black" stroke-width="2" fill="none" />
<polyline points="196.5,51.0,188.5,59.0,180.0,67.0,171.5,74.5,163.5,82.0,155.5,90.0,147.5,97.5" stroke="black" stroke-width="2" fill="none" />
<polyline points="138.5,95.0,146.5,95.0,155.0,94.5,163.5,94.0,172.0,93.5,180.0,92.5,187.5,92.0,195.5,91.0,203.0,90.0,210.5,89.0,218.5,88.5,226.5,87.5,234.5,87.5,242.5,87.0,250.0,86.5,258.5,86.0,266.0,85.5,275.0,86.0,283.0,85.5,291.5,85.0,299.0,84.0,307.0,83.5,315.0,83.5,323.0,83.0,331.0,82.5,339.5,82.0,347.5,81.0,355.0,80.0" stroke="black" stroke-width="2" fill="none" />
<polyline points="277.5,40.0,269.5,41.0,261.5,41.5,253.5,42.0,245.0,42.0,236.5,41.5,227.5,41.5,219.0,42.0,211.0,42.5,203.0,43.5,195.0,44.0,186.5,44.0,178.0,45.0" stroke="black" stroke-width="2" fill="none" />
<polyline points="192.5,37.5,173.5,46.0,165.0,54.0,158.0,62.0,154.0,70.5,149.0,78.5,145.5,87.0,141.5,95.0,139.0,103.5,136.5,112.0,133.5,120.0,129.0,128.0,126.0,135.5,124.0,143.5,122.0,151.0,119.5,159.0" stroke="black" stroke-width="2" fill="none" />
<polyline points="116.5,149.5,124.0,149.5,131.5,148.5,139.0,148.0,147.0,147.5,154.5,147.0,162.5,146.5,171.0,146.5,179.5,146.5,187.0,146.0,195.0,145.5,203.0,145.0,211.5,144.0,219.5,142.5,227.5,142.0,235.5,141.0,244.0,140.5,251.5,139.5,259.0,139.0,267.0,138.5,275.0,138.5,283.0,138.0,291.0,137.5,299.0,137.5,307.5,137.0,315.5,136.5,323.0,136.5,331.0,136.5,338.5,136.0,346.0,135.5,354.0,135.0,362.5,134.5,371.5,134.0,379.5,133.5,388.0,133.5" stroke="black" stroke-width="2" fill="none" />
<polyline points="340.0,65.0,332.0,65.5,324.0,66.5,315.5,67.0,307.5,67.0,299.5,67.5,291.0,68.5,283.0,69.0,275.0,69.5,266.5,69.5,258.5,70.0,250.5,70.0,242.0,70.0,234.0,70.0,226.0,70.5,218.5,71.5,211.0,72.0,203.5,73.0,196.0,73.5,187.5,74.5,180.5,75.5,172.5,76.0,165.0,77.0,157.0,77.5,149.5,77.5" stroke="black" stroke-width="2" fill="none" />
<polyline points="131.0,118.5,139.5,118.0,148.0,118.0,156.5,117.5,164.0,117.0,172.0,116.5,180.0,115.5,188.0,114.0,196.0,113.0,204.0,112.0,212.0,111.0,220.0,110.5,227.5,110.0,235.5,109.5,243.0,109.0,251.5,109.0,259.5,108.5,268.0,108.0,276.0,107.5,284.0,107.0,292.5,106.5,300.0,106.0,307.5,106.0,315.0,105.5,322.5,105.0,329.5,104.5,338.0,104.0,346.5,104.0,354.5,103.5,362.5,103.5,371.0,102.5" stroke="black" stroke-width="2" fill="none" />
<polyline points="378.5,109.0,370.0,109.5,362.5,110.0,355.0,110.0,347.0,110.0,339.0,110.5,331.5,111.0,323.5,111.5,316.0,112.0,308.5,113.0,300.5,114.0,293.5,114.5,285.0,115.0,277.0,115.5,269.0,116.0,261.0,116.0,253.0,116.5,244.5,117.5,236.5,118.5,228.5,119.5,221.0,120.0,213.0,120.5,204.5,121.0,196.5,121.5,188.0,122.0,179.5,122.0,171.0,122.0,163.0,123.0,154.5,124.0,146.0,125.0,138.0,125.5,130.0,125.5" stroke="black" stroke-width="2" fill="none" />
<polyline points="123.5,132.5,131.5,132.0,139.5,131.5,147.5,131.0,155.5,131.5,163.0,132.0,171.5,131.5,180.0,131.0,188.0,131.0,195.5,131.0,204.0,131.0,212.0,130.5,220.0,130.5,228.0,130.0,236.5,129.5,244.5,128.5,252.5,128.0,260.5,127.0,268.5,126.0,277.5,125.0,286.0,124.0,293.5,123.5,301.5,123.0,309.5,123.0,317.0,122.5,324.0,122.5,332.0,121.5,339.5,121.5,347.0,121.0,355.0,121.0,362.5,120.5,371.0,119.5,379.0,119.0" stroke="black" stroke-width="2" fill="none" />
<polyline points="388.5,213.5,380.5,214.0,373.0,214.5,365.5,215.0,357.5,215.5,349.0,216.0,341.0,216.5,333.0,217.5,325.5,218.5,317.5,219.0,309.0,219.0,300.0,219.5,292.0,220.0,283.5,221.0,275.5,221.0,267.5,221.5,259.5,222.0,252.0,222.0,244.0,222.5,236.0,223.0,228.0,223.5,219.5,224.0,211.5,225.0,203.0,225.0,195.0,225.5,187.5,226.5,179.5,227.0,171.0,227.5,163.0,228.5,155.0,228.5,147.5,229.0,139.5,229.0,131.0,229.0,123.0,229.5,115.5,229.0,108.0,229.0,100.0,229.5,92.0,230.0,83.5,231.0,75.5,231.0,68.0,231.0,60.0,231.0,52.5,231.5,45.0,232.0,37.0,233.0,29.0,233.5,21.5,234.0,13.5,235.0,5.5,236.0" stroke="black" stroke-width="2" fill="none" />
<polyline points="5.0,228.0,13.0,227.0,21.5,227.0,29.5,227.0,37.5,226.5,45.0,226.5,53.0,225.5,61.0,224.5,68.5,223.5,76.5,223.0,84.5,222.5,92.0,222.0,99.5,222.5,107.0,222.5,114.5,222.5,122.5,222.5,130.0,222.5,138.0,222.5,145.5,222.5,153.5,222.0,161.0,221.5,169.0,220.5,178.0,219.5,185.5,219.0,193.0,218.5,201.0,217.5,209.5,216.5,218.0,215.5,226.5,214.5,234.0,214.0,242.0,214.0,250.5,213.0,259.0,213.0,267.0,212.5,275.0,211.5,283.0,211.0,291.5,210.5,300.5,210.5,309.0,211.0,317.5,211.0,325.5,210.5,333.5,210.0,341.5,209.0,349.5,208.5,357.5,208.5,365.0,207.5,373.0,206.0,381.0,205.0" stroke="black" stroke-width="2" fill="none" />
<polyline points="380.5,197.0,372.5,198.0,365.0,199.0,357.0,199.5,348.5,200.0,340.5,200.5,332.5,201.0,324.0,201.5,316.0,202.0,307.5,202.0,299.0,202.0,291.0,203.0,283.0,203.5,275.0,203.5,266.0,204.0,258.0,205.0,250.5,205.5,242.5,206.5,234.5,207.0,227.0,207.0,219.0,207.0,211.0,207.0,203.0,207.5,194.5,209.0,186.5,210.5,178.0,211.0,170.0,211.5,161.5,212.0,154.0,213.0,146.0,214.0,138.5,214.5,131.5,214.5,124.5,215.5,116.5,215.5,108.5,215.5,100.5,216.0,93.0,216.0,85.0,216.0,77.5,217.0,69.0,217.5,60.5,218.5,52.0,219.5,43.5,219.5,35.5,220.0,28.0,220.0,20.0,220.0,12.0,220.0,3.5,220.5" stroke="black" stroke-width="2" fill="none" />
<polyline points="4.0,214.0,12.0,213.5,19.5,213.5,27.5,213.0,35.5,213.0,44.0,212.5,52.5,212.0,61.0,211.5,69.0,210.5,77.0,210.0,84.5,209.5,93.0,209.0,100.5,208.0,108.0,207.5,115.0,206.5,122.5,206.0,131.0,205.5,139.5,205.5,148.0,205.0,156.0,204.5,163.5,204.0,172.0,203.0,180.0,202.0,187.5,201.5,195.0,200.5,202.5,199.5,210.5,199.5,219.0,199.0,227.5,198.0,235.5,197.5,243.5,196.5,252.0,196.5,260.0,196.5,268.0,196.5,276.0,196.0,284.5,195.5,292.5,195.0,300.0,194.5,307.5,194.0,315.5,193.0,323.5,192.5,332.0,192.0,339.5,192.0,347.5,192.0,355.5,192.0,363.5,191.5,371.0,191.0,379.0,190.0" stroke="black" stroke-width="2" fill="none" />
<polyline points="379.0,182.5,371.0,182.5,363.5,182.5,355.5,183.0,347.0,183.5,339.0,183.5,331.0,184.0,323.0,184.5,315.0,184.5,307.0,185.0,299.5,185.5,292.0,186.5,283.5,187.0,275.5,188.0,267.5,188.5,259.5,190.0,251.0,191.0,243.0,191.5,235.0,192.0,227.5,192.5,219.0,192.5,210.5,192.5,202.5,193.0,195.0,193.5,187.0,194.0,179.5,194.5,172.0,195.5,164.5,195.5,156.0,196.0,148.0,196.5,139.5,196.5,132.0,197.0,124.0,197.0,116.0,197.5,108.0,198.5,100.5,199.5,92.0,200.5,84.0,201.0,76.0,201.5,68.5,202.0,60.5,202.0,53.0,202.0,44.5,203.0,36.5,203.0,29.0,204.0,21.0,204.0,13.5,204.5,5.5,204.5" stroke="black" stroke-width="2" fill="none" />
<polyline points="5.0,208.5,5.0,216.5,5.5,224.5,5.5,233.0,5.5,241.0,5.5,249.5,5.0,257.5,5.0,265.5,4.5,274.0,4.5,282.5,4.0,290.5,4.0,298.5,4.5,306.0,4.5,314.0,4.5,321.5,4.5,329.5,4.5,337.0,4.5,344.5,4.5,352.5,5.0,361.0,4.5,369.0,4.5,377.5,4.5,385.5,4.5,393.5,4.5,401.5,4.5,410.0,5.5,418.0,6.0,426.5,6.0,434.5,6.5,442.5,6.0,450.5,6.0,458.5,5.5,466.5,5.5,474.0,5.5,482.0,5.0,489.5,5.0,497.5,5.0,505.0,6.0,511.0,13.5,512.0,21.5,512.0,29.5,511.5,37.5,511.5,46.0,512.0,54.0,512.0,62.0,512.0,70.0,512.0,78.0,512.0,86.0,512.0,94.0,512.0,102.5,512.0,110.0,512.0,118.0,512.0,126.0,511.5,134.5,512.0,142.5,512.0,150.5,512.0,158.0,512.0,166.0,512.5,173.5,513.0,181.5,513.0,189.5,513.0,197.5,512.5,206.0,512.0,214.0,511.5,222.5,512.0,230.5,511.5,239.0,511.5,247.0,512.0,255.5,512.0,263.5,512.0,271.5,512.0,279.0,511.5,287.0,511.5,294.5,511.5,302.0,511.5,310.0,511.5,318.0,511.5,326.0,512.0,333.5,512.0,341.0,512.5,349.5,512.0,357.5,512.0,365.5,511.5,374.0,511.0,382.0,511.0,390.0,511.0,398.0,511.5,405.5,511.5,413.5,512.0,421.5,512.0,429.5,511.5,437.5,512.0,445.0,512.0,453.0,512.0,461.0,512.0,469.0,512.0,477.5,512.5,485.5,512.5,493.5,512.0,501.5,512.0,509.5,511.0" stroke="black" stroke-width="2" fill="none" />
<polyline points="379.5,173.5,371.5,174.0,364.0,175.0,355.5,175.0,347.0,175.5,339.5,176.0,331.5,176.5,324.0,177.5,316.0,178.0,307.5,178.0,299.0,178.5,290.5,179.5,282.5,180.5,274.5,181.0,266.5,182.0,258.5,182.5,250.0,183.5,241.5,184.0,233.5,185.0,225.5,185.5,218.0,186.0,211.0,186.5,203.0,187.0,196.0,187.5,188.5,188.0,180.5,188.5,172.0,188.5,163.5,189.0,156.0,189.0,148.5,189.5,140.5,190.0,133.0,190.5,125.0,190.5,117.5,190.5,109.0,190.5,100.5,190.5,92.5,191.0,84.5,191.5,76.5,192.5,69.0,193.0,61.0,193.5,52.5,194.0,44.5,195.0,37.5,195.0,30.0,195.0,22.0,195.5,14.5,196.0,6.5,196.5" stroke="black" stroke-width="2" fill="none" />
<polyline points="4.5,189.0,12.5,189.0,21.0,188.5,29.0,187.5,37.5,186.5,45.5,185.5,53.5,185.0,61.0,185.5,68.5,185.5,76.0,184.5,84.5,184.0,92.0,183.5,100.0,183.5,108.0,183.5,116.0,182.5,123.5,182.0,131.5,181.5,139.0,181.0,147.5,180.0,156.0,179.5,164.5,179.5,172.0,178.5,180.0,178.5,187.5,178.0,195.0,178.0,202.5,178.0,210.5,177.5,218.5,177.5,226.5,177.5,235.0,177.5,243.0,177.5,251.5,176.5,259.5,175.0,267.0,174.0,275.0,173.5,283.0,173.0,291.0,172.5,299.0,172.0,307.5,171.5,315.5,171.0,323.5,171.0,331.5,170.0,339.5,169.0,347.5,168.0,355.5,167.0,364.0,166.5,372.0,166.0,379.5,165.0" stroke="black" stroke-width="2" fill="none" />
<polyline points="380.5,157.0,373.0,157.0,365.0,158.0,357.0,159.0,349.0,160.5,340.5,161.5,331.5,162.5,323.0,163.5,315.5,164.0,308.5,164.0,301.0,164.0,293.0,164.5,285.0,165.0,277.0,165.5,268.5,166.0,260.5,166.5,252.5,167.5,244.5,168.0,236.0,168.5,227.5,169.5,219.0,170.0,211.5,169.5,203.5,169.0,195.0,169.5,187.0,169.5,179.0,169.5,171.5,169.5,163.5,170.0,155.5,170.5,147.5,171.0,139.5,171.5,131.0,172.0,123.0,173.0,115.5,173.5,108.0,174.0,100.0,174.5,92.0,174.5,84.0,174.5,76.0,175.0,68.0,175.5,60.0,176.0,52.5,177.5,44.5,178.5,36.5,180.0,28.5,180.5,21.0,181.5,13.5,182.0,6.5,182.5" stroke="black" stroke-width="2" fill="none" />
<polyline points="5.5,175.5,13.0,175.0,20.0,174.5,27.5,173.5,35.5,172.5,43.0,171.5,51.0,170.5,59.5,169.5,67.5,168.5,75.0,167.5,83.0,167.0,91.0,166.5,98.5,166.5,106.5,166.5,115.0,165.5,122.5,164.5,130.5,164.0,138.0,164.0,146.0,163.5,154.0,163.0,162.0,162.5,170.0,162.0,177.5,161.5,186.0,161.5,194.5,161.5,203.0,161.5,211.0,161.5,219.0,161.0,227.5,161.0,235.5,160.5,243.5,160.0,251.5,159.5,259.5,159.0,268.0,158.0,276.5,157.0,284.5,156.5,292.5,155.5,300.0,155.0,307.5,154.0,315.5,153.5,323.0,153.0,331.5,152.5,339.5,152.0,347.5,151.5,355.0,150.5,363.0,149.5,371.5,149.0,379.5,149.0,387.5,148.5" stroke="black" stroke-width="2" fill="none" />
<polyline points="387.5,142.0,379.5,143.0,372.0,143.5,364.0,143.0,356.0,143.0,348.0,143.0,340.0,142.5,332.0,142.5,324.0,142.5,315.5,143.0,307.5,144.0,299.5,145.0,292.0,146.0,284.5,147.0,276.5,147.5,268.0,148.5,260.0,149.5,252.5,149.5,245.0,150.0,236.5,151.0,228.0,152.0,220.0,153.0,212.5,153.0,204.5,153.5,195.5,154.0,187.0,154.0,178.5,154.5,170.5,155.0,162.5,155.0,154.5,155.0,146.5,155.5,138.5,156.0,130.0,156.5,122.0,157.5,114.0,158.0,106.0,159.0,98.5,160.0,91.0,161.0,83.0,161.5,75.0,162.0,66.5,163.0,58.5,163.0,50.5,163.5,43.0,164.0,35.0,165.0,27.5,166.0,20.0,166.5,13.0,167.0,5.0,167.5" stroke="black" stroke-width="2" fill="none" />
<polyline points="3.5,159.0,11.5,158.0,19.5,157.5,28.0,156.5,36.0,156.0,44.0,155.5,51.0,155.0,59.0,154.5,66.5,154.0,74.5,153.5,82.5,153.0,91.0,152.5,98.5,152.0,106.5,152.0" stroke="black" stroke-width="2" fill="none" />
<polyline points="92.0,146.0,84.0,146.5,76.0,147.0,68.0,147.0,60.0,147.0,51.5,147.0,44.0,147.0,36.0,147.5,28.5,148.0,20.5,149.0,12.0,150.0,3.5,150.5" stroke="black" stroke-width="2" fill="none" />
<polyline points="4.0,141.0,12.5,141.0,21.0,140.5,29.0,140.5,37.0,141.0,45.0,141.0,52.5,140.0,60.5,139.5,68.5,138.5,76.5,137.5,84.5,137.0" stroke="black" stroke-width="2" fill="none" />
<polyline points="75.5,131.5,67.5,131.5,60.0,132.0,52.5,132.0,45.0,132.0,37.5,132.5,30.0,132.5,22.5,132.5,14.5,132.5,6.5,133.0" stroke="black" stroke-width="2" fill="none" />
<polyline points="3.0,125.0,11.0,124.5,18.5,124.5,26.5,124.0,34.5,124.0,42.5,123.5,51.0,123.0,59.5,122.0,67.5,121.5,75.5,121.5" stroke="black" stroke-width="2" fill="none" />
<polyline points="69.0,113.0,60.0,114.0,51.0,114.5,42.0,115.0,34.0,115.5,26.0,116.0,17.5,116.5,9.0,117.5,1.0,118.0" stroke="black" stroke-width="2" fill="none" />
<polyline points="2.0,110.5,10.5,110.0,19.0,109.5,27.5,109.0,35.5,108.0,43.5,107.5,52.0,107.0,60.0,105.5" stroke="black" stroke-width="2" fill="none" />
<polyline points="51.0,100.0,43.0,101.0,34.5,101.5,26.5,102.0,18.0,102.0,9.5,102.5,1.5,103.0" stroke="black" stroke-width="2" fill="none" />
<polyline points="2.5,94.0,10.5,94.0,18.5,93.5,26.0,93.0,33.5,92.0,41.5,92.0,50.0,91.5" stroke="black" stroke-width="2" fill="none" />
<polyline points="42.5,83.5,34.5,84.0,27.0,84.5,19.0,85.0,11.5,85.5,3.5,85.5" stroke="black" stroke-width="2" fill="none" />
<polyline points="3.5,77.5,11.0,77.0,19.0,76.0,27.0,75.5,35.5,75.0,43.5,75.0" stroke="black" stroke-width="2" fill="none" />
<polyline points="36.0,67.5,28.0,67.5,20.0,68.0,11.5,68.5,3.5,69.0" stroke="black" stroke-width="2" fill="none" />
<polyline points="3.5,62.0,11.0,61.0,19.0,60.5,26.5,59.5,34.5,59.0" stroke="black" stroke-width="2" fill="none" />
<polyline points="27.0,51.5,19.0,52.0,11.0,52.5,3.0,53.5" stroke="black" stroke-width="2" fill="none" />
<polyline points="3.0,44.0,11.5,43.5,19.0,43.0,27.0,42.5" stroke="black" stroke-width="2" fill="none" />
<polyline points="11.5,35.5,3.5,35.5" stroke="black" stroke-width="2" fill="none" />
<polyline points="3.5,28.0,11.5,27.5" stroke="black" stroke-width="2" fill="none" />
<polyline points="19.0,19.0,10.5,19.5,2.5,20.0" stroke="black" stroke-width="2" fill="none" />
<polyline points="2.5,11.0,10.5,11.0" stroke="black" stroke-width="2" fill="none" />
<polyline points="5.0,6.0,13.0,5.5,21.0,5.5,29.5,5.5,37.5,5.5,45.5,5.5,53.0,5.5,60.5,5.5,68.5,5.5,76.5,5.5,84.5,5.5,92.5,5.5,100.5,5.5,108.5,5.5,116.5,6.0,124.5,6.0,132.5,5.5,140.5,5.5,148.5,5.5,156.5,5.0,164.0,5.5,172.5,5.0,181.0,4.5,189.5,4.5,198.0,4.5,206.0,5.0,214.0,5.0,222.0,4.5,230.0,4.5,238.0,5.0,246.5,5.0,254.0,5.5,262.0,5.5,270.0,5.0,277.5,5.0,285.0,4.5,293.5,4.5,301.0,4.5,309.0,4.5,316.5,4.0,324.5,3.5,332.5,4.0,340.5,4.0,348.5,4.5,356.5,4.5,364.5,5.0,373.0,5.0,381.0,5.0,389.0,5.0,397.0,5.0,405.0,5.0,413.0,5.0,421.5,5.0,429.5,5.0,437.5,4.5,445.5,4.5,453.5,4.5,461.0,4.5,469.0,4.5,477.0,4.0,485.0,4.5,493.0,4.5,500.5,4.0,508.5,4.0" stroke="black" stroke-width="2" fill="none" />
<polyline points="132.5,117.5,124.0,135.5" stroke="black" stroke-width="2" fill="none" />
<polyline points="27.5,5.0,20.0,6.0" stroke="black" stroke-width="2" fill="none" />
<polyline points="10.5,3.5,2.5,4.5" stroke="black" stroke-width="2" fill="none" />
</svg>