<svg xmlns="http://www.w3.org/2000/svg" version="1.1"><polyline points="215.5,83.5,194.5,92.0,181.0,100.0,170.5,108.5,161.0,116.5,153.0,125.0,146.0,133.0,140.5,141.5,134.5,149.5,129.5,157.5,125.5,165.5,122.5,173.5,119.5,181.0,117.5,189.0,115.0,197.0,113.0,205.5,112.0,213.0,111.0,221.0,111.0,228.5,111.0,237.0,112.0,245.0,113.0,253.0,114.0,261.5,116.0,269.5,119.0,277.5,122.5,285.5,125.5,293.0,130.0,300.5,135.0,308.0,141.0,315.5,147.0,323.0,155.0,331.5,163.0,339.5,173.0,348.0,185.5,356.0,200.5,364.0" stroke="black" stroke-width="2" fill="none" />
<polyline points="202.5,363.0,210.0,355.0,218.0,347.0" stroke="black" stroke-width="2" fill="none" />
<polyline points="210.0,347.5,202.0,355.5" stroke="black" stroke-width="2" fill="none" />
<polyline points="196.5,356.0,204.5,355.0,212.5,354.0,220.5,353.0,228.5,351.5,236.0,350.5" stroke="black" stroke-width="2" fill="none" />
<polyline points="233.0,348.0,225.5,355.5,218.0,363.0" stroke="black" stroke-width="2" fill="none" />
<polyline points="217.5,366.0,226.0,365.5,234.0,365.0,242.5,364.5,250.0,363.5,258.0,362.5,266.5,362.0,275.5,361.5,283.5,360.5,291.0,360.0,299.0,359.0" stroke="black" stroke-width="2" fill="none" />
<polyline points="298.5,362.5,306.5,355.5,315.0,348.0,323.0,340.5,331.5,333.5" stroke="black" stroke-width="2" fill="none" />
<polyline points="330.5,337.0,339.0,336.0,347.0,335.5,355.5,334.5" stroke="black" stroke-width="2" fill="none" />
<polyline points="349.5,322.0,357.0,321.5,365.0,321.0,373.0,320.5" stroke="black" stroke-width="2" fill="none" />
<polyline points="381.5,312.0,373.5,312.5,365.5,313.0,358.0,314.0" stroke="black" stroke-width="2" fill="none" />
<polyline points="357.0,311.0,365.0,310.0,373.0,309.5,380.5,308.5" stroke="black" stroke-width="2" fill="none" />
<polyline points="388.5,299.0,380.0,306.5,372.0,314.0,364.0,321.5,356.0,330.0,348.0,337.5,339.5,345.5" stroke="black" stroke-width="2" fill="none" />
<polyline points="338.5,329.0,346.5,329.0,355.0,328.5,363.0,327.5" stroke="black" stroke-width="2" fill="none" />
<polyline points="348.0,318.5,356.5,318.0,364.5,317.0,372.5,316.5,380.0,316.0" stroke="black" stroke-width="2" fill="none" />
<polyline points="389.0,302.5,380.5,303.0,372.5,303.5,364.5,304.0" stroke="black" stroke-width="2" fill="none" />
<polyline points="362.0,301.0,370.5,300.5,379.0,300.5,387.5,300.0" stroke="black" stroke-width="2" fill="none" />
<polyline points="381.0,286.5,389.0,286.5,397.0,286.5" stroke="black" stroke-width="2" fill="none" />
<polyline points="397.5,284.5,389.5,292.0,381.5,300.0,373.5,307.0,365.0,315.0,357.0,322.5,349.0,330.0,341.0,338.0,333.0,345.5,325.0,353.5" stroke="black" stroke-width="2" fill="none" />
<polyline points="315.0,347.0,323.0,346.0,330.5,345.5,338.5,344.5,347.0,344.0" stroke="black" stroke-width="2" fill="none" />
<polyline points="364.5,330.0,356.5,331.0,348.0,331.5,340.0,331.5,332.5,332.5,324.5,332.5" stroke="black" stroke-width="2" fill="none" />
<polyline points="315.5,337.5,307.5,345.5,299.5,353.5,291.0,361.5,282.5,369.5" stroke="black" stroke-width="2" fill="none" />
<polyline points="274.5,370.5,282.5,363.0,290.5,356.0,298.5,349.0" stroke="black" stroke-width="2" fill="none" />
<polyline points="291.5,348.0,283.0,355.5,275.5,362.5,267.5,370.0" stroke="black" stroke-width="2" fill="none" />
<polyline points="257.5,369.5,265.5,362.5,273.0,355.0" stroke="black" stroke-width="2" fill="none" />
<polyline points="265.0,355.5,257.5,362.5,250.0,370.0" stroke="black" stroke-width="2" fill="none" />
<polyline points="242.0,369.5,250.0,362.5,258.0,355.0" stroke="black" stroke-width="2" fill="none" />
<polyline points="251.5,355.5,243.0,363.0,235.0,371.0" stroke="black" stroke-width="2" fill="none" />
<polyline points="229.5,370.0,237.5,363.0,245.5,356.0" stroke="black" stroke-width="2" fill="none" />
<polyline points="244.0,346.5,236.5,354.5,228.5,362.0" stroke="black" stroke-width="2" fill="none" />
<polyline points="227.5,349.0,219.5,356.5,211.5,364.0" stroke="black" stroke-width="2" fill="none" />
<polyline points="211.0,360.0,219.0,359.5,227.0,359.0,235.0,358.5,243.5,358.5,251.5,358.5,259.5,358.5,267.5,359.0,275.5,359.0,284.0,359.0,292.5,358.5,300.0,358.0,308.0,357.5,316.0,356.0" stroke="black" stroke-width="2" fill="none" />
<polyline points="308.5,357.0,316.0,349.0,324.0,341.5,332.0,334.0,340.0,326.5,347.5,319.5,355.0,312.5,363.0,305.5,371.0,298.0,379.0,290.5,386.5,282.5,394.5,274.5,403.0,267.0" stroke="black" stroke-width="2" fill="none" />
<polyline points="405.5,260.0,397.5,267.0,388.5,274.0,380.0,281.5,371.5,289.0" stroke="black" stroke-width="2" fill="none" />
<polyline points="371.5,284.5,379.5,284.0,388.0,283.5,396.0,283.0" stroke="black" stroke-width="2" fill="none" />
<polyline points="389.0,273.0,397.0,272.5,405.5,272.5" stroke="black" stroke-width="2" fill="none" />
<polyline points="405.0,263.5,397.0,264.5,388.5,265.5" stroke="black" stroke-width="2" fill="none" />
<polyline points="388.0,259.0,396.5,251.5,405.0,243.5,413.0,235.5" stroke="black" stroke-width="2" fill="none" />
<polyline points="412.5,227.0,404.5,234.5,397.0,241.5,389.0,249.0" stroke="black" stroke-width="2" fill="none" />
<polyline points="388.0,250.0,396.0,250.0,404.0,249.0" stroke="black" stroke-width="2" fill="none" />
<polyline points="405.5,252.0,397.5,259.0,389.0,266.5,380.5,273.5" stroke="black" stroke-width="2" fill="none" />
<polyline points="379.5,276.0,387.5,276.0,395.5,276.5,403.5,276.5" stroke="black" stroke-width="2" fill="none" />
<polyline points="404.0,256.5,396.0,257.0,388.5,257.5" stroke="black" stroke-width="2" fill="none" />
<polyline points="388.0,253.0,396.0,252.5,403.5,252.0,411.5,251.5" stroke="black" stroke-width="2" fill="none" />
<polyline points="402.0,241.0,394.0,241.5" stroke="black" stroke-width="2" fill="none" />
<polyline points="389.0,242.0,397.0,234.0,405.5,226.0,413.5,218.5" stroke="black" stroke-width="2" fill="none" />
<polyline points="413.5,210.5,405.5,218.5,397.0,226.5,389.0,234.0" stroke="black" stroke-width="2" fill="none" />
<polyline points="388.0,238.5,396.0,237.5,403.5,236.5,412.0,236.5" stroke="black" stroke-width="2" fill="none" />
<polyline points="401.5,233.5,394.0,234.0" stroke="black" stroke-width="2" fill="none" />
<polyline points="388.0,229.0,395.5,228.5,403.5,228.0,411.0,227.5" stroke="black" stroke-width="2" fill="none" />
<polyline points="403.5,225.0,395.5,225.5" stroke="black" stroke-width="2" fill="none" />
<polyline points="389.0,226.5,397.0,219.5,405.0,212.5,413.5,205.5" stroke="black" stroke-width="2" fill="none" />
<polyline points="404.0,204.0,396.0,211.5,387.5,219.0" stroke="black" stroke-width="2" fill="none" />
<polyline points="387.5,222.0,395.5,221.5,404.0,221.0,412.0,220.5" stroke="black" stroke-width="2" fill="none" />
<polyline points="404.0,216.5,396.0,217.5" stroke="black" stroke-width="2" fill="none" />
<polyline points="389.5,214.5,397.5,214.0,405.0,213.5,413.0,213.0" stroke="black" stroke-width="2" fill="none" />
<polyline points="404.0,197.0,396.0,204.5,388.0,212.5" stroke="black" stroke-width="2" fill="none" />
<polyline points="388.5,211.5,396.5,211.0,404.5,210.0" stroke="black" stroke-width="2" fill="none" />
<polyline points="411.0,205.0,403.5,206.0,395.5,207.0,388.5,207.5" stroke="black" stroke-width="2" fill="none" />
<polyline points="387.5,203.5,395.5,196.0,403.5,188.5" stroke="black" stroke-width="2" fill="none" />
<polyline points="401.0,179.5,393.5,187.0,386.0,194.0" stroke="black" stroke-width="2" fill="none" />
<polyline points="387.5,194.5,395.0,194.5,403.0,194.5,411.0,195.0" stroke="black" stroke-width="2" fill="none" />
<polyline points="403.5,173.0,396.0,180.0,388.0,187.5" stroke="black" stroke-width="2" fill="none" />
<polyline points="387.0,192.0,395.5,191.5,404.0,191.0" stroke="black" stroke-width="2" fill="none" />
<polyline points="404.0,200.5,396.0,201.0,387.5,201.5" stroke="black" stroke-width="2" fill="none" />
<polyline points="380.5,187.5,388.0,179.0,396.0,171.5" stroke="black" stroke-width="2" fill="none" />
<polyline points="396.0,164.0,388.5,171.0,381.0,179.0" stroke="black" stroke-width="2" fill="none" />
<polyline points="382.0,179.5,390.5,178.5,398.0,178.5" stroke="black" stroke-width="2" fill="none" />
<polyline points="390.5,183.5,398.5,183.0,406.0,183.0" stroke="black" stroke-width="2" fill="none" />
<polyline points="402.0,187.0,394.0,187.0,386.0,187.5,377.5,188.0" stroke="black" stroke-width="2" fill="none" />
<polyline points="379.5,182.0,387.5,181.5,395.5,181.0,403.5,180.5" stroke="black" stroke-width="2" fill="none" />
<polyline points="403.5,173.0,396.0,173.0,388.5,173.0,381.0,174.0" stroke="black" stroke-width="2" fill="none" />
<polyline points="381.0,171.0,389.0,170.5,397.0,169.0" stroke="black" stroke-width="2" fill="none" />
<polyline points="396.0,155.0,388.0,163.0,380.5,170.5" stroke="black" stroke-width="2" fill="none" />
<polyline points="380.5,163.5,388.0,156.0" stroke="black" stroke-width="2" fill="none" />
<polyline points="388.0,149.5,380.5,157.0,372.5,163.5" stroke="black" stroke-width="2" fill="none" />
<polyline points="373.0,165.0,380.0,165.0,387.5,164.0,395.5,163.5" stroke="black" stroke-width="2" fill="none" />
<polyline points="379.0,148.5,371.0,156.0" stroke="black" stroke-width="2" fill="none" />
<polyline points="372.0,158.0,380.0,157.5,388.0,157.0,395.5,156.5" stroke="black" stroke-width="2" fill="none" />
<polyline points="387.5,160.5,380.0,160.5,373.0,161.0" stroke="black" stroke-width="2" fill="none" />
<polyline points="374.0,153.0,382.5,152.0,390.0,151.5" stroke="black" stroke-width="2" fill="none" />
<polyline points="378.5,142.0,370.5,149.0,362.5,155.5" stroke="black" stroke-width="2" fill="none" />
<polyline points="364.0,148.0,372.0,148.0,380.0,147.5,387.5,147.0" stroke="black" stroke-width="2" fill="none" />
<polyline points="378.5,131.5,370.5,139.0,363.0,146.0" stroke="black" stroke-width="2" fill="none" />
<polyline points="363.5,145.5,372.0,145.0,380.5,144.5" stroke="black" stroke-width="2" fill="none" />
<polyline points="370.0,130.0,362.0,137.5,354.5,145.5" stroke="black" stroke-width="2" fill="none" />
<polyline points="357.5,142.0,365.5,141.5,373.0,141.0,381.0,140.0,389.5,139.5" stroke="black" stroke-width="2" fill="none" />
<polyline points="371.0,123.5,363.0,131.0,355.0,138.0" stroke="black" stroke-width="2" fill="none" />
<polyline points="356.0,136.5,364.5,136.0,372.5,135.5" stroke="black" stroke-width="2" fill="none" />
<polyline points="362.5,124.5,354.5,132.5" stroke="black" stroke-width="2" fill="none" />
<polyline points="347.5,131.5,355.5,123.5,363.0,116.0" stroke="black" stroke-width="2" fill="none" />
<polyline points="356.5,115.5,348.5,123.5,340.5,131.0" stroke="black" stroke-width="2" fill="none" />
<polyline points="338.5,125.0,346.5,124.5,354.0,124.5,362.0,124.5,370.5,124.0" stroke="black" stroke-width="2" fill="none" />
<polyline points="357.0,106.0,349.5,113.5,341.0,121.5" stroke="black" stroke-width="2" fill="none" />
<polyline points="340.5,121.0,348.5,121.0,356.5,121.0" stroke="black" stroke-width="2" fill="none" />
<polyline points="362.5,128.0,354.5,128.5,346.5,129.0" stroke="black" stroke-width="2" fill="none" />
<polyline points="347.0,133.5,355.0,133.0,363.0,133.0,371.0,133.0,378.5,133.0" stroke="black" stroke-width="2" fill="none" />
<polyline points="347.5,104.5,339.5,112.0,331.5,120.5" stroke="black" stroke-width="2" fill="none" />
<polyline points="331.0,114.0,339.0,106.5" stroke="black" stroke-width="2" fill="none" />
<polyline points="339.0,102.5,331.0,109.5,323.0,116.5" stroke="black" stroke-width="2" fill="none" />
<polyline points="323.5,115.5,331.0,114.5,339.0,114.0,346.5,113.5" stroke="black" stroke-width="2" fill="none" />
<polyline points="333.0,100.5,325.0,107.5,316.5,115.0" stroke="black" stroke-width="2" fill="none" />
<polyline points="316.0,108.5,324.5,108.0,332.5,107.5,340.5,107.5,348.5,107.5,357.0,107.5" stroke="black" stroke-width="2" fill="none" />
<polyline points="363.5,115.5,356.0,116.0,348.0,117.0,340.0,118.5,332.0,119.0,324.5,119.5" stroke="black" stroke-width="2" fill="none" />
<polyline points="314.0,108.5,322.0,101.0" stroke="black" stroke-width="2" fill="none" />
<polyline points="322.5,92.0,314.5,99.5,306.5,107.0" stroke="black" stroke-width="2" fill="none" />
<polyline points="306.5,104.5,314.5,104.0,322.5,103.5,331.0,103.0,340.0,102.0" stroke="black" stroke-width="2" fill="none" />
<polyline points="314.5,91.5,307.0,99.0,299.5,107.0" stroke="black" stroke-width="2" fill="none" />
<polyline points="296.5,105.0,316.5,113.5,330.0,122.0,340.0,130.0,349.0,138.0,357.0,146.0,363.0,154.5,368.0,162.5,373.0,170.5,377.0,179.0,379.5,186.5,381.5,194.5,383.5,202.5,384.5,210.5,385.5,219.0,385.5,226.5,386.0,234.5,385.0,242.5,384.0,250.0,383.5,258.5,380.5,266.5,378.5,274.5,374.5,282.0,370.0,290.0,364.0,298.0,358.0,306.0,351.0,314.0,343.0,321.5,333.5,329.5,321.5,337.0,304.5,345.5" stroke="black" stroke-width="2" fill="none" />
<polyline points="308.0,340.5,316.0,340.5,323.5,340.0,331.0,339.5,339.0,338.5,347.0,338.5" stroke="black" stroke-width="2" fill="none" />
<polyline points="331.0,324.0,338.5,323.5,346.5,323.0,354.5,322.5,362.0,321.5,370.0,320.5" stroke="black" stroke-width="2" fill="none" />
<polyline points="372.0,297.5,380.5,296.5,388.5,296.0" stroke="black" stroke-width="2" fill="none" />
<polyline points="396.0,279.5,388.0,279.5,380.0,279.5" stroke="black" stroke-width="2" fill="none" />
<polyline points="378.0,269.0,386.0,269.0,394.5,268.5,403.0,268.0" stroke="black" stroke-width="2" fill="none" />
<polyline points="412.5,245.5,403.5,246.0,395.0,246.5,386.5,247.0" stroke="black" stroke-width="2" fill="none" />
<polyline points="377.5,261.5,386.0,261.0,394.5,260.5,403.0,260.0" stroke="black" stroke-width="2" fill="none" />
<polyline points="397.0,290.5,388.5,291.0,380.0,291.5,372.5,292.0,364.5,292.0" stroke="black" stroke-width="2" fill="none" />
<polyline points="324.0,277.0,316.5,284.0,308.0,291.0,300.0,297.5,292.0,305.0" stroke="black" stroke-width="2" fill="none" />
<polyline points="293.0,296.0,301.0,296.0,309.0,295.5" stroke="black" stroke-width="2" fill="none" />
<polyline points="307.5,299.0,315.5,291.0" stroke="black" stroke-width="2" fill="none" />
<polyline points="307.5,281.5,315.5,281.0,324.0,280.5" stroke="black" stroke-width="2" fill="none" />
<polyline points="322.5,273.5,314.5,274.0" stroke="black" stroke-width="2" fill="none" />
<polyline points="317.0,268.5,329.0,276.5,324.0,284.0,319.0,292.0,311.0,300.0,302.0,308.0,287.0,316.0" stroke="black" stroke-width="2" fill="none" />
<polyline points="275.5,312.0,283.5,305.0,291.5,297.5,299.0,290.0,307.0,282.5,315.0,274.5,323.0,267.0" stroke="black" stroke-width="2" fill="none" />
<polyline points="332.0,269.0,324.0,270.5,315.5,271.5,308.0,272.5" stroke="black" stroke-width="2" fill="none" />
<polyline points="307.5,278.0,315.5,277.5,324.5,277.0,332.5,277.0" stroke="black" stroke-width="2" fill="none" />
<polyline points="316.0,289.0,308.0,289.5,300.0,290.0" stroke="black" stroke-width="2" fill="none" />
<polyline points="292.0,292.5,284.0,300.0,276.0,308.0,267.5,316.0" stroke="black" stroke-width="2" fill="none" />
<polyline points="258.5,313.5,266.0,306.0,274.0,298.5" stroke="black" stroke-width="2" fill="none" />
<polyline points="276.0,294.0,283.5,293.0,291.5,292.5,299.5,292.0,307.5,292.0,315.0,291.5" stroke="black" stroke-width="2" fill="none" />
<polyline points="325.0,284.0,317.0,284.0,308.5,284.5,300.5,285.0,293.0,285.0" stroke="black" stroke-width="2" fill="none" />
<polyline points="290.5,305.0,283.0,306.0,275.0,307.5,267.5,308.0,259.5,308.0,251.0,307.5,243.0,307.5,235.5,308.5,227.5,309.0" stroke="black" stroke-width="2" fill="none" />
<polyline points="227.5,306.5,235.5,298.5,243.5,291.0" stroke="black" stroke-width="2" fill="none" />
<polyline points="243.0,299.0,235.5,306.5" stroke="black" stroke-width="2" fill="none" />
<polyline points="227.5,303.5,235.5,302.5,243.0,302.0,251.0,302.0,259.0,302.5,267.0,302.0,275.5,302.0,283.5,302.0,292.0,301.0,300.5,300.5" stroke="black" stroke-width="2" fill="none" />
<polyline points="267.0,297.5,258.5,305.5,250.5,313.0" stroke="black" stroke-width="2" fill="none" />
<polyline points="242.0,313.5,250.0,312.5,257.5,312.0,265.5,311.5,273.5,311.0,281.5,311.0" stroke="black" stroke-width="2" fill="none" />
<polyline points="258.5,300.5,250.0,308.0,242.0,315.0" stroke="black" stroke-width="2" fill="none" />
<polyline points="237.5,315.5,245.5,308.0,253.5,301.0" stroke="black" stroke-width="2" fill="none" />
<polyline points="233.5,293.0,225.0,300.5,217.0,309.0" stroke="black" stroke-width="2" fill="none" />
<polyline points="219.0,301.0,227.0,300.5,235.0,299.5,242.5,299.0,250.5,298.5,258.5,298.5,267.0,298.0,275.0,298.0,283.5,297.0,292.0,296.5,300.5,295.5,308.5,295.5" stroke="black" stroke-width="2" fill="none" />
<polyline points="321.0,287.5,313.0,298.0,305.0,305.5,297.0,311.5,289.0,315.5,280.5,318.5,272.5,320.0,264.5,321.0,256.5,321.0,248.5,319.5,240.5,317.5,232.0,315.5,224.5,311.5,216.5,306.5,208.5,299.5,200.5,291.0,192.5,278.0" stroke="black" stroke-width="2" fill="none" />
<polyline points="191.5,277.5,199.5,270.5,207.0,268.0,214.5,280.0,222.5,288.5,230.5,293.5,238.5,297.5,247.0,299.5,255.0,300.5,263.0,301.5,271.0,300.5,279.0,298.0,287.0,294.0,295.0,288.5,303.0,281.0,310.5,269.5,319.0,270.0,327.0,275.5" stroke="black" stroke-width="2" fill="none" />
<polyline points="313.0,268.0,307.5,276.0,301.5,283.5,290.5,291.5" stroke="black" stroke-width="2" fill="none" />
<polyline points="292.0,353.0,300.5,353.0,308.5,352.5,316.0,352.5,323.5,352.0,332.0,351.0" stroke="black" stroke-width="2" fill="none" />
<polyline points="274.5,368.5,266.5,369.0,258.0,369.5,249.5,369.5,241.0,370.0" stroke="black" stroke-width="2" fill="none" />
<polyline points="209.5,341.0,201.5,348.0,193.0,355.0" stroke="black" stroke-width="2" fill="none" />
<polyline points="195.5,359.0,203.5,358.5,212.0,358.0,220.0,357.0,228.0,356.5,236.0,355.5,243.5,355.0,251.0,354.5,259.0,353.5,266.5,352.5,274.5,352.5,282.5,352.0,291.5,351.5,299.5,350.5,307.5,349.5,315.5,349.0,323.5,348.5" stroke="black" stroke-width="2" fill="none" />
<polyline points="228.0,292.0,219.5,299.5" stroke="black" stroke-width="2" fill="none" />
<polyline points="211.5,298.0,219.0,296.5,227.0,296.0,235.5,295.5" stroke="black" stroke-width="2" fill="none" />
<polyline points="226.5,284.0,218.5,291.5,210.5,299.0" stroke="black" stroke-width="2" fill="none" />
<polyline points="211.5,296.0,219.5,295.0,227.5,294.0,236.0,293.0,244.0,292.0,252.0,292.0" stroke="black" stroke-width="2" fill="none" />
<polyline points="219.5,284.0,211.5,291.5" stroke="black" stroke-width="2" fill="none" />
<polyline points="204.5,289.5,212.5,288.5,220.5,288.0" stroke="black" stroke-width="2" fill="none" />
<polyline points="217.5,276.0,210.0,283.5,202.5,291.0" stroke="black" stroke-width="2" fill="none" />
<polyline points="205.0,285.5,213.0,285.0,220.5,284.0,228.5,283.0" stroke="black" stroke-width="2" fill="none" />
<polyline points="210.5,275.5,202.5,283.0" stroke="black" stroke-width="2" fill="none" />
<polyline points="205.5,282.0,213.0,282.0" stroke="black" stroke-width="2" fill="none" />
<polyline points="211.0,273.5,202.5,273.5" stroke="black" stroke-width="2" fill="none" />
<polyline points="203.0,268.5,191.0,276.0,194.0,284.0,198.5,291.5,205.5,299.5,214.5,307.0,228.5,315.0" stroke="black" stroke-width="2" fill="none" />
<polyline points="202.0,339.0,194.0,346.5,186.0,354.0" stroke="black" stroke-width="2" fill="none" />
<polyline points="187.0,349.0,195.0,348.0,202.5,347.5,211.0,346.5,219.0,346.5,227.0,346.0,235.5,345.0,243.0,344.5,250.5,344.0,258.5,343.5,266.5,343.5,274.5,343.0,282.5,342.5,291.0,342.0,300.0,341.0,308.5,340.5,316.0,340.0,324.0,339.5,332.0,339.5,340.5,339.0" stroke="black" stroke-width="2" fill="none" />
<polyline points="321.0,212.5,329.0,205.0" stroke="black" stroke-width="2" fill="none" />
<polyline points="332.0,196.0,323.5,203.5,315.5,211.0" stroke="black" stroke-width="2" fill="none" />
<polyline points="307.5,209.5,315.5,201.0,323.5,193.5,331.5,186.0" stroke="black" stroke-width="2" fill="none" />
<polyline points="332.0,180.5,324.0,188.0,316.0,194.5,308.0,201.5" stroke="black" stroke-width="2" fill="none" />
<polyline points="308.5,201.5,316.0,201.0,324.0,199.5,331.5,198.5" stroke="black" stroke-width="2" fill="none" />
<polyline points="331.5,207.5,323.5,208.5,314.5,209.0,306.5,209.5" stroke="black" stroke-width="2" fill="none" />
<polyline points="307.0,204.5,315.0,204.0,323.0,203.0,331.5,202.5" stroke="black" stroke-width="2" fill="none" />
<polyline points="333.0,190.5,325.0,191.5,316.5,192.5,308.5,192.5" stroke="black" stroke-width="2" fill="none" />
<polyline points="301.5,195.5,309.5,188.0,317.0,180.5" stroke="black" stroke-width="2" fill="none" />
<polyline points="323.5,179.0,316.0,186.5,308.0,194.5,300.0,202.0" stroke="black" stroke-width="2" fill="none" />
<polyline points="298.5,203.0,306.5,213.0,314.5,215.5,322.5,214.5,331.0,208.5" stroke="black" stroke-width="2" fill="none" />
<polyline points="323.0,183.0,315.0,183.5,306.5,183.5" stroke="black" stroke-width="2" fill="none" />
<polyline points="305.5,179.0,313.5,179.0,322.0,179.0,330.0,178.5" stroke="black" stroke-width="2" fill="none" />
<polyline points="329.0,181.5,320.5,177.5,312.5,177.5,304.5,179.0,297.0,190.0" stroke="black" stroke-width="2" fill="none" />
<polyline points="300.0,188.0,308.0,187.5,316.0,187.5,324.0,187.5,332.0,187.5,340.5,187.0" stroke="black" stroke-width="2" fill="none" />
<polyline points="340.5,195.0,332.0,195.5,323.5,196.0,316.0,196.0,308.0,195.5,300.0,196.5" stroke="black" stroke-width="2" fill="none" />
<polyline points="302.5,210.0,297.5,201.5,297.5,193.0,299.5,185.5,311.0,177.5" stroke="black" stroke-width="2" fill="none" />
<polyline points="324.0,179.0,333.0,187.0,335.5,195.0,335.0,202.5,329.0,210.5" stroke="black" stroke-width="2" fill="none" />
<polyline points="219.5,203.5,211.5,211.5" stroke="black" stroke-width="2" fill="none" />
<polyline points="204.0,210.5,212.0,202.5,220.0,194.5" stroke="black" stroke-width="2" fill="none" />
<polyline points="218.5,188.0,210.5,195.5,203.0,203.0,195.5,210.5" stroke="black" stroke-width="2" fill="none" />
<polyline points="196.5,207.0,204.0,207.0,211.5,207.0" stroke="black" stroke-width="2" fill="none" />
<polyline points="194.5,203.0,202.5,195.5,210.5,188.0,219.0,181.0" stroke="black" stroke-width="2" fill="none" />
<polyline points="220.0,180.5,212.0,181.0,204.0,181.5,196.0,182.5,187.5,183.0" stroke="black" stroke-width="2" fill="none" />
<polyline points="184.5,188.5,192.5,179.5,200.5,177.5,208.5,177.5,216.5,182.5" stroke="black" stroke-width="2" fill="none" />
<polyline points="211.0,182.5,203.0,183.0,195.0,183.5" stroke="black" stroke-width="2" fill="none" />
<polyline points="196.5,177.5,186.5,185.5,183.0,194.0,184.0,202.0,188.0,209.5" stroke="black" stroke-width="2" fill="none" />
<polyline points="186.0,205.0,194.0,204.5,202.5,204.0,210.5,203.5,219.0,203.5" stroke="black" stroke-width="2" fill="none" />
<polyline points="219.5,199.5,211.5,200.0,204.0,200.5,196.0,201.5,188.0,202.0" stroke="black" stroke-width="2" fill="none" />
<polyline points="185.5,200.5,193.5,193.0,201.5,186.0,209.5,179.0" stroke="black" stroke-width="2" fill="none" />
<polyline points="211.5,178.5,220.0,186.5,223.5,194.5,222.0,203.0,216.0,211.0" stroke="black" stroke-width="2" fill="none" />
<polyline points="228.0,195.5,220.5,196.0,213.0,196.5,205.0,196.5,197.0,196.5,188.5,196.5" stroke="black" stroke-width="2" fill="none" />
<polyline points="188.5,195.5,196.5,194.5,204.5,193.0,212.5,192.0,221.0,191.5" stroke="black" stroke-width="2" fill="none" />
<polyline points="203.0,178.5,195.0,186.0,187.0,193.0" stroke="black" stroke-width="2" fill="none" />
<polyline points="187.5,191.0,195.5,191.0,203.5,190.5,211.5,190.0,219.5,190.0,228.0,189.0" stroke="black" stroke-width="2" fill="none" />
<polyline points="216.5,208.5,208.5,215.0,201.0,216.0,193.0,212.0,185.0,201.0" stroke="black" stroke-width="2" fill="none" />
<polyline points="141.0,197.0,133.0,204.5,124.5,212.0,115.5,219.5" stroke="black" stroke-width="2" fill="none" />
<polyline points="115.0,217.5,123.0,217.0,131.0,216.0" stroke="black" stroke-width="2" fill="none" />
<polyline points="130.5,219.0,123.0,226.5,115.5,233.5" stroke="black" stroke-width="2" fill="none" />
<polyline points="117.0,234.5,124.5,233.5,132.5,232.5" stroke="black" stroke-width="2" fill="none" />
<polyline points="131.0,235.0,122.5,243.0,114.0,250.5" stroke="black" stroke-width="2" fill="none" />
<polyline points="114.5,252.5,122.5,252.0,130.5,251.5,139.0,251.0" stroke="black" stroke-width="2" fill="none" />
<polyline points="141.0,252.0,133.0,260.0,124.5,267.5" stroke="black" stroke-width="2" fill="none" />
<polyline points="125.0,265.0,132.5,264.0,140.5,264.0" stroke="black" stroke-width="2" fill="none" />
<polyline points="141.0,261.0,133.0,268.5,124.5,276.0" stroke="black" stroke-width="2" fill="none" />
<polyline points="124.5,276.0,132.5,276.0,140.0,276.0,148.0,275.5" stroke="black" stroke-width="2" fill="none" />
<polyline points="147.5,276.0,139.5,283.5,131.5,291.5" stroke="black" stroke-width="2" fill="none" />
<polyline points="132.0,291.5,140.0,291.0,148.0,290.5" stroke="black" stroke-width="2" fill="none" />
<polyline points="148.0,293.0,140.0,300.5" stroke="black" stroke-width="2" fill="none" />
<polyline points="140.5,304.5,148.0,304.0,156.0,303.5" stroke="black" stroke-width="2" fill="none" />
<polyline points="156.5,300.5,148.5,307.5,141.0,314.5" stroke="black" stroke-width="2" fill="none" />
<polyline points="147.0,315.0,155.0,314.5,163.5,313.5" stroke="black" stroke-width="2" fill="none" />
<polyline points="164.5,315.5,156.5,323.5" stroke="black" stroke-width="2" fill="none" />
<polyline points="155.5,323.5,163.5,322.5,171.5,321.5" stroke="black" stroke-width="2" fill="none" />
<polyline points="174.0,315.5,166.0,323.0,157.0,331.0" stroke="black" stroke-width="2" fill="none" />
<polyline points="154.5,325.5,162.5,325.5,171.0,325.0,179.5,324.5,187.5,324.5" stroke="black" stroke-width="2" fill="none" />
<polyline points="188.5,324.0,180.5,331.5,172.0,339.5" stroke="black" stroke-width="2" fill="none" />
<polyline points="171.5,337.5,179.5,337.0,187.0,337.0,194.5,337.0" stroke="black" stroke-width="2" fill="none" />
<polyline points="194.5,339.0,186.5,346.5" stroke="black" stroke-width="2" fill="none" />
<polyline points="179.5,346.5,187.5,339.0,195.5,332.0" stroke="black" stroke-width="2" fill="none" />
<polyline points="188.5,332.0,180.5,339.5" stroke="black" stroke-width="2" fill="none" />
<polyline points="179.0,346.5,187.5,346.0,195.0,345.5,202.5,345.0,210.0,344.5" stroke="black" stroke-width="2" fill="none" />
<polyline points="179.0,324.0,171.5,332.0,164.0,339.5" stroke="black" stroke-width="2" fill="none" />
<polyline points="163.5,335.0,171.0,335.0,178.5,334.5,185.5,333.0,193.5,332.0,201.5,331.5" stroke="black" stroke-width="2" fill="none" />
<polyline points="179.5,316.5,171.5,323.5,164.0,330.5" stroke="black" stroke-width="2" fill="none" />
<polyline points="162.5,328.0,170.5,327.5,178.5,327.5" stroke="black" stroke-width="2" fill="none" />
<polyline points="172.0,342.0,180.0,342.0,187.5,341.5,195.0,341.0,202.5,341.0,210.0,340.5,218.0,339.0" stroke="black" stroke-width="2" fill="none" />
<polyline points="164.5,307.5,156.0,315.0,147.5,323.0" stroke="black" stroke-width="2" fill="none" />
<polyline points="148.0,317.5,155.5,317.0,164.0,316.5,172.0,316.0,180.0,315.5" stroke="black" stroke-width="2" fill="none" />
<polyline points="165.0,301.0,157.0,308.5,148.5,316.0" stroke="black" stroke-width="2" fill="none" />
<polyline points="139.5,308.5,147.5,308.0,156.0,308.0,164.5,308.0,173.5,307.0" stroke="black" stroke-width="2" fill="none" />
<polyline points="157.0,290.5,149.0,298.5,141.0,306.5" stroke="black" stroke-width="2" fill="none" />
<polyline points="132.5,302.5,140.0,301.5,147.0,300.5,154.5,299.5,162.5,298.0" stroke="black" stroke-width="2" fill="none" />
<polyline points="148.5,286.0,141.0,293.0,132.5,300.0" stroke="black" stroke-width="2" fill="none" />
<polyline points="130.5,300.0,138.5,299.0,146.0,298.5,154.5,297.0" stroke="black" stroke-width="2" fill="none" />
<polyline points="154.5,293.0,147.0,293.0,139.0,294.0,130.5,294.5" stroke="black" stroke-width="2" fill="none" />
<polyline points="131.5,284.5,139.5,277.0" stroke="black" stroke-width="2" fill="none" />
<polyline points="140.0,268.0,132.5,276.0,124.5,283.5" stroke="black" stroke-width="2" fill="none" />
<polyline points="123.0,285.0,131.5,285.0,139.5,285.5,147.0,285.5,154.5,285.0" stroke="black" stroke-width="2" fill="none" />
<polyline points="139.0,280.5,131.0,281.0,122.5,281.5" stroke="black" stroke-width="2" fill="none" />
<polyline points="123.0,271.5,131.0,271.5,139.5,271.0" stroke="black" stroke-width="2" fill="none" />
<polyline points="139.5,267.0,147.5,285.5,156.0,298.5,164.0,308.5,172.0,317.5,180.0,325.0,188.0,331.0,196.0,337.0,204.0,341.0,212.0,345.0,220.5,348.0,228.0,350.0,236.5,352.0,244.5,353.0,252.5,354.0,260.5,354.0,268.5,354.0,277.0,353.0,285.0,352.0,293.0,350.0,301.0,348.0,309.0,345.0,317.0,340.5,324.5,336.5,332.5,330.5,340.5,324.0,348.5,316.5,356.5,308.5,364.5,297.5,372.5,284.5,380.5,265.5" stroke="black" stroke-width="2" fill="none" />
<polyline points="209.5,266.0,201.5,274.0,193.5,281.5" stroke="black" stroke-width="2" fill="none" />
<polyline points="195.5,278.0,203.5,277.5,212.0,277.0,220.5,276.0" stroke="black" stroke-width="2" fill="none" />
<polyline points="212.5,267.0,204.5,267.5,196.5,268.0" stroke="black" stroke-width="2" fill="none" />
<polyline points="196.0,274.5,204.0,266.5" stroke="black" stroke-width="2" fill="none" />
<polyline points="207.0,268.0,212.5,275.5,219.5,283.5,229.5,291.5" stroke="black" stroke-width="2" fill="none" />
<polyline points="132.0,252.5,123.5,260.0" stroke="black" stroke-width="2" fill="none" />
<polyline points="123.0,258.5,130.5,258.0" stroke="black" stroke-width="2" fill="none" />
<polyline points="129.0,244.0,121.0,251.0,113.5,258.5" stroke="black" stroke-width="2" fill="none" />
<polyline points="115.5,261.0,123.0,260.5,131.0,260.0,139.0,259.5" stroke="black" stroke-width="2" fill="none" />
<polyline points="147.0,269.5,139.0,269.5,131.0,269.5,124.0,270.0,116.0,270.0" stroke="black" stroke-width="2" fill="none" />
<polyline points="117.0,268.5,125.0,290.0,133.5,305.0,141.5,316.5,149.5,326.5,157.5,334.5,165.5,341.5,173.5,349.5,181.0,354.5,188.5,359.5,196.5,363.0,204.5,367.0,213.0,369.5,221.0,371.5,229.0,373.0,237.0,374.0,245.0,375.0,253.0,376.5,261.0,376.5,268.5,376.5,276.5,375.0,285.0,374.5,293.0,372.5,301.5,370.5,310.0,368.5,318.0,365.0,325.5,361.0,333.5,357.0,341.5,352.0,349.0,346.5,357.0,339.5,365.0,332.5,373.5,323.5,381.5,313.5,389.5,302.0,397.5,286.5" stroke="black" stroke-width="2" fill="none" />
<polyline points="298.0,100.0,305.5,92.0" stroke="black" stroke-width="2" fill="none" />
<polyline points="306.5,84.5,299.0,92.0,291.0,99.5" stroke="black" stroke-width="2" fill="none" />
<polyline points="283.5,100.0,291.5,92.0,299.5,84.5" stroke="black" stroke-width="2" fill="none" />
<polyline points="299.0,84.5,291.0,84.5,283.0,85.0,274.5,86.0,266.5,86.0,258.0,87.0,250.5,87.5,242.5,88.5,234.0,89.0,226.0,89.5" stroke="black" stroke-width="2" fill="none" />
<polyline points="228.0,83.5,219.5,91.0,211.5,98.5,203.0,106.5,195.0,114.5" stroke="black" stroke-width="2" fill="none" />
<polyline points="187.5,107.0,195.5,106.0,204.0,105.5,212.5,105.0,220.5,104.5" stroke="black" stroke-width="2" fill="none" />
<polyline points="223.5,105.5,203.5,113.5,190.5,121.5,180.0,129.5,172.5,137.0,164.5,145.5,158.0,153.5,151.5,162.0,147.5,170.0,143.5,178.5,140.5,186.5,138.5,194.5,136.5,202.5,135.5,210.0,135.0,218.0,135.0,226.0,135.5,233.5,135.5,241.0,136.5,248.5,138.0,256.5,140.0,264.5,143.0,273.0,146.0,281.0,150.0,289.5,154.5,297.5,160.5,305.5,166.5,313.0,175.0,320.5,184.0,328.5,195.5,336.0,212.5,344.0" stroke="black" stroke-width="2" fill="none" />
<polyline points="131.5,247.5,123.0,248.0,114.5,248.0" stroke="black" stroke-width="2" fill="none" />
<polyline points="116.5,244.5,124.5,244.5,132.5,244.0,140.5,243.5" stroke="black" stroke-width="2" fill="none" />
<polyline points="131.5,226.0,123.0,233.5,114.5,241.5" stroke="black" stroke-width="2" fill="none" />
<polyline points="115.5,240.5,123.5,240.5,132.0,240.5" stroke="black" stroke-width="2" fill="none" />
<polyline points="140.5,237.0,132.5,237.5,125.0,238.0,116.5,239.0" stroke="black" stroke-width="2" fill="none" />
<polyline points="115.5,229.0,124.0,228.0,132.0,227.5,140.0,227.0" stroke="black" stroke-width="2" fill="none" />
<polyline points="129.0,211.0,121.5,218.5,114.0,226.0" stroke="black" stroke-width="2" fill="none" />
<polyline points="115.5,227.0,124.0,226.0,132.0,225.5" stroke="black" stroke-width="2" fill="none" />
<polyline points="137.5,221.0,129.5,222.0,121.5,222.5,113.5,223.5" stroke="black" stroke-width="2" fill="none" />
<polyline points="117.5,213.0,125.5,212.5,133.5,212.0,141.5,211.5" stroke="black" stroke-width="2" fill="none" />
<polyline points="140.0,192.5,132.0,193.0,124.0,194.0" stroke="black" stroke-width="2" fill="none" />
<polyline points="124.0,187.0,131.5,186.0,139.0,185.0" stroke="black" stroke-width="2" fill="none" />
<polyline points="141.0,190.0,133.0,197.0,125.0,204.5,116.5,211.5" stroke="black" stroke-width="2" fill="none" />
<polyline points="115.0,208.5,123.0,208.0,131.0,207.0" stroke="black" stroke-width="2" fill="none" />
<polyline points="138.0,203.5,130.0,204.0,122.5,204.5,114.5,204.5" stroke="black" stroke-width="2" fill="none" />
<polyline points="113.5,201.5,121.5,193.5,129.5,185.5,137.5,177.5,145.5,170.0" stroke="black" stroke-width="2" fill="none" />
<polyline points="149.0,170.0,140.5,170.5,132.5,170.5" stroke="black" stroke-width="2" fill="none" />
<polyline points="134.0,163.5,142.0,163.0,150.0,162.5" stroke="black" stroke-width="2" fill="none" />
<polyline points="157.0,156.0,149.0,163.0,141.0,170.0,132.5,177.5,124.5,185.0,116.5,192.0" stroke="black" stroke-width="2" fill="none" />
<polyline points="116.0,188.5,124.0,188.0,132.0,188.0,140.5,188.0" stroke="black" stroke-width="2" fill="none" />
<polyline points="139.0,190.5,146.5,169.5,155.0,157.0,163.0,146.0,170.5,137.5,178.5,129.5,186.5,124.0,194.0,118.5,202.0,114.5,210.0,111.0,217.5,108.0,226.0,106.0,234.0,103.5,242.0,102.5,250.0,102.0,258.0,101.0,266.5,102.0,275.0,102.0,283.0,102.5,291.0,104.5,299.5,106.5,307.0,109.5,315.0,112.5,322.5,116.5,330.5,121.5,338.5,127.5,346.0,134.0,354.0,142.0,362.0,152.0,370.0,164.0,378.0,180.0" stroke="black" stroke-width="2" fill="none" />
<polyline points="349.5,98.0,341.0,98.5,332.5,99.5,324.5,100.5,316.0,100.5,307.5,101.0,299.5,102.0,291.5,102.5,284.0,103.0" stroke="black" stroke-width="2" fill="none" />
<polyline points="275.5,100.5,284.0,92.5,292.0,85.0" stroke="black" stroke-width="2" fill="none" />
<polyline points="284.0,84.5,275.5,91.5,267.5,99.0" stroke="black" stroke-width="2" fill="none" />
<polyline points="257.5,99.5,265.5,91.5,274.0,84.0" stroke="black" stroke-width="2" fill="none" />
<polyline points="266.5,83.0,258.5,90.5,250.0,98.0" stroke="black" stroke-width="2" fill="none" />
<polyline points="241.5,100.5,250.0,93.5,257.5,86.0" stroke="black" stroke-width="2" fill="none" />
<polyline points="251.5,83.5,244.0,91.0,236.0,98.5" stroke="black" stroke-width="2" fill="none" />
<polyline points="234.0,84.5,226.0,92.0,217.5,100.0,209.5,107.5" stroke="black" stroke-width="2" fill="none" />
<polyline points="217.5,105.5,225.5,97.5,233.5,89.5,241.5,81.5" stroke="black" stroke-width="2" fill="none" />
<polyline points="242.0,76.0,250.0,75.5,258.0,75.5,266.0,75.5,274.0,75.5" stroke="black" stroke-width="2" fill="none" />
<polyline points="301.5,83.5,322.5,91.5,337.5,99.5,349.5,108.0,359.0,116.0,368.0,124.5,375.0,132.5,381.0,140.5,387.0,149.0,391.5,157.0,395.5,165.0,400.0,173.0,402.0,181.0,405.0,189.0,406.5,197.5,407.5,205.5,408.5,213.5,409.5,221.0,409.5,229.0,409.5,237.0,409.0,245.5,407.5,253.0,405.5,260.5,404.0,268.0,402.0,276.0,399.0,284.0,395.0,292.0,391.0,300.0,386.0,308.0,380.0,316.0,372.5,323.5,365.5,332.0,356.5,340.0,346.5,348.5,334.0,356.5,318.5,364.0" stroke="black" stroke-width="2" fill="none" />
<polyline points="138.5,176.0,130.5,177.0,122.0,177.5" stroke="black" stroke-width="2" fill="none" />
<polyline points="122.5,172.5,131.0,164.5,139.0,157.0,146.5,150.5,154.0,143.0,162.0,135.0,169.5,128.0,177.5,120.0,185.5,112.5,194.0,105.0,202.0,98.0,210.0,90.5" stroke="black" stroke-width="2" fill="none" />
<polyline points="213.0,85.0,221.0,84.5,229.0,84.5,237.0,84.5,244.0,84.0,251.5,83.0,259.5,83.0,267.5,83.0,275.0,82.5,282.5,82.0,290.5,81.0,298.5,80.5,307.0,80.0,315.0,79.5" stroke="black" stroke-width="2" fill="none" />
<polyline points="202.5,91.0,194.5,98.5,186.5,106.0,178.5,113.0,170.0,120.5,161.5,128.0,153.5,136.5,146.0,144.5,138.0,153.0,129.5,161.5,121.5,169.0" stroke="black" stroke-width="2" fill="none" />
<polyline points="121.5,171.5,129.5,171.0,137.0,171.0,145.5,171.0" stroke="black" stroke-width="2" fill="none" />
<polyline points="156.0,157.0,148.0,157.5,140.5,158.0,132.5,158.5" stroke="black" stroke-width="2" fill="none" />
<polyline points="132.5,152.0,140.0,144.5,147.5,137.5,156.0,130.5,164.0,123.5,172.0,116.5,180.0,109.0,188.0,102.0" stroke="black" stroke-width="2" fill="none" />
<polyline points="187.5,94.0,195.5,93.5,203.0,93.0,210.5,93.0,218.0,92.0,225.5,91.5,234.0,91.0,242.5,91.0,251.5,90.0,260.0,89.5,268.0,89.0,275.5,88.0,283.5,87.5,291.5,87.0,299.5,87.0,307.0,86.5,315.5,85.5,324.5,85.5,332.5,85.0" stroke="black" stroke-width="2" fill="none" />
<polyline points="324.0,90.0,316.0,91.0,308.0,92.0,300.0,93.5,291.5,94.5,284.0,95.5,275.5,95.5,267.5,96.0,259.5,96.0,251.0,96.0,242.5,96.5,235.0,97.0,227.0,97.5,219.0,97.5,211.0,97.5,202.5,98.0" stroke="black" stroke-width="2" fill="none" />
<polyline points="178.5,103.5,186.5,103.0,194.0,102.5,202.0,102.0,210.0,101.0,217.5,100.0,225.5,99.0,234.0,98.5" stroke="black" stroke-width="2" fill="none" />
<polyline points="203.5,111.0,195.0,111.5,186.5,112.0,178.0,112.0,170.0,112.0" stroke="black" stroke-width="2" fill="none" />
<polyline points="170.0,110.5,178.0,110.0,186.5,109.0,194.5,108.5,203.0,107.5,211.0,106.5" stroke="black" stroke-width="2" fill="none" />
<polyline points="187.0,118.5,179.0,118.5,171.5,118.5,163.5,119.0" stroke="black" stroke-width="2" fill="none" />
<polyline points="155.0,116.0,163.0,115.0,171.5,114.0,180.0,113.5,188.0,113.0,196.5,113.0" stroke="black" stroke-width="2" fill="none" />
<polyline points="179.5,128.5,171.5,129.0,163.0,129.5,154.5,130.0" stroke="black" stroke-width="2" fill="none" />
<polyline points="148.5,126.0,156.5,125.5,164.0,125.0,171.5,125.0,179.5,124.5,187.5,124.0" stroke="black" stroke-width="2" fill="none" />
<polyline points="171.5,136.5,163.0,137.5,155.0,138.5,146.5,139.5" stroke="black" stroke-width="2" fill="none" />
<polyline points="146.5,135.0,154.5,134.5,163.0,133.5,171.5,132.5" stroke="black" stroke-width="2" fill="none" />
<polyline points="153.5,151.0,146.0,151.5,138.0,152.0" stroke="black" stroke-width="2" fill="none" />
<polyline points="139.0,144.5,146.5,144.0,155.0,144.0,163.0,143.5" stroke="black" stroke-width="2" fill="none" />
<polyline points="164.0,140.5,155.5,140.5,147.5,141.0,139.0,141.5" stroke="black" stroke-width="2" fill="none" />
<polyline points="131.0,148.5,139.0,148.0,147.0,148.0,155.0,148.0,163.0,148.0" stroke="black" stroke-width="2" fill="none" />
<polyline points="146.5,163.0,138.5,164.0,130.5,164.5,122.5,165.0" stroke="black" stroke-width="2" fill="none" />
<polyline points="114.5,180.5,123.0,180.5,131.5,180.5,140.0,180.5" stroke="black" stroke-width="2" fill="none" />
<polyline points="131.0,200.0,123.0,200.0,115.0,200.0" stroke="black" stroke-width="2" fill="none" />
<polyline points="116.0,198.5,124.5,198.0,132.5,197.0,140.5,196.5" stroke="black" stroke-width="2" fill="none" />
<polyline points="117.0,187.0,125.0,165.0,133.0,150.5,140.5,138.5,148.0,129.0,156.0,121.0,164.0,114.0,172.0,107.0,180.0,102.0,187.5,97.0,195.5,93.0,203.5,90.0,212.0,86.5,220.0,83.5,228.0,81.0,236.0,80.0,244.5,79.0,252.0,78.0,260.0,78.5,267.5,78.5,275.5,79.5,283.5,80.5,291.5,82.5,300.0,84.0,307.5,87.0,315.5,90.0,324.0,93.0,332.0,97.5,340.0,102.5,348.0,108.5,356.5,115.0,364.0,121.5,372.5,130.0,380.5,140.0,388.5,150.5,396.5,165.0,404.5,186.5" stroke="black" stroke-width="2" fill="none" />
</svg>